<svg width="587" height="488" viewBox="0 0 587 488" fill="none" xmlns="http://www.w3.org/2000/svg">
<path d="M509 4C549.869 4 583 37.1309 583 78V356.922C583 397.791 549.869 430.922 509 430.922H108.515C97.162 430.922 90.3453 443.526 96.5597 453.027C101.694 460.877 101.242 469.836 96.8659 476.09C92.4126 482.453 84.1817 485.57 75.1688 482.168C53.796 474.102 28.5135 459.918 17.3657 435.671C4.55444 407.805 4.02045 381.042 4.00049 377.928C3.99957 377.78 3.99976 377.629 3.99988 377.496L4 377.361V217.461V78C4 37.1309 37.1309 4 78 4H509Z" fill="#FFFEFE" stroke="#5C5554" stroke-width="8"/>
</svg>
