<?xml version="1.0" encoding="UTF-8"?>
<svg id="Layer_2" data-name="Layer 2" xmlns="http://www.w3.org/2000/svg" viewBox="0 0 173.75 260.46">
  <defs>
    <style>
      .cls-1, .cls-2, .cls-3 {
        stroke-width: 5px;
      }

      .cls-1, .cls-2, .cls-3, .cls-4 {
        stroke: #5c5554;
        stroke-miterlimit: 10;
      }

      .cls-1, .cls-5 {
        fill: #71cde6;
      }

      .cls-2, .cls-6 {
        fill: #fffefe;
      }

      .cls-7 {
        fill: #fcd4db;
      }

      .cls-7, .cls-8, .cls-6, .cls-9, .cls-5 {
        stroke-width: 0px;
      }

      .cls-3, .cls-4 {
        fill: none;
      }

      .cls-8 {
        fill: #5c5554;
      }

      .cls-4 {
        stroke-width: 2px;
      }

      .cls-9 {
        fill: #f4a2ad;
      }
    </style>
  </defs>
  <g id="Boni_Side" data-name="Boni Side">
    <g id="Boni_Head">
      <path class="cls-2" d="M139.99,85.21c6.55-5.99,13.03-14.1,18.57-23.68,14.5-25.11,16.94-50.84,5.47-57.47-11.48-6.63-32.54,8.36-47.03,33.47-7.02,12.16-11.21,24.46-12.36,34.67-11.33-1.44-23.53-.88-35.87,2.01-1.8.42-3.56.9-5.3,1.41,1.39-4.88,2.48-10.12,3.22-15.62,3.83-28.74-3.72-53.46-16.86-55.21-13.14-1.75-26.89,20.13-30.72,48.87-2.37,17.82-.37,34.08,4.62,44.29C7.29,113.62-.87,134.19,3.8,154.11c7.94,33.85,49.89,52.96,93.7,42.68,43.81-10.27,72.89-46.04,64.95-79.89-3.06-13.03-11.16-23.86-22.46-31.68Z"/>
      <ellipse class="cls-8" cx="38.32" cy="140.18" rx="4.5" ry="10"/>
      <ellipse class="cls-8" cx="78.32" cy="140.18" rx="4.5" ry="10"/>
      <circle class="cls-7" cx="101.82" cy="156.18" r="9.5"/>
      <circle class="cls-7" cx="26.82" cy="160.18" r="9.5"/>
    </g>
    <g id="MouthOpenSmile">
      <path class="cls-9" d="M51.32,158.68s1.87-.62,4.75-1,6.75-.5,10.75.5c5.55,1.39,7.17,20-5,20s-10.5-19.5-10.5-19.5Z"/>
      <path class="cls-6" d="M55.97,157.43s-1.31,5.22,5.76,5.28c4.47.03,5.41-4.77,5.41-4.77l-11.17-.51Z"/>
      <path class="cls-4" d="M51.32,158.68s1.87-.62,4.75-1,6.75-.5,10.75.5c5.55,1.39,7.17,20-5,20s-10.5-19.5-10.5-19.5Z"/>
    </g>
    <g id="Lanyard_Boni">
      <path class="cls-1" d="M46.32,196.03l17.87,14.06c.76.59,1.2,1.84,1.11,3.14l-.04.58c-.15,2.25-1.73,3.55-3.02,2.49l-17.84-14.64c-.74-.61-1.17-1.86-1.08-3.15h0c.16-2.21,1.7-3.49,2.99-2.48Z"/>
      <path class="cls-1" d="M137.04,195.78l-57.59,23.14c-2.03.81-4.31-.48-4.69-2.67h0c-.26-1.51.48-3.01,1.83-3.68l56.97-28.17c2.12-1.05,4.66.36,4.95,2.74l.62,5.03c.19,1.55-.67,3.03-2.1,3.61Z"/>
      <rect class="cls-2" x="55.82" y="223.54" width="23.76" height="34.03" rx="5.53" ry="5.53" transform="translate(16.28 -4) rotate(3.84)"/>
      <ellipse class="cls-3" cx="69.11" cy="218.68" rx="3.29" ry="4.5"/>
      <rect class="cls-5" x="60.79" y="230.76" width="14.39" height="14.41" rx="5.53" ry="5.53" transform="translate(16.11 -4.02) rotate(3.84)"/>
    </g>
  </g>
</svg>