<svg width="498" height="152" viewBox="0 0 498 152" fill="none" xmlns="http://www.w3.org/2000/svg">
<g filter="url(#filter0_d_12_165)">
<rect x="8" y="8" width="470" height="124" rx="62" fill="#FFA938"/>
<rect x="4" y="4" width="478" height="132" rx="66" stroke="#5C5554" stroke-width="8"/>
<mask id="path-3-outside-1_12_165" maskUnits="userSpaceOnUse" x="115" y="37" width="258" height="61" fill="black">
<rect fill="white" x="115" y="37" width="258" height="61"/>
<path d="M150.121 63.736C148.798 63.5227 147.603 63.5013 146.537 63.672C145.641 63.8427 144.809 64.2053 144.041 64.76C143.273 65.3147 142.846 66.2747 142.761 67.64C142.718 68.664 142.953 69.56 143.465 70.328C143.934 70.968 144.681 71.5227 145.705 71.992C146.729 72.4187 148.265 72.5253 150.312 72.312C152.233 72.0987 153.961 72.184 155.497 72.568C156.137 72.7387 156.777 72.9733 157.417 73.272C158.099 73.5707 158.697 73.9973 159.209 74.552C159.763 75.064 160.233 75.7253 160.617 76.536C161.043 77.304 161.321 78.2213 161.449 79.288C161.534 80.568 161.427 81.8053 161.129 83C160.873 84.024 160.382 85.112 159.657 86.264C158.974 87.416 157.886 88.3973 156.393 89.208C154.814 90.0613 152.915 90.68 150.697 91.064C148.777 91.4053 146.43 91.5333 143.657 91.448C140.883 91.3627 137.619 90.808 133.865 89.784C131.219 88.9307 128.873 87.5653 126.825 85.688C125.929 84.8773 125.054 83.9387 124.201 82.872C123.39 81.7627 122.665 80.4827 122.025 79.032C121.385 77.5387 120.873 75.8533 120.489 73.976C120.147 72.0987 120.019 70.008 120.105 67.704C120.147 64.376 120.745 61.2613 121.897 58.36C122.409 57.1227 123.049 55.8853 123.817 54.648C124.627 53.368 125.63 52.1733 126.825 51.064C128.062 49.9547 129.491 48.952 131.113 48.056C132.777 47.16 134.718 46.456 136.937 45.944C139.113 45.432 141.374 45.1547 143.721 45.112C145.683 45.0693 147.838 45.2613 150.185 45.688C152.574 46.072 154.878 46.9253 157.097 48.248C158.249 49.0587 159.166 50.04 159.849 51.192C160.147 51.704 160.403 52.28 160.617 52.92C160.83 53.5173 160.958 54.1787 161.001 54.904C161.086 55.6293 161.065 56.4187 160.937 57.272C160.809 58.1253 160.531 59.0427 160.105 60.024C159.635 61.0053 158.974 61.816 158.121 62.456C157.395 63.0107 156.371 63.4587 155.049 63.8C153.769 64.1413 152.126 64.12 150.121 63.736ZM197.373 83.576C196.69 84.8133 195.879 85.9013 194.941 86.84C194.045 87.736 193.17 88.4827 192.317 89.08C191.335 89.8053 190.333 90.3813 189.309 90.808C188.455 91.1493 187.623 91.4053 186.813 91.576C186.045 91.7893 185.362 91.9387 184.765 92.024C184.039 92.152 183.399 92.216 182.845 92.216C180.498 92.216 178.429 91.9813 176.637 91.512C174.887 91.0427 173.351 90.4453 172.029 89.72C170.706 88.952 169.575 88.0773 168.637 87.096C167.741 86.1147 167.015 85.112 166.461 84.088C165.053 81.7413 164.285 79.032 164.157 75.96C164.157 73.4853 164.413 71.352 164.924 69.56C165.479 67.7253 166.183 66.168 167.036 64.888C167.933 63.5653 168.935 62.4773 170.045 61.624C171.197 60.7707 172.349 60.088 173.501 59.576C176.231 58.3813 179.346 57.848 182.845 57.976C184.893 57.976 186.706 58.2107 188.285 58.68C189.863 59.1493 191.229 59.768 192.381 60.536C193.575 61.304 194.557 62.1787 195.325 63.16C196.135 64.0987 196.797 65.08 197.309 66.104C198.503 68.4507 199.186 71.1387 199.357 74.168C199.357 76.1733 199.165 77.944 198.781 79.48C198.439 81.016 197.97 82.3813 197.373 83.576ZM182.461 73.464C181.735 73.464 181.095 73.7413 180.541 74.296C180.029 74.8507 179.815 75.4693 179.901 76.152C179.986 77.048 180.242 77.6667 180.669 78.008C181.138 78.3493 181.735 78.52 182.461 78.52C183.186 78.52 183.783 78.3067 184.253 77.88C184.722 77.4533 184.957 76.8773 184.957 76.152C184.957 75.4693 184.743 74.8507 184.317 74.296C183.89 73.7413 183.271 73.464 182.461 73.464ZM202.809 78.072C202.51 75.64 202.361 73.1013 202.361 70.456C202.361 67.768 202.425 65.272 202.553 62.968C202.681 60.3227 202.873 57.72 203.129 55.16C203.385 52.8133 203.897 50.7013 204.665 48.824C205.006 48.056 205.411 47.288 205.881 46.52C206.393 45.752 206.99 45.0693 207.673 44.472C208.355 43.8747 209.145 43.4053 210.041 43.064C210.979 42.68 212.025 42.488 213.177 42.488C214.798 42.5307 216.313 43.0427 217.721 44.024C218.275 44.4507 218.851 44.984 219.449 45.624C220.046 46.264 220.579 47.0747 221.049 48.056C221.561 49.0373 221.987 50.1893 222.329 51.512C222.713 52.8347 222.969 54.3707 223.097 56.12C223.353 59.5333 223.481 62.7973 223.481 65.912C223.481 69.0267 223.438 71.8 223.353 74.232C223.225 77.0907 223.033 79.7573 222.777 82.232C222.563 84.1093 222.073 85.752 221.305 87.16C220.963 87.7573 220.537 88.3547 220.025 88.952C219.555 89.5493 218.958 90.0827 218.233 90.552C217.55 90.9787 216.739 91.32 215.801 91.576C214.862 91.832 213.795 91.9387 212.601 91.896C211.491 91.8533 210.489 91.6187 209.593 91.192C208.739 90.808 207.971 90.296 207.289 89.656C206.606 89.016 206.03 88.2907 205.561 87.48C205.091 86.6267 204.686 85.7733 204.345 84.92C203.577 82.9147 203.065 80.632 202.809 78.072ZM227.996 78.072C227.697 75.64 227.548 73.1013 227.548 70.456C227.548 67.768 227.612 65.272 227.74 62.968C227.868 60.3227 228.06 57.72 228.316 55.16C228.572 52.8133 229.084 50.7013 229.852 48.824C230.193 48.056 230.599 47.288 231.068 46.52C231.58 45.752 232.177 45.0693 232.86 44.472C233.543 43.8747 234.332 43.4053 235.228 43.064C236.167 42.68 237.212 42.488 238.364 42.488C239.985 42.5307 241.5 43.0427 242.908 44.024C243.463 44.4507 244.039 44.984 244.636 45.624C245.233 46.264 245.767 47.0747 246.236 48.056C246.748 49.0373 247.175 50.1893 247.516 51.512C247.9 52.8347 248.156 54.3707 248.284 56.12C248.54 59.5333 248.668 62.7973 248.668 65.912C248.668 69.0267 248.625 71.8 248.54 74.232C248.412 77.0907 248.22 79.7573 247.964 82.232C247.751 84.1093 247.26 85.752 246.492 87.16C246.151 87.7573 245.724 88.3547 245.212 88.952C244.743 89.5493 244.145 90.0827 243.42 90.552C242.737 90.9787 241.927 91.32 240.988 91.576C240.049 91.832 238.983 91.9387 237.788 91.896C236.679 91.8533 235.676 91.6187 234.78 91.192C233.927 90.808 233.159 90.296 232.476 89.656C231.793 89.016 231.217 88.2907 230.748 87.48C230.279 86.6267 229.873 85.7733 229.532 84.92C228.764 82.9147 228.252 80.632 227.996 78.072ZM273.664 77.752C274.901 78.7333 276.202 79.352 277.568 79.608C278.933 79.8213 280.192 80.0133 281.344 80.184C282.538 80.3547 283.541 80.6747 284.352 81.144C285.205 81.6133 285.738 82.5947 285.951 84.088C285.994 84.9413 285.888 85.7733 285.632 86.584C285.376 87.3093 284.928 88.056 284.288 88.824C283.69 89.5493 282.73 90.168 281.408 90.68C279.53 91.2773 277.504 91.6613 275.328 91.832C273.45 92.0027 271.317 91.96 268.928 91.704C266.538 91.4907 264.042 90.8507 261.44 89.784C259.733 89.016 258.218 87.928 256.896 86.52C256.341 85.9227 255.786 85.24 255.232 84.472C254.72 83.6613 254.25 82.7653 253.824 81.784C253.44 80.76 253.12 79.6293 252.864 78.392C252.65 77.1547 252.586 75.7893 252.672 74.296C252.8 71.992 253.248 69.7947 254.016 67.704C254.357 66.808 254.784 65.912 255.296 65.016C255.808 64.0773 256.426 63.1813 257.152 62.328C257.92 61.4747 258.794 60.6853 259.776 59.96C260.8 59.2347 261.973 58.6373 263.296 58.168C265.472 57.528 267.69 57.1867 269.952 57.144C270.89 57.144 271.893 57.208 272.96 57.336C274.069 57.4213 275.157 57.6347 276.224 57.976C277.333 58.2747 278.442 58.7227 279.552 59.32C280.661 59.9173 281.728 60.664 282.752 61.56C283.434 62.2427 284.032 63.0107 284.544 63.864C285.013 64.632 285.418 65.5707 285.76 66.68C286.101 67.7467 286.293 69.0267 286.336 70.52C286.336 72.184 285.952 73.5493 285.184 74.616C284.458 75.6827 283.477 76.4933 282.24 77.048C281.045 77.6027 279.68 77.944 278.144 78.072C276.65 78.1573 275.157 78.0507 273.664 77.752ZM272 69.624C271.274 69.624 270.634 69.9013 270.08 70.456C269.568 71.0107 269.354 71.6293 269.44 72.312C269.525 73.208 269.781 73.8267 270.208 74.168C270.677 74.5093 271.274 74.68 272 74.68C272.725 74.68 273.322 74.4667 273.792 74.04C274.261 73.6133 274.496 73.0373 274.496 72.312C274.496 71.6293 274.282 71.0107 273.856 70.456C273.429 69.9013 272.81 69.624 272 69.624ZM312.701 72.76C311.848 72.504 311.101 72.3973 310.461 72.44C309.864 72.4827 309.33 72.6533 308.861 72.952C308.434 73.2507 308.221 73.8053 308.221 74.616C308.264 75.2133 308.456 75.6827 308.797 76.024C309.096 76.3227 309.544 76.536 310.141 76.664C310.738 76.7493 311.613 76.5573 312.765 76.088C314.002 75.6187 315.218 75.384 316.413 75.384C317.437 75.4267 318.525 75.704 319.677 76.216C320.829 76.728 321.874 77.7307 322.813 79.224C323.325 80.3333 323.581 81.4427 323.581 82.552C323.581 83.5333 323.325 84.6213 322.813 85.816C322.301 87.0107 321.234 88.184 319.613 89.336C317.906 90.488 315.986 91.32 313.853 91.832C312.018 92.3013 309.821 92.472 307.261 92.344C304.701 92.2587 301.864 91.512 298.749 90.104C297.213 89.336 295.848 88.248 294.653 86.84C293.629 85.6453 292.69 84.0667 291.837 82.104C290.984 80.0987 290.557 77.624 290.557 74.68C290.6 72.2053 291.026 69.88 291.837 67.704C292.178 66.7653 292.626 65.8267 293.181 64.888C293.736 63.9493 294.418 63.0533 295.229 62.2C296.04 61.304 297 60.5147 298.109 59.832C299.261 59.1067 300.584 58.5093 302.077 58.04C304.168 57.4427 306.301 57.1227 308.477 57.08C310.312 57.0373 312.296 57.2933 314.429 57.848C316.605 58.4027 318.632 59.5333 320.509 61.24C321.064 61.7947 321.512 62.456 321.853 63.224C322.152 63.9067 322.344 64.7387 322.429 65.72C322.557 66.7013 322.386 67.8107 321.917 69.048C321.49 69.9867 320.872 70.776 320.061 71.416C319.336 71.9707 318.376 72.4187 317.181 72.76C316.029 73.1013 314.536 73.1013 312.701 72.76ZM336.913 53.688C336.614 51.5973 336.7 49.72 337.169 48.056C337.382 47.3733 337.681 46.6907 338.065 46.008C338.449 45.3253 338.982 44.728 339.665 44.216C340.348 43.704 341.18 43.2987 342.161 43C343.142 42.6587 344.316 42.488 345.681 42.488C347.004 42.488 348.156 42.6587 349.137 43C350.118 43.2987 350.929 43.7253 351.569 44.28C352.252 44.8347 352.806 45.4533 353.233 46.136C353.66 46.8187 354.001 47.5013 354.257 48.184C354.812 49.848 355.025 51.7253 354.897 53.816C357.158 53.688 359.185 53.88 360.977 54.392C361.745 54.6053 362.492 54.9253 363.217 55.352C363.942 55.736 364.582 56.248 365.137 56.888C365.734 57.4853 366.204 58.232 366.545 59.128C366.886 60.024 367.057 61.0907 367.057 62.328C367.057 63.48 366.886 64.4827 366.545 65.336C366.246 66.1467 365.82 66.8507 365.265 67.448C364.71 68.0453 364.092 68.536 363.409 68.92C362.726 69.304 362.044 69.6027 361.361 69.816C359.654 70.328 357.756 70.5413 355.665 70.456C356.092 74.4667 356.092 78.0293 355.665 81.144C355.494 82.4667 355.217 83.768 354.833 85.048C354.492 86.328 354.001 87.4587 353.361 88.44C352.721 89.4213 351.91 90.232 350.929 90.872C349.948 91.4693 348.774 91.768 347.409 91.768C344.678 91.768 342.609 91.192 341.201 90.04C339.836 88.8453 338.876 87.2453 338.321 85.24C337.809 83.2347 337.596 80.9307 337.681 78.328C337.766 75.7253 337.916 72.9733 338.129 70.072C335.697 70.4133 333.542 70.392 331.665 70.008C330.854 69.8373 330.065 69.5813 329.297 69.24C328.529 68.8987 327.846 68.4293 327.249 67.832C326.652 67.2347 326.161 66.488 325.777 65.592C325.436 64.696 325.265 63.608 325.265 62.328C325.265 60.536 325.649 59.0853 326.417 57.976C327.228 56.8667 328.23 55.992 329.425 55.352C330.62 54.712 331.878 54.2853 333.201 54.072C334.566 53.816 335.804 53.688 336.913 53.688Z"/>
</mask>
<path d="M150.121 63.736C148.798 63.5227 147.603 63.5013 146.537 63.672C145.641 63.8427 144.809 64.2053 144.041 64.76C143.273 65.3147 142.846 66.2747 142.761 67.64C142.718 68.664 142.953 69.56 143.465 70.328C143.934 70.968 144.681 71.5227 145.705 71.992C146.729 72.4187 148.265 72.5253 150.312 72.312C152.233 72.0987 153.961 72.184 155.497 72.568C156.137 72.7387 156.777 72.9733 157.417 73.272C158.099 73.5707 158.697 73.9973 159.209 74.552C159.763 75.064 160.233 75.7253 160.617 76.536C161.043 77.304 161.321 78.2213 161.449 79.288C161.534 80.568 161.427 81.8053 161.129 83C160.873 84.024 160.382 85.112 159.657 86.264C158.974 87.416 157.886 88.3973 156.393 89.208C154.814 90.0613 152.915 90.68 150.697 91.064C148.777 91.4053 146.43 91.5333 143.657 91.448C140.883 91.3627 137.619 90.808 133.865 89.784C131.219 88.9307 128.873 87.5653 126.825 85.688C125.929 84.8773 125.054 83.9387 124.201 82.872C123.39 81.7627 122.665 80.4827 122.025 79.032C121.385 77.5387 120.873 75.8533 120.489 73.976C120.147 72.0987 120.019 70.008 120.105 67.704C120.147 64.376 120.745 61.2613 121.897 58.36C122.409 57.1227 123.049 55.8853 123.817 54.648C124.627 53.368 125.63 52.1733 126.825 51.064C128.062 49.9547 129.491 48.952 131.113 48.056C132.777 47.16 134.718 46.456 136.937 45.944C139.113 45.432 141.374 45.1547 143.721 45.112C145.683 45.0693 147.838 45.2613 150.185 45.688C152.574 46.072 154.878 46.9253 157.097 48.248C158.249 49.0587 159.166 50.04 159.849 51.192C160.147 51.704 160.403 52.28 160.617 52.92C160.83 53.5173 160.958 54.1787 161.001 54.904C161.086 55.6293 161.065 56.4187 160.937 57.272C160.809 58.1253 160.531 59.0427 160.105 60.024C159.635 61.0053 158.974 61.816 158.121 62.456C157.395 63.0107 156.371 63.4587 155.049 63.8C153.769 64.1413 152.126 64.12 150.121 63.736ZM197.373 83.576C196.69 84.8133 195.879 85.9013 194.941 86.84C194.045 87.736 193.17 88.4827 192.317 89.08C191.335 89.8053 190.333 90.3813 189.309 90.808C188.455 91.1493 187.623 91.4053 186.813 91.576C186.045 91.7893 185.362 91.9387 184.765 92.024C184.039 92.152 183.399 92.216 182.845 92.216C180.498 92.216 178.429 91.9813 176.637 91.512C174.887 91.0427 173.351 90.4453 172.029 89.72C170.706 88.952 169.575 88.0773 168.637 87.096C167.741 86.1147 167.015 85.112 166.461 84.088C165.053 81.7413 164.285 79.032 164.157 75.96C164.157 73.4853 164.413 71.352 164.924 69.56C165.479 67.7253 166.183 66.168 167.036 64.888C167.933 63.5653 168.935 62.4773 170.045 61.624C171.197 60.7707 172.349 60.088 173.501 59.576C176.231 58.3813 179.346 57.848 182.845 57.976C184.893 57.976 186.706 58.2107 188.285 58.68C189.863 59.1493 191.229 59.768 192.381 60.536C193.575 61.304 194.557 62.1787 195.325 63.16C196.135 64.0987 196.797 65.08 197.309 66.104C198.503 68.4507 199.186 71.1387 199.357 74.168C199.357 76.1733 199.165 77.944 198.781 79.48C198.439 81.016 197.97 82.3813 197.373 83.576ZM182.461 73.464C181.735 73.464 181.095 73.7413 180.541 74.296C180.029 74.8507 179.815 75.4693 179.901 76.152C179.986 77.048 180.242 77.6667 180.669 78.008C181.138 78.3493 181.735 78.52 182.461 78.52C183.186 78.52 183.783 78.3067 184.253 77.88C184.722 77.4533 184.957 76.8773 184.957 76.152C184.957 75.4693 184.743 74.8507 184.317 74.296C183.89 73.7413 183.271 73.464 182.461 73.464ZM202.809 78.072C202.51 75.64 202.361 73.1013 202.361 70.456C202.361 67.768 202.425 65.272 202.553 62.968C202.681 60.3227 202.873 57.72 203.129 55.16C203.385 52.8133 203.897 50.7013 204.665 48.824C205.006 48.056 205.411 47.288 205.881 46.52C206.393 45.752 206.99 45.0693 207.673 44.472C208.355 43.8747 209.145 43.4053 210.041 43.064C210.979 42.68 212.025 42.488 213.177 42.488C214.798 42.5307 216.313 43.0427 217.721 44.024C218.275 44.4507 218.851 44.984 219.449 45.624C220.046 46.264 220.579 47.0747 221.049 48.056C221.561 49.0373 221.987 50.1893 222.329 51.512C222.713 52.8347 222.969 54.3707 223.097 56.12C223.353 59.5333 223.481 62.7973 223.481 65.912C223.481 69.0267 223.438 71.8 223.353 74.232C223.225 77.0907 223.033 79.7573 222.777 82.232C222.563 84.1093 222.073 85.752 221.305 87.16C220.963 87.7573 220.537 88.3547 220.025 88.952C219.555 89.5493 218.958 90.0827 218.233 90.552C217.55 90.9787 216.739 91.32 215.801 91.576C214.862 91.832 213.795 91.9387 212.601 91.896C211.491 91.8533 210.489 91.6187 209.593 91.192C208.739 90.808 207.971 90.296 207.289 89.656C206.606 89.016 206.03 88.2907 205.561 87.48C205.091 86.6267 204.686 85.7733 204.345 84.92C203.577 82.9147 203.065 80.632 202.809 78.072ZM227.996 78.072C227.697 75.64 227.548 73.1013 227.548 70.456C227.548 67.768 227.612 65.272 227.74 62.968C227.868 60.3227 228.06 57.72 228.316 55.16C228.572 52.8133 229.084 50.7013 229.852 48.824C230.193 48.056 230.599 47.288 231.068 46.52C231.58 45.752 232.177 45.0693 232.86 44.472C233.543 43.8747 234.332 43.4053 235.228 43.064C236.167 42.68 237.212 42.488 238.364 42.488C239.985 42.5307 241.5 43.0427 242.908 44.024C243.463 44.4507 244.039 44.984 244.636 45.624C245.233 46.264 245.767 47.0747 246.236 48.056C246.748 49.0373 247.175 50.1893 247.516 51.512C247.9 52.8347 248.156 54.3707 248.284 56.12C248.54 59.5333 248.668 62.7973 248.668 65.912C248.668 69.0267 248.625 71.8 248.54 74.232C248.412 77.0907 248.22 79.7573 247.964 82.232C247.751 84.1093 247.26 85.752 246.492 87.16C246.151 87.7573 245.724 88.3547 245.212 88.952C244.743 89.5493 244.145 90.0827 243.42 90.552C242.737 90.9787 241.927 91.32 240.988 91.576C240.049 91.832 238.983 91.9387 237.788 91.896C236.679 91.8533 235.676 91.6187 234.78 91.192C233.927 90.808 233.159 90.296 232.476 89.656C231.793 89.016 231.217 88.2907 230.748 87.48C230.279 86.6267 229.873 85.7733 229.532 84.92C228.764 82.9147 228.252 80.632 227.996 78.072ZM273.664 77.752C274.901 78.7333 276.202 79.352 277.568 79.608C278.933 79.8213 280.192 80.0133 281.344 80.184C282.538 80.3547 283.541 80.6747 284.352 81.144C285.205 81.6133 285.738 82.5947 285.951 84.088C285.994 84.9413 285.888 85.7733 285.632 86.584C285.376 87.3093 284.928 88.056 284.288 88.824C283.69 89.5493 282.73 90.168 281.408 90.68C279.53 91.2773 277.504 91.6613 275.328 91.832C273.45 92.0027 271.317 91.96 268.928 91.704C266.538 91.4907 264.042 90.8507 261.44 89.784C259.733 89.016 258.218 87.928 256.896 86.52C256.341 85.9227 255.786 85.24 255.232 84.472C254.72 83.6613 254.25 82.7653 253.824 81.784C253.44 80.76 253.12 79.6293 252.864 78.392C252.65 77.1547 252.586 75.7893 252.672 74.296C252.8 71.992 253.248 69.7947 254.016 67.704C254.357 66.808 254.784 65.912 255.296 65.016C255.808 64.0773 256.426 63.1813 257.152 62.328C257.92 61.4747 258.794 60.6853 259.776 59.96C260.8 59.2347 261.973 58.6373 263.296 58.168C265.472 57.528 267.69 57.1867 269.952 57.144C270.89 57.144 271.893 57.208 272.96 57.336C274.069 57.4213 275.157 57.6347 276.224 57.976C277.333 58.2747 278.442 58.7227 279.552 59.32C280.661 59.9173 281.728 60.664 282.752 61.56C283.434 62.2427 284.032 63.0107 284.544 63.864C285.013 64.632 285.418 65.5707 285.76 66.68C286.101 67.7467 286.293 69.0267 286.336 70.52C286.336 72.184 285.952 73.5493 285.184 74.616C284.458 75.6827 283.477 76.4933 282.24 77.048C281.045 77.6027 279.68 77.944 278.144 78.072C276.65 78.1573 275.157 78.0507 273.664 77.752ZM272 69.624C271.274 69.624 270.634 69.9013 270.08 70.456C269.568 71.0107 269.354 71.6293 269.44 72.312C269.525 73.208 269.781 73.8267 270.208 74.168C270.677 74.5093 271.274 74.68 272 74.68C272.725 74.68 273.322 74.4667 273.792 74.04C274.261 73.6133 274.496 73.0373 274.496 72.312C274.496 71.6293 274.282 71.0107 273.856 70.456C273.429 69.9013 272.81 69.624 272 69.624ZM312.701 72.76C311.848 72.504 311.101 72.3973 310.461 72.44C309.864 72.4827 309.33 72.6533 308.861 72.952C308.434 73.2507 308.221 73.8053 308.221 74.616C308.264 75.2133 308.456 75.6827 308.797 76.024C309.096 76.3227 309.544 76.536 310.141 76.664C310.738 76.7493 311.613 76.5573 312.765 76.088C314.002 75.6187 315.218 75.384 316.413 75.384C317.437 75.4267 318.525 75.704 319.677 76.216C320.829 76.728 321.874 77.7307 322.813 79.224C323.325 80.3333 323.581 81.4427 323.581 82.552C323.581 83.5333 323.325 84.6213 322.813 85.816C322.301 87.0107 321.234 88.184 319.613 89.336C317.906 90.488 315.986 91.32 313.853 91.832C312.018 92.3013 309.821 92.472 307.261 92.344C304.701 92.2587 301.864 91.512 298.749 90.104C297.213 89.336 295.848 88.248 294.653 86.84C293.629 85.6453 292.69 84.0667 291.837 82.104C290.984 80.0987 290.557 77.624 290.557 74.68C290.6 72.2053 291.026 69.88 291.837 67.704C292.178 66.7653 292.626 65.8267 293.181 64.888C293.736 63.9493 294.418 63.0533 295.229 62.2C296.04 61.304 297 60.5147 298.109 59.832C299.261 59.1067 300.584 58.5093 302.077 58.04C304.168 57.4427 306.301 57.1227 308.477 57.08C310.312 57.0373 312.296 57.2933 314.429 57.848C316.605 58.4027 318.632 59.5333 320.509 61.24C321.064 61.7947 321.512 62.456 321.853 63.224C322.152 63.9067 322.344 64.7387 322.429 65.72C322.557 66.7013 322.386 67.8107 321.917 69.048C321.49 69.9867 320.872 70.776 320.061 71.416C319.336 71.9707 318.376 72.4187 317.181 72.76C316.029 73.1013 314.536 73.1013 312.701 72.76ZM336.913 53.688C336.614 51.5973 336.7 49.72 337.169 48.056C337.382 47.3733 337.681 46.6907 338.065 46.008C338.449 45.3253 338.982 44.728 339.665 44.216C340.348 43.704 341.18 43.2987 342.161 43C343.142 42.6587 344.316 42.488 345.681 42.488C347.004 42.488 348.156 42.6587 349.137 43C350.118 43.2987 350.929 43.7253 351.569 44.28C352.252 44.8347 352.806 45.4533 353.233 46.136C353.66 46.8187 354.001 47.5013 354.257 48.184C354.812 49.848 355.025 51.7253 354.897 53.816C357.158 53.688 359.185 53.88 360.977 54.392C361.745 54.6053 362.492 54.9253 363.217 55.352C363.942 55.736 364.582 56.248 365.137 56.888C365.734 57.4853 366.204 58.232 366.545 59.128C366.886 60.024 367.057 61.0907 367.057 62.328C367.057 63.48 366.886 64.4827 366.545 65.336C366.246 66.1467 365.82 66.8507 365.265 67.448C364.71 68.0453 364.092 68.536 363.409 68.92C362.726 69.304 362.044 69.6027 361.361 69.816C359.654 70.328 357.756 70.5413 355.665 70.456C356.092 74.4667 356.092 78.0293 355.665 81.144C355.494 82.4667 355.217 83.768 354.833 85.048C354.492 86.328 354.001 87.4587 353.361 88.44C352.721 89.4213 351.91 90.232 350.929 90.872C349.948 91.4693 348.774 91.768 347.409 91.768C344.678 91.768 342.609 91.192 341.201 90.04C339.836 88.8453 338.876 87.2453 338.321 85.24C337.809 83.2347 337.596 80.9307 337.681 78.328C337.766 75.7253 337.916 72.9733 338.129 70.072C335.697 70.4133 333.542 70.392 331.665 70.008C330.854 69.8373 330.065 69.5813 329.297 69.24C328.529 68.8987 327.846 68.4293 327.249 67.832C326.652 67.2347 326.161 66.488 325.777 65.592C325.436 64.696 325.265 63.608 325.265 62.328C325.265 60.536 325.649 59.0853 326.417 57.976C327.228 56.8667 328.23 55.992 329.425 55.352C330.62 54.712 331.878 54.2853 333.201 54.072C334.566 53.816 335.804 53.688 336.913 53.688Z" fill="#FFFEFE"/>
<path d="M150.12 63.736L151.061 58.8252L150.989 58.8115L150.917 58.7998L150.12 63.736ZM146.537 63.672L145.747 58.7348L145.674 58.7465L145.601 58.7603L146.537 63.672ZM144.041 64.76L141.113 60.7066L141.113 60.7066L144.041 64.76ZM142.761 67.64L137.77 67.3281L137.767 67.3799L137.765 67.4318L142.761 67.64ZM143.465 70.328L139.304 73.1015L139.366 73.1946L139.432 73.2848L143.465 70.328ZM145.705 71.992L143.621 76.5373L143.701 76.5738L143.781 76.6074L145.705 71.992ZM150.312 72.312L150.831 77.2851L150.848 77.2833L150.865 77.2814L150.312 72.312ZM155.497 72.568L156.785 67.7368L156.747 67.7268L156.709 67.7173L155.497 72.568ZM157.417 73.272L155.302 77.8029L155.357 77.8285L155.412 77.8528L157.417 73.272ZM159.209 74.552L155.534 77.9434L155.67 78.0904L155.817 78.226L159.209 74.552ZM160.617 76.536L156.098 78.6764L156.167 78.8227L156.246 78.9642L160.617 76.536ZM161.449 79.288L166.437 78.9554L166.429 78.8235L166.413 78.6923L161.449 79.288ZM161.129 83L156.278 81.7873V81.7873L161.129 83ZM159.657 86.264L155.425 83.5999L155.389 83.657L155.355 83.715L159.657 86.264ZM156.393 89.208L158.77 93.6065L158.778 93.6023L156.393 89.208ZM150.697 91.064L149.844 86.1372L149.833 86.1392L149.821 86.1412L150.697 91.064ZM143.657 91.448L143.81 86.4504L143.657 91.448ZM133.865 89.784L132.329 94.5425L132.438 94.5777L132.549 94.6078L133.865 89.784ZM126.825 85.688L130.203 82.0022L130.191 81.9912L130.179 81.9803L126.825 85.688ZM124.201 82.872L120.164 85.8221L120.228 85.9102L120.296 85.9955L124.201 82.872ZM122.024 79.032L117.429 81.0016L117.439 81.026L117.45 81.0502L122.024 79.032ZM120.489 73.976L115.569 74.8704L115.579 74.9243L115.59 74.978L120.489 73.976ZM120.105 67.704L125.101 67.8891L125.103 67.8286L125.104 67.7681L120.105 67.704ZM121.897 58.36L117.276 56.4482L117.263 56.4814L117.249 56.5148L121.897 58.36ZM123.817 54.648L119.592 51.9727L119.58 51.9919L119.568 52.0112L123.817 54.648ZM126.825 51.064L123.487 47.3412L123.454 47.3703L123.422 47.4L126.825 51.064ZM131.113 48.056L128.742 43.6536L128.718 43.6666L128.694 43.6798L131.113 48.056ZM136.937 45.944L138.061 50.816L138.071 50.8135L138.082 50.8111L136.937 45.944ZM143.721 45.112L143.811 50.1112L143.82 50.111L143.829 50.1108L143.721 45.112ZM150.185 45.688L149.29 50.6073L149.341 50.6165L149.391 50.6247L150.185 45.688ZM157.097 48.248L159.974 44.159L159.819 44.0501L159.657 43.9533L157.097 48.248ZM159.849 51.192L164.167 48.6727L164.159 48.6578L164.15 48.643L159.849 51.192ZM160.617 52.92L155.873 54.5011L155.89 54.5516L155.908 54.6017L160.617 52.92ZM161.001 54.904L156.009 55.1976L156.018 55.3433L156.035 55.4882L161.001 54.904ZM160.937 57.272L155.992 56.5303V56.5303L160.937 57.272ZM160.105 60.024L164.615 62.1813L164.654 62.1001L164.69 62.0176L160.105 60.024ZM158.121 62.456L155.12 58.456L155.102 58.47L155.083 58.4842L158.121 62.456ZM155.049 63.8L153.799 58.9586L153.78 58.9636L153.76 58.9688L155.049 63.8ZM150.917 58.7998C149.19 58.5212 147.447 58.4627 145.747 58.7348L147.326 68.6092C147.759 68.54 148.406 68.5241 149.324 68.6722L150.917 58.7998ZM145.601 58.7603C143.958 59.0732 142.451 59.7405 141.113 60.7066L146.968 68.8134C147.166 68.6701 147.323 68.6121 147.472 68.5837L145.601 58.7603ZM141.113 60.7066C138.667 62.4729 137.906 65.1564 137.77 67.3281L147.751 67.9519C147.767 67.6927 147.802 67.7269 147.714 67.9267C147.608 68.1639 147.376 68.5185 146.968 68.8134L141.113 60.7066ZM137.765 67.4318C137.683 69.3907 138.141 71.3563 139.304 73.1015L147.625 67.5545C147.677 67.6334 147.719 67.7268 147.741 67.8132C147.763 67.8944 147.753 67.9157 147.756 67.8482L137.765 67.4318ZM139.432 73.2848C140.573 74.8398 142.129 75.8534 143.621 76.5373L147.788 67.4467C147.529 67.3281 147.4 67.2414 147.358 67.2103C147.319 67.1809 147.39 67.2261 147.497 67.3712L139.432 73.2848ZM143.781 76.6074C145.987 77.5265 148.55 77.5226 150.831 77.2851L149.794 67.3389C148.968 67.425 148.373 67.432 147.971 67.404C147.551 67.3748 147.485 67.3172 147.628 67.3766L143.781 76.6074ZM150.865 77.2814C152.32 77.1197 153.436 77.2067 154.284 77.4187L156.709 67.7173C154.485 67.1613 152.145 67.0776 149.76 67.3426L150.865 77.2814ZM154.208 77.3992C154.547 77.4894 154.911 77.6203 155.302 77.8029L159.531 68.7411C158.642 68.3264 157.726 67.9879 156.785 67.7368L154.208 77.3992ZM155.412 77.8528C155.454 77.8709 155.485 77.8895 155.534 77.9434L162.883 71.1606C161.908 70.1052 160.745 69.2704 159.421 68.6912L155.412 77.8528ZM155.817 78.226C155.822 78.2302 155.937 78.3376 156.098 78.6764L165.135 74.3956C164.528 73.113 163.705 71.8978 162.6 70.878L155.817 78.226ZM156.246 78.9642C156.296 79.0546 156.417 79.3212 156.484 79.8837L166.413 78.6923C166.224 77.1214 165.79 75.5534 164.987 74.1078L156.246 78.9642ZM156.46 79.6206C156.512 80.4033 156.445 81.1182 156.278 81.7873L165.979 84.2127C166.409 82.4924 166.556 80.7327 166.437 78.9554L156.46 79.6206ZM156.278 81.7873C156.181 82.1737 155.946 82.7731 155.425 83.5999L163.888 88.9281C164.818 87.4509 165.564 85.8743 165.979 84.2127L156.278 81.7873ZM155.355 83.715C155.241 83.9072 154.917 84.3196 154.007 84.8137L158.778 93.6023C160.854 92.4751 162.707 90.9248 163.958 88.813L155.355 83.715ZM154.015 84.8095C153.016 85.3493 151.659 85.8231 149.844 86.1372L151.549 95.9908C154.172 95.5369 156.612 94.7733 158.77 93.6065L154.015 84.8095ZM149.821 86.1412C148.35 86.4028 146.371 86.5292 143.81 86.4504L143.503 96.4456C146.489 96.5375 149.203 96.4079 151.572 95.9868L149.821 86.1412ZM143.81 86.4504C141.552 86.3809 138.695 85.9187 135.18 84.9602L132.549 94.6078C136.544 95.6973 140.215 96.3445 143.503 96.4456L143.81 86.4504ZM135.4 85.0255C133.438 84.3928 131.721 83.3933 130.203 82.0022L123.446 89.3738C126.024 91.7374 129 93.4685 132.329 94.5425L135.4 85.0255ZM130.179 81.9803C129.505 81.3708 128.812 80.6326 128.105 79.7485L120.296 85.9955C121.296 87.2448 122.352 88.3839 123.47 89.3957L130.179 81.9803ZM128.237 79.9219C127.669 79.1434 127.116 78.1846 126.599 77.0138L117.45 81.0502C118.213 82.7808 119.111 84.382 120.164 85.8221L128.237 79.9219ZM126.62 77.0624C126.135 75.9301 125.715 74.5767 125.387 72.974L115.59 74.978C116.03 77.1299 116.634 79.1473 117.429 81.0016L126.62 77.0624ZM125.408 73.0816C125.143 71.6248 125.026 69.9036 125.101 67.8891L115.108 67.5189C115.012 70.1124 115.151 72.5726 115.569 74.8704L125.408 73.0816ZM125.104 67.7681C125.139 65.0096 125.631 62.5026 126.544 60.2052L117.249 56.5148C115.858 60.02 115.155 63.7424 115.105 67.6399L125.104 67.7681ZM126.517 60.2718C126.916 59.3066 127.428 58.3109 128.065 57.2848L119.568 52.0112C118.669 53.4598 117.901 54.9388 117.276 56.4482L126.517 60.2718ZM128.041 57.3233C128.604 56.4333 129.324 55.5666 130.227 54.728L123.422 47.4C121.936 48.7801 120.65 50.3027 119.592 51.9727L128.041 57.3233ZM130.162 54.7868C131.089 53.9561 132.203 53.1663 133.531 52.4322L128.694 43.6798C126.78 44.7377 125.035 45.9532 123.487 47.3412L130.162 54.7868ZM133.483 52.4584C134.684 51.8117 136.191 51.2474 138.061 50.816L135.812 41.072C133.245 41.6646 130.869 42.5083 128.742 43.6536L133.483 52.4584ZM138.082 50.8111C139.895 50.3844 141.802 50.1477 143.811 50.1112L143.63 40.1128C140.945 40.1616 138.33 40.4796 135.791 41.0769L138.082 50.8111ZM143.829 50.1108C145.393 50.0768 147.206 50.2285 149.29 50.6073L151.079 40.7687C148.469 40.2942 145.973 40.0618 143.612 40.1132L143.829 50.1108ZM149.391 50.6247C151.115 50.9017 152.824 51.5218 154.536 52.5427L159.657 43.9533C156.932 42.3289 154.033 41.2423 150.978 40.7513L149.391 50.6247ZM154.219 52.337C154.823 52.7624 155.243 53.2287 155.547 53.741L164.15 48.643C163.088 46.8513 161.674 45.3549 159.974 44.159L154.219 52.337ZM155.53 53.7113C155.633 53.8886 155.754 54.1438 155.873 54.5011L165.36 51.3389C165.052 50.4162 164.661 49.5194 164.167 48.6727L155.53 53.7113ZM155.908 54.6017C155.94 54.6926 155.99 54.8786 156.009 55.1976L165.992 54.6104C165.925 53.4787 165.719 52.342 165.325 51.2383L155.908 54.6017ZM156.035 55.4882C156.06 55.7013 156.066 56.0389 155.992 56.5303L165.881 58.0137C166.063 56.7984 166.112 55.5573 165.966 54.3198L156.035 55.4882ZM155.992 56.5303C155.942 56.8638 155.812 57.3574 155.519 58.0304L164.69 62.0176C165.251 60.7279 165.675 59.3868 165.881 58.0137L155.992 56.5303ZM155.594 57.8667C155.465 58.136 155.316 58.3094 155.12 58.456L161.121 66.456C162.632 65.3226 163.805 63.8746 164.615 62.1813L155.594 57.8667ZM155.083 58.4842C155.101 58.4707 155.027 58.5296 154.804 58.6272C154.583 58.724 154.257 58.8405 153.799 58.9586L156.298 68.6414C157.977 68.208 159.705 67.539 161.158 66.4278L155.083 58.4842ZM153.76 58.9688C153.495 59.0395 152.688 59.1369 151.061 58.8252L149.18 68.6468C151.563 69.1031 154.042 69.2431 156.337 68.6312L153.76 58.9688ZM197.372 83.576L201.75 85.9914L201.799 85.9027L201.845 85.8121L197.372 83.576ZM194.941 86.84L191.405 83.3045L194.941 86.84ZM192.316 89.08L189.449 84.9838L189.396 85.0208L189.345 85.0591L192.316 89.08ZM189.309 90.808L191.165 95.4504L191.199 95.4371L191.232 95.4234L189.309 90.808ZM186.812 91.576L185.782 86.6833L185.627 86.7159L185.474 86.7584L186.812 91.576ZM184.765 92.024L184.057 87.0743L183.976 87.0858L183.896 87.1001L184.765 92.024ZM176.637 91.512L175.341 96.3412L175.355 96.3451L175.37 96.3489L176.637 91.512ZM172.028 89.72L169.518 94.0439L169.571 94.0747L169.624 94.1041L172.028 89.72ZM168.637 87.096L164.944 90.4673L164.983 90.5102L165.023 90.5521L168.637 87.096ZM166.46 84.088L170.857 81.7066L170.805 81.6099L170.748 81.5155L166.46 84.088ZM164.157 75.96H159.157V76.0641L159.161 76.1682L164.157 75.96ZM164.924 69.56L160.138 68.1131L160.127 68.1496L160.117 68.1864L164.924 69.56ZM167.036 64.888L162.897 62.0838L162.887 62.0991L162.876 62.1145L167.036 64.888ZM170.045 61.624L167.068 57.6062L167.032 57.6332L166.996 57.6609L170.045 61.624ZM173.5 59.576L171.496 54.9952L171.483 55.001L171.47 55.0069L173.5 59.576ZM182.844 57.976L182.662 62.9727L182.753 62.976H182.844V57.976ZM188.285 58.68L186.86 63.4727V63.4727L188.285 58.68ZM192.381 60.536L189.607 64.6963L189.642 64.7194L189.677 64.7419L192.381 60.536ZM195.325 63.16L191.387 66.2415L191.461 66.3367L191.54 66.4281L195.325 63.16ZM197.309 66.104L192.836 68.3401L192.844 68.3563L192.853 68.3724L197.309 66.104ZM199.357 74.168H204.357V74.0273L204.349 73.8868L199.357 74.168ZM198.781 79.48L193.93 78.2673L193.914 78.3311L193.9 78.3953L198.781 79.48ZM180.541 74.296L177.005 70.7605L176.934 70.8312L176.866 70.9046L180.541 74.296ZM179.901 76.152L184.878 75.678L184.871 75.6048L184.862 75.5318L179.901 76.152ZM180.669 78.008L177.545 81.9123L177.635 81.9841L177.728 82.0517L180.669 78.008ZM184.253 77.88L180.889 74.1803H180.889L184.253 77.88ZM184.316 74.296L188.28 71.2474L188.28 71.2474L184.316 74.296ZM192.995 81.1606C192.524 82.0134 191.991 82.7185 191.405 83.3045L198.476 90.3755C199.767 89.0841 200.856 87.6133 201.75 85.9914L192.995 81.1606ZM191.405 83.3045C190.673 84.0369 190.019 84.5848 189.449 84.9838L195.184 93.1762C196.32 92.3806 197.416 91.4351 198.476 90.3755L191.405 83.3045ZM189.345 85.0591C188.656 85.5683 188.002 85.9357 187.385 86.1926L191.232 95.4234C192.663 94.827 194.015 94.0423 195.288 93.1009L189.345 85.0591ZM187.452 86.1656C186.837 86.4113 186.282 86.5781 185.782 86.6833L187.843 96.4688C188.964 96.2326 190.073 95.8874 191.165 95.4504L187.452 86.1656ZM185.474 86.7584C184.852 86.9312 184.387 87.0272 184.057 87.0743L185.472 96.9737C186.337 96.8501 187.237 96.6474 188.151 96.3936L185.474 86.7584ZM183.896 87.1001C183.37 87.1928 183.031 87.216 182.844 87.216V97.216C183.767 97.216 184.708 97.1112 185.633 96.9479L183.896 87.1001ZM182.844 87.216C180.817 87.216 179.189 87.0119 177.903 86.6751L175.37 96.3489C177.668 96.9508 180.178 97.216 182.844 97.216V87.216ZM177.932 86.6828C176.494 86.297 175.343 85.8353 174.433 85.3359L169.624 94.1041C171.359 95.0554 173.28 95.7883 175.341 96.3412L177.932 86.6828ZM174.539 85.3961C173.573 84.8348 172.825 84.2418 172.25 83.6399L165.023 90.5521C166.325 91.9128 167.839 93.0692 169.518 94.0439L174.539 85.3961ZM172.329 83.7247C171.669 83.0021 171.193 82.3272 170.857 81.7066L162.064 86.4694C162.837 87.8968 163.812 89.2272 164.944 90.4673L172.329 83.7247ZM170.748 81.5155C169.821 79.9702 169.25 78.0937 169.152 75.7518L159.161 76.1682C159.319 79.9703 160.284 83.5124 162.173 86.6605L170.748 81.5155ZM169.157 75.96C169.157 73.8078 169.382 72.1602 169.732 70.9336L160.117 68.1864C159.443 70.5438 159.157 73.1628 159.157 75.96H169.157ZM169.711 71.0069C170.156 69.5324 170.673 68.4464 171.197 67.6615L162.876 62.1145C161.693 63.8896 160.802 65.9183 160.138 68.1131L169.711 71.0069ZM171.176 67.6922C171.814 66.7501 172.462 66.0725 173.093 65.5871L166.996 57.6609C165.408 58.8822 164.051 60.3805 162.897 62.0838L171.176 67.6922ZM173.021 65.6418C173.918 64.9771 174.755 64.4898 175.531 64.1451L171.47 55.0069C169.942 55.6862 168.475 56.5642 167.068 57.6062L173.021 65.6418ZM175.505 64.1568C177.437 63.3115 179.784 62.8674 182.662 62.9727L183.027 52.9793C178.908 52.8286 175.026 53.4511 171.496 54.9952L175.505 64.1568ZM182.844 62.976C184.522 62.976 185.84 63.1695 186.86 63.4727L189.709 53.8873C187.572 53.2518 185.263 52.976 182.844 52.976V62.976ZM186.86 63.4727C188.048 63.8259 188.94 64.2519 189.607 64.6963L195.154 56.3757C193.517 55.2841 191.679 54.4728 189.709 53.8873L186.86 63.4727ZM189.677 64.7419C190.465 65.2486 191.009 65.7584 191.387 66.2415L199.262 60.0785C198.104 58.5989 196.685 57.3594 195.084 56.3301L189.677 64.7419ZM191.54 66.4281C192.102 67.0786 192.525 67.7167 192.836 68.3401L201.781 63.8679C201.068 62.4432 200.168 61.1188 199.109 59.8919L191.54 66.4281ZM192.853 68.3724C193.688 70.0139 194.227 72.0076 194.364 74.4492L204.349 73.8868C204.145 70.2698 203.318 66.8874 201.764 63.8356L192.853 68.3724ZM194.357 74.168C194.357 75.8675 194.192 77.2167 193.93 78.2673L203.631 80.6927C204.137 78.6713 204.357 76.4792 204.357 74.168H194.357ZM193.9 78.3953C193.632 79.6009 193.286 80.5689 192.9 81.3399L201.845 85.8121C202.654 84.1938 203.247 82.4311 203.661 80.5647L193.9 78.3953ZM182.461 68.464C180.294 68.464 178.413 69.3524 177.005 70.7605L184.076 77.8315C183.964 77.944 183.75 78.1189 183.425 78.2598C183.092 78.4039 182.754 78.464 182.461 78.464V68.464ZM176.866 70.9046C175.465 72.4226 174.652 74.4746 174.939 76.7722L184.862 75.5318C184.909 75.9087 184.879 76.3559 184.723 76.806C184.573 77.243 184.356 77.5341 184.215 77.6874L176.866 70.9046ZM174.923 76.626C175.057 78.0366 175.55 80.3166 177.545 81.9123L183.792 74.1037C184.371 74.5666 184.654 75.0798 184.777 75.3762C184.891 75.6527 184.889 75.7901 184.878 75.678L174.923 76.626ZM177.728 82.0517C179.245 83.1551 180.946 83.52 182.461 83.52V73.52C182.525 73.52 183.031 73.5436 183.609 73.9643L177.728 82.0517ZM182.461 83.52C184.238 83.52 186.094 82.9633 187.616 81.5797L180.889 74.1803C181.143 73.9496 181.448 73.7667 181.771 73.6513C182.083 73.5397 182.331 73.52 182.461 73.52V83.52ZM187.616 81.5797C189.282 80.0651 189.956 78.063 189.956 76.152H179.957C179.957 75.9739 179.986 75.6434 180.15 75.2415C180.32 74.8241 180.583 74.4589 180.889 74.1803L187.616 81.5797ZM189.956 76.152C189.956 74.3371 189.36 72.6525 188.28 71.2474L180.353 77.3446C180.26 77.2232 180.151 77.042 180.07 76.806C179.988 76.5685 179.957 76.3412 179.957 76.152H189.956ZM188.28 71.2474C186.749 69.2574 184.545 68.464 182.461 68.464V78.464C182.297 78.464 181.934 78.435 181.487 78.2345C181.017 78.0238 180.627 77.7008 180.353 77.3446L188.28 71.2474ZM202.809 78.072L207.784 77.5745L207.778 77.5184L207.771 77.4625L202.809 78.072ZM202.552 62.968L207.545 63.2453L207.546 63.2275L207.547 63.2097L202.552 62.968ZM203.129 55.16L198.158 54.6178L198.156 54.6401L198.153 54.6625L203.129 55.16ZM204.664 48.824L200.095 46.7933L200.065 46.8616L200.037 46.9308L204.664 48.824ZM205.881 46.52L201.72 43.7465L201.666 43.8286L201.614 43.9127L205.881 46.52ZM207.673 44.472L204.38 40.7091L204.38 40.7091L207.673 44.472ZM210.04 43.064L211.82 47.7364L211.877 47.7148L211.934 47.6917L210.04 43.064ZM213.176 42.488L213.308 37.4897L213.242 37.488H213.176V42.488ZM217.721 44.024L220.769 40.0609L220.676 39.9892L220.579 39.922L217.721 44.024ZM219.449 45.624L223.104 42.2124L223.104 42.2124L219.449 45.624ZM221.049 48.056L216.538 50.2133L216.575 50.2917L216.616 50.3688L221.049 48.056ZM222.328 51.512L217.487 52.7614L217.506 52.834L217.527 52.906L222.328 51.512ZM223.096 56.12L218.11 56.4849L218.111 56.4939L223.096 56.12ZM223.353 74.232L228.347 74.4557L228.349 74.4315L228.349 74.4073L223.353 74.232ZM222.777 82.232L227.745 82.7965L227.747 82.7715L227.75 82.7465L222.777 82.232ZM221.305 87.16L225.646 89.6407L225.67 89.5977L225.694 89.5543L221.305 87.16ZM220.025 88.952L216.228 85.698L216.159 85.779L216.093 85.8629L220.025 88.952ZM218.232 90.552L220.882 94.792L220.916 94.7712L220.949 94.7499L218.232 90.552ZM215.8 91.576L217.116 96.3998L215.8 91.576ZM212.601 91.896L212.408 96.8923L212.422 96.8928L212.601 91.896ZM209.592 91.192L211.742 86.6777L211.693 86.6545L211.644 86.6324L209.592 91.192ZM207.288 89.656L210.708 86.0083V86.0083L207.288 89.656ZM205.561 87.48L201.179 89.8896L201.206 89.9377L201.233 89.9852L205.561 87.48ZM204.344 84.92L199.675 86.7082L199.688 86.7427L199.702 86.777L204.344 84.92ZM207.771 77.4625C207.499 75.248 207.36 72.9136 207.36 70.456H197.36C197.36 73.2891 197.52 76.032 197.846 78.6815L207.771 77.4625ZM207.36 70.456C207.36 67.8459 207.423 65.4434 207.545 63.2453L197.56 62.6906C197.426 65.1006 197.36 67.6901 197.36 70.456H207.36ZM207.547 63.2097C207.671 60.6473 207.856 58.13 208.104 55.6575L198.153 54.6625C197.889 57.31 197.69 59.9981 197.558 62.7263L207.547 63.2097ZM208.099 55.7022C208.312 53.7457 208.727 52.0985 209.292 50.7172L200.037 46.9308C199.066 49.3041 198.457 51.881 198.158 54.6178L208.099 55.7022ZM209.234 50.8547C209.481 50.2987 209.783 49.7228 210.147 49.1272L201.614 43.9127C201.039 44.8532 200.531 45.8133 200.095 46.7933L209.234 50.8547ZM210.041 49.2935C210.313 48.8856 210.62 48.537 210.965 48.2349L204.38 40.7091C203.36 41.6017 202.472 42.6184 201.72 43.7465L210.041 49.2935ZM210.965 48.2349C211.176 48.0499 211.447 47.8788 211.82 47.7364L208.261 38.3916C206.842 38.9318 205.534 39.6994 204.38 40.7091L210.965 48.2349ZM211.934 47.6917C212.195 47.5847 212.586 47.488 213.176 47.488V37.488C211.463 37.488 209.763 37.7753 208.147 38.4363L211.934 47.6917ZM213.045 47.4863C213.631 47.5017 214.206 47.6694 214.862 48.126L220.579 39.922C218.419 38.4159 215.965 37.5596 213.308 37.4897L213.045 47.4863ZM214.672 47.9871C214.964 48.2115 215.338 48.5484 215.793 49.0356L223.104 42.2124C222.364 41.4196 221.587 40.6898 220.769 40.0609L214.672 47.9871ZM215.793 49.0356C215.971 49.226 216.237 49.5846 216.538 50.2133L225.559 45.8987C224.921 44.5647 224.121 43.302 223.104 42.2124L215.793 49.0356ZM216.616 50.3688C216.916 50.9447 217.22 51.7255 217.487 52.7614L227.17 50.2626C226.755 48.6532 226.205 47.13 225.481 45.7432L216.616 50.3688ZM217.527 52.906C217.791 53.8165 218.001 54.9945 218.11 56.4849L228.083 55.7551C227.936 53.7469 227.634 51.8528 227.13 50.1179L217.527 52.906ZM218.111 56.4939C218.358 59.7949 218.48 62.9336 218.48 65.912H228.48C228.48 62.661 228.347 59.2718 228.082 55.746L218.111 56.4939ZM218.48 65.912C218.48 68.9834 218.438 71.6966 218.356 74.0567L228.349 74.4073C228.437 71.9034 228.48 69.0699 228.48 65.912H218.48ZM218.358 74.0083C218.233 76.7839 218.048 79.3526 217.803 81.7175L227.75 82.7465C228.017 80.1621 228.216 77.3974 228.347 74.4557L218.358 74.0083ZM217.808 81.6674C217.655 83.0155 217.324 84.016 216.915 84.7657L225.694 89.5543C226.821 87.488 227.471 85.2031 227.745 82.7965L217.808 81.6674ZM216.963 84.6793C216.799 84.9665 216.563 85.3072 216.228 85.698L223.821 92.206C224.51 91.4021 225.127 90.5482 225.646 89.6407L216.963 84.6793ZM216.093 85.8629C216.008 85.971 215.841 86.1442 215.516 86.3541L220.949 94.7499C222.075 94.0212 223.102 93.1277 223.956 92.0411L216.093 85.8629ZM215.583 86.312C215.389 86.4327 215.047 86.5988 214.485 86.7522L217.116 96.3998C218.431 96.0412 219.71 95.5247 220.882 94.792L215.583 86.312ZM214.485 86.7522C214.129 86.8492 213.58 86.9278 212.779 86.8992L212.422 96.8928C214.01 96.9495 215.595 96.8148 217.116 96.3998L214.485 86.7522ZM212.793 86.8997C212.281 86.88 211.956 86.7797 211.742 86.6777L207.443 95.7063C209.021 96.4577 210.701 96.8266 212.408 96.8923L212.793 86.8997ZM211.644 86.6324C211.294 86.4748 210.988 86.271 210.708 86.0083L203.869 93.3037C204.954 94.3211 206.184 95.1412 207.541 95.7516L211.644 86.6324ZM210.708 86.0083C210.383 85.7031 210.112 85.3628 209.888 84.9748L201.233 89.9852C201.947 91.2186 202.829 92.3289 203.869 93.3037L210.708 86.0083ZM209.942 85.0704C209.565 84.3853 209.248 83.7162 208.987 83.063L199.702 86.777C200.124 87.8305 200.618 88.8681 201.179 89.8896L209.942 85.0704ZM209.014 83.1318C208.432 81.6135 208.004 79.7769 207.784 77.5745L197.833 78.5695C198.125 81.4871 198.721 84.2158 199.675 86.7082L209.014 83.1318ZM227.996 78.072L232.971 77.5745L232.966 77.5184L232.959 77.4625L227.996 78.072ZM227.74 62.968L232.732 63.2453L232.733 63.2275L232.734 63.2097L227.74 62.968ZM228.316 55.16L223.345 54.6178L223.343 54.6401L223.341 54.6625L228.316 55.16ZM229.852 48.824L225.283 46.7933L225.253 46.8616L225.224 46.9308L229.852 48.824ZM231.068 46.52L226.908 43.7465L226.853 43.8286L226.802 43.9127L231.068 46.52ZM232.86 44.472L229.567 40.7091L229.567 40.7091L232.86 44.472ZM235.228 43.064L237.008 47.7364L237.065 47.7148L237.121 47.6917L235.228 43.064ZM238.364 42.488L238.496 37.4897L238.43 37.488H238.364V42.488ZM242.908 44.024L245.957 40.0609L245.863 39.9892L245.767 39.922L242.908 44.024ZM244.636 45.624L248.291 42.2124L248.291 42.2124L244.636 45.624ZM246.236 48.056L241.725 50.2133L241.763 50.2917L241.803 50.3688L246.236 48.056ZM247.516 51.512L242.675 52.7614L242.693 52.834L242.714 52.906L247.516 51.512ZM248.284 56.12L243.297 56.4849L243.298 56.4939L248.284 56.12ZM248.54 74.232L253.535 74.4557L253.536 74.4315L253.537 74.4073L248.54 74.232ZM247.964 82.232L252.932 82.7965L252.935 82.7715L252.937 82.7465L247.964 82.232ZM246.492 87.16L250.833 89.6407L250.858 89.5977L250.881 89.5543L246.492 87.16ZM245.212 88.952L241.416 85.698L241.346 85.779L241.28 85.8629L245.212 88.952ZM243.42 90.552L246.07 94.792L246.103 94.7712L246.136 94.7499L243.42 90.552ZM240.988 91.576L242.304 96.3998L240.988 91.576ZM237.788 91.896L237.596 96.8923L237.61 96.8928L237.788 91.896ZM234.78 91.192L236.93 86.6777L236.881 86.6545L236.832 86.6324L234.78 91.192ZM232.476 89.656L235.896 86.0083V86.0083L232.476 89.656ZM230.748 87.48L226.367 89.8896L226.393 89.9377L226.421 89.9852L230.748 87.48ZM229.532 84.92L224.863 86.7082L224.876 86.7427L224.89 86.777L229.532 84.92ZM232.959 77.4625C232.687 75.248 232.548 72.9136 232.548 70.456H222.548C222.548 73.2891 222.708 76.032 223.033 78.6815L232.959 77.4625ZM232.548 70.456C232.548 67.8459 232.61 65.4434 232.732 63.2453L222.748 62.6906C222.614 65.1006 222.548 67.6901 222.548 70.456H232.548ZM232.734 63.2097C232.858 60.6473 233.044 58.13 233.291 55.6575L223.341 54.6625C223.076 57.31 222.878 59.9981 222.746 62.7263L232.734 63.2097ZM233.287 55.7022C233.5 53.7457 233.915 52.0985 234.48 50.7172L225.224 46.9308C224.253 49.3041 223.644 51.881 223.345 54.6178L233.287 55.7022ZM234.421 50.8547C234.668 50.2987 234.97 49.7228 235.334 49.1272L226.802 43.9127C226.227 44.8532 225.718 45.8133 225.283 46.7933L234.421 50.8547ZM235.228 49.2935C235.5 48.8856 235.807 48.537 236.153 48.2349L229.567 40.7091C228.547 41.6017 227.66 42.6184 226.908 43.7465L235.228 49.2935ZM236.153 48.2349C236.364 48.0499 236.634 47.8788 237.008 47.7364L233.448 38.3916C232.03 38.9318 230.721 39.6994 229.567 40.7091L236.153 48.2349ZM237.121 47.6917C237.383 47.5847 237.774 47.488 238.364 47.488V37.488C236.65 37.488 234.951 37.7753 233.335 38.4363L237.121 47.6917ZM238.232 47.4863C238.818 47.5017 239.394 47.6694 240.049 48.126L245.767 39.922C243.606 38.4159 241.152 37.5596 238.496 37.4897L238.232 47.4863ZM239.859 47.9871C240.151 48.2115 240.526 48.5484 240.981 49.0356L248.291 42.2124C247.551 41.4196 246.774 40.6898 245.957 40.0609L239.859 47.9871ZM240.981 49.0356C241.158 49.226 241.425 49.5846 241.725 50.2133L250.747 45.8987C250.109 44.5647 249.308 43.302 248.291 42.2124L240.981 49.0356ZM241.803 50.3688C242.104 50.9447 242.407 51.7255 242.675 52.7614L252.357 50.2626C251.942 48.6532 251.392 47.13 250.669 45.7432L241.803 50.3688ZM242.714 52.906C242.979 53.8165 243.188 54.9945 243.297 56.4849L253.271 55.7551C253.124 53.7469 252.821 51.8528 252.318 50.1179L242.714 52.906ZM243.298 56.4939C243.546 59.7949 243.668 62.9336 243.668 65.912H253.668C253.668 62.661 253.534 59.2718 253.27 55.746L243.298 56.4939ZM243.668 65.912C243.668 68.9834 243.626 71.6966 243.543 74.0567L253.537 74.4073C253.625 71.9034 253.668 69.0699 253.668 65.912H243.668ZM243.545 74.0083C243.421 76.7839 243.235 79.3526 242.991 81.7175L252.937 82.7465C253.205 80.1621 253.403 77.3974 253.535 74.4557L243.545 74.0083ZM242.996 81.6674C242.843 83.0155 242.511 84.016 242.103 84.7657L250.881 89.5543C252.009 87.488 252.659 85.2031 252.932 82.7965L242.996 81.6674ZM242.151 84.6793C241.987 84.9665 241.751 85.3072 241.416 85.698L249.008 92.206C249.697 91.4021 250.315 90.5482 250.833 89.6407L242.151 84.6793ZM241.28 85.8629C241.195 85.971 241.028 86.1442 240.704 86.3541L246.136 94.7499C247.262 94.0212 248.29 93.1277 249.144 92.0411L241.28 85.8629ZM240.77 86.312C240.577 86.4327 240.235 86.5988 239.672 86.7522L242.304 96.3998C243.619 96.0412 244.898 95.5247 246.07 94.792L240.77 86.312ZM239.672 86.7522C239.317 86.8492 238.768 86.9278 237.966 86.8992L237.61 96.8928C239.198 96.9495 240.782 96.8148 242.304 96.3998L239.672 86.7522ZM237.98 86.8997C237.469 86.88 237.144 86.7797 236.93 86.6777L232.63 95.7063C234.208 96.4577 235.889 96.8266 237.596 96.8923L237.98 86.8997ZM236.832 86.6324C236.482 86.4748 236.176 86.271 235.896 86.0083L229.056 93.3037C230.141 94.3211 231.372 95.1412 232.728 95.7516L236.832 86.6324ZM235.896 86.0083C235.57 85.7031 235.3 85.3628 235.075 84.9748L226.421 89.9852C227.135 91.2186 228.017 92.3289 229.056 93.3037L235.896 86.0083ZM235.129 85.0704C234.752 84.3853 234.436 83.7162 234.174 83.063L224.89 86.777C225.311 87.8305 225.805 88.8681 226.367 89.8896L235.129 85.0704ZM234.201 83.1318C233.62 81.6135 233.191 79.7769 232.971 77.5745L223.021 78.5695C223.313 81.4871 223.908 84.2158 224.863 86.7082L234.201 83.1318ZM273.663 77.752L274.644 72.8491L270.557 81.6695L273.663 77.752ZM277.568 79.608L276.646 84.5224L276.721 84.5363L276.796 84.5481L277.568 79.608ZM281.344 80.184L280.611 85.13L280.624 85.1319L280.636 85.1337L281.344 80.184ZM284.352 81.144L281.846 85.4711L281.894 85.4986L281.942 85.5251L284.352 81.144ZM285.952 84.088L290.945 83.8383L290.934 83.6086L290.901 83.3809L285.952 84.088ZM285.632 86.584L290.346 88.2481L290.374 88.1693L290.399 88.0897L285.632 86.584ZM284.288 88.824L280.446 85.6231L280.437 85.6342L280.428 85.6455L284.288 88.824ZM281.408 90.68L282.924 95.4446L283.07 95.3982L283.212 95.3428L281.408 90.68ZM275.327 91.832L274.937 86.8473L274.906 86.8497L274.875 86.8525L275.327 91.832ZM268.928 91.704L269.46 86.7325L269.416 86.7277L269.372 86.7238L268.928 91.704ZM261.439 89.784L259.388 94.3436L259.465 94.3784L259.543 94.4105L261.439 89.784ZM256.896 86.52L253.232 89.9223L253.241 89.9328L253.251 89.9434L256.896 86.52ZM255.232 84.472L251.004 87.142L251.087 87.2734L251.178 87.3995L255.232 84.472ZM253.824 81.784L249.142 83.5396L249.187 83.6599L249.238 83.7776L253.824 81.784ZM252.863 78.392L247.936 79.2415L247.95 79.3235L247.967 79.405L252.863 78.392ZM252.671 74.296L257.663 74.5812L257.664 74.5733L252.671 74.296ZM254.016 67.704L249.343 65.924L249.332 65.9519L249.322 65.9799L254.016 67.704ZM255.296 65.016L259.637 67.4967L259.661 67.4537L259.685 67.4103L255.296 65.016ZM257.152 62.328L253.435 58.9832L253.388 59.0358L253.342 59.0898L257.152 62.328ZM259.775 59.96L256.885 55.8799L256.844 55.9091L256.804 55.9391L259.775 59.96ZM263.296 58.168L261.885 53.3712L261.753 53.4099L261.623 53.4559L263.296 58.168ZM269.952 57.144V52.144H269.904L269.857 52.1449L269.952 57.144ZM272.96 57.336L272.364 62.3004L272.47 62.3131L272.576 62.3213L272.96 57.336ZM276.223 57.976L274.7 62.7381L274.811 62.7737L274.924 62.8041L276.223 57.976ZM279.551 59.32L281.922 54.9176V54.9176L279.551 59.32ZM282.751 61.56L286.287 58.0245L286.169 57.9067L286.044 57.7971L282.751 61.56ZM284.544 63.864L280.256 66.4365L280.266 66.4539L280.277 66.4712L284.544 63.864ZM285.76 66.68L280.981 68.1504L280.989 68.1772L280.997 68.2039L285.76 66.68ZM286.336 70.52H291.336V70.4486L291.333 70.3772L286.336 70.52ZM285.184 74.616L281.126 71.6945L281.087 71.7489L281.049 71.8044L285.184 74.616ZM282.24 77.048L280.194 72.4855L280.164 72.499L280.134 72.513L282.24 77.048ZM278.143 78.072L278.429 83.0639L278.494 83.0601L278.559 83.0547L278.143 78.072ZM270.079 70.456L266.544 66.9205L266.473 66.9911L266.405 67.0646L270.079 70.456ZM269.439 72.312L274.417 71.838L274.41 71.7648L274.401 71.6918L269.439 72.312ZM270.208 74.168L267.084 78.0723L267.174 78.1441L267.267 78.2117L270.208 74.168ZM273.792 74.04L277.155 77.7397V77.7397L273.792 74.04ZM273.855 70.456L269.892 73.5046V73.5046L273.855 70.456ZM270.557 81.6695C272.343 83.086 274.378 84.0972 276.646 84.5224L278.489 74.6936C278.026 74.6068 277.459 74.3807 276.77 73.8345L270.557 81.6695ZM276.796 84.5481C278.172 84.7631 279.444 84.9571 280.611 85.13L282.076 75.238C280.939 75.0696 279.694 74.8796 278.339 74.6679L276.796 84.5481ZM280.636 85.1337C281.372 85.2388 281.724 85.4004 281.846 85.4711L286.857 76.8169C285.358 75.949 283.705 75.4705 282.051 75.2343L280.636 85.1337ZM281.942 85.5251C281.412 85.2339 281.12 84.843 280.998 84.6196C280.901 84.4399 280.952 84.444 281.002 84.7951L290.901 83.3809C290.59 81.2049 289.614 78.3323 286.761 76.7629L281.942 85.5251ZM280.958 84.3377C280.971 84.6002 280.94 84.8376 280.864 85.0783L290.399 88.0897C290.835 86.7091 291.017 85.2825 290.945 83.8383L280.958 84.3377ZM280.917 84.9199C280.908 84.9454 280.814 85.1817 280.446 85.6231L288.129 92.0249C289.041 90.9303 289.843 89.6733 290.346 88.2481L280.917 84.9199ZM280.428 85.6455C280.52 85.5341 280.547 85.5416 280.411 85.6291C280.274 85.7172 280.02 85.8554 279.603 86.0172L283.212 95.3428C284.96 94.6663 286.795 93.6448 288.147 92.0025L280.428 85.6455ZM279.891 85.9154C278.416 86.3847 276.771 86.7034 274.937 86.8473L275.718 96.8167C278.236 96.6192 280.644 96.1699 282.924 95.4446L279.891 85.9154ZM274.875 86.8525C273.4 86.9866 271.607 86.9624 269.46 86.7325L268.395 96.6755C271.027 96.9576 273.5 97.0188 275.78 96.8115L274.875 86.8525ZM269.372 86.7238C267.559 86.5619 265.553 86.0661 263.336 85.1575L259.543 94.4105C262.532 95.6352 265.517 96.4194 268.483 96.6842L269.372 86.7238ZM263.491 85.2244C262.405 84.7353 261.426 84.0405 260.54 83.0966L253.251 89.9434C255.01 91.8155 257.061 93.2967 259.388 94.3436L263.491 85.2244ZM260.559 83.1177C260.164 82.6923 259.738 82.1724 259.285 81.5445L251.178 87.3995C251.834 88.3076 252.517 89.153 253.232 89.9223L260.559 83.1177ZM259.459 81.802C259.098 81.2305 258.745 80.564 258.409 79.7904L249.238 83.7776C249.755 84.9667 250.341 86.0922 251.004 87.142L259.459 81.802ZM258.505 80.0284C258.224 79.2797 257.971 78.4015 257.76 77.379L247.967 79.405C248.268 80.8571 248.655 82.2403 249.142 83.5396L258.505 80.0284ZM257.791 77.5425C257.653 76.7429 257.596 75.7649 257.663 74.5812L247.68 74.0107C247.577 75.8137 247.647 77.5665 247.936 79.2415L257.791 77.5425ZM257.664 74.5733C257.765 72.7458 258.118 71.0374 258.709 69.4281L249.322 65.9799C248.377 68.5519 247.834 71.2382 247.679 74.0187L257.664 74.5733ZM258.688 69.484C258.93 68.8473 259.243 68.1849 259.637 67.4967L250.954 62.5353C250.324 63.6391 249.783 64.7687 249.343 65.924L258.688 69.484ZM259.685 67.4103C260.026 66.7859 260.447 66.1712 260.961 65.5662L253.342 59.0898C252.405 60.1915 251.589 61.3688 250.906 62.6217L259.685 67.4103ZM260.868 65.6728C261.398 65.0844 262.02 64.5189 262.747 63.9809L256.804 55.9391C255.569 56.8517 254.441 57.8649 253.435 58.9832L260.868 65.6728ZM262.666 64.0401C263.273 63.6097 264.028 63.2137 264.968 62.8801L261.623 53.4559C259.918 54.061 258.326 54.8596 256.885 55.8799L262.666 64.0401ZM264.706 62.9648C266.456 62.4503 268.232 62.1773 270.046 62.1431L269.857 52.1449C267.149 52.196 264.487 52.6057 261.885 53.3712L264.706 62.9648ZM269.952 62.144C270.665 62.144 271.467 62.1928 272.364 62.3004L273.555 52.3716C272.318 52.2232 271.115 52.144 269.952 52.144V62.144ZM272.576 62.3213C273.295 62.3766 274.001 62.5145 274.7 62.7381L277.747 53.2139C276.313 52.7549 274.842 52.4661 273.343 52.3507L272.576 62.3213ZM274.924 62.8041C275.627 62.9934 276.379 63.2903 277.181 63.7224L281.922 54.9176C280.506 54.155 279.039 53.5559 277.523 53.1479L274.924 62.8041ZM277.181 63.7224C277.935 64.1283 278.695 64.6544 279.459 65.3229L286.044 57.7971C284.76 56.6736 283.387 55.7064 281.922 54.9176L277.181 63.7224ZM279.216 65.0955C279.601 65.4803 279.948 65.9229 280.256 66.4365L288.831 61.2915C288.115 60.0985 287.268 59.005 286.287 58.0245L279.216 65.0955ZM280.277 66.4712C280.477 66.7978 280.729 67.3314 280.981 68.1504L290.538 65.2096C290.108 63.8099 289.549 62.4662 288.81 61.2568L280.277 66.4712ZM280.997 68.2039C281.157 68.703 281.304 69.4926 281.338 70.6628L291.333 70.3772C291.282 68.5607 291.045 66.7903 290.522 65.1561L280.997 68.2039ZM281.336 70.52C281.336 71.416 281.135 71.6812 281.126 71.6945L289.241 77.5375C290.768 75.4175 291.336 72.952 291.336 70.52H281.336ZM281.049 71.8044C280.872 72.0652 280.632 72.2894 280.194 72.4855L284.285 81.6105C286.322 80.6973 288.045 79.3002 289.318 77.4276L281.049 71.8044ZM280.134 72.513C279.554 72.7821 278.777 73.0019 277.728 73.0893L278.559 83.0547C280.582 82.8861 282.535 82.4232 284.345 81.583L280.134 72.513ZM277.858 73.0801C276.797 73.1408 275.729 73.066 274.644 72.8491L272.683 82.6549C274.585 83.0353 276.504 83.1739 278.429 83.0639L277.858 73.0801ZM271.999 64.624C269.833 64.624 267.952 65.5124 266.544 66.9205L273.615 73.9915C273.503 74.104 273.289 74.2789 272.964 74.4198C272.631 74.5639 272.293 74.624 271.999 74.624V64.624ZM266.405 67.0646C265.004 68.5826 264.191 70.6346 264.478 72.9322L274.401 71.6918C274.448 72.0687 274.418 72.5159 274.262 72.966C274.112 73.403 273.895 73.6941 273.754 73.8474L266.405 67.0646ZM264.462 72.786C264.596 74.1966 265.089 76.4766 267.084 78.0723L273.331 70.2637C273.91 70.7266 274.193 71.2398 274.316 71.5362C274.43 71.8127 274.428 71.9501 274.417 71.838L264.462 72.786ZM267.267 78.2117C268.784 79.3151 270.485 79.68 271.999 79.68V69.68C272.064 69.68 272.57 69.7036 273.148 70.1243L267.267 78.2117ZM271.999 79.68C273.777 79.68 275.633 79.1233 277.155 77.7397L270.428 70.3403C270.682 70.1096 270.987 69.9266 271.31 69.8113C271.622 69.6997 271.87 69.68 271.999 69.68V79.68ZM277.155 77.7397C278.821 76.2251 279.495 74.223 279.495 72.312H269.495C269.495 72.1339 269.525 71.8034 269.689 71.4015C269.859 70.9841 270.122 70.6189 270.428 70.3403L277.155 77.7397ZM279.495 72.312C279.495 70.4971 278.899 68.8125 277.819 67.4074L269.892 73.5046C269.799 73.3832 269.69 73.202 269.609 72.966C269.527 72.7285 269.495 72.5012 269.495 72.312H279.495ZM277.819 67.4074C276.288 65.4174 274.084 64.624 271.999 64.624V74.624C271.836 74.624 271.473 74.595 271.026 74.3945C270.556 74.1838 270.166 73.8608 269.892 73.5046L277.819 67.4074ZM312.701 72.76L311.264 77.5491L311.522 77.6264L311.786 77.6756L312.701 72.76ZM310.461 72.44L310.128 67.4511L310.117 67.4519L310.105 67.4527L310.461 72.44ZM308.861 72.952L306.177 68.7337L306.084 68.7928L305.994 68.8558L308.861 72.952ZM308.221 74.616H303.221V74.7943L303.234 74.9722L308.221 74.616ZM308.797 76.024L305.261 79.5595V79.5595L308.797 76.024ZM310.141 76.664L309.093 81.553L309.263 81.5893L309.434 81.6137L310.141 76.664ZM312.765 76.088L310.992 71.413L310.935 71.4346L310.879 71.4575L312.765 76.088ZM316.413 75.384L316.621 70.3883L316.517 70.384H316.413V75.384ZM319.677 76.216L317.646 80.7851L319.677 76.216ZM322.813 79.224L327.353 77.1287L327.218 76.836L327.046 76.5631L322.813 79.224ZM322.813 85.816L327.409 87.7856L327.409 87.7856L322.813 85.816ZM319.613 89.336L322.41 93.4802L322.46 93.4467L322.509 93.4119L319.613 89.336ZM313.853 91.832L312.686 86.9701L312.65 86.9788L312.614 86.988L313.853 91.832ZM307.261 92.344L307.511 87.3502L307.469 87.3482L307.428 87.3468L307.261 92.344ZM298.749 90.104L296.513 94.5761L296.6 94.6198L296.689 94.6601L298.749 90.104ZM294.653 86.84L298.466 83.6051L298.457 83.5956L298.449 83.586L294.653 86.84ZM291.837 82.104L287.236 84.0618L287.244 84.0797L287.252 84.0976L291.837 82.104ZM290.557 74.68L285.558 74.5938L285.557 74.6369V74.68H290.557ZM291.837 67.704L296.522 69.4495L296.529 69.4312L296.536 69.4127L291.837 67.704ZM293.181 64.888L288.876 62.3443V62.3444L293.181 64.888ZM295.229 62.2L298.854 65.6437L298.896 65.5997L298.937 65.5546L295.229 62.2ZM298.109 59.832L300.729 64.0903L300.751 64.0768L300.773 64.0632L298.109 59.832ZM302.077 58.04L300.703 53.2324L300.64 53.2504L300.578 53.27L302.077 58.04ZM308.477 57.08L308.575 62.079L308.584 62.0789L308.593 62.0786L308.477 57.08ZM314.429 57.848L313.171 62.6871L313.182 62.6901L313.194 62.6931L314.429 57.848ZM320.509 61.24L324.045 57.7045L323.96 57.6203L323.872 57.5403L320.509 61.24ZM321.853 63.224L326.434 61.2199L326.428 61.2066L326.422 61.1933L321.853 63.224ZM322.429 65.72L317.448 66.1531L317.457 66.2602L317.471 66.3667L322.429 65.72ZM321.917 69.048L326.469 71.117L326.535 70.9711L326.592 70.8213L321.917 69.048ZM320.061 71.416L323.098 75.3878L323.129 75.3643L323.159 75.3404L320.061 71.416ZM317.181 72.76L315.807 67.9524L315.784 67.9591L315.761 67.966L317.181 72.76ZM314.138 67.9709C312.918 67.6049 311.548 67.3564 310.128 67.4511L310.794 77.4289C310.712 77.4343 310.706 77.4253 310.794 77.4377C310.881 77.4502 311.035 77.4803 311.264 77.5491L314.138 67.9709ZM310.105 67.4527C308.745 67.5499 307.399 67.9557 306.177 68.7337L311.545 77.1703C311.416 77.2528 311.276 77.3176 311.137 77.3621C310.999 77.4061 310.888 77.4222 310.817 77.4273L310.105 67.4527ZM305.994 68.8558C303.612 70.5229 303.221 73.1121 303.221 74.616H313.221C313.221 74.6287 313.22 74.7039 313.201 74.8279C313.182 74.9519 313.14 75.147 313.048 75.3869C312.849 75.9035 312.442 76.5489 311.728 77.0482L305.994 68.8558ZM303.234 74.9722C303.341 76.4702 303.879 78.177 305.261 79.5595L312.333 72.4885C313.032 73.1883 313.187 73.9565 313.208 74.2598L303.234 74.9722ZM305.261 79.5595C306.482 80.7801 307.953 81.3086 309.093 81.553L311.189 71.775C311.191 71.7755 311.221 71.782 311.273 71.799C311.325 71.8159 311.405 71.8455 311.507 71.8937C311.709 71.9901 312.016 72.1715 312.333 72.4885L305.261 79.5595ZM309.434 81.6137C311.437 81.8999 313.38 81.2366 314.651 80.7185L310.879 71.4575C310.683 71.5371 310.525 71.5944 310.402 71.6347C310.277 71.6753 310.203 71.6937 310.173 71.7003C310.141 71.7073 310.181 71.6963 310.28 71.6891C310.376 71.6821 310.576 71.6753 310.848 71.7143L309.434 81.6137ZM314.538 80.763C315.27 80.4854 315.886 80.384 316.413 80.384V70.384C314.551 70.384 312.735 70.7519 310.992 71.413L314.538 80.763ZM316.205 80.3797C316.474 80.3909 316.941 80.4718 317.646 80.7851L321.708 71.6469C320.109 70.9362 318.4 70.4625 316.621 70.3883L316.205 80.3797ZM317.646 80.7851C317.595 80.7624 317.966 80.9087 318.58 81.8849L327.046 76.5631C325.782 74.5526 324.063 72.6936 321.708 71.6469L317.646 80.7851ZM318.273 81.3193C318.513 81.839 318.581 82.2367 318.581 82.552H328.581C328.581 80.6486 328.137 78.8277 327.353 77.1287L318.273 81.3193ZM318.581 82.552C318.581 82.6749 318.545 83.0825 318.217 83.8464L327.409 87.7856C328.105 86.1602 328.581 84.3918 328.581 82.552H318.581ZM318.217 83.8464C318.223 83.8342 318.168 83.9661 317.929 84.2286C317.689 84.4926 317.305 84.8421 316.717 85.2601L322.509 93.4119C324.513 91.988 326.391 90.1605 327.409 87.7856L318.217 83.8464ZM316.816 85.1918C315.637 85.9874 314.276 86.5885 312.686 86.9701L315.02 96.6939C317.697 96.0515 320.176 94.9886 322.41 93.4802L316.816 85.1918ZM312.614 86.988C311.402 87.2979 309.734 87.4614 307.511 87.3502L307.011 97.3378C309.908 97.4826 312.634 97.3048 315.092 96.676L312.614 86.988ZM307.428 87.3468C305.7 87.2892 303.516 86.7716 300.809 85.5479L296.689 94.6601C300.212 96.2524 303.702 97.2281 307.094 97.3412L307.428 87.3468ZM300.985 85.6319C300.097 85.1878 299.257 84.5377 298.466 83.6051L290.84 90.0749C292.438 91.9583 294.329 93.4842 296.513 94.5761L300.985 85.6319ZM298.449 83.586C297.843 82.8783 297.143 81.7686 296.422 80.1104L287.252 84.0976C288.237 86.3647 289.415 88.4124 290.857 90.094L298.449 83.586ZM296.438 80.1462C295.923 78.9362 295.557 77.1736 295.557 74.68H285.557C285.557 78.0744 286.044 81.2611 287.236 84.0618L296.438 80.1462ZM295.556 74.7662C295.59 72.8209 295.922 71.0602 296.522 69.4495L287.152 65.9585C286.13 68.6998 285.61 71.5898 285.558 74.5938L295.556 74.7662ZM296.536 69.4127C296.763 68.7889 297.074 68.1287 297.486 67.4316L288.876 62.3444C288.179 63.5246 287.594 64.7417 287.138 65.9953L296.536 69.4127ZM297.486 67.4316C297.834 66.8423 298.283 66.2452 298.854 65.6437L291.604 58.7563C290.554 59.8615 289.637 61.0564 288.876 62.3443L297.486 67.4316ZM298.937 65.5546C299.406 65.036 299.992 64.544 300.729 64.0903L295.489 55.5737C294.007 56.4853 292.674 57.572 291.521 58.8454L298.937 65.5546ZM300.773 64.0632C301.512 63.5979 302.433 63.1693 303.576 62.81L300.578 53.27C298.735 53.8494 297.01 54.6154 295.445 55.6008L300.773 64.0632ZM303.451 62.8476C305.126 62.369 306.83 62.1132 308.575 62.079L308.379 52.081C305.772 52.1321 303.21 52.5163 300.703 53.2324L303.451 62.8476ZM308.593 62.0786C309.883 62.0487 311.399 62.2265 313.171 62.6871L315.687 53.0089C313.192 52.3602 310.741 52.026 308.361 52.0814L308.593 62.0786ZM313.194 62.6931C314.48 63.0208 315.794 63.7108 317.146 64.9397L323.872 57.5403C321.469 55.3558 318.73 53.7846 315.664 53.0029L313.194 62.6931ZM316.973 64.7755C317.064 64.8661 317.174 65.0071 317.284 65.2547L326.422 61.1933C325.849 59.9049 325.063 58.7232 324.045 57.7045L316.973 64.7755ZM317.272 65.2281C317.295 65.2812 317.395 65.5499 317.448 66.1531L327.41 65.2869C327.292 63.9275 327.008 62.5321 326.434 61.2199L317.272 65.2281ZM317.471 66.3667C317.462 66.3013 317.514 66.5588 317.242 67.2747L326.592 70.8213C327.259 69.0625 327.652 67.1014 327.387 65.0733L317.471 66.3667ZM317.365 66.979C317.269 67.1909 317.149 67.3445 316.963 67.4916L323.159 75.3404C324.594 74.2075 325.712 72.7824 326.469 71.117L317.365 66.979ZM317.024 67.4442C316.94 67.5084 316.603 67.725 315.807 67.9524L318.555 77.5676C320.148 77.1124 321.732 76.4329 323.098 75.3878L317.024 67.4442ZM315.761 67.966C315.671 67.9924 315.062 68.1134 313.616 67.8443L311.786 77.6756C314.009 78.0892 316.387 78.2102 318.601 77.554L315.761 67.966ZM336.913 53.688V58.688H342.678L341.863 52.9809L336.913 53.688ZM337.169 48.056L332.397 46.5646L332.376 46.6314L332.357 46.6987L337.169 48.056ZM338.065 46.008L342.423 48.4593V48.4593L338.065 46.008ZM339.665 44.216L342.665 48.216L342.665 48.216L339.665 44.216ZM342.161 43L343.617 47.7834L343.711 47.7548L343.804 47.7225L342.161 43ZM349.137 43L347.494 47.7225L347.587 47.7548L347.681 47.7834L349.137 43ZM351.569 44.28L348.294 48.0584L348.354 48.1105L348.416 48.1606L351.569 44.28ZM353.233 46.136L357.473 43.486V43.486L353.233 46.136ZM354.257 48.184L359 46.6029L358.971 46.515L358.939 46.4284L354.257 48.184ZM354.897 53.816L349.906 53.5104L349.563 59.126L355.18 58.808L354.897 53.816ZM360.977 54.392L359.603 59.1996L359.621 59.2047L359.639 59.2096L360.977 54.392ZM363.217 55.352L360.682 59.6617L360.779 59.7185L360.878 59.7709L363.217 55.352ZM365.137 56.888L361.359 60.1627L361.475 60.2974L361.601 60.4235L365.137 56.888ZM366.545 59.128L361.873 60.908V60.908L366.545 59.128ZM366.545 65.336L361.903 63.479L361.877 63.5429L361.853 63.6075L366.545 65.336ZM365.265 67.448L368.929 70.8503V70.8502L365.265 67.448ZM363.409 68.92L360.958 64.5621L360.958 64.5621L363.409 68.92ZM361.361 69.816L362.798 74.6051L362.825 74.5969L362.852 74.5884L361.361 69.816ZM355.665 70.456L355.869 65.4602L350.08 65.2239L350.693 70.9849L355.665 70.456ZM355.665 81.144L350.711 80.4654L350.709 80.4848L350.706 80.5041L355.665 81.144ZM354.833 85.048L350.044 83.6113L350.022 83.6851L350.002 83.7597L354.833 85.048ZM353.361 88.44L357.549 91.1713V91.1713L353.361 88.44ZM350.929 90.872L353.529 95.143L353.595 95.1025L353.66 95.0601L350.929 90.872ZM341.201 90.04L337.908 93.8029L337.971 93.8574L338.035 93.9098L341.201 90.04ZM338.321 85.24L333.476 86.4769L333.489 86.5251L333.502 86.5729L338.321 85.24ZM337.681 78.328L332.684 78.1642L337.681 78.328ZM338.129 70.072L343.116 70.4387L343.57 64.2594L337.434 65.1205L338.129 70.072ZM331.665 70.008L330.635 74.9007L330.649 74.9037L330.663 74.9066L331.665 70.008ZM329.297 69.24L327.266 73.8091V73.8091L329.297 69.24ZM327.249 67.832L323.713 71.3675L327.249 67.832ZM325.777 65.592L321.105 67.372L321.141 67.4676L321.181 67.5616L325.777 65.592ZM326.417 57.976L322.38 55.0259L322.342 55.0775L322.306 55.1299L326.417 57.976ZM329.425 55.352L327.064 50.9446L329.425 55.352ZM333.201 54.072L333.997 59.0082L334.06 58.9981L334.122 58.9864L333.201 54.072ZM341.863 52.9809C341.641 51.4311 341.738 50.2749 341.981 49.4133L332.357 46.6987C331.661 49.1651 331.587 51.7635 331.963 54.3951L341.863 52.9809ZM341.941 49.5474C342.041 49.2281 342.194 48.8659 342.423 48.4593L333.707 43.5567C333.168 44.5154 332.724 45.5185 332.397 46.5646L341.941 49.5474ZM342.423 48.4593C342.437 48.4339 342.487 48.3492 342.665 48.216L336.665 40.216C335.477 41.1068 334.461 42.2168 333.707 43.5567L342.423 48.4593ZM342.665 48.216C342.799 48.1154 343.083 47.946 343.617 47.7834L340.705 38.2166C339.277 38.6514 337.896 39.2926 336.665 40.216L342.665 48.216ZM343.804 47.7225C344.12 47.6123 344.709 47.488 345.681 47.488V37.488C343.922 37.488 342.164 37.705 340.518 38.2775L343.804 47.7225ZM345.681 47.488C346.59 47.488 347.163 47.6072 347.494 47.7225L350.78 38.2775C349.148 37.7101 347.417 37.488 345.681 37.488V47.488ZM347.681 47.7834C348.131 47.9203 348.283 48.0487 348.294 48.0584L354.844 40.5016C353.575 39.402 352.106 38.677 350.593 38.2166L347.681 47.7834ZM348.416 48.1606C348.711 48.3998 348.884 48.6119 348.993 48.786L357.473 43.486C356.728 42.2948 355.793 41.2695 354.722 40.3994L348.416 48.1606ZM348.993 48.786C349.261 49.2149 349.448 49.5994 349.575 49.9396L358.939 46.4284C358.554 45.4032 358.058 44.4224 357.473 43.486L348.993 48.786ZM349.514 49.7651C349.831 50.7163 350.003 51.9373 349.906 53.5104L359.888 54.1215C360.047 51.5133 359.793 48.9797 359 46.6029L349.514 49.7651ZM355.18 58.808C356.999 58.705 358.451 58.8703 359.603 59.1996L362.351 49.5844C359.919 48.8897 357.318 48.671 354.614 48.824L355.18 58.808ZM359.639 59.2096C359.965 59.3001 360.311 59.4434 360.682 59.6617L365.752 51.0423C364.673 50.4073 363.525 49.9105 362.315 49.5744L359.639 59.2096ZM360.878 59.7709C361.039 59.8565 361.196 59.9746 361.359 60.1627L368.915 53.6133C367.969 52.5214 366.846 51.6155 365.556 50.9331L360.878 59.7709ZM361.601 60.4235C361.637 60.4592 361.748 60.5819 361.873 60.908L371.217 57.348C370.659 55.8821 369.831 54.5114 368.673 53.3525L361.601 60.4235ZM361.873 60.908C361.945 61.0971 362.057 61.5308 362.057 62.328H372.057C372.057 60.6505 371.828 58.9509 371.217 57.348L361.873 60.908ZM362.057 62.328C362.057 62.9992 361.956 63.3451 361.903 63.479L371.187 67.193C371.816 65.6202 372.057 63.9608 372.057 62.328H362.057ZM361.853 63.6075C361.769 63.8354 361.679 63.9615 361.601 64.0457L368.929 70.8502C369.96 69.7399 370.723 68.4579 371.237 67.0645L361.853 63.6075ZM361.601 64.0457C361.384 64.2792 361.171 64.4422 360.958 64.5621L365.86 73.2779C367.012 72.6298 368.036 71.8114 368.929 70.8503L361.601 64.0457ZM360.958 64.5621C360.551 64.7908 360.189 64.9438 359.87 65.0436L362.852 74.5884C363.898 74.2615 364.902 73.8172 365.86 73.2779L360.958 64.5621ZM359.924 65.0269C358.833 65.3543 357.499 65.5267 355.869 65.4602L355.461 75.4518C358.012 75.556 360.476 75.3017 362.798 74.6051L359.924 65.0269ZM350.693 70.9849C351.088 74.7008 351.07 77.8451 350.711 80.4654L360.619 81.8226C361.113 78.2135 361.095 74.2326 360.637 69.9271L350.693 70.9849ZM350.706 80.5041C350.57 81.5565 350.35 82.5913 350.044 83.6113L359.622 86.4847C360.084 84.9447 360.418 83.3769 360.624 81.7839L350.706 80.5041ZM350.002 83.7597C349.779 84.5936 349.488 85.225 349.173 85.7087L357.549 91.1713C358.514 89.6923 359.204 88.0624 359.664 86.3363L350.002 83.7597ZM349.173 85.7087C348.912 86.1086 348.598 86.4231 348.198 86.6839L353.66 95.0601C355.223 94.0409 356.53 92.7341 357.549 91.1713L349.173 85.7087ZM348.329 86.601C348.268 86.6384 348.032 86.768 347.409 86.768V96.768C349.517 96.768 351.627 96.3003 353.529 95.143L348.329 86.601ZM347.409 86.768C345.277 86.768 344.53 86.3036 344.367 86.1702L338.035 93.9098C340.688 96.0804 344.08 96.768 347.409 96.768V86.768ZM344.494 86.2771C343.967 85.8166 343.474 85.1128 343.14 83.9071L333.502 86.5729C334.278 89.3779 335.704 91.8741 337.908 93.8029L344.494 86.2771ZM343.166 84.0031C342.796 82.5552 342.605 80.7385 342.678 78.4918L332.684 78.1642C332.587 81.1228 332.822 83.9141 333.476 86.4769L343.166 84.0031ZM342.678 78.4918C342.761 75.9641 342.907 73.2801 343.116 70.4387L333.142 69.7053C332.925 72.6665 332.771 75.4865 332.684 78.1642L342.678 78.4918ZM337.434 65.1205C335.415 65.4039 333.854 65.3521 332.667 65.1094L330.663 74.9066C333.231 75.4319 335.979 75.4228 338.824 75.0235L337.434 65.1205ZM332.695 65.1152C332.233 65.0181 331.779 64.8716 331.328 64.6709L327.266 73.8091C328.351 74.2911 329.475 74.6566 330.635 74.9007L332.695 65.1152ZM331.328 64.6709C331.123 64.5802 330.95 64.4621 330.785 64.2965L323.713 71.3675C324.742 72.3965 325.935 73.2172 327.266 73.8091L331.328 64.6709ZM330.785 64.2965C330.701 64.2126 330.544 64.0227 330.373 63.6224L321.181 67.5616C321.778 68.9533 322.603 70.2567 323.713 71.3675L330.785 64.2965ZM330.449 63.812C330.384 63.6397 330.265 63.1914 330.265 62.328H320.265C320.265 64.0246 320.488 65.7523 321.105 67.372L330.449 63.812ZM330.265 62.328C330.265 61.2242 330.501 60.8604 330.528 60.822L322.306 55.1299C320.797 57.3103 320.265 59.8478 320.265 62.328H330.265ZM330.454 60.9261C330.829 60.4134 331.262 60.0404 331.786 59.7594L327.064 50.9446C325.199 51.9436 323.627 53.32 322.38 55.0259L330.454 60.9261ZM331.786 59.7594C332.498 59.3781 333.228 59.1322 333.997 59.0082L332.405 49.1358C330.528 49.4384 328.742 50.0459 327.064 50.9446L331.786 59.7594ZM334.122 58.9864C335.256 58.7738 336.179 58.688 336.913 58.688V48.688C335.429 48.688 333.876 48.8582 332.28 49.1576L334.122 58.9864Z" fill="#5C5554" mask="url(#path-3-outside-1_12_165)"/>
</g>
<defs>
<filter id="filter0_d_12_165" x="0" y="0" width="498" height="152" filterUnits="userSpaceOnUse" color-interpolation-filters="sRGB">
<feFlood flood-opacity="0" result="BackgroundImageFix"/>
<feColorMatrix in="SourceAlpha" type="matrix" values="0 0 0 0 0 0 0 0 0 0 0 0 0 0 0 0 0 0 127 0" result="hardAlpha"/>
<feOffset dx="12" dy="12"/>
<feComposite in2="hardAlpha" operator="out"/>
<feColorMatrix type="matrix" values="0 0 0 0 0.360563 0 0 0 0 0.334621 0 0 0 0 0.330393 0 0 0 1 0"/>
<feBlend mode="normal" in2="BackgroundImageFix" result="effect1_dropShadow_12_165"/>
<feBlend mode="normal" in="SourceGraphic" in2="effect1_dropShadow_12_165" result="shape"/>
</filter>
</defs>
</svg>
