<svg width="499" height="152" viewBox="0 0 499 152" fill="none" xmlns="http://www.w3.org/2000/svg">
<g filter="url(#filter0_d_41_59)">
<rect x="8" y="8" width="471" height="124" rx="62" fill="#E25B45"/>
<rect x="4" y="4" width="479" height="132" rx="66" stroke="#5C5554" stroke-width="8"/>
<mask id="path-3-outside-1_41_59" maskUnits="userSpaceOnUse" x="158.5" y="40" width="171" height="73" fill="black">
<rect fill="white" x="158.5" y="40" width="171" height="73"/>
<path d="M201.749 79.48C201.237 81.1867 200.533 82.68 199.637 83.96C198.741 85.1973 197.738 86.264 196.629 87.16C195.519 88.056 194.325 88.7813 193.045 89.336C191.807 89.8907 190.57 90.3387 189.333 90.68C186.389 91.448 183.253 91.7893 179.925 91.704C177.365 91.7467 175.253 91.4907 173.589 90.936C171.925 90.3387 170.581 89.6773 169.557 88.952C168.362 88.1413 167.402 87.224 166.677 86.2C166.037 85.1333 165.546 83.9387 165.205 82.616C164.906 81.2933 164.693 79.9707 164.565 78.648C164.437 77.2827 164.373 75.96 164.373 74.68C164.373 73.3573 164.373 72.1413 164.373 71.032C164.373 68.7707 164.437 66.7013 164.565 64.824C164.693 62.904 164.863 61.24 165.077 59.832C165.247 58.168 165.482 56.6747 165.781 55.352C165.994 54.0293 166.357 52.8773 166.869 51.896C167.381 50.9147 167.957 50.0827 168.597 49.4C169.279 48.6747 169.983 48.0773 170.709 47.608C171.477 47.1387 172.245 46.776 173.013 46.52C174.762 45.88 176.703 45.6027 178.837 45.688C180.885 45.688 182.762 45.8373 184.469 46.136C186.175 46.392 187.711 46.7547 189.077 47.224C190.442 47.6507 191.658 48.1627 192.725 48.76C193.834 49.3573 194.815 49.9547 195.669 50.552C197.631 52.0027 199.167 53.6453 200.277 55.48C201.343 57.3147 202.133 59.4267 202.645 61.816C202.858 62.84 203.029 63.992 203.157 65.272C203.327 66.5093 203.391 67.8747 203.349 69.368C203.306 70.8613 203.157 72.4613 202.901 74.168C202.687 75.832 202.303 77.6027 201.749 79.48ZM184.021 66.424C183.295 66.424 182.677 66.616 182.165 67C181.695 67.3413 181.461 68.0453 181.461 69.112C181.461 70.136 181.695 70.7973 182.165 71.096C182.677 71.352 183.295 71.48 184.021 71.48C184.746 71.48 185.343 71.2667 185.813 70.84C186.282 70.4133 186.517 69.8373 186.517 69.112C186.517 68.4293 186.303 67.8107 185.877 67.256C185.45 66.7013 184.831 66.424 184.021 66.424ZM225.851 62.328C226.96 60.7493 228.155 59.64 229.435 59C230.757 58.3173 231.973 57.8907 233.083 57.72C234.405 57.5493 235.707 57.592 236.987 57.848C238.267 58.1893 239.312 58.68 240.123 59.32C240.933 59.96 241.552 60.664 241.979 61.432C242.405 62.2 242.704 62.968 242.875 63.736C243.045 64.504 243.131 65.1653 243.131 65.72C243.173 67.0853 242.981 68.28 242.555 69.304C242.171 70.2853 241.744 71.0747 241.275 71.672C240.72 72.44 240.059 73.0373 239.291 73.464C237.925 74.2747 236.581 74.6587 235.259 74.616C233.979 74.5733 232.805 74.3813 231.739 74.04C230.501 73.6133 229.328 73.016 228.219 72.248C228.56 74.808 228.667 77.048 228.539 78.968C228.453 80.888 228.197 82.552 227.771 83.96C227.387 85.3253 226.875 86.4773 226.235 87.416C225.595 88.312 224.912 89.0373 224.187 89.592C222.48 90.9147 220.432 91.5333 218.043 91.448C216.208 91.5333 214.715 91.256 213.562 90.616C212.411 89.976 211.472 89.2507 210.747 88.44C209.936 87.5013 209.296 86.4347 208.827 85.24C208.059 82.936 207.547 80.5467 207.291 78.072C207.077 75.5973 207.013 73.336 207.099 71.288C207.141 68.8987 207.333 66.552 207.674 64.248C208.144 62.2 208.891 60.664 209.915 59.64C210.981 58.5733 212.069 57.8053 213.179 57.336C214.459 56.824 215.867 56.568 217.403 56.568C219.195 56.4827 220.645 56.76 221.755 57.4C222.864 57.9973 223.717 58.6587 224.315 59.384C225.04 60.2373 225.552 61.2187 225.851 62.328ZM278.373 83.576C277.69 84.8133 276.879 85.9013 275.941 86.84C275.045 87.736 274.17 88.4827 273.317 89.08C272.335 89.8053 271.333 90.3813 270.309 90.808C269.455 91.1493 268.623 91.4053 267.813 91.576C267.045 91.7893 266.362 91.9387 265.765 92.024C265.039 92.152 264.399 92.216 263.845 92.216C261.498 92.216 259.429 91.9813 257.637 91.512C255.887 91.0427 254.351 90.4453 253.029 89.72C251.706 88.952 250.575 88.0773 249.637 87.096C248.741 86.1147 248.015 85.112 247.461 84.088C246.053 81.7413 245.285 79.032 245.157 75.96C245.157 73.4853 245.413 71.352 245.924 69.56C246.479 67.7253 247.183 66.168 248.036 64.888C248.933 63.5653 249.935 62.4773 251.045 61.624C252.197 60.7707 253.349 60.088 254.501 59.576C257.231 58.3813 260.346 57.848 263.845 57.976C265.893 57.976 267.706 58.2107 269.285 58.68C270.863 59.1493 272.229 59.768 273.381 60.536C274.575 61.304 275.557 62.1787 276.325 63.16C277.135 64.0987 277.797 65.08 278.309 66.104C279.503 68.4507 280.186 71.1387 280.357 74.168C280.357 76.1733 280.165 77.944 279.781 79.48C279.439 81.016 278.97 82.3813 278.373 83.576ZM263.461 73.464C262.735 73.464 262.095 73.7413 261.541 74.296C261.029 74.8507 260.815 75.4693 260.901 76.152C260.986 77.048 261.242 77.6667 261.669 78.008C262.138 78.3493 262.735 78.52 263.461 78.52C264.186 78.52 264.783 78.3067 265.253 77.88C265.722 77.4533 265.957 76.8773 265.957 76.152C265.957 75.4693 265.743 74.8507 265.317 74.296C264.89 73.7413 264.271 73.464 263.461 73.464ZM283.553 95.864C283.083 91.64 282.955 87.544 283.169 83.576C283.254 81.8693 283.425 80.12 283.681 78.328C283.979 76.4933 284.385 74.7013 284.897 72.952C285.409 71.16 286.049 69.4533 286.817 67.832C287.627 66.168 288.609 64.6747 289.76 63.352C291.254 61.6453 293.131 60.3013 295.393 59.32C297.654 58.3387 300.022 57.72 302.497 57.464C305.014 57.208 307.531 57.3147 310.049 57.784C312.609 58.2107 314.913 59 316.961 60.152C317.985 60.792 318.945 61.56 319.841 62.456C320.609 63.224 321.355 64.184 322.081 65.336C322.849 66.488 323.446 67.832 323.873 69.368C324.214 70.7333 324.385 72.2907 324.385 74.04C324.427 75.7893 324.278 77.5387 323.937 79.288C323.595 80.9947 323.062 82.616 322.337 84.152C321.611 85.6453 320.694 86.8613 319.585 87.8C318.561 88.6533 317.515 89.336 316.449 89.848C315.382 90.36 314.315 90.744 313.249 91C312.225 91.256 311.222 91.4053 310.241 91.448C309.302 91.4907 308.406 91.4693 307.553 91.384C305.547 91.2133 303.627 90.7013 301.793 89.848C302.39 93.0907 302.539 95.9707 302.241 98.488C302.113 99.5547 301.878 100.6 301.537 101.624C301.195 102.648 300.705 103.565 300.065 104.376C299.425 105.187 298.593 105.827 297.569 106.296C296.587 106.808 295.371 107.064 293.921 107.064C292.769 107.064 291.745 106.893 290.849 106.552C289.953 106.253 289.142 105.848 288.417 105.336C287.734 104.824 287.137 104.227 286.625 103.544C286.113 102.904 285.665 102.221 285.281 101.496C284.427 99.832 283.851 97.9547 283.553 95.864ZM304.801 73.464C304.075 73.464 303.435 73.7413 302.881 74.296C302.369 74.8507 302.155 75.4693 302.241 76.152C302.326 77.048 302.582 77.6667 303.009 78.008C303.478 78.3493 304.075 78.52 304.801 78.52C305.526 78.52 306.123 78.3067 306.593 77.88C307.062 77.4533 307.297 76.8773 307.297 76.152C307.297 75.4693 307.083 74.8507 306.657 74.296C306.23 73.7413 305.611 73.464 304.801 73.464Z"/>
</mask>
<path d="M201.749 79.48C201.237 81.1867 200.533 82.68 199.637 83.96C198.741 85.1973 197.738 86.264 196.629 87.16C195.519 88.056 194.325 88.7813 193.045 89.336C191.807 89.8907 190.57 90.3387 189.333 90.68C186.389 91.448 183.253 91.7893 179.925 91.704C177.365 91.7467 175.253 91.4907 173.589 90.936C171.925 90.3387 170.581 89.6773 169.557 88.952C168.362 88.1413 167.402 87.224 166.677 86.2C166.037 85.1333 165.546 83.9387 165.205 82.616C164.906 81.2933 164.693 79.9707 164.565 78.648C164.437 77.2827 164.373 75.96 164.373 74.68C164.373 73.3573 164.373 72.1413 164.373 71.032C164.373 68.7707 164.437 66.7013 164.565 64.824C164.693 62.904 164.863 61.24 165.077 59.832C165.247 58.168 165.482 56.6747 165.781 55.352C165.994 54.0293 166.357 52.8773 166.869 51.896C167.381 50.9147 167.957 50.0827 168.597 49.4C169.279 48.6747 169.983 48.0773 170.709 47.608C171.477 47.1387 172.245 46.776 173.013 46.52C174.762 45.88 176.703 45.6027 178.837 45.688C180.885 45.688 182.762 45.8373 184.469 46.136C186.175 46.392 187.711 46.7547 189.077 47.224C190.442 47.6507 191.658 48.1627 192.725 48.76C193.834 49.3573 194.815 49.9547 195.669 50.552C197.631 52.0027 199.167 53.6453 200.277 55.48C201.343 57.3147 202.133 59.4267 202.645 61.816C202.858 62.84 203.029 63.992 203.157 65.272C203.327 66.5093 203.391 67.8747 203.349 69.368C203.306 70.8613 203.157 72.4613 202.901 74.168C202.687 75.832 202.303 77.6027 201.749 79.48ZM184.021 66.424C183.295 66.424 182.677 66.616 182.165 67C181.695 67.3413 181.461 68.0453 181.461 69.112C181.461 70.136 181.695 70.7973 182.165 71.096C182.677 71.352 183.295 71.48 184.021 71.48C184.746 71.48 185.343 71.2667 185.813 70.84C186.282 70.4133 186.517 69.8373 186.517 69.112C186.517 68.4293 186.303 67.8107 185.877 67.256C185.45 66.7013 184.831 66.424 184.021 66.424ZM225.851 62.328C226.96 60.7493 228.155 59.64 229.435 59C230.757 58.3173 231.973 57.8907 233.083 57.72C234.405 57.5493 235.707 57.592 236.987 57.848C238.267 58.1893 239.312 58.68 240.123 59.32C240.933 59.96 241.552 60.664 241.979 61.432C242.405 62.2 242.704 62.968 242.875 63.736C243.045 64.504 243.131 65.1653 243.131 65.72C243.173 67.0853 242.981 68.28 242.555 69.304C242.171 70.2853 241.744 71.0747 241.275 71.672C240.72 72.44 240.059 73.0373 239.291 73.464C237.925 74.2747 236.581 74.6587 235.259 74.616C233.979 74.5733 232.805 74.3813 231.739 74.04C230.501 73.6133 229.328 73.016 228.219 72.248C228.56 74.808 228.667 77.048 228.539 78.968C228.453 80.888 228.197 82.552 227.771 83.96C227.387 85.3253 226.875 86.4773 226.235 87.416C225.595 88.312 224.912 89.0373 224.187 89.592C222.48 90.9147 220.432 91.5333 218.043 91.448C216.208 91.5333 214.715 91.256 213.562 90.616C212.411 89.976 211.472 89.2507 210.747 88.44C209.936 87.5013 209.296 86.4347 208.827 85.24C208.059 82.936 207.547 80.5467 207.291 78.072C207.077 75.5973 207.013 73.336 207.099 71.288C207.141 68.8987 207.333 66.552 207.674 64.248C208.144 62.2 208.891 60.664 209.915 59.64C210.981 58.5733 212.069 57.8053 213.179 57.336C214.459 56.824 215.867 56.568 217.403 56.568C219.195 56.4827 220.645 56.76 221.755 57.4C222.864 57.9973 223.717 58.6587 224.315 59.384C225.04 60.2373 225.552 61.2187 225.851 62.328ZM278.373 83.576C277.69 84.8133 276.879 85.9013 275.941 86.84C275.045 87.736 274.17 88.4827 273.317 89.08C272.335 89.8053 271.333 90.3813 270.309 90.808C269.455 91.1493 268.623 91.4053 267.813 91.576C267.045 91.7893 266.362 91.9387 265.765 92.024C265.039 92.152 264.399 92.216 263.845 92.216C261.498 92.216 259.429 91.9813 257.637 91.512C255.887 91.0427 254.351 90.4453 253.029 89.72C251.706 88.952 250.575 88.0773 249.637 87.096C248.741 86.1147 248.015 85.112 247.461 84.088C246.053 81.7413 245.285 79.032 245.157 75.96C245.157 73.4853 245.413 71.352 245.924 69.56C246.479 67.7253 247.183 66.168 248.036 64.888C248.933 63.5653 249.935 62.4773 251.045 61.624C252.197 60.7707 253.349 60.088 254.501 59.576C257.231 58.3813 260.346 57.848 263.845 57.976C265.893 57.976 267.706 58.2107 269.285 58.68C270.863 59.1493 272.229 59.768 273.381 60.536C274.575 61.304 275.557 62.1787 276.325 63.16C277.135 64.0987 277.797 65.08 278.309 66.104C279.503 68.4507 280.186 71.1387 280.357 74.168C280.357 76.1733 280.165 77.944 279.781 79.48C279.439 81.016 278.97 82.3813 278.373 83.576ZM263.461 73.464C262.735 73.464 262.095 73.7413 261.541 74.296C261.029 74.8507 260.815 75.4693 260.901 76.152C260.986 77.048 261.242 77.6667 261.669 78.008C262.138 78.3493 262.735 78.52 263.461 78.52C264.186 78.52 264.783 78.3067 265.253 77.88C265.722 77.4533 265.957 76.8773 265.957 76.152C265.957 75.4693 265.743 74.8507 265.317 74.296C264.89 73.7413 264.271 73.464 263.461 73.464ZM283.553 95.864C283.083 91.64 282.955 87.544 283.169 83.576C283.254 81.8693 283.425 80.12 283.681 78.328C283.979 76.4933 284.385 74.7013 284.897 72.952C285.409 71.16 286.049 69.4533 286.817 67.832C287.627 66.168 288.609 64.6747 289.76 63.352C291.254 61.6453 293.131 60.3013 295.393 59.32C297.654 58.3387 300.022 57.72 302.497 57.464C305.014 57.208 307.531 57.3147 310.049 57.784C312.609 58.2107 314.913 59 316.961 60.152C317.985 60.792 318.945 61.56 319.841 62.456C320.609 63.224 321.355 64.184 322.081 65.336C322.849 66.488 323.446 67.832 323.873 69.368C324.214 70.7333 324.385 72.2907 324.385 74.04C324.427 75.7893 324.278 77.5387 323.937 79.288C323.595 80.9947 323.062 82.616 322.337 84.152C321.611 85.6453 320.694 86.8613 319.585 87.8C318.561 88.6533 317.515 89.336 316.449 89.848C315.382 90.36 314.315 90.744 313.249 91C312.225 91.256 311.222 91.4053 310.241 91.448C309.302 91.4907 308.406 91.4693 307.553 91.384C305.547 91.2133 303.627 90.7013 301.793 89.848C302.39 93.0907 302.539 95.9707 302.241 98.488C302.113 99.5547 301.878 100.6 301.537 101.624C301.195 102.648 300.705 103.565 300.065 104.376C299.425 105.187 298.593 105.827 297.569 106.296C296.587 106.808 295.371 107.064 293.921 107.064C292.769 107.064 291.745 106.893 290.849 106.552C289.953 106.253 289.142 105.848 288.417 105.336C287.734 104.824 287.137 104.227 286.625 103.544C286.113 102.904 285.665 102.221 285.281 101.496C284.427 99.832 283.851 97.9547 283.553 95.864ZM304.801 73.464C304.075 73.464 303.435 73.7413 302.881 74.296C302.369 74.8507 302.155 75.4693 302.241 76.152C302.326 77.048 302.582 77.6667 303.009 78.008C303.478 78.3493 304.075 78.52 304.801 78.52C305.526 78.52 306.123 78.3067 306.593 77.88C307.062 77.4533 307.297 76.8773 307.297 76.152C307.297 75.4693 307.083 74.8507 306.657 74.296C306.23 73.7413 305.611 73.464 304.801 73.464Z" fill="#FFFEFE"/>
<path d="M201.749 79.48L206.538 80.9167L206.541 80.9067L206.544 80.8967L201.749 79.48ZM199.637 83.96L203.686 86.8925L203.71 86.8601L203.733 86.8273L199.637 83.96ZM196.629 87.16L193.487 83.2703L193.487 83.2703L196.629 87.16ZM193.045 89.336L191.056 84.7482L191.028 84.7607L190.999 84.7735L193.045 89.336ZM189.333 90.68L190.595 95.5181L190.628 95.5093L190.662 95.5L189.333 90.68ZM179.925 91.704L180.053 86.7056L179.947 86.7029L179.841 86.7047L179.925 91.704ZM173.589 90.936L171.899 95.642L171.953 95.6613L172.007 95.6794L173.589 90.936ZM169.557 88.952L172.447 84.8719L172.406 84.8428L172.364 84.8146L169.557 88.952ZM166.677 86.2L162.389 88.7725L162.487 88.9352L162.596 89.0901L166.677 86.2ZM165.205 82.616L160.327 83.7173L160.344 83.7916L160.363 83.8654L165.205 82.616ZM164.565 78.648L159.586 79.1147L159.587 79.1222L159.588 79.1296L164.565 78.648ZM164.565 64.824L169.553 65.1641L169.553 65.1566L164.565 64.824ZM165.077 59.832L170.02 60.581L170.038 60.4619L170.05 60.3421L165.077 59.832ZM165.781 55.352L170.658 56.4533L170.692 56.3016L170.717 56.1482L165.781 55.352ZM168.597 49.4L164.955 45.9732L164.949 45.9803L168.597 49.4ZM170.709 47.608L168.101 43.3416L168.046 43.3752L167.992 43.4101L170.709 47.608ZM173.013 46.52L174.594 51.2634L174.662 51.2405L174.73 51.2156L173.013 46.52ZM178.837 45.688L178.637 50.684L178.737 50.688H178.837V45.688ZM184.469 46.136L183.607 51.0612L183.667 51.0716L183.727 51.0807L184.469 46.136ZM189.077 47.224L187.451 51.9524L187.518 51.9754L187.585 51.9964L189.077 47.224ZM192.725 48.76L190.281 53.1225L190.318 53.1427L190.354 53.1624L192.725 48.76ZM195.669 50.552L198.64 46.5311L198.589 46.4928L198.536 46.4558L195.669 50.552ZM200.277 55.48L204.599 52.9669L204.577 52.9297L204.555 52.8929L200.277 55.48ZM202.645 61.816L207.539 60.7962L207.536 60.7823L207.534 60.7684L202.645 61.816ZM203.157 65.272L198.181 65.7695L198.191 65.8626L198.203 65.9552L203.157 65.272ZM203.349 69.368L208.346 69.5108L208.346 69.5108L203.349 69.368ZM202.901 74.168L197.956 73.4263L197.948 73.4792L197.941 73.5322L202.901 74.168ZM182.165 67L185.105 71.0437L185.135 71.0221L185.164 71L182.165 67ZM182.165 71.096L179.48 75.3143L179.698 75.4528L179.928 75.5681L182.165 71.096ZM185.813 70.84L182.449 67.1403L182.449 67.1403L185.813 70.84ZM185.877 67.256L189.84 64.2074L189.84 64.2074L185.877 67.256ZM196.959 78.0433C196.579 79.3097 196.091 80.306 195.54 81.0927L203.733 86.8273C204.974 85.054 205.894 83.0636 206.538 80.9167L196.959 78.0433ZM195.587 81.0275C194.931 81.9324 194.229 82.6709 193.487 83.2703L199.77 91.0497C201.247 89.8571 202.55 88.4622 203.686 86.8925L195.587 81.0275ZM193.487 83.2703C192.721 83.8889 191.913 84.3771 191.056 84.7482L195.033 93.9238C196.736 93.1856 198.317 92.2231 199.77 91.0497L193.487 83.2703ZM190.999 84.7735C189.981 85.2301 188.982 85.5899 188.003 85.86L190.662 95.5C192.158 95.0874 193.634 94.5513 195.09 93.8985L190.999 84.7735ZM188.07 85.8419C185.62 86.481 182.956 86.7801 180.053 86.7056L179.796 96.7024C183.549 96.7986 187.157 96.415 190.595 95.5181L188.07 85.8419ZM179.841 86.7047C177.611 86.7419 176.112 86.5066 175.17 86.1926L172.007 95.6794C174.393 96.4747 177.118 96.7515 180.008 96.7033L179.841 86.7047ZM175.278 86.23C173.881 85.7287 172.984 85.2526 172.447 84.8719L166.666 93.0321C168.177 94.1021 169.968 94.9486 171.899 95.642L175.278 86.23ZM172.364 84.8146C171.591 84.2903 171.088 83.7777 170.757 83.3099L162.596 89.0901C163.716 90.6703 165.132 91.9924 166.749 93.0894L172.364 84.8146ZM170.964 83.6275C170.594 83.0112 170.279 82.2692 170.046 81.3666L160.363 83.8654C160.813 85.6082 161.479 87.2555 162.389 88.7725L170.964 83.6275ZM170.082 81.5147C169.828 80.3921 169.649 79.2764 169.541 78.1664L159.588 79.1296C159.736 80.6649 159.983 82.1945 160.327 83.7173L170.082 81.5147ZM169.543 78.1813C169.428 76.9602 169.373 75.7936 169.373 74.68H159.373C159.373 76.1264 159.445 77.6051 159.586 79.1147L169.543 78.1813ZM169.373 74.68C169.373 74.6774 169.373 74.6748 169.373 74.6722C169.373 74.6697 169.373 74.6671 169.373 74.6645C169.373 74.6619 169.373 74.6593 169.373 74.6568C169.373 74.6542 169.373 74.6516 169.373 74.649C169.373 74.6464 169.373 74.6439 169.373 74.6413C169.373 74.6387 169.373 74.6361 169.373 74.6335C169.373 74.631 169.373 74.6284 169.373 74.6258C169.373 74.6232 169.373 74.6207 169.373 74.6181C169.373 74.6155 169.373 74.6129 169.373 74.6103C169.373 74.6078 169.373 74.6052 169.373 74.6026C169.373 74.6 169.373 74.5975 169.373 74.5949C169.373 74.5923 169.373 74.5897 169.373 74.5872C169.373 74.5846 169.373 74.582 169.373 74.5795C169.373 74.5769 169.373 74.5743 169.373 74.5717C169.373 74.5692 169.373 74.5666 169.373 74.564C169.373 74.5615 169.373 74.5589 169.373 74.5563C169.373 74.5537 169.373 74.5512 169.373 74.5486C169.373 74.546 169.373 74.5435 169.373 74.5409C169.373 74.5383 169.373 74.5358 169.373 74.5332C169.373 74.5306 169.373 74.5281 169.373 74.5255C169.373 74.5229 169.373 74.5204 169.373 74.5178C169.373 74.5152 169.373 74.5127 169.373 74.5101C169.373 74.5075 169.373 74.505 169.373 74.5024C169.373 74.4998 169.373 74.4973 169.373 74.4947C169.373 74.4921 169.373 74.4896 169.373 74.487C169.373 74.4844 169.373 74.4819 169.373 74.4793C169.373 74.4768 169.373 74.4742 169.373 74.4716C169.373 74.4691 169.373 74.4665 169.373 74.464C169.373 74.4614 169.373 74.4588 169.373 74.4563C169.373 74.4537 169.373 74.4512 169.373 74.4486C169.373 74.446 169.373 74.4435 169.373 74.4409C169.373 74.4384 169.373 74.4358 169.373 74.4332C169.373 74.4307 169.373 74.4281 169.373 74.4256C169.373 74.423 169.373 74.4205 169.373 74.4179C169.373 74.4154 169.373 74.4128 169.373 74.4102C169.373 74.4077 169.373 74.4051 169.373 74.4026C169.373 74.4 169.373 74.3975 169.373 74.3949C169.373 74.3924 169.373 74.3898 169.373 74.3873C169.373 74.3847 169.373 74.3822 169.373 74.3796C169.373 74.3771 169.373 74.3745 169.373 74.372C169.373 74.3694 169.373 74.3669 169.373 74.3643C169.373 74.3618 169.373 74.3592 169.373 74.3567C169.373 74.3541 169.373 74.3516 169.373 74.349C169.373 74.3465 169.373 74.3439 169.373 74.3414C169.373 74.3388 169.373 74.3363 169.373 74.3337C169.373 74.3312 169.373 74.3286 169.373 74.3261C169.373 74.3235 169.373 74.321 169.373 74.3184C169.373 74.3159 169.373 74.3134 169.373 74.3108C169.373 74.3083 169.373 74.3057 169.373 74.3032C169.373 74.3006 169.373 74.2981 169.373 74.2956C169.373 74.293 169.373 74.2905 169.373 74.2879C169.373 74.2854 169.373 74.2828 169.373 74.2803C169.373 74.2778 169.373 74.2752 169.373 74.2727C169.373 74.2701 169.373 74.2676 169.373 74.2651C169.373 74.2625 169.373 74.26 169.373 74.2574C169.373 74.2549 169.373 74.2524 169.373 74.2498C169.373 74.2473 169.373 74.2448 169.373 74.2422C169.373 74.2397 169.373 74.2371 169.373 74.2346C169.373 74.2321 169.373 74.2295 169.373 74.227C169.373 74.2245 169.373 74.2219 169.373 74.2194C169.373 74.2169 169.373 74.2143 169.373 74.2118C169.373 74.2093 169.373 74.2067 169.373 74.2042C169.373 74.2017 169.373 74.1991 169.373 74.1966C169.373 74.1941 169.373 74.1915 169.373 74.189C169.373 74.1865 169.373 74.1839 169.373 74.1814C169.373 74.1789 169.373 74.1763 169.373 74.1738C169.373 74.1713 169.373 74.1688 169.373 74.1662C169.373 74.1637 169.373 74.1612 169.373 74.1586C169.373 74.1561 169.373 74.1536 169.373 74.1511C169.373 74.1485 169.373 74.146 169.373 74.1435C169.373 74.141 169.373 74.1384 169.373 74.1359C169.373 74.1334 169.373 74.1309 169.373 74.1283C169.373 74.1258 169.373 74.1233 169.373 74.1208C169.373 74.1182 169.373 74.1157 169.373 74.1132C169.373 74.1107 169.373 74.1081 169.373 74.1056C169.373 74.1031 169.373 74.1006 169.373 74.098C169.373 74.0955 169.373 74.093 169.373 74.0905C169.373 74.088 169.373 74.0854 169.373 74.0829C169.373 74.0804 169.373 74.0779 169.373 74.0754C169.373 74.0728 169.373 74.0703 169.373 74.0678C169.373 74.0653 169.373 74.0628 169.373 74.0603C169.373 74.0577 169.373 74.0552 169.373 74.0527C169.373 74.0502 169.373 74.0477 169.373 74.0452C169.373 74.0426 169.373 74.0401 169.373 74.0376C169.373 74.0351 169.373 74.0326 169.373 74.0301C169.373 74.0276 169.373 74.025 169.373 74.0225C169.373 74.02 169.373 74.0175 169.373 74.015C169.373 74.0125 169.373 74.01 169.373 74.0075C169.373 74.0049 169.373 74.0024 169.373 73.9999C169.373 73.9974 169.373 73.9949 169.373 73.9924C169.373 73.9899 169.373 73.9874 169.373 73.9849C169.373 73.9823 169.373 73.9798 169.373 73.9773C169.373 73.9748 169.373 73.9723 169.373 73.9698C169.373 73.9673 169.373 73.9648 169.373 73.9623C169.373 73.9598 169.373 73.9573 169.373 73.9548C169.373 73.9523 169.373 73.9498 169.373 73.9472C169.373 73.9447 169.373 73.9422 169.373 73.9397C169.373 73.9372 169.373 73.9347 169.373 73.9322C169.373 73.9297 169.373 73.9272 169.373 73.9247C169.373 73.9222 169.373 73.9197 169.373 73.9172C169.373 73.9147 169.373 73.9122 169.373 73.9097C169.373 73.9072 169.373 73.9047 169.373 73.9022C169.373 73.8997 169.373 73.8972 169.373 73.8947C169.373 73.8922 169.373 73.8897 169.373 73.8872C169.373 73.8847 169.373 73.8822 169.373 73.8797C169.373 73.8772 169.373 73.8747 169.373 73.8722C169.373 73.8697 169.373 73.8672 169.373 73.8647C169.373 73.8622 169.373 73.8597 169.373 73.8572C169.373 73.8547 169.373 73.8522 169.373 73.8498C169.373 73.8473 169.373 73.8448 169.373 73.8423C169.373 73.8398 169.373 73.8373 169.373 73.8348C169.373 73.8323 169.373 73.8298 169.373 73.8273C169.373 73.8248 169.373 73.8223 169.373 73.8198C169.373 73.8173 169.373 73.8149 169.373 73.8124C169.373 73.8099 169.373 73.8074 169.373 73.8049C169.373 73.8024 169.373 73.7999 169.373 73.7974C169.373 73.7949 169.373 73.7924 169.373 73.79C169.373 73.7875 169.373 73.785 169.373 73.7825C169.373 73.78 169.373 73.7775 169.373 73.775C169.373 73.7725 169.373 73.7701 169.373 73.7676C169.373 73.7651 169.373 73.7626 169.373 73.7601C169.373 73.7576 169.373 73.7552 169.373 73.7527C169.373 73.7502 169.373 73.7477 169.373 73.7452C169.373 73.7427 169.373 73.7403 169.373 73.7378C169.373 73.7353 169.373 73.7328 169.373 73.7303C169.373 73.7278 169.373 73.7254 169.373 73.7229C169.373 73.7204 169.373 73.7179 169.373 73.7154C169.373 73.713 169.373 73.7105 169.373 73.708C169.373 73.7055 169.373 73.703 169.373 73.7006C169.373 73.6981 169.373 73.6956 169.373 73.6931C169.373 73.6907 169.373 73.6882 169.373 73.6857C169.373 73.6832 169.373 73.6807 169.373 73.6783C169.373 73.6758 169.373 73.6733 169.373 73.6708C169.373 73.6684 169.373 73.6659 169.373 73.6634C169.373 73.6609 169.373 73.6585 169.373 73.656C169.373 73.6535 169.373 73.651 169.373 73.6486C169.373 73.6461 169.373 73.6436 169.373 73.6412C169.373 73.6387 169.373 73.6362 169.373 73.6337C169.373 73.6313 169.373 73.6288 169.373 73.6263C169.373 73.6239 169.373 73.6214 169.373 73.6189C169.373 73.6165 169.373 73.614 169.373 73.6115C169.373 73.609 169.373 73.6066 169.373 73.6041C169.373 73.6016 169.373 73.5992 169.373 73.5967C169.373 73.5942 169.373 73.5918 169.373 73.5893C169.373 73.5868 169.373 73.5844 169.373 73.5819C169.373 73.5794 169.373 73.577 169.373 73.5745C169.373 73.5721 169.373 73.5696 169.373 73.5671C169.373 73.5647 169.373 73.5622 169.373 73.5597C169.373 73.5573 169.373 73.5548 169.373 73.5523C169.373 73.5499 169.373 73.5474 169.373 73.545C169.373 73.5425 169.373 73.54 169.373 73.5376C169.373 73.5351 169.373 73.5327 169.373 73.5302C169.373 73.5277 169.373 73.5253 169.373 73.5228C169.373 73.5204 169.373 73.5179 169.373 73.5154C169.373 73.513 169.373 73.5105 169.373 73.5081C169.373 73.5056 169.373 73.5032 169.373 73.5007C169.373 73.4982 169.373 73.4958 169.373 73.4933C169.373 73.4909 169.373 73.4884 169.373 73.486C169.373 73.4835 169.373 73.4811 169.373 73.4786C169.373 73.4762 169.373 73.4737 169.373 73.4712C169.373 73.4688 169.373 73.4663 169.373 73.4639C169.373 73.4614 169.373 73.459 169.373 73.4565C169.373 73.4541 169.373 73.4516 169.373 73.4492C169.373 73.4467 169.373 73.4443 169.373 73.4418C169.373 73.4394 169.373 73.4369 169.373 73.4345C169.373 73.432 169.373 73.4296 169.373 73.4271C169.373 73.4247 169.373 73.4222 169.373 73.4198C169.373 73.4173 169.373 73.4149 169.373 73.4125C169.373 73.41 169.373 73.4076 169.373 73.4051C169.373 73.4027 169.373 73.4002 169.373 73.3978C169.373 73.3953 169.373 73.3929 169.373 73.3904C169.373 73.388 169.373 73.3856 169.373 73.3831C169.373 73.3807 169.373 73.3782 169.373 73.3758C169.373 73.3733 169.373 73.3709 169.373 73.3685C169.373 73.366 169.373 73.3636 169.373 73.3611C169.373 73.3587 169.373 73.3563 169.373 73.3538C169.373 73.3514 169.373 73.3489 169.373 73.3465C169.373 73.3441 169.373 73.3416 169.373 73.3392C169.373 73.3367 169.373 73.3343 169.373 73.3319C169.373 73.3294 169.373 73.327 169.373 73.3245C169.373 73.3221 169.373 73.3197 169.373 73.3172C169.373 73.3148 169.373 73.3124 169.373 73.3099C169.373 73.3075 169.373 73.3051 169.373 73.3026C169.373 73.3002 169.373 73.2978 169.373 73.2953C169.373 73.2929 169.373 73.2905 169.373 73.288C169.373 73.2856 169.373 73.2832 169.373 73.2807C169.373 73.2783 169.373 73.2759 169.373 73.2734C169.373 73.271 169.373 73.2686 169.373 73.2661C169.373 73.2637 169.373 73.2613 169.373 73.2589C169.373 73.2564 169.373 73.254 169.373 73.2516C169.373 73.2491 169.373 73.2467 169.373 73.2443C169.373 73.2419 169.373 73.2394 169.373 73.237C169.373 73.2346 169.373 73.2321 169.373 73.2297C169.373 73.2273 169.373 73.2249 169.373 73.2224C169.373 73.22 169.373 73.2176 169.373 73.2152C169.373 73.2127 169.373 73.2103 169.373 73.2079C169.373 73.2055 169.373 73.203 169.373 73.2006C169.373 73.1982 169.373 73.1958 169.373 73.1934C169.373 73.1909 169.373 73.1885 169.373 73.1861C169.373 73.1837 169.373 73.1812 169.373 73.1788C169.373 73.1764 169.373 73.174 169.373 73.1716C169.373 73.1691 169.373 73.1667 169.373 73.1643C169.373 73.1619 169.373 73.1595 169.373 73.1571C169.373 73.1546 169.373 73.1522 169.373 73.1498C169.373 73.1474 169.373 73.145 169.373 73.1425C169.373 73.1401 169.373 73.1377 169.373 73.1353C169.373 73.1329 169.373 73.1305 169.373 73.1281C169.373 73.1256 169.373 73.1232 169.373 73.1208C169.373 73.1184 169.373 73.116 169.373 73.1136C169.373 73.1112 169.373 73.1087 169.373 73.1063C169.373 73.1039 169.373 73.1015 169.373 73.0991C169.373 73.0967 169.373 73.0943 169.373 73.0919C169.373 73.0895 169.373 73.087 169.373 73.0846C169.373 73.0822 169.373 73.0798 169.373 73.0774C169.373 73.075 169.373 73.0726 169.373 73.0702C169.373 73.0678 169.373 73.0654 169.373 73.063C169.373 73.0605 169.373 73.0581 169.373 73.0557C169.373 73.0533 169.373 73.0509 169.373 73.0485C169.373 73.0461 169.373 73.0437 169.373 73.0413C169.373 73.0389 169.373 73.0365 169.373 73.0341C169.373 73.0317 169.373 73.0293 169.373 73.0269C169.373 73.0245 169.373 73.0221 169.373 73.0197C169.373 73.0173 169.373 73.0149 169.373 73.0125C169.373 73.0101 169.373 73.0077 169.373 73.0052C169.373 73.0028 169.373 73.0004 169.373 72.998C169.373 72.9956 169.373 72.9932 169.373 72.9908C169.373 72.9884 169.373 72.986 169.373 72.9837C169.373 72.9813 169.373 72.9789 169.373 72.9765C169.373 72.9741 169.373 72.9717 169.373 72.9693C169.373 72.9669 169.373 72.9645 169.373 72.9621C169.373 72.9597 169.373 72.9573 169.373 72.9549C169.373 72.9525 169.373 72.9501 169.373 72.9477C169.373 72.9453 169.373 72.9429 169.373 72.9405C169.373 72.9381 169.373 72.9357 169.373 72.9333C169.373 72.9309 169.373 72.9286 169.373 72.9262C169.373 72.9238 169.373 72.9214 169.373 72.919C169.373 72.9166 169.373 72.9142 169.373 72.9118C169.373 72.9094 169.373 72.907 169.373 72.9046C169.373 72.9023 169.373 72.8999 169.373 72.8975C169.373 72.8951 169.373 72.8927 169.373 72.8903C169.373 72.8879 169.373 72.8855 169.373 72.8831C169.373 72.8808 169.373 72.8784 169.373 72.876C169.373 72.8736 169.373 72.8712 169.373 72.8688C169.373 72.8664 169.373 72.8641 169.373 72.8617C169.373 72.8593 169.373 72.8569 169.373 72.8545C169.373 72.8521 169.373 72.8498 169.373 72.8474C169.373 72.845 169.373 72.8426 169.373 72.8402C169.373 72.8378 169.373 72.8355 169.373 72.8331C169.373 72.8307 169.373 72.8283 169.373 72.8259C169.373 72.8236 169.373 72.8212 169.373 72.8188C169.373 72.8164 169.373 72.814 169.373 72.8117C169.373 72.8093 169.373 72.8069 169.373 72.8045C169.373 72.8021 169.373 72.7998 169.373 72.7974C169.373 72.795 169.373 72.7926 169.373 72.7903C169.373 72.7879 169.373 72.7855 169.373 72.7831C169.373 72.7807 169.373 72.7784 169.373 72.776C169.373 72.7736 169.373 72.7712 169.373 72.7689C169.373 72.7665 169.373 72.7641 169.373 72.7618C169.373 72.7594 169.373 72.757 169.373 72.7546C169.373 72.7523 169.373 72.7499 169.373 72.7475C169.373 72.7451 169.373 72.7428 169.373 72.7404C169.373 72.738 169.373 72.7357 169.373 72.7333C169.373 72.7309 169.373 72.7286 169.373 72.7262C169.373 72.7238 169.373 72.7214 169.373 72.7191C169.373 72.7167 169.373 72.7143 169.373 72.712C169.373 72.7096 169.373 72.7072 169.373 72.7049C169.373 72.7025 169.373 72.7001 169.373 72.6978C169.373 72.6954 169.373 72.693 169.373 72.6907C169.373 72.6883 169.373 72.6859 169.373 72.6836C169.373 72.6812 169.373 72.6789 169.373 72.6765C169.373 72.6741 169.373 72.6718 169.373 72.6694C169.373 72.667 169.373 72.6647 169.373 72.6623C169.373 72.6599 169.373 72.6576 169.373 72.6552C169.373 72.6529 169.373 72.6505 169.373 72.6481C169.373 72.6458 169.373 72.6434 169.373 72.6411C169.373 72.6387 169.373 72.6363 169.373 72.634C169.373 72.6316 169.373 72.6293 169.373 72.6269C169.373 72.6246 169.373 72.6222 169.373 72.6198C169.373 72.6175 169.373 72.6151 169.373 72.6128C169.373 72.6104 169.373 72.6081 169.373 72.6057C169.373 72.6033 169.373 72.601 169.373 72.5986C169.373 72.5963 169.373 72.5939 169.373 72.5916C169.373 72.5892 169.373 72.5869 169.373 72.5845C169.373 72.5822 169.373 72.5798 169.373 72.5775C169.373 72.5751 169.373 72.5728 169.373 72.5704C169.373 72.568 169.373 72.5657 169.373 72.5633C169.373 72.561 169.373 72.5586 169.373 72.5563C169.373 72.5539 169.373 72.5516 169.373 72.5492C169.373 72.5469 169.373 72.5446 169.373 72.5422C169.373 72.5399 169.373 72.5375 169.373 72.5352C169.373 72.5328 169.373 72.5305 169.373 72.5281C169.373 72.5258 169.373 72.5234 169.373 72.5211C169.373 72.5187 169.373 72.5164 169.373 72.514C169.373 72.5117 169.373 72.5094 169.373 72.507C169.373 72.5047 169.373 72.5023 169.373 72.5C169.373 72.4976 169.373 72.4953 169.373 72.493C169.373 72.4906 169.373 72.4883 169.373 72.4859C169.373 72.4836 169.373 72.4812 169.373 72.4789C169.373 72.4766 169.373 72.4742 169.373 72.4719C169.373 72.4695 169.373 72.4672 169.373 72.4649C169.373 72.4625 169.373 72.4602 169.373 72.4578C169.373 72.4555 169.373 72.4532 169.373 72.4508C169.373 72.4485 169.373 72.4462 169.373 72.4438C169.373 72.4415 169.373 72.4391 169.373 72.4368C169.373 72.4345 169.373 72.4321 169.373 72.4298C169.373 72.4275 169.373 72.4251 169.373 72.4228C169.373 72.4205 169.373 72.4181 169.373 72.4158C169.373 72.4135 169.373 72.4111 169.373 72.4088C169.373 72.4065 169.373 72.4041 169.373 72.4018C169.373 72.3995 169.373 72.3971 169.373 72.3948C169.373 72.3925 169.373 72.3901 169.373 72.3878C169.373 72.3855 169.373 72.3832 169.373 72.3808C169.373 72.3785 169.373 72.3762 169.373 72.3738C169.373 72.3715 169.373 72.3692 169.373 72.3669C169.373 72.3645 169.373 72.3622 169.373 72.3599C169.373 72.3575 169.373 72.3552 169.373 72.3529C169.373 72.3506 169.373 72.3482 169.373 72.3459C169.373 72.3436 169.373 72.3413 169.373 72.3389C169.373 72.3366 169.373 72.3343 169.373 72.332C169.373 72.3296 169.373 72.3273 169.373 72.325C169.373 72.3227 169.373 72.3204 169.373 72.318C169.373 72.3157 169.373 72.3134 169.373 72.3111C169.373 72.3087 169.373 72.3064 169.373 72.3041C169.373 72.3018 169.373 72.2995 169.373 72.2971C169.373 72.2948 169.373 72.2925 169.373 72.2902C169.373 72.2879 169.373 72.2855 169.373 72.2832C169.373 72.2809 169.373 72.2786 169.373 72.2763C169.373 72.274 169.373 72.2716 169.373 72.2693C169.373 72.267 169.373 72.2647 169.373 72.2624C169.373 72.2601 169.373 72.2577 169.373 72.2554C169.373 72.2531 169.373 72.2508 169.373 72.2485C169.373 72.2462 169.373 72.2439 169.373 72.2416C169.373 72.2392 169.373 72.2369 169.373 72.2346C169.373 72.2323 169.373 72.23 169.373 72.2277C169.373 72.2254 169.373 72.2231 169.373 72.2207C169.373 72.2184 169.373 72.2161 169.373 72.2138C169.373 72.2115 169.373 72.2092 169.373 72.2069C169.373 72.2046 169.373 72.2023 169.373 72.2C169.373 72.1976 169.373 72.1953 169.373 72.193C169.373 72.1907 169.373 72.1884 169.373 72.1861C169.373 72.1838 169.373 72.1815 169.373 72.1792C169.373 72.1769 169.373 72.1746 169.373 72.1723C169.373 72.17 169.373 72.1677 169.373 72.1654C169.373 72.1631 169.373 72.1608 169.373 72.1585C169.373 72.1561 169.373 72.1538 169.373 72.1515C169.373 72.1492 169.373 72.1469 169.373 72.1446C169.373 72.1423 169.373 72.14 169.373 72.1377C169.373 72.1354 169.373 72.1331 169.373 72.1308C169.373 72.1285 169.373 72.1262 169.373 72.1239C169.373 72.1216 169.373 72.1193 169.373 72.117C169.373 72.1147 169.373 72.1124 169.373 72.1101C169.373 72.1078 169.373 72.1055 169.373 72.1032C169.373 72.101 169.373 72.0987 169.373 72.0964C169.373 72.0941 169.373 72.0918 169.373 72.0895C169.373 72.0872 169.373 72.0849 169.373 72.0826C169.373 72.0803 169.373 72.078 169.373 72.0757C169.373 72.0734 169.373 72.0711 169.373 72.0688C169.373 72.0665 169.373 72.0642 169.373 72.0619C169.373 72.0597 169.373 72.0574 169.373 72.0551C169.373 72.0528 169.373 72.0505 169.373 72.0482C169.373 72.0459 169.373 72.0436 169.373 72.0413C169.373 72.039 169.373 72.0368 169.373 72.0345C169.373 72.0322 169.373 72.0299 169.373 72.0276C169.373 72.0253 169.373 72.023 169.373 72.0207C169.373 72.0185 169.373 72.0162 169.373 72.0139C169.373 72.0116 169.373 72.0093 169.373 72.007C169.373 72.0047 169.373 72.0024 169.373 72.0002C169.373 71.9979 169.373 71.9956 169.373 71.9933C169.373 71.991 169.373 71.9887 169.373 71.9865C169.373 71.9842 169.373 71.9819 169.373 71.9796C169.373 71.9773 169.373 71.975 169.373 71.9728C169.373 71.9705 169.373 71.9682 169.373 71.9659C169.373 71.9636 169.373 71.9614 169.373 71.9591C169.373 71.9568 169.373 71.9545 169.373 71.9522C169.373 71.95 169.373 71.9477 169.373 71.9454C169.373 71.9431 169.373 71.9409 169.373 71.9386C169.373 71.9363 169.373 71.934 169.373 71.9317C169.373 71.9295 169.373 71.9272 169.373 71.9249C169.373 71.9226 169.373 71.9204 169.373 71.9181C169.373 71.9158 169.373 71.9135 169.373 71.9113C169.373 71.909 169.373 71.9067 169.373 71.9044C169.373 71.9022 169.373 71.8999 169.373 71.8976C169.373 71.8954 169.373 71.8931 169.373 71.8908C169.373 71.8885 169.373 71.8863 169.373 71.884C169.373 71.8817 169.373 71.8795 169.373 71.8772C169.373 71.8749 169.373 71.8726 169.373 71.8704C169.373 71.8681 169.373 71.8658 169.373 71.8636C169.373 71.8613 169.373 71.859 169.373 71.8568C169.373 71.8545 169.373 71.8522 169.373 71.85C169.373 71.8477 169.373 71.8454 169.373 71.8432C169.373 71.8409 169.373 71.8386 169.373 71.8364C169.373 71.8341 169.373 71.8318 169.373 71.8296C169.373 71.8273 169.373 71.825 169.373 71.8228C169.373 71.8205 169.373 71.8183 169.373 71.816C169.373 71.8137 169.373 71.8115 169.373 71.8092C169.373 71.8069 169.373 71.8047 169.373 71.8024C169.373 71.8002 169.373 71.7979 169.373 71.7956C169.373 71.7934 169.373 71.7911 169.373 71.7889C169.373 71.7866 169.373 71.7843 169.373 71.7821C169.373 71.7798 169.373 71.7776 169.373 71.7753C169.373 71.7731 169.373 71.7708 169.373 71.7685C169.373 71.7663 169.373 71.764 169.373 71.7618C169.373 71.7595 169.373 71.7573 169.373 71.755C169.373 71.7527 169.373 71.7505 169.373 71.7482C169.373 71.746 169.373 71.7437 169.373 71.7415C169.373 71.7392 169.373 71.737 169.373 71.7347C169.373 71.7325 169.373 71.7302 169.373 71.728C169.373 71.7257 169.373 71.7235 169.373 71.7212C169.373 71.719 169.373 71.7167 169.373 71.7144C169.373 71.7122 169.373 71.7099 169.373 71.7077C169.373 71.7054 169.373 71.7032 169.373 71.701C169.373 71.6987 169.373 71.6965 169.373 71.6942C169.373 71.692 169.373 71.6897 169.373 71.6875C169.373 71.6852 169.373 71.683 169.373 71.6807C169.373 71.6785 169.373 71.6762 169.373 71.674C169.373 71.6717 169.373 71.6695 169.373 71.6672C169.373 71.665 169.373 71.6628 169.373 71.6605C169.373 71.6583 169.373 71.656 169.373 71.6538C169.373 71.6515 169.373 71.6493 169.373 71.6471C169.373 71.6448 169.373 71.6426 169.373 71.6403C169.373 71.6381 169.373 71.6358 169.373 71.6336C169.373 71.6314 169.373 71.6291 169.373 71.6269C169.373 71.6246 169.373 71.6224 169.373 71.6202C169.373 71.6179 169.373 71.6157 169.373 71.6135C169.373 71.6112 169.373 71.609 169.373 71.6067C169.373 71.6045 169.373 71.6023 169.373 71.6C169.373 71.5978 169.373 71.5956 169.373 71.5933C169.373 71.5911 169.373 71.5888 169.373 71.5866C169.373 71.5844 169.373 71.5821 169.373 71.5799C169.373 71.5777 169.373 71.5754 169.373 71.5732C169.373 71.571 169.373 71.5687 169.373 71.5665C169.373 71.5643 169.373 71.562 169.373 71.5598C169.373 71.5576 169.373 71.5553 169.373 71.5531C169.373 71.5509 169.373 71.5487 169.373 71.5464C169.373 71.5442 169.373 71.542 169.373 71.5397C169.373 71.5375 169.373 71.5353 169.373 71.5331C169.373 71.5308 169.373 71.5286 169.373 71.5264C169.373 71.5241 169.373 71.5219 169.373 71.5197C169.373 71.5175 169.373 71.5152 169.373 71.513C169.373 71.5108 169.373 71.5086 169.373 71.5063C169.373 71.5041 169.373 71.5019 169.373 71.4997C169.373 71.4974 169.373 71.4952 169.373 71.493C169.373 71.4908 169.373 71.4885 169.373 71.4863C169.373 71.4841 169.373 71.4819 169.373 71.4796C169.373 71.4774 169.373 71.4752 169.373 71.473C169.373 71.4708 169.373 71.4685 169.373 71.4663C169.373 71.4641 169.373 71.4619 169.373 71.4597C169.373 71.4574 169.373 71.4552 169.373 71.453C169.373 71.4508 169.373 71.4486 169.373 71.4463C169.373 71.4441 169.373 71.4419 169.373 71.4397C169.373 71.4375 169.373 71.4353 169.373 71.433C169.373 71.4308 169.373 71.4286 169.373 71.4264C169.373 71.4242 169.373 71.422 169.373 71.4197C169.373 71.4175 169.373 71.4153 169.373 71.4131C169.373 71.4109 169.373 71.4087 169.373 71.4065C169.373 71.4043 169.373 71.402 169.373 71.3998C169.373 71.3976 169.373 71.3954 169.373 71.3932C169.373 71.391 169.373 71.3888 169.373 71.3866C169.373 71.3843 169.373 71.3821 169.373 71.3799C169.373 71.3777 169.373 71.3755 169.373 71.3733C169.373 71.3711 169.373 71.3689 169.373 71.3667C169.373 71.3645 169.373 71.3623 169.373 71.3601C169.373 71.3578 169.373 71.3556 169.373 71.3534C169.373 71.3512 169.373 71.349 169.373 71.3468C169.373 71.3446 169.373 71.3424 169.373 71.3402C169.373 71.338 169.373 71.3358 169.373 71.3336C169.373 71.3314 169.373 71.3292 169.373 71.327C169.373 71.3248 169.373 71.3226 169.373 71.3204C169.373 71.3182 169.373 71.316 169.373 71.3138C169.373 71.3116 169.373 71.3094 169.373 71.3072C169.373 71.305 169.373 71.3028 169.373 71.3006C169.373 71.2984 169.373 71.2962 169.373 71.294C169.373 71.2918 169.373 71.2896 169.373 71.2874C169.373 71.2852 169.373 71.283 169.373 71.2808C169.373 71.2786 169.373 71.2764 169.373 71.2742C169.373 71.272 169.373 71.2698 169.373 71.2676C169.373 71.2654 169.373 71.2632 169.373 71.261C169.373 71.2588 169.373 71.2566 169.373 71.2544C169.373 71.2522 169.373 71.25 169.373 71.2478C169.373 71.2456 169.373 71.2434 169.373 71.2412C169.373 71.2391 169.373 71.2369 169.373 71.2347C169.373 71.2325 169.373 71.2303 169.373 71.2281C169.373 71.2259 169.373 71.2237 169.373 71.2215C169.373 71.2193 169.373 71.2171 169.373 71.215C169.373 71.2128 169.373 71.2106 169.373 71.2084C169.373 71.2062 169.373 71.204 169.373 71.2018C169.373 71.1996 169.373 71.1974 169.373 71.1953C169.373 71.1931 169.373 71.1909 169.373 71.1887C169.373 71.1865 169.373 71.1843 169.373 71.1821C169.373 71.18 169.373 71.1778 169.373 71.1756C169.373 71.1734 169.373 71.1712 169.373 71.169C169.373 71.1669 169.373 71.1647 169.373 71.1625C169.373 71.1603 169.373 71.1581 169.373 71.1559C169.373 71.1538 169.373 71.1516 169.373 71.1494C169.373 71.1472 169.373 71.145 169.373 71.1429C169.373 71.1407 169.373 71.1385 169.373 71.1363C169.373 71.1341 169.373 71.132 169.373 71.1298C169.373 71.1276 169.373 71.1254 169.373 71.1232C169.373 71.1211 169.373 71.1189 169.373 71.1167C169.373 71.1145 169.373 71.1124 169.373 71.1102C169.373 71.108 169.373 71.1058 169.373 71.1036C169.373 71.1015 169.373 71.0993 169.373 71.0971C169.373 71.0949 169.373 71.0928 169.373 71.0906C169.373 71.0884 169.373 71.0863 169.373 71.0841C169.373 71.0819 169.373 71.0797 169.373 71.0776C169.373 71.0754 169.373 71.0732 169.373 71.071C169.373 71.0689 169.373 71.0667 169.373 71.0645C169.373 71.0624 169.373 71.0602 169.373 71.058C169.373 71.0558 169.373 71.0537 169.373 71.0515C169.373 71.0493 169.373 71.0472 169.373 71.045C169.373 71.0428 169.373 71.0407 169.373 71.0385C169.373 71.0363 169.373 71.0342 169.373 71.032H159.373C159.373 71.0342 159.373 71.0363 159.373 71.0385C159.373 71.0407 159.373 71.0428 159.373 71.045C159.373 71.0472 159.373 71.0493 159.373 71.0515C159.373 71.0537 159.373 71.0558 159.373 71.058C159.373 71.0602 159.373 71.0624 159.373 71.0645C159.373 71.0667 159.373 71.0689 159.373 71.071C159.373 71.0732 159.373 71.0754 159.373 71.0776C159.373 71.0797 159.373 71.0819 159.373 71.0841C159.373 71.0863 159.373 71.0884 159.373 71.0906C159.373 71.0928 159.373 71.0949 159.373 71.0971C159.373 71.0993 159.373 71.1015 159.373 71.1036C159.373 71.1058 159.373 71.108 159.373 71.1102C159.373 71.1124 159.373 71.1145 159.373 71.1167C159.373 71.1189 159.373 71.1211 159.373 71.1232C159.373 71.1254 159.373 71.1276 159.373 71.1298C159.373 71.132 159.373 71.1341 159.373 71.1363C159.373 71.1385 159.373 71.1407 159.373 71.1429C159.373 71.145 159.373 71.1472 159.373 71.1494C159.373 71.1516 159.373 71.1538 159.373 71.1559C159.373 71.1581 159.373 71.1603 159.373 71.1625C159.373 71.1647 159.373 71.1669 159.373 71.169C159.373 71.1712 159.373 71.1734 159.373 71.1756C159.373 71.1778 159.373 71.18 159.373 71.1821C159.373 71.1843 159.373 71.1865 159.373 71.1887C159.373 71.1909 159.373 71.1931 159.373 71.1953C159.373 71.1974 159.373 71.1996 159.373 71.2018C159.373 71.204 159.373 71.2062 159.373 71.2084C159.373 71.2106 159.373 71.2128 159.373 71.215C159.373 71.2171 159.373 71.2193 159.373 71.2215C159.373 71.2237 159.373 71.2259 159.373 71.2281C159.373 71.2303 159.373 71.2325 159.373 71.2347C159.373 71.2369 159.373 71.2391 159.373 71.2412C159.373 71.2434 159.373 71.2456 159.373 71.2478C159.373 71.25 159.373 71.2522 159.373 71.2544C159.373 71.2566 159.373 71.2588 159.373 71.261C159.373 71.2632 159.373 71.2654 159.373 71.2676C159.373 71.2698 159.373 71.272 159.373 71.2742C159.373 71.2764 159.373 71.2786 159.373 71.2808C159.373 71.283 159.373 71.2852 159.373 71.2874C159.373 71.2896 159.373 71.2918 159.373 71.294C159.373 71.2962 159.373 71.2984 159.373 71.3006C159.373 71.3028 159.373 71.305 159.373 71.3072C159.373 71.3094 159.373 71.3116 159.373 71.3138C159.373 71.316 159.373 71.3182 159.373 71.3204C159.373 71.3226 159.373 71.3248 159.373 71.327C159.373 71.3292 159.373 71.3314 159.373 71.3336C159.373 71.3358 159.373 71.338 159.373 71.3402C159.373 71.3424 159.373 71.3446 159.373 71.3468C159.373 71.349 159.373 71.3512 159.373 71.3534C159.373 71.3556 159.373 71.3578 159.373 71.3601C159.373 71.3623 159.373 71.3645 159.373 71.3667C159.373 71.3689 159.373 71.3711 159.373 71.3733C159.373 71.3755 159.373 71.3777 159.373 71.3799C159.373 71.3821 159.373 71.3843 159.373 71.3866C159.373 71.3888 159.373 71.391 159.373 71.3932C159.373 71.3954 159.373 71.3976 159.373 71.3998C159.373 71.402 159.373 71.4043 159.373 71.4065C159.373 71.4087 159.373 71.4109 159.373 71.4131C159.373 71.4153 159.373 71.4175 159.373 71.4197C159.373 71.422 159.373 71.4242 159.373 71.4264C159.373 71.4286 159.373 71.4308 159.373 71.433C159.373 71.4353 159.373 71.4375 159.373 71.4397C159.373 71.4419 159.373 71.4441 159.373 71.4463C159.373 71.4486 159.373 71.4508 159.373 71.453C159.373 71.4552 159.373 71.4574 159.373 71.4597C159.373 71.4619 159.373 71.4641 159.373 71.4663C159.373 71.4685 159.373 71.4708 159.373 71.473C159.373 71.4752 159.373 71.4774 159.373 71.4796C159.373 71.4819 159.373 71.4841 159.373 71.4863C159.373 71.4885 159.373 71.4908 159.373 71.493C159.373 71.4952 159.373 71.4974 159.373 71.4997C159.373 71.5019 159.373 71.5041 159.373 71.5063C159.373 71.5086 159.373 71.5108 159.373 71.513C159.373 71.5152 159.373 71.5175 159.373 71.5197C159.373 71.5219 159.373 71.5241 159.373 71.5264C159.373 71.5286 159.373 71.5308 159.373 71.5331C159.373 71.5353 159.373 71.5375 159.373 71.5397C159.373 71.542 159.373 71.5442 159.373 71.5464C159.373 71.5487 159.373 71.5509 159.373 71.5531C159.373 71.5553 159.373 71.5576 159.373 71.5598C159.373 71.562 159.373 71.5643 159.373 71.5665C159.373 71.5687 159.373 71.571 159.373 71.5732C159.373 71.5754 159.373 71.5777 159.373 71.5799C159.373 71.5821 159.373 71.5844 159.373 71.5866C159.373 71.5888 159.373 71.5911 159.373 71.5933C159.373 71.5956 159.373 71.5978 159.373 71.6C159.373 71.6023 159.373 71.6045 159.373 71.6067C159.373 71.609 159.373 71.6112 159.373 71.6135C159.373 71.6157 159.373 71.6179 159.373 71.6202C159.373 71.6224 159.373 71.6246 159.373 71.6269C159.373 71.6291 159.373 71.6314 159.373 71.6336C159.373 71.6358 159.373 71.6381 159.373 71.6403C159.373 71.6426 159.373 71.6448 159.373 71.6471C159.373 71.6493 159.373 71.6515 159.373 71.6538C159.373 71.656 159.373 71.6583 159.373 71.6605C159.373 71.6628 159.373 71.665 159.373 71.6672C159.373 71.6695 159.373 71.6717 159.373 71.674C159.373 71.6762 159.373 71.6785 159.373 71.6807C159.373 71.683 159.373 71.6852 159.373 71.6875C159.373 71.6897 159.373 71.692 159.373 71.6942C159.373 71.6965 159.373 71.6987 159.373 71.701C159.373 71.7032 159.373 71.7054 159.373 71.7077C159.373 71.7099 159.373 71.7122 159.373 71.7144C159.373 71.7167 159.373 71.719 159.373 71.7212C159.373 71.7235 159.373 71.7257 159.373 71.728C159.373 71.7302 159.373 71.7325 159.373 71.7347C159.373 71.737 159.373 71.7392 159.373 71.7415C159.373 71.7437 159.373 71.746 159.373 71.7482C159.373 71.7505 159.373 71.7527 159.373 71.755C159.373 71.7573 159.373 71.7595 159.373 71.7618C159.373 71.764 159.373 71.7663 159.373 71.7685C159.373 71.7708 159.373 71.7731 159.373 71.7753C159.373 71.7776 159.373 71.7798 159.373 71.7821C159.373 71.7843 159.373 71.7866 159.373 71.7889C159.373 71.7911 159.373 71.7934 159.373 71.7956C159.373 71.7979 159.373 71.8002 159.373 71.8024C159.373 71.8047 159.373 71.8069 159.373 71.8092C159.373 71.8115 159.373 71.8137 159.373 71.816C159.373 71.8183 159.373 71.8205 159.373 71.8228C159.373 71.825 159.373 71.8273 159.373 71.8296C159.373 71.8318 159.373 71.8341 159.373 71.8364C159.373 71.8386 159.373 71.8409 159.373 71.8432C159.373 71.8454 159.373 71.8477 159.373 71.85C159.373 71.8522 159.373 71.8545 159.373 71.8568C159.373 71.859 159.373 71.8613 159.373 71.8636C159.373 71.8658 159.373 71.8681 159.373 71.8704C159.373 71.8726 159.373 71.8749 159.373 71.8772C159.373 71.8795 159.373 71.8817 159.373 71.884C159.373 71.8863 159.373 71.8885 159.373 71.8908C159.373 71.8931 159.373 71.8954 159.373 71.8976C159.373 71.8999 159.373 71.9022 159.373 71.9044C159.373 71.9067 159.373 71.909 159.373 71.9113C159.373 71.9135 159.373 71.9158 159.373 71.9181C159.373 71.9204 159.373 71.9226 159.373 71.9249C159.373 71.9272 159.373 71.9295 159.373 71.9317C159.373 71.934 159.373 71.9363 159.373 71.9386C159.373 71.9409 159.373 71.9431 159.373 71.9454C159.373 71.9477 159.373 71.95 159.373 71.9522C159.373 71.9545 159.373 71.9568 159.373 71.9591C159.373 71.9614 159.373 71.9636 159.373 71.9659C159.373 71.9682 159.373 71.9705 159.373 71.9728C159.373 71.975 159.373 71.9773 159.373 71.9796C159.373 71.9819 159.373 71.9842 159.373 71.9865C159.373 71.9887 159.373 71.991 159.373 71.9933C159.373 71.9956 159.373 71.9979 159.373 72.0002C159.373 72.0024 159.373 72.0047 159.373 72.007C159.373 72.0093 159.373 72.0116 159.373 72.0139C159.373 72.0162 159.373 72.0185 159.373 72.0207C159.373 72.023 159.373 72.0253 159.373 72.0276C159.373 72.0299 159.373 72.0322 159.373 72.0345C159.373 72.0368 159.373 72.039 159.373 72.0413C159.373 72.0436 159.373 72.0459 159.373 72.0482C159.373 72.0505 159.373 72.0528 159.373 72.0551C159.373 72.0574 159.373 72.0597 159.373 72.0619C159.373 72.0642 159.373 72.0665 159.373 72.0688C159.373 72.0711 159.373 72.0734 159.373 72.0757C159.373 72.078 159.373 72.0803 159.373 72.0826C159.373 72.0849 159.373 72.0872 159.373 72.0895C159.373 72.0918 159.373 72.0941 159.373 72.0964C159.373 72.0987 159.373 72.101 159.373 72.1032C159.373 72.1055 159.373 72.1078 159.373 72.1101C159.373 72.1124 159.373 72.1147 159.373 72.117C159.373 72.1193 159.373 72.1216 159.373 72.1239C159.373 72.1262 159.373 72.1285 159.373 72.1308C159.373 72.1331 159.373 72.1354 159.373 72.1377C159.373 72.14 159.373 72.1423 159.373 72.1446C159.373 72.1469 159.373 72.1492 159.373 72.1515C159.373 72.1538 159.373 72.1561 159.373 72.1585C159.373 72.1608 159.373 72.1631 159.373 72.1654C159.373 72.1677 159.373 72.17 159.373 72.1723C159.373 72.1746 159.373 72.1769 159.373 72.1792C159.373 72.1815 159.373 72.1838 159.373 72.1861C159.373 72.1884 159.373 72.1907 159.373 72.193C159.373 72.1953 159.373 72.1976 159.373 72.2C159.373 72.2023 159.373 72.2046 159.373 72.2069C159.373 72.2092 159.373 72.2115 159.373 72.2138C159.373 72.2161 159.373 72.2184 159.373 72.2207C159.373 72.2231 159.373 72.2254 159.373 72.2277C159.373 72.23 159.373 72.2323 159.373 72.2346C159.373 72.2369 159.373 72.2392 159.373 72.2416C159.373 72.2439 159.373 72.2462 159.373 72.2485C159.373 72.2508 159.373 72.2531 159.373 72.2554C159.373 72.2577 159.373 72.2601 159.373 72.2624C159.373 72.2647 159.373 72.267 159.373 72.2693C159.373 72.2716 159.373 72.274 159.373 72.2763C159.373 72.2786 159.373 72.2809 159.373 72.2832C159.373 72.2855 159.373 72.2879 159.373 72.2902C159.373 72.2925 159.373 72.2948 159.373 72.2971C159.373 72.2995 159.373 72.3018 159.373 72.3041C159.373 72.3064 159.373 72.3087 159.373 72.3111C159.373 72.3134 159.373 72.3157 159.373 72.318C159.373 72.3204 159.373 72.3227 159.373 72.325C159.373 72.3273 159.373 72.3296 159.373 72.332C159.373 72.3343 159.373 72.3366 159.373 72.3389C159.373 72.3413 159.373 72.3436 159.373 72.3459C159.373 72.3482 159.373 72.3506 159.373 72.3529C159.373 72.3552 159.373 72.3575 159.373 72.3599C159.373 72.3622 159.373 72.3645 159.373 72.3669C159.373 72.3692 159.373 72.3715 159.373 72.3738C159.373 72.3762 159.373 72.3785 159.373 72.3808C159.373 72.3832 159.373 72.3855 159.373 72.3878C159.373 72.3901 159.373 72.3925 159.373 72.3948C159.373 72.3971 159.373 72.3995 159.373 72.4018C159.373 72.4041 159.373 72.4065 159.373 72.4088C159.373 72.4111 159.373 72.4135 159.373 72.4158C159.373 72.4181 159.373 72.4205 159.373 72.4228C159.373 72.4251 159.373 72.4275 159.373 72.4298C159.373 72.4321 159.373 72.4345 159.373 72.4368C159.373 72.4391 159.373 72.4415 159.373 72.4438C159.373 72.4462 159.373 72.4485 159.373 72.4508C159.373 72.4532 159.373 72.4555 159.373 72.4578C159.373 72.4602 159.373 72.4625 159.373 72.4649C159.373 72.4672 159.373 72.4695 159.373 72.4719C159.373 72.4742 159.373 72.4766 159.373 72.4789C159.373 72.4812 159.373 72.4836 159.373 72.4859C159.373 72.4883 159.373 72.4906 159.373 72.493C159.373 72.4953 159.373 72.4976 159.373 72.5C159.373 72.5023 159.373 72.5047 159.373 72.507C159.373 72.5094 159.373 72.5117 159.373 72.514C159.373 72.5164 159.373 72.5187 159.373 72.5211C159.373 72.5234 159.373 72.5258 159.373 72.5281C159.373 72.5305 159.373 72.5328 159.373 72.5352C159.373 72.5375 159.373 72.5399 159.373 72.5422C159.373 72.5446 159.373 72.5469 159.373 72.5492C159.373 72.5516 159.373 72.5539 159.373 72.5563C159.373 72.5586 159.373 72.561 159.373 72.5633C159.373 72.5657 159.373 72.568 159.373 72.5704C159.373 72.5728 159.373 72.5751 159.373 72.5775C159.373 72.5798 159.373 72.5822 159.373 72.5845C159.373 72.5869 159.373 72.5892 159.373 72.5916C159.373 72.5939 159.373 72.5963 159.373 72.5986C159.373 72.601 159.373 72.6033 159.373 72.6057C159.373 72.6081 159.373 72.6104 159.373 72.6128C159.373 72.6151 159.373 72.6175 159.373 72.6198C159.373 72.6222 159.373 72.6246 159.373 72.6269C159.373 72.6293 159.373 72.6316 159.373 72.634C159.373 72.6363 159.373 72.6387 159.373 72.6411C159.373 72.6434 159.373 72.6458 159.373 72.6481C159.373 72.6505 159.373 72.6529 159.373 72.6552C159.373 72.6576 159.373 72.6599 159.373 72.6623C159.373 72.6647 159.373 72.667 159.373 72.6694C159.373 72.6718 159.373 72.6741 159.373 72.6765C159.373 72.6789 159.373 72.6812 159.373 72.6836C159.373 72.6859 159.373 72.6883 159.373 72.6907C159.373 72.693 159.373 72.6954 159.373 72.6978C159.373 72.7001 159.373 72.7025 159.373 72.7049C159.373 72.7072 159.373 72.7096 159.373 72.712C159.373 72.7143 159.373 72.7167 159.373 72.7191C159.373 72.7214 159.373 72.7238 159.373 72.7262C159.373 72.7286 159.373 72.7309 159.373 72.7333C159.373 72.7357 159.373 72.738 159.373 72.7404C159.373 72.7428 159.373 72.7451 159.373 72.7475C159.373 72.7499 159.373 72.7523 159.373 72.7546C159.373 72.757 159.373 72.7594 159.373 72.7618C159.373 72.7641 159.373 72.7665 159.373 72.7689C159.373 72.7712 159.373 72.7736 159.373 72.776C159.373 72.7784 159.373 72.7807 159.373 72.7831C159.373 72.7855 159.373 72.7879 159.373 72.7903C159.373 72.7926 159.373 72.795 159.373 72.7974C159.373 72.7998 159.373 72.8021 159.373 72.8045C159.373 72.8069 159.373 72.8093 159.373 72.8117C159.373 72.814 159.373 72.8164 159.373 72.8188C159.373 72.8212 159.373 72.8236 159.373 72.8259C159.373 72.8283 159.373 72.8307 159.373 72.8331C159.373 72.8355 159.373 72.8378 159.373 72.8402C159.373 72.8426 159.373 72.845 159.373 72.8474C159.373 72.8498 159.373 72.8521 159.373 72.8545C159.373 72.8569 159.373 72.8593 159.373 72.8617C159.373 72.8641 159.373 72.8664 159.373 72.8688C159.373 72.8712 159.373 72.8736 159.373 72.876C159.373 72.8784 159.373 72.8808 159.373 72.8831C159.373 72.8855 159.373 72.8879 159.373 72.8903C159.373 72.8927 159.373 72.8951 159.373 72.8975C159.373 72.8999 159.373 72.9023 159.373 72.9046C159.373 72.907 159.373 72.9094 159.373 72.9118C159.373 72.9142 159.373 72.9166 159.373 72.919C159.373 72.9214 159.373 72.9238 159.373 72.9262C159.373 72.9286 159.373 72.9309 159.373 72.9333C159.373 72.9357 159.373 72.9381 159.373 72.9405C159.373 72.9429 159.373 72.9453 159.373 72.9477C159.373 72.9501 159.373 72.9525 159.373 72.9549C159.373 72.9573 159.373 72.9597 159.373 72.9621C159.373 72.9645 159.373 72.9669 159.373 72.9693C159.373 72.9717 159.373 72.9741 159.373 72.9765C159.373 72.9789 159.373 72.9813 159.373 72.9837C159.373 72.986 159.373 72.9884 159.373 72.9908C159.373 72.9932 159.373 72.9956 159.373 72.998C159.373 73.0004 159.373 73.0028 159.373 73.0052C159.373 73.0077 159.373 73.0101 159.373 73.0125C159.373 73.0149 159.373 73.0173 159.373 73.0197C159.373 73.0221 159.373 73.0245 159.373 73.0269C159.373 73.0293 159.373 73.0317 159.373 73.0341C159.373 73.0365 159.373 73.0389 159.373 73.0413C159.373 73.0437 159.373 73.0461 159.373 73.0485C159.373 73.0509 159.373 73.0533 159.373 73.0557C159.373 73.0581 159.373 73.0605 159.373 73.063C159.373 73.0654 159.373 73.0678 159.373 73.0702C159.373 73.0726 159.373 73.075 159.373 73.0774C159.373 73.0798 159.373 73.0822 159.373 73.0846C159.373 73.087 159.373 73.0895 159.373 73.0919C159.373 73.0943 159.373 73.0967 159.373 73.0991C159.373 73.1015 159.373 73.1039 159.373 73.1063C159.373 73.1087 159.373 73.1112 159.373 73.1136C159.373 73.116 159.373 73.1184 159.373 73.1208C159.373 73.1232 159.373 73.1256 159.373 73.1281C159.373 73.1305 159.373 73.1329 159.373 73.1353C159.373 73.1377 159.373 73.1401 159.373 73.1425C159.373 73.145 159.373 73.1474 159.373 73.1498C159.373 73.1522 159.373 73.1546 159.373 73.1571C159.373 73.1595 159.373 73.1619 159.373 73.1643C159.373 73.1667 159.373 73.1691 159.373 73.1716C159.373 73.174 159.373 73.1764 159.373 73.1788C159.373 73.1812 159.373 73.1837 159.373 73.1861C159.373 73.1885 159.373 73.1909 159.373 73.1934C159.373 73.1958 159.373 73.1982 159.373 73.2006C159.373 73.203 159.373 73.2055 159.373 73.2079C159.373 73.2103 159.373 73.2127 159.373 73.2152C159.373 73.2176 159.373 73.22 159.373 73.2224C159.373 73.2249 159.373 73.2273 159.373 73.2297C159.373 73.2321 159.373 73.2346 159.373 73.237C159.373 73.2394 159.373 73.2419 159.373 73.2443C159.373 73.2467 159.373 73.2491 159.373 73.2516C159.373 73.254 159.373 73.2564 159.373 73.2589C159.373 73.2613 159.373 73.2637 159.373 73.2661C159.373 73.2686 159.373 73.271 159.373 73.2734C159.373 73.2759 159.373 73.2783 159.373 73.2807C159.373 73.2832 159.373 73.2856 159.373 73.288C159.373 73.2905 159.373 73.2929 159.373 73.2953C159.373 73.2978 159.373 73.3002 159.373 73.3026C159.373 73.3051 159.373 73.3075 159.373 73.3099C159.373 73.3124 159.373 73.3148 159.373 73.3172C159.373 73.3197 159.373 73.3221 159.373 73.3245C159.373 73.327 159.373 73.3294 159.373 73.3319C159.373 73.3343 159.373 73.3367 159.373 73.3392C159.373 73.3416 159.373 73.3441 159.373 73.3465C159.373 73.3489 159.373 73.3514 159.373 73.3538C159.373 73.3563 159.373 73.3587 159.373 73.3611C159.373 73.3636 159.373 73.366 159.373 73.3685C159.373 73.3709 159.373 73.3733 159.373 73.3758C159.373 73.3782 159.373 73.3807 159.373 73.3831C159.373 73.3856 159.373 73.388 159.373 73.3904C159.373 73.3929 159.373 73.3953 159.373 73.3978C159.373 73.4002 159.373 73.4027 159.373 73.4051C159.373 73.4076 159.373 73.41 159.373 73.4125C159.373 73.4149 159.373 73.4173 159.373 73.4198C159.373 73.4222 159.373 73.4247 159.373 73.4271C159.373 73.4296 159.373 73.432 159.373 73.4345C159.373 73.4369 159.373 73.4394 159.373 73.4418C159.373 73.4443 159.373 73.4467 159.373 73.4492C159.373 73.4516 159.373 73.4541 159.373 73.4565C159.373 73.459 159.373 73.4614 159.373 73.4639C159.373 73.4663 159.373 73.4688 159.373 73.4712C159.373 73.4737 159.373 73.4762 159.373 73.4786C159.373 73.4811 159.373 73.4835 159.373 73.486C159.373 73.4884 159.373 73.4909 159.373 73.4933C159.373 73.4958 159.373 73.4982 159.373 73.5007C159.373 73.5032 159.373 73.5056 159.373 73.5081C159.373 73.5105 159.373 73.513 159.373 73.5154C159.373 73.5179 159.373 73.5204 159.373 73.5228C159.373 73.5253 159.373 73.5277 159.373 73.5302C159.373 73.5327 159.373 73.5351 159.373 73.5376C159.373 73.54 159.373 73.5425 159.373 73.545C159.373 73.5474 159.373 73.5499 159.373 73.5523C159.373 73.5548 159.373 73.5573 159.373 73.5597C159.373 73.5622 159.373 73.5647 159.373 73.5671C159.373 73.5696 159.373 73.5721 159.373 73.5745C159.373 73.577 159.373 73.5794 159.373 73.5819C159.373 73.5844 159.373 73.5868 159.373 73.5893C159.373 73.5918 159.373 73.5942 159.373 73.5967C159.373 73.5992 159.373 73.6016 159.373 73.6041C159.373 73.6066 159.373 73.609 159.373 73.6115C159.373 73.614 159.373 73.6165 159.373 73.6189C159.373 73.6214 159.373 73.6239 159.373 73.6263C159.373 73.6288 159.373 73.6313 159.373 73.6337C159.373 73.6362 159.373 73.6387 159.373 73.6412C159.373 73.6436 159.373 73.6461 159.373 73.6486C159.373 73.651 159.373 73.6535 159.373 73.656C159.373 73.6585 159.373 73.6609 159.373 73.6634C159.373 73.6659 159.373 73.6684 159.373 73.6708C159.373 73.6733 159.373 73.6758 159.373 73.6783C159.373 73.6807 159.373 73.6832 159.373 73.6857C159.373 73.6882 159.373 73.6907 159.373 73.6931C159.373 73.6956 159.373 73.6981 159.373 73.7006C159.373 73.703 159.373 73.7055 159.373 73.708C159.373 73.7105 159.373 73.713 159.373 73.7154C159.373 73.7179 159.373 73.7204 159.373 73.7229C159.373 73.7254 159.373 73.7278 159.373 73.7303C159.373 73.7328 159.373 73.7353 159.373 73.7378C159.373 73.7403 159.373 73.7427 159.373 73.7452C159.373 73.7477 159.373 73.7502 159.373 73.7527C159.373 73.7552 159.373 73.7576 159.373 73.7601C159.373 73.7626 159.373 73.7651 159.373 73.7676C159.373 73.7701 159.373 73.7725 159.373 73.775C159.373 73.7775 159.373 73.78 159.373 73.7825C159.373 73.785 159.373 73.7875 159.373 73.79C159.373 73.7924 159.373 73.7949 159.373 73.7974C159.373 73.7999 159.373 73.8024 159.373 73.8049C159.373 73.8074 159.373 73.8099 159.373 73.8124C159.373 73.8149 159.373 73.8173 159.373 73.8198C159.373 73.8223 159.373 73.8248 159.373 73.8273C159.373 73.8298 159.373 73.8323 159.373 73.8348C159.373 73.8373 159.373 73.8398 159.373 73.8423C159.373 73.8448 159.373 73.8473 159.373 73.8498C159.373 73.8522 159.373 73.8547 159.373 73.8572C159.373 73.8597 159.373 73.8622 159.373 73.8647C159.373 73.8672 159.373 73.8697 159.373 73.8722C159.373 73.8747 159.373 73.8772 159.373 73.8797C159.373 73.8822 159.373 73.8847 159.373 73.8872C159.373 73.8897 159.373 73.8922 159.373 73.8947C159.373 73.8972 159.373 73.8997 159.373 73.9022C159.373 73.9047 159.373 73.9072 159.373 73.9097C159.373 73.9122 159.373 73.9147 159.373 73.9172C159.373 73.9197 159.373 73.9222 159.373 73.9247C159.373 73.9272 159.373 73.9297 159.373 73.9322C159.373 73.9347 159.373 73.9372 159.373 73.9397C159.373 73.9422 159.373 73.9447 159.373 73.9472C159.373 73.9498 159.373 73.9523 159.373 73.9548C159.373 73.9573 159.373 73.9598 159.373 73.9623C159.373 73.9648 159.373 73.9673 159.373 73.9698C159.373 73.9723 159.373 73.9748 159.373 73.9773C159.373 73.9798 159.373 73.9823 159.373 73.9849C159.373 73.9874 159.373 73.9899 159.373 73.9924C159.373 73.9949 159.373 73.9974 159.373 73.9999C159.373 74.0024 159.373 74.0049 159.373 74.0075C159.373 74.01 159.373 74.0125 159.373 74.015C159.373 74.0175 159.373 74.02 159.373 74.0225C159.373 74.025 159.373 74.0276 159.373 74.0301C159.373 74.0326 159.373 74.0351 159.373 74.0376C159.373 74.0401 159.373 74.0426 159.373 74.0452C159.373 74.0477 159.373 74.0502 159.373 74.0527C159.373 74.0552 159.373 74.0577 159.373 74.0603C159.373 74.0628 159.373 74.0653 159.373 74.0678C159.373 74.0703 159.373 74.0728 159.373 74.0754C159.373 74.0779 159.373 74.0804 159.373 74.0829C159.373 74.0854 159.373 74.088 159.373 74.0905C159.373 74.093 159.373 74.0955 159.373 74.098C159.373 74.1006 159.373 74.1031 159.373 74.1056C159.373 74.1081 159.373 74.1107 159.373 74.1132C159.373 74.1157 159.373 74.1182 159.373 74.1208C159.373 74.1233 159.373 74.1258 159.373 74.1283C159.373 74.1309 159.373 74.1334 159.373 74.1359C159.373 74.1384 159.373 74.141 159.373 74.1435C159.373 74.146 159.373 74.1485 159.373 74.1511C159.373 74.1536 159.373 74.1561 159.373 74.1586C159.373 74.1612 159.373 74.1637 159.373 74.1662C159.373 74.1688 159.373 74.1713 159.373 74.1738C159.373 74.1763 159.373 74.1789 159.373 74.1814C159.373 74.1839 159.373 74.1865 159.373 74.189C159.373 74.1915 159.373 74.1941 159.373 74.1966C159.373 74.1991 159.373 74.2017 159.373 74.2042C159.373 74.2067 159.373 74.2093 159.373 74.2118C159.373 74.2143 159.373 74.2169 159.373 74.2194C159.373 74.2219 159.373 74.2245 159.373 74.227C159.373 74.2295 159.373 74.2321 159.373 74.2346C159.373 74.2371 159.373 74.2397 159.373 74.2422C159.373 74.2448 159.373 74.2473 159.373 74.2498C159.373 74.2524 159.373 74.2549 159.373 74.2574C159.373 74.26 159.373 74.2625 159.373 74.2651C159.373 74.2676 159.373 74.2701 159.373 74.2727C159.373 74.2752 159.373 74.2778 159.373 74.2803C159.373 74.2828 159.373 74.2854 159.373 74.2879C159.373 74.2905 159.373 74.293 159.373 74.2956C159.373 74.2981 159.373 74.3006 159.373 74.3032C159.373 74.3057 159.373 74.3083 159.373 74.3108C159.373 74.3134 159.373 74.3159 159.373 74.3184C159.373 74.321 159.373 74.3235 159.373 74.3261C159.373 74.3286 159.373 74.3312 159.373 74.3337C159.373 74.3363 159.373 74.3388 159.373 74.3414C159.373 74.3439 159.373 74.3465 159.373 74.349C159.373 74.3516 159.373 74.3541 159.373 74.3567C159.373 74.3592 159.373 74.3618 159.373 74.3643C159.373 74.3669 159.373 74.3694 159.373 74.372C159.373 74.3745 159.373 74.3771 159.373 74.3796C159.373 74.3822 159.373 74.3847 159.373 74.3873C159.373 74.3898 159.373 74.3924 159.373 74.3949C159.373 74.3975 159.373 74.4 159.373 74.4026C159.373 74.4051 159.373 74.4077 159.373 74.4102C159.373 74.4128 159.373 74.4154 159.373 74.4179C159.373 74.4205 159.373 74.423 159.373 74.4256C159.373 74.4281 159.373 74.4307 159.373 74.4332C159.373 74.4358 159.373 74.4384 159.373 74.4409C159.373 74.4435 159.373 74.446 159.373 74.4486C159.373 74.4512 159.373 74.4537 159.373 74.4563C159.373 74.4588 159.373 74.4614 159.373 74.464C159.373 74.4665 159.373 74.4691 159.373 74.4716C159.373 74.4742 159.373 74.4768 159.373 74.4793C159.373 74.4819 159.373 74.4844 159.373 74.487C159.373 74.4896 159.373 74.4921 159.373 74.4947C159.373 74.4973 159.373 74.4998 159.373 74.5024C159.373 74.505 159.373 74.5075 159.373 74.5101C159.373 74.5127 159.373 74.5152 159.373 74.5178C159.373 74.5204 159.373 74.5229 159.373 74.5255C159.373 74.5281 159.373 74.5306 159.373 74.5332C159.373 74.5358 159.373 74.5383 159.373 74.5409C159.373 74.5435 159.373 74.546 159.373 74.5486C159.373 74.5512 159.373 74.5537 159.373 74.5563C159.373 74.5589 159.373 74.5615 159.373 74.564C159.373 74.5666 159.373 74.5692 159.373 74.5717C159.373 74.5743 159.373 74.5769 159.373 74.5795C159.373 74.582 159.373 74.5846 159.373 74.5872C159.373 74.5897 159.373 74.5923 159.373 74.5949C159.373 74.5975 159.373 74.6 159.373 74.6026C159.373 74.6052 159.373 74.6078 159.373 74.6103C159.373 74.6129 159.373 74.6155 159.373 74.6181C159.373 74.6207 159.373 74.6232 159.373 74.6258C159.373 74.6284 159.373 74.631 159.373 74.6335C159.373 74.6361 159.373 74.6387 159.373 74.6413C159.373 74.6439 159.373 74.6464 159.373 74.649C159.373 74.6516 159.373 74.6542 159.373 74.6568C159.373 74.6593 159.373 74.6619 159.373 74.6645C159.373 74.6671 159.373 74.6697 159.373 74.6722C159.373 74.6748 159.373 74.6774 159.373 74.68H169.373ZM169.373 71.032C169.373 68.8624 169.434 66.9084 169.553 65.1641L159.576 64.4839C159.439 66.4942 159.373 68.679 159.373 71.032H169.373ZM169.553 65.1566C169.675 63.3312 169.833 61.8127 170.02 60.581L160.133 59.083C159.893 60.6673 159.71 62.4768 159.576 64.4914L169.553 65.1566ZM170.05 60.3421C170.205 58.8331 170.412 57.5423 170.658 56.4533L160.903 54.2507C160.552 55.8071 160.289 57.5029 160.103 59.3219L170.05 60.3421ZM170.717 56.1482C170.862 55.2472 171.083 54.627 171.301 54.2088L162.436 49.5832C161.63 51.1277 161.126 52.8115 160.844 54.5558L170.717 56.1482ZM171.301 54.2088C171.64 53.5591 171.966 53.1168 172.244 52.8197L164.949 45.9803C163.947 47.0485 163.121 48.2702 162.436 49.5832L171.301 54.2088ZM172.238 52.8268C172.685 52.3512 173.084 52.026 173.425 51.8059L167.992 43.4101C166.882 44.1286 165.873 44.9981 164.955 45.9732L172.238 52.8268ZM173.316 51.8744C173.796 51.5807 174.222 51.3873 174.594 51.2634L171.431 41.7766C170.267 42.1647 169.157 42.6966 168.101 43.3416L173.316 51.8744ZM174.73 51.2156C175.783 50.8305 177.061 50.621 178.637 50.684L179.036 40.692C176.345 40.5843 173.741 40.9295 171.295 41.8244L174.73 51.2156ZM178.837 50.688C180.646 50.688 182.23 50.8203 183.607 51.0612L185.33 41.2108C183.293 40.8544 181.123 40.688 178.837 40.688V50.688ZM183.727 51.0807C185.189 51.3 186.422 51.5988 187.451 51.9524L190.702 42.4956C189 41.9105 187.161 41.484 185.21 41.1913L183.727 51.0807ZM187.585 51.9964C188.674 52.3367 189.563 52.7201 190.281 53.1225L195.168 44.3975C193.753 43.6052 192.209 42.9646 190.568 42.4516L187.585 51.9964ZM190.354 53.1624C191.326 53.6858 192.136 54.1827 192.801 54.6482L198.536 46.4558C197.494 45.7266 196.342 45.0289 195.095 44.3576L190.354 53.1624ZM192.697 54.5729C194.206 55.6889 195.27 56.8631 195.998 58.0671L204.555 52.8929C203.065 50.4276 201.056 48.3165 198.64 46.5311L192.697 54.5729ZM195.954 57.9931C196.719 59.3091 197.338 60.9131 197.755 62.8636L207.534 60.7684C206.927 57.9402 205.967 55.3202 204.599 52.9669L195.954 57.9931ZM197.75 62.8358C197.92 63.6534 198.067 64.6268 198.181 65.7695L208.132 64.7745C207.99 63.3572 207.796 62.0266 207.539 60.7962L197.75 62.8358ZM198.203 65.9552C198.33 66.872 198.387 67.9562 198.351 69.2252L208.346 69.5108C208.396 67.7931 208.324 66.1467 208.11 64.5888L198.203 65.9552ZM198.351 69.2252C198.314 70.4901 198.187 71.8883 197.956 73.4263L207.845 74.9097C208.126 73.0343 208.297 71.2326 208.346 69.5108L198.351 69.2252ZM197.941 73.5322C197.767 74.8926 197.445 76.4004 196.953 78.0633L206.544 80.8967C207.162 78.805 207.608 76.7714 207.86 74.8038L197.941 73.5322ZM184.021 61.424C182.364 61.424 180.655 61.8818 179.165 63L185.164 71C184.957 71.1556 184.725 71.2718 184.494 71.3433C184.27 71.4129 184.101 71.424 184.021 71.424V61.424ZM179.224 62.9563C176.693 64.7968 176.461 67.7214 176.461 69.112H186.461C186.461 68.9018 186.489 69.0375 186.38 69.3651C186.26 69.7257 185.922 70.45 185.105 71.0437L179.224 62.9563ZM176.461 69.112C176.461 70.4467 176.691 73.5394 179.48 75.3143L184.849 66.8777C185.778 67.469 186.192 68.2629 186.349 68.7039C186.488 69.0959 186.461 69.292 186.461 69.112H176.461ZM179.928 75.5681C181.295 76.2514 182.721 76.48 184.021 76.48V66.48C183.87 66.48 184.058 66.4526 184.401 66.6239L179.928 75.5681ZM184.021 76.48C185.798 76.48 187.654 75.9233 189.176 74.5397L182.449 67.1403C182.703 66.9096 183.008 66.7266 183.331 66.6113C183.643 66.4997 183.891 66.48 184.021 66.48V76.48ZM189.176 74.5397C190.842 73.0251 191.517 71.023 191.517 69.112H181.517C181.517 68.9339 181.546 68.6034 181.71 68.2015C181.88 67.7841 182.143 67.4189 182.449 67.1403L189.176 74.5397ZM191.517 69.112C191.517 67.2971 190.92 65.6125 189.84 64.2074L181.913 70.3045C181.82 70.1832 181.711 70.002 181.63 69.766C181.548 69.5285 181.517 69.3012 181.517 69.112H191.517ZM189.84 64.2074C188.309 62.2174 186.105 61.424 184.021 61.424V71.424C183.857 71.424 183.494 71.395 183.047 71.1945C182.577 70.9838 182.187 70.6608 181.913 70.3046L189.84 64.2074ZM225.851 62.328L221.022 63.6279L223.8 73.9431L229.941 65.2027L225.851 62.328ZM229.435 59L231.671 63.4721L231.699 63.4578L231.728 63.4431L229.435 59ZM233.083 57.72L232.443 52.7611L232.382 52.7689L232.322 52.7781L233.083 57.72ZM236.987 57.848L238.275 53.0168L238.122 52.9761L237.967 52.9451L236.987 57.848ZM240.123 59.32L237.024 63.2444L237.024 63.2444L240.123 59.32ZM241.979 61.432L237.608 63.8602L237.608 63.8602L241.979 61.432ZM242.875 63.736L237.994 64.8206L237.994 64.8207L242.875 63.736ZM243.131 65.72H238.131V65.7981L238.133 65.8762L243.131 65.72ZM242.555 69.304L237.939 67.3809L237.918 67.4312L237.898 67.482L242.555 69.304ZM241.275 71.672L237.343 68.5829L237.28 68.6625L237.221 68.7445L241.275 71.672ZM239.291 73.464L236.862 69.0932L236.8 69.1281L236.738 69.1647L239.291 73.464ZM235.259 74.616L235.092 79.6132L235.097 79.6134L235.259 74.616ZM231.739 74.04L230.109 78.7669L230.161 78.7851L230.215 78.8021L231.739 74.04ZM228.219 72.248L231.065 68.137L221.768 61.701L223.262 72.9088L228.219 72.248ZM228.539 78.968L223.55 78.6354L223.546 78.6907L223.543 78.746L228.539 78.968ZM227.771 83.96L222.985 82.51L222.971 82.558L222.957 82.6063L227.771 83.96ZM226.235 87.416L230.303 90.3222L230.335 90.2778L230.366 90.2327L226.235 87.416ZM224.187 89.592L221.149 85.6202L221.136 85.63L221.124 85.6399L224.187 89.592ZM218.043 91.448L218.221 86.4512L218.016 86.4438L217.81 86.4534L218.043 91.448ZM213.562 90.616L211.134 94.9868L211.134 94.9868L213.562 90.616ZM210.747 88.44L206.962 91.7081L206.991 91.7413L207.02 91.774L210.747 88.44ZM208.827 85.24L204.083 86.8211L204.125 86.9459L204.173 87.0683L208.827 85.24ZM207.291 78.072L202.309 78.5014L202.313 78.544L202.317 78.5865L207.291 78.072ZM207.099 71.288L212.094 71.4962L212.097 71.4367L212.098 71.3773L207.099 71.288ZM207.674 64.248L202.801 63.1311L202.757 63.3218L202.728 63.5153L207.674 64.248ZM209.915 59.64L213.45 63.1755L213.45 63.1755L209.915 59.64ZM213.179 57.336L211.322 52.6936L211.276 52.7119L211.23 52.7312L213.179 57.336ZM217.403 56.568V61.568H217.521L217.64 61.5623L217.403 56.568ZM221.755 57.4L219.256 61.7309L219.319 61.7676L219.384 61.8024L221.755 57.4ZM224.315 59.384L220.455 62.5625L220.48 62.5926L220.505 62.6222L224.315 59.384ZM229.941 65.2027C230.733 64.0759 231.345 63.6351 231.671 63.4721L227.198 54.5279C224.964 55.6449 223.186 57.4228 221.76 59.4533L229.941 65.2027ZM231.728 63.4431C232.717 62.9326 233.41 62.7284 233.843 62.6619L232.322 52.7781C230.536 53.0529 228.798 53.7021 227.141 54.5569L231.728 63.4431ZM233.722 62.6789C234.517 62.5763 235.271 62.6039 236.006 62.7509L237.967 52.9451C236.142 52.5801 234.293 52.5223 232.443 52.7611L233.722 62.6789ZM235.698 62.6792C236.498 62.8925 236.877 63.1282 237.024 63.2444L243.221 55.3956C241.747 54.2318 240.035 53.4862 238.275 53.0168L235.698 62.6792ZM237.024 63.2444C237.406 63.5456 237.553 63.7624 237.608 63.8602L246.349 59.0038C245.55 57.5656 244.461 56.3744 243.221 55.3956L237.024 63.2444ZM237.608 63.8602C237.827 64.2557 237.939 64.5739 237.994 64.8206L247.755 62.6514C247.469 61.3621 246.983 60.1443 246.349 59.0038L237.608 63.8602ZM237.994 64.8207C238.115 65.3676 238.131 65.6465 238.131 65.72H248.131C248.131 64.6842 247.975 63.6404 247.755 62.6513L237.994 64.8207ZM238.133 65.8762C238.158 66.6899 238.036 67.1487 237.939 67.3809L247.17 71.2271C247.926 69.4113 248.188 67.4808 248.128 65.5638L238.133 65.8762ZM237.898 67.482C237.629 68.1701 237.418 68.4867 237.343 68.5829L245.206 74.7611C246.069 73.6626 246.712 72.4006 247.211 71.126L237.898 67.482ZM237.221 68.7445C237.062 68.9654 236.94 69.05 236.862 69.0932L241.719 77.8348C243.177 77.0247 244.378 75.9146 245.328 74.5995L237.221 68.7445ZM236.738 69.1647C236.027 69.587 235.614 69.6249 235.42 69.6186L235.097 79.6134C237.548 79.6925 239.824 78.9623 241.843 77.7633L236.738 69.1647ZM235.425 69.6188C234.541 69.5893 233.832 69.4601 233.262 69.2779L230.215 78.8021C231.778 79.3025 233.416 79.5573 235.092 79.6132L235.425 69.6188ZM233.368 69.3131C232.576 69.0398 231.81 68.6533 231.065 68.137L225.372 76.359C226.845 77.3787 228.426 78.1868 230.109 78.7669L233.368 69.3131ZM223.262 72.9088C223.574 75.2436 223.649 77.1372 223.55 78.6354L233.527 79.3006C233.684 76.9588 233.546 74.3724 233.175 71.5872L223.262 72.9088ZM223.543 78.746C223.471 80.3689 223.261 81.6011 222.985 82.51L232.556 85.41C233.134 83.5029 233.435 81.4071 233.534 79.19L223.543 78.746ZM222.957 82.6063C222.685 83.5742 222.373 84.2034 222.103 84.5993L230.366 90.2327C231.376 88.7513 232.088 87.0765 232.584 85.3137L222.957 82.6063ZM222.166 84.5098C221.757 85.0817 221.408 85.4221 221.149 85.6202L227.224 93.5638C228.415 92.6525 229.432 91.5423 230.303 90.3222L222.166 84.5098ZM221.124 85.6399C220.443 86.1677 219.575 86.4995 218.221 86.4512L217.864 96.4448C221.289 96.5671 224.517 95.6616 227.249 93.5441L221.124 85.6399ZM217.81 86.4534C216.553 86.5119 216.071 86.2901 215.991 86.2452L211.134 94.9868C213.358 96.2219 215.862 96.5548 218.275 96.4426L217.81 86.4534ZM215.991 86.2452C215.226 85.8206 214.757 85.4238 214.473 85.106L207.02 91.774C208.187 93.0775 209.595 94.1314 211.134 94.9868L215.991 86.2452ZM214.531 85.1719C214.102 84.6755 213.75 84.0994 213.48 83.4117L204.173 87.0683C204.841 88.77 205.77 90.3272 206.962 91.7081L214.531 85.1719ZM213.57 83.6589C212.92 81.7093 212.483 79.6782 212.264 77.5575L202.317 78.5865C202.61 81.4152 203.197 84.1627 204.083 86.8211L213.57 83.6589ZM212.272 77.6426C212.073 75.3372 212.019 73.2927 212.094 71.4962L202.103 71.0798C202.007 73.3793 202.081 75.8574 202.309 78.5014L212.272 77.6426ZM212.098 71.3773C212.137 69.1978 212.312 67.0662 212.621 64.9807L202.728 63.5153C202.355 66.0378 202.146 68.5996 202.099 71.1987L212.098 71.3773ZM212.548 65.3649C212.897 63.8427 213.326 63.2997 213.45 63.1755L206.379 56.1045C204.455 58.0283 203.391 60.5573 202.801 63.1311L212.548 65.3649ZM213.45 63.1755C214.172 62.4534 214.739 62.1047 215.127 61.9408L211.23 52.7312C209.399 53.506 207.79 54.6933 206.379 56.1045L213.45 63.1755ZM215.035 61.9784C215.661 61.7281 216.43 61.568 217.403 61.568V51.568C215.303 51.568 213.256 51.9199 211.322 52.6936L215.035 61.9784ZM217.64 61.5623C218.843 61.5051 219.246 61.7253 219.256 61.7309L224.253 53.0691C222.044 51.7946 219.546 51.4603 217.165 51.5737L217.64 61.5623ZM219.384 61.8024C220.106 62.191 220.384 62.4769 220.455 62.5625L228.174 56.2055C227.05 54.8404 225.622 53.8037 224.125 52.9976L219.384 61.8024ZM220.505 62.6222C220.739 62.8978 220.911 63.213 221.022 63.6279L230.679 61.0281C230.193 59.2243 229.341 57.5768 228.124 56.1458L220.505 62.6222ZM278.373 83.576L282.75 85.9914L282.799 85.9027L282.845 85.8121L278.373 83.576ZM275.941 86.84L272.405 83.3045L272.405 83.3045L275.941 86.84ZM273.317 89.08L270.449 84.9838L270.396 85.0208L270.345 85.0591L273.317 89.08ZM270.309 90.808L272.165 95.4504L272.199 95.4371L272.232 95.4234L270.309 90.808ZM267.813 91.576L266.782 86.6833L266.627 86.7159L266.474 86.7584L267.813 91.576ZM265.765 92.024L265.057 87.0743L264.976 87.0858L264.896 87.1001L265.765 92.024ZM257.637 91.512L256.341 96.3412L256.355 96.3451L256.37 96.3489L257.637 91.512ZM253.029 89.72L250.518 94.0439L250.571 94.0747L250.624 94.1041L253.029 89.72ZM249.637 87.096L245.944 90.4673L245.983 90.5102L246.023 90.5521L249.637 87.096ZM247.461 84.088L251.857 81.7066L251.805 81.6099L251.748 81.5155L247.461 84.088ZM245.157 75.96H240.157V76.0641L240.161 76.1682L245.157 75.96ZM245.924 69.56L241.138 68.1131L241.127 68.1496L241.117 68.1864L245.924 69.56ZM248.036 64.888L243.897 62.0838L243.887 62.0991L243.876 62.1145L248.036 64.888ZM251.045 61.624L248.068 57.6062L248.032 57.6332L247.996 57.6609L251.045 61.624ZM254.501 59.576L252.496 54.9952L252.483 55.001L252.47 55.0069L254.501 59.576ZM263.845 57.976L263.662 62.9727L263.753 62.976H263.845V57.976ZM269.285 58.68L267.86 63.4727L267.86 63.4727L269.285 58.68ZM273.381 60.536L270.607 64.6962L270.642 64.7194L270.677 64.7419L273.381 60.536ZM276.325 63.16L272.387 66.2415L272.461 66.3367L272.54 66.4281L276.325 63.16ZM278.309 66.104L273.836 68.3401L273.844 68.3563L273.853 68.3724L278.309 66.104ZM280.357 74.168H285.357V74.0273L285.349 73.8868L280.357 74.168ZM279.781 79.48L274.93 78.2673L274.914 78.3311L274.9 78.3953L279.781 79.48ZM261.541 74.296L258.005 70.7605L257.934 70.8311L257.866 70.9046L261.541 74.296ZM260.901 76.152L265.878 75.678L265.871 75.6048L265.862 75.5318L260.901 76.152ZM261.669 78.008L258.545 81.9123L258.635 81.9841L258.728 82.0517L261.669 78.008ZM265.253 77.88L261.889 74.1803L261.889 74.1803L265.253 77.88ZM265.317 74.296L269.28 71.2474L269.28 71.2474L265.317 74.296ZM273.995 81.1606C273.524 82.0134 272.991 82.7185 272.405 83.3045L279.476 90.3755C280.767 89.0841 281.856 87.6133 282.75 85.9914L273.995 81.1606ZM272.405 83.3045C271.673 84.0369 271.019 84.5848 270.449 84.9838L276.184 93.1762C277.32 92.3806 278.416 91.4351 279.476 90.3755L272.405 83.3045ZM270.345 85.0591C269.656 85.5683 269.002 85.9357 268.385 86.1926L272.232 95.4234C273.663 94.827 275.015 94.0423 276.288 93.1009L270.345 85.0591ZM268.452 86.1656C267.837 86.4113 267.282 86.5781 266.782 86.6833L268.843 96.4687C269.964 96.2326 271.073 95.8874 272.165 95.4504L268.452 86.1656ZM266.474 86.7584C265.852 86.9312 265.387 87.0272 265.057 87.0743L266.472 96.9737C267.337 96.8501 268.237 96.6474 269.151 96.3936L266.474 86.7584ZM264.896 87.1001C264.37 87.1928 264.031 87.216 263.845 87.216V97.216C264.767 97.216 265.708 97.1112 266.633 96.9479L264.896 87.1001ZM263.845 87.216C261.817 87.216 260.189 87.0119 258.903 86.6751L256.37 96.3489C258.668 96.9508 261.178 97.216 263.845 97.216V87.216ZM258.932 86.6828C257.494 86.297 256.343 85.8353 255.433 85.3359L250.624 94.1041C252.359 95.0553 254.28 95.7883 256.341 96.3412L258.932 86.6828ZM255.539 85.3961C254.573 84.8348 253.825 84.2418 253.25 83.6399L246.023 90.5521C247.325 91.9128 248.839 93.0692 250.518 94.0439L255.539 85.3961ZM253.329 83.7247C252.669 83.0021 252.193 82.3272 251.857 81.7066L243.064 86.4694C243.837 87.8968 244.812 89.2272 245.944 90.4673L253.329 83.7247ZM251.748 81.5155C250.821 79.9702 250.25 78.0937 250.152 75.7518L240.161 76.1682C240.319 79.9703 241.284 83.5124 243.173 86.6605L251.748 81.5155ZM250.157 75.96C250.157 73.8078 250.382 72.1602 250.732 70.9336L241.117 68.1864C240.443 70.5438 240.157 73.1628 240.157 75.96H250.157ZM250.711 71.0069C251.156 69.5324 251.673 68.4464 252.197 67.6615L243.876 62.1145C242.693 63.8896 241.802 65.9183 241.138 68.1131L250.711 71.0069ZM252.176 67.6922C252.814 66.7501 253.462 66.0725 254.093 65.5871L247.996 57.6609C246.408 58.8822 245.051 60.3805 243.897 62.0838L252.176 67.6922ZM254.021 65.6418C254.918 64.9771 255.755 64.4898 256.531 64.1451L252.47 55.0069C250.942 55.6862 249.475 56.5642 248.068 57.6062L254.021 65.6418ZM256.505 64.1568C258.437 63.3115 260.784 62.8674 263.662 62.9727L264.027 52.9793C259.908 52.8286 256.026 53.4511 252.496 54.9952L256.505 64.1568ZM263.845 62.976C265.522 62.976 266.84 63.1695 267.86 63.4727L270.709 53.8873C268.572 53.2518 266.263 52.976 263.845 52.976V62.976ZM267.86 63.4727C269.048 63.8259 269.94 64.2519 270.607 64.6962L276.154 56.3757C274.517 55.2841 272.679 54.4728 270.709 53.8873L267.86 63.4727ZM270.677 64.7419C271.465 65.2486 272.009 65.7584 272.387 66.2415L280.262 60.0785C279.104 58.5989 277.685 57.3594 276.084 56.3301L270.677 64.7419ZM272.54 66.4281C273.102 67.0786 273.525 67.7167 273.836 68.3401L282.781 63.8679C282.068 62.4433 281.168 61.1188 280.109 59.8919L272.54 66.4281ZM273.853 68.3724C274.688 70.0139 275.227 72.0076 275.364 74.4492L285.349 73.8868C285.145 70.2698 284.318 66.8874 282.764 63.8356L273.853 68.3724ZM275.357 74.168C275.357 75.8675 275.192 77.2167 274.93 78.2673L284.631 80.6927C285.137 78.6713 285.357 76.4792 285.357 74.168H275.357ZM274.9 78.3953C274.632 79.6009 274.286 80.5689 273.9 81.3399L282.845 85.8121C283.654 84.1938 284.247 82.4311 284.661 80.5647L274.9 78.3953ZM263.461 68.464C261.294 68.464 259.413 69.3524 258.005 70.7605L265.076 77.8315C264.964 77.944 264.75 78.1189 264.425 78.2598C264.092 78.4039 263.754 78.464 263.461 78.464V68.464ZM257.866 70.9046C256.465 72.4226 255.652 74.4746 255.939 76.7722L265.862 75.5318C265.909 75.9087 265.879 76.3559 265.723 76.806C265.573 77.243 265.356 77.5341 265.215 77.6874L257.866 70.9046ZM255.923 76.626C256.057 78.0366 256.55 80.3166 258.545 81.9123L264.792 74.1037C265.371 74.5666 265.654 75.0798 265.777 75.3762C265.891 75.6527 265.889 75.7901 265.878 75.678L255.923 76.626ZM258.728 82.0517C260.245 83.1551 261.946 83.52 263.461 83.52V73.52C263.525 73.52 264.031 73.5436 264.609 73.9643L258.728 82.0517ZM263.461 83.52C265.238 83.52 267.094 82.9633 268.616 81.5797L261.889 74.1803C262.143 73.9496 262.448 73.7666 262.771 73.6513C263.083 73.5397 263.331 73.52 263.461 73.52V83.52ZM268.616 81.5797C270.282 80.0651 270.957 78.063 270.957 76.152H260.957C260.957 75.9739 260.986 75.6434 261.15 75.2415C261.32 74.8241 261.583 74.4589 261.889 74.1803L268.616 81.5797ZM270.957 76.152C270.957 74.3371 270.36 72.6525 269.28 71.2474L261.353 77.3446C261.26 77.2232 261.151 77.042 261.07 76.806C260.988 76.5685 260.957 76.3412 260.957 76.152H270.957ZM269.28 71.2474C267.749 69.2574 265.545 68.464 263.461 68.464V78.464C263.297 78.464 262.934 78.435 262.487 78.2345C262.017 78.0238 261.627 77.7008 261.353 77.3446L269.28 71.2474ZM283.553 95.864L278.583 96.4162L278.592 96.4938L278.603 96.5711L283.553 95.864ZM283.169 83.576L288.161 83.8444L288.162 83.8351L288.162 83.8257L283.169 83.576ZM283.681 78.328L278.745 77.5246L278.738 77.5727L278.731 77.6209L283.681 78.328ZM284.897 72.952L289.695 74.3565L289.7 74.3411L289.704 74.3256L284.897 72.952ZM286.817 67.832L282.322 65.6422L282.31 65.6668L282.298 65.6916L286.817 67.832ZM289.76 63.352L285.998 60.0595L285.99 60.0681L289.76 63.352ZM295.393 59.32L293.402 54.7333L293.402 54.7333L295.393 59.32ZM302.497 57.464L301.991 52.4896L301.982 52.4905L302.497 57.464ZM310.049 57.784L309.132 62.6993L309.179 62.7081L309.227 62.716L310.049 57.784ZM316.961 60.152L319.611 55.912L319.513 55.8508L319.412 55.7941L316.961 60.152ZM319.841 62.456L323.376 58.9205L323.376 58.9205L319.841 62.456ZM322.081 65.336L317.849 68.0001L317.884 68.0552L317.92 68.1095L322.081 65.336ZM323.873 69.368L328.723 68.1553L328.707 68.0923L328.69 68.0298L323.873 69.368ZM324.385 74.04H319.385V74.101L319.386 74.1619L324.385 74.04ZM323.937 79.288L328.839 80.2686L328.842 80.2571L328.844 80.2456L323.937 79.288ZM322.337 84.152L326.834 86.3365L326.846 86.3118L326.858 86.287L322.337 84.152ZM319.585 87.8L322.785 91.6411L322.8 91.6291L322.814 91.6169L319.585 87.8ZM316.449 89.848L314.285 85.3404L314.285 85.3404L316.449 89.848ZM313.249 91L312.082 86.1381L312.059 86.1436L312.036 86.1493L313.249 91ZM310.241 91.448L310.023 86.4527L310.013 86.4532L310.241 91.448ZM307.553 91.384L308.05 86.4088L308.013 86.4051L307.977 86.402L307.553 91.384ZM301.793 89.848L303.901 85.3144L295.121 81.2306L296.875 90.7538L301.793 89.848ZM302.241 98.488L307.205 99.0837L307.206 99.0771L302.241 98.488ZM300.065 104.376L296.14 101.278L296.14 101.278L300.065 104.376ZM297.569 106.296L295.485 101.751L295.369 101.804L295.256 101.863L297.569 106.296ZM290.849 106.552L292.628 101.88L292.53 101.842L292.43 101.809L290.849 106.552ZM288.417 105.336L285.417 109.336L285.474 109.379L285.533 109.421L288.417 105.336ZM286.625 103.544L290.625 100.544L290.578 100.482L290.529 100.421L286.625 103.544ZM285.281 101.496L280.831 103.778L280.846 103.807L280.862 103.835L285.281 101.496ZM302.881 74.296L299.345 70.7605L299.274 70.8311L299.206 70.9046L302.881 74.296ZM302.241 76.152L307.218 75.678L307.211 75.6048L307.202 75.5318L302.241 76.152ZM303.009 78.008L299.885 81.9123L299.975 81.9841L300.068 82.0517L303.009 78.008ZM306.593 77.88L303.229 74.1803L303.229 74.1803L306.593 77.88ZM306.657 74.296L310.62 71.2474L310.62 71.2474L306.657 74.296ZM288.522 95.3118C288.081 91.3416 287.964 87.5205 288.161 83.8444L278.176 83.3076C277.947 87.5675 278.086 91.9384 278.583 96.4162L288.522 95.3118ZM288.162 83.8257C288.24 82.2808 288.395 80.6843 288.63 79.0351L278.731 77.6209C278.454 79.5557 278.268 81.4579 278.175 83.3263L288.162 83.8257ZM288.616 79.1314C288.882 77.4957 289.242 75.9046 289.695 74.3565L280.098 71.5475C279.527 73.4981 279.077 75.491 278.745 77.5246L288.616 79.1314ZM289.704 74.3256C290.144 72.7865 290.689 71.3371 291.335 69.9724L282.298 65.6916C281.408 67.5696 280.673 69.5335 280.089 71.5784L289.704 74.3256ZM291.311 70.0218C291.94 68.731 292.683 67.6095 293.531 66.6359L285.99 60.0681C284.534 61.7398 283.314 63.605 282.322 65.6422L291.311 70.0218ZM293.523 66.6445C294.488 65.5424 295.741 64.6193 297.383 63.9067L293.402 54.7333C290.521 55.9834 288.02 57.7482 285.998 60.0595L293.523 66.6445ZM297.383 63.9067C299.171 63.131 301.04 62.6413 303.011 62.4375L301.982 52.4905C299.003 52.7987 296.137 53.5464 293.402 54.7333L297.383 63.9067ZM303.002 62.4383C305.039 62.2312 307.078 62.3163 309.132 62.6993L310.965 52.8687C307.984 52.313 304.988 52.1848 301.991 52.4897L303.002 62.4383ZM309.227 62.716C311.274 63.0572 313.017 63.6705 314.509 64.5099L319.412 55.7941C316.808 54.3295 313.943 53.3641 310.871 52.852L309.227 62.716ZM314.311 64.392C314.998 64.8218 315.663 65.3499 316.305 65.9915L323.376 58.9205C322.226 57.7701 320.971 56.7622 319.611 55.912L314.311 64.392ZM316.305 65.9915C316.753 66.4394 317.275 67.0879 317.849 68.0001L326.312 62.6719C325.435 61.2801 324.464 60.0086 323.376 58.9205L316.305 65.9915ZM317.92 68.1095C318.354 68.7599 318.749 69.6047 319.055 70.7062L328.69 68.0298C328.143 66.0593 327.343 64.2161 326.241 62.5625L317.92 68.1095ZM319.022 70.5807C319.243 71.4672 319.385 72.605 319.385 74.04H329.385C329.385 71.9763 329.184 69.9994 328.723 68.1553L319.022 70.5807ZM319.386 74.1619C319.42 75.5425 319.302 76.93 319.029 78.3304L328.844 80.2456C329.253 78.1474 329.435 76.0362 329.383 73.9181L319.386 74.1619ZM319.034 78.3074C318.77 79.625 318.363 80.8578 317.815 82.017L326.858 86.287C327.761 84.3742 328.42 82.3643 328.839 80.2686L319.034 78.3074ZM317.839 81.9675C317.375 82.9232 316.862 83.5541 316.355 83.9831L322.814 91.6169C324.526 90.1686 325.848 88.3674 326.834 86.3365L317.839 81.9675ZM316.384 83.9589C315.637 84.5809 314.936 85.0278 314.285 85.3404L318.612 94.3556C320.094 93.6442 321.484 92.7258 322.785 91.6411L316.384 83.9589ZM314.285 85.3404C313.512 85.7113 312.779 85.9708 312.082 86.1381L314.415 95.8619C315.852 95.5172 317.251 95.0087 318.612 94.3556L314.285 85.3404ZM312.036 86.1493C311.314 86.3298 310.645 86.4257 310.023 86.4527L310.458 96.4433C311.799 96.385 313.135 96.1822 314.461 95.8507L312.036 86.1493ZM310.013 86.4532C309.294 86.4859 308.641 86.4679 308.05 86.4088L307.055 96.3592C308.171 96.4707 309.31 96.4955 310.468 96.4428L310.013 86.4532ZM307.977 86.402C306.558 86.2813 305.208 85.9221 303.901 85.3144L299.684 94.3816C302.047 95.4805 304.536 96.1454 307.129 96.366L307.977 86.402ZM296.875 90.7538C297.407 93.643 297.5 96.0032 297.275 97.8989L307.206 99.0771C307.578 95.9382 307.372 92.5383 306.71 88.9422L296.875 90.7538ZM297.276 97.8923C297.189 98.6223 297.028 99.3375 296.793 100.043L306.28 103.205C306.727 101.862 307.036 100.487 307.205 99.0837L297.276 97.8923ZM296.793 100.043C296.627 100.543 296.405 100.942 296.14 101.278L303.989 107.474C305.004 106.189 305.764 104.753 306.28 103.205L296.793 100.043ZM296.14 101.278C296.034 101.412 295.856 101.581 295.485 101.751L299.652 110.841C301.329 110.073 302.815 108.961 303.989 107.474L296.14 101.278ZM295.256 101.863C295.175 101.905 294.807 102.064 293.921 102.064V112.064C295.935 112.064 297.999 111.711 299.881 110.729L295.256 101.863ZM293.921 102.064C293.257 102.064 292.854 101.966 292.628 101.88L289.069 111.224C290.635 111.821 292.28 112.064 293.921 112.064V102.064ZM292.43 101.809C291.968 101.655 291.601 101.464 291.3 101.251L285.533 109.421C286.683 110.232 287.937 110.852 289.267 111.295L292.43 101.809ZM291.416 101.336C291.113 101.108 290.852 100.848 290.625 100.544L282.625 106.544C283.421 107.606 284.355 108.54 285.417 109.336L291.416 101.336ZM290.529 100.421C290.213 100.026 289.937 99.6054 289.699 99.1566L280.862 103.835C281.392 104.837 282.012 105.782 282.72 106.667L290.529 100.421ZM289.73 99.2144C289.16 98.1032 288.733 96.7687 288.502 95.1569L278.603 96.5711C278.97 99.1406 279.695 101.561 280.831 103.778L289.73 99.2144ZM304.801 68.464C302.634 68.464 300.753 69.3524 299.345 70.7605L306.416 77.8315C306.304 77.944 306.09 78.1189 305.765 78.2598C305.432 78.4039 305.094 78.464 304.801 78.464V68.464ZM299.206 70.9046C297.805 72.4226 296.992 74.4746 297.279 76.7722L307.202 75.5318C307.249 75.9087 307.219 76.3559 307.063 76.806C306.913 77.243 306.696 77.5341 306.555 77.6874L299.206 70.9046ZM297.263 76.626C297.397 78.0366 297.89 80.3166 299.885 81.9123L306.132 74.1037C306.711 74.5666 306.994 75.0798 307.117 75.3762C307.231 75.6527 307.229 75.7901 307.218 75.678L297.263 76.626ZM300.068 82.0517C301.585 83.1551 303.286 83.52 304.801 83.52V73.52C304.865 73.52 305.371 73.5436 305.949 73.9643L300.068 82.0517ZM304.801 83.52C306.578 83.52 308.434 82.9633 309.956 81.5797L303.229 74.1803C303.483 73.9496 303.788 73.7666 304.111 73.6513C304.423 73.5397 304.671 73.52 304.801 73.52V83.52ZM309.956 81.5797C311.622 80.0651 312.297 78.063 312.297 76.152H302.297C302.297 75.9739 302.326 75.6434 302.49 75.2415C302.66 74.8241 302.923 74.4589 303.229 74.1803L309.956 81.5797ZM312.297 76.152C312.297 74.3371 311.7 72.6525 310.62 71.2474L302.693 77.3446C302.6 77.2232 302.491 77.042 302.41 76.806C302.328 76.5685 302.297 76.3412 302.297 76.152H312.297ZM310.62 71.2474C309.089 69.2574 306.885 68.464 304.801 68.464V78.464C304.637 78.464 304.274 78.435 303.827 78.2345C303.357 78.0238 302.967 77.7008 302.693 77.3446L310.62 71.2474Z" fill="#5C5554" mask="url(#path-3-outside-1_41_59)"/>
</g>
<defs>
<filter id="filter0_d_41_59" x="0" y="0" width="499" height="152" filterUnits="userSpaceOnUse" color-interpolation-filters="sRGB">
<feFlood flood-opacity="0" result="BackgroundImageFix"/>
<feColorMatrix in="SourceAlpha" type="matrix" values="0 0 0 0 0 0 0 0 0 0 0 0 0 0 0 0 0 0 127 0" result="hardAlpha"/>
<feOffset dx="12" dy="12"/>
<feComposite in2="hardAlpha" operator="out"/>
<feColorMatrix type="matrix" values="0 0 0 0 0.360563 0 0 0 0 0.334621 0 0 0 0 0.330393 0 0 0 1 0"/>
<feBlend mode="normal" in2="BackgroundImageFix" result="effect1_dropShadow_41_59"/>
<feBlend mode="normal" in="SourceGraphic" in2="effect1_dropShadow_41_59" result="shape"/>
</filter>
</defs>
</svg>
