<svg width="79" height="92" viewBox="0 0 79 92" fill="none" xmlns="http://www.w3.org/2000/svg">
<mask id="path-1-outside-1_16_56" maskUnits="userSpaceOnUse" x="-5.85971" y="-6.77575" width="91.1908" height="105.084" fill="black">
<rect fill="white" x="-5.85971" y="-6.77575" width="91.1908" height="105.084"/>
<path d="M44.7732 78.7012C43.4375 81.7494 41.3255 83.619 38.4374 84.3099C35.5236 85.0594 32.3667 84.6892 28.9668 83.1994C25.5669 81.7095 23.265 79.5479 22.061 76.7144C20.8899 73.9653 20.8952 71.2424 22.0768 68.546C23.4639 65.3805 25.5265 63.3845 28.2644 62.558C31.061 61.757 34.1592 62.1015 37.5591 63.5914C40.959 65.0812 43.3324 67.2393 44.6794 70.0655C46.052 72.8331 46.0832 75.7117 44.7732 78.7012ZM55.0036 59.1821C52.5949 60.8518 50.1408 61.9076 47.6413 62.3495C46.5894 62.5175 45.446 62.5754 44.2111 62.5234C43.0347 62.497 41.8182 62.2435 40.5616 61.7627C39.3635 61.3075 38.1381 60.5959 36.8854 59.6277C35.7169 58.6265 34.589 57.2938 33.5016 55.6294C32.762 54.6065 32.321 53.5399 32.1787 52.4294C32.1208 51.286 32.2222 50.1775 32.483 49.1039C32.8025 48.056 33.2941 47.0137 33.9581 45.977C34.622 44.9403 35.361 43.9715 36.175 43.0705C38.0159 40.9424 40.3607 38.8604 43.2093 36.8246C40.4786 37.7941 37.9112 38.3111 35.5072 38.3757C33.4476 38.4514 31.3205 38.0434 29.126 37.1516C26.99 36.2855 25.2522 34.5108 23.9125 31.8275C22.7085 28.994 22.2392 26.2379 22.5047 23.5592C22.5896 22.4086 22.8725 21.2049 23.3533 19.9482C23.8341 18.6915 24.5587 17.4368 25.5269 16.1841C26.4951 14.9314 27.7527 13.7356 29.2999 12.5968C30.9313 11.4251 32.9402 10.3489 35.3264 9.36819C38.9404 8.29658 42.6492 7.96529 46.4528 8.37431C48.0395 8.58047 49.7213 8.96808 51.4983 9.53715C53.3597 10.0733 55.1933 10.9117 56.9993 12.0525C58.8896 13.1603 60.7394 14.5998 62.5487 16.3709C64.4423 18.109 66.2568 20.2667 67.9923 22.844C69.6033 25.227 70.5162 27.6883 70.7309 30.228C71.0043 32.7934 70.803 35.3256 70.1273 37.8244C69.5358 40.2904 68.5963 42.6737 67.3086 44.9743C66.021 47.2749 64.6088 49.3813 63.0722 51.2933C61.6199 53.1724 60.1403 54.7949 58.6333 56.161C57.185 57.5527 55.9751 58.5597 55.0036 59.1821Z"/>
</mask>
<path d="M44.7732 78.7012C43.4375 81.7494 41.3255 83.619 38.4374 84.3099C35.5236 85.0594 32.3667 84.6892 28.9668 83.1994C25.5669 81.7095 23.265 79.5479 22.061 76.7144C20.8899 73.9653 20.8952 71.2424 22.0768 68.546C23.4639 65.3805 25.5265 63.3845 28.2644 62.558C31.061 61.757 34.1592 62.1015 37.5591 63.5914C40.959 65.0812 43.3324 67.2393 44.6794 70.0655C46.052 72.8331 46.0832 75.7117 44.7732 78.7012ZM55.0036 59.1821C52.5949 60.8518 50.1408 61.9076 47.6413 62.3495C46.5894 62.5175 45.446 62.5754 44.2111 62.5234C43.0347 62.497 41.8182 62.2435 40.5616 61.7627C39.3635 61.3075 38.1381 60.5959 36.8854 59.6277C35.7169 58.6265 34.589 57.2938 33.5016 55.6294C32.762 54.6065 32.321 53.5399 32.1787 52.4294C32.1208 51.286 32.2222 50.1775 32.483 49.1039C32.8025 48.056 33.2941 47.0137 33.9581 45.977C34.622 44.9403 35.361 43.9715 36.175 43.0705C38.0159 40.9424 40.3607 38.8604 43.2093 36.8246C40.4786 37.7941 37.9112 38.3111 35.5072 38.3757C33.4476 38.4514 31.3205 38.0434 29.126 37.1516C26.99 36.2855 25.2522 34.5108 23.9125 31.8275C22.7085 28.994 22.2392 26.2379 22.5047 23.5592C22.5896 22.4086 22.8725 21.2049 23.3533 19.9482C23.8341 18.6915 24.5587 17.4368 25.5269 16.1841C26.4951 14.9314 27.7527 13.7356 29.2999 12.5968C30.9313 11.4251 32.9402 10.3489 35.3264 9.36819C38.9404 8.29658 42.6492 7.96529 46.4528 8.37431C48.0395 8.58047 49.7213 8.96808 51.4983 9.53715C53.3597 10.0733 55.1933 10.9117 56.9993 12.0525C58.8896 13.1603 60.7394 14.5998 62.5487 16.3709C64.4423 18.109 66.2568 20.2667 67.9923 22.844C69.6033 25.227 70.5162 27.6883 70.7309 30.228C71.0043 32.7934 70.803 35.3256 70.1273 37.8244C69.5358 40.2904 68.5963 42.6737 67.3086 44.9743C66.021 47.2749 64.6088 49.3813 63.0722 51.2933C61.6199 53.1724 60.1403 54.7949 58.6333 56.161C57.185 57.5527 55.9751 58.5597 55.0036 59.1821Z" fill="#E25B45"/>
<path d="M38.4374 84.3099L37.2741 79.4471L37.2329 79.4569L37.1918 79.4675L38.4374 84.3099ZM22.061 76.7144L26.6628 74.759L26.661 74.7549L22.061 76.7144ZM28.2644 62.558L26.8878 57.7512L26.8535 57.761L26.8193 57.7713L28.2644 62.558ZM44.6794 70.0655L40.1657 72.2166L40.1826 72.2519L40.2 72.287L44.6794 70.0655ZM55.0036 59.1821L52.3063 54.9721L52.2297 55.0211L52.1551 55.0729L55.0036 59.1821ZM47.6413 62.3495L48.4297 67.287L48.4708 67.2804L48.5118 67.2732L47.6413 62.3495ZM44.2111 62.5234L44.4216 57.5278L44.3723 57.5258L44.323 57.5247L44.2111 62.5234ZM40.5616 61.7627L42.3483 57.0928L42.3372 57.0886L40.5616 61.7627ZM36.8854 59.6277L33.6321 63.4246L33.7279 63.5067L33.8278 63.5838L36.8854 59.6277ZM33.5016 55.6294L37.6874 52.8946L37.6227 52.7955L37.5533 52.6996L33.5016 55.6294ZM32.1787 52.4294L27.1851 52.6825L27.1949 52.8743L27.2193 53.0648L32.1787 52.4294ZM32.483 49.1039L27.7003 47.646L27.6583 47.7836L27.6244 47.9235L32.483 49.1039ZM33.9581 45.977L38.1686 48.6735L38.1686 48.6735L33.9581 45.977ZM36.175 43.0705L39.885 46.4225L39.9212 46.3824L39.9565 46.3416L36.175 43.0705ZM43.2093 36.8246L46.1166 40.8925L41.5364 32.1127L43.2093 36.8246ZM35.5072 38.3757L35.373 33.3775L35.3482 33.3781L35.3234 33.379L35.5072 38.3757ZM29.126 37.1516L31.0083 32.5194L31.0048 32.518L29.126 37.1516ZM23.9125 31.8275L19.3107 33.7828L19.3706 33.9238L19.439 34.0609L23.9125 31.8275ZM22.5047 23.5592L27.4803 24.0523L27.4865 23.9899L27.4911 23.9274L22.5047 23.5592ZM23.3533 19.9482L28.0232 21.7349L23.3533 19.9482ZM25.5269 16.1841L29.483 19.2417L25.5269 16.1841ZM29.2999 12.5968L26.3832 8.5357L26.3594 8.55273L26.3359 8.57004L29.2999 12.5968ZM35.3264 9.36819L33.905 4.57448L33.6611 4.64681L33.4258 4.74352L35.3264 9.36819ZM46.4528 8.37431L47.0971 3.41599L47.0423 3.40888L46.9874 3.40297L46.4528 8.37431ZM51.4983 9.53715L49.9734 14.2989L50.0436 14.3214L50.1144 14.3418L51.4983 9.53715ZM56.9993 12.0525L54.3291 16.2798L54.3994 16.3242L54.4712 16.3663L56.9993 12.0525ZM62.5487 16.3709L59.051 19.9439L59.1084 20.0001L59.1675 20.0544L62.5487 16.3709ZM67.9923 22.844L63.845 25.6368L63.8501 25.6444L67.9923 22.844ZM70.7309 30.228L65.7487 30.6492L65.7533 30.7035L65.7591 30.7577L70.7309 30.228ZM70.1273 37.8244L65.3007 36.5192L65.2819 36.5885L65.2652 36.6583L70.1273 37.8244ZM67.3086 44.9743L62.9455 42.5323L62.9455 42.5323L67.3086 44.9743ZM63.0722 51.2933L59.1748 48.1611L59.1451 48.1981L59.1161 48.2357L63.0722 51.2933ZM58.6333 56.161L55.2753 52.4564L55.2214 52.5053L55.169 52.5556L58.6333 56.161ZM40.1936 76.6944C39.3995 78.5065 38.44 79.1682 37.2741 79.4471L39.6007 89.1727C44.2111 88.0698 47.4754 84.9923 49.3528 80.708L40.1936 76.6944ZM37.1918 79.4675C35.5947 79.8783 33.5947 79.7683 30.9736 78.6198L26.96 87.779C31.1388 89.6101 35.4525 90.2405 39.683 89.1522L37.1918 79.4675ZM30.9736 78.6198C28.4872 77.5302 27.2691 76.1859 26.6628 74.759L17.4592 78.6698C19.2609 82.9099 22.6466 85.8888 26.96 87.779L30.9736 78.6198ZM26.661 74.7549C26.0211 73.2526 26.0375 71.9652 26.6564 70.5528L17.4972 66.5392C15.7529 70.5197 15.7588 74.6779 17.4609 78.6739L26.661 74.7549ZM26.6564 70.5528C27.5902 68.4218 28.6642 67.6601 29.7095 67.3446L26.8193 57.7713C22.3887 59.1089 19.3376 62.3393 17.4972 66.5392L26.6564 70.5528ZM29.641 67.3647C31.0383 66.9646 32.9187 67.0169 35.5523 68.171L39.5659 59.0118C35.3998 57.1861 31.0837 56.5495 26.8878 57.7512L29.641 67.3647ZM35.5523 68.171C38.0668 69.2728 39.4283 70.6691 40.1657 72.2166L49.193 67.9144C47.2366 63.8094 43.8512 60.8896 39.5659 59.0118L35.5523 68.171ZM40.2 72.287C40.874 73.646 40.9483 74.9721 40.1936 76.6944L49.3528 80.708C51.2181 76.4513 51.23 72.0202 49.1587 67.8439L40.2 72.287ZM52.1551 55.0729C50.248 56.3948 48.4581 57.1275 46.7707 57.4259L48.5118 67.2732C51.8235 66.6876 54.9418 65.3087 57.8521 63.2914L52.1551 55.0729ZM46.8529 57.4121C46.1788 57.5197 45.3743 57.568 44.4216 57.5278L44.0006 67.519C45.5178 67.5829 47.0001 67.5152 48.4297 67.287L46.8529 57.4121ZM44.323 57.5247C43.7955 57.5128 43.1454 57.3978 42.3483 57.0928L38.7749 66.4325C40.4911 67.0892 42.274 67.4813 44.0991 67.5221L44.323 57.5247ZM42.3372 57.0886C41.6928 56.8438 40.8938 56.4064 39.943 55.6715L33.8278 63.5838C35.3823 64.7853 37.0342 65.7713 38.786 66.4368L42.3372 57.0886ZM40.1386 55.8308C39.4169 55.2124 38.5871 54.2717 37.6874 52.8946L29.3158 58.3642C30.5909 60.3159 32.017 62.0407 33.6321 63.4246L40.1386 55.8308ZM37.5533 52.6996C37.2398 52.2661 37.1614 51.9749 37.1382 51.794L27.2193 53.0648C27.4806 55.1049 28.2841 56.947 29.4499 58.5592L37.5533 52.6996ZM37.1723 52.1763C37.1379 51.4971 37.1989 50.8723 37.3417 50.2843L27.6244 47.9235C27.2456 49.4827 27.1037 51.0749 27.1851 52.6825L37.1723 52.1763ZM37.2657 50.5619C37.4367 50.0012 37.7212 49.3723 38.1686 48.6735L29.7475 43.2805C28.8671 44.6552 28.1683 46.1109 27.7003 47.646L37.2657 50.5619ZM38.1686 48.6735C38.6861 47.8655 39.2581 47.1163 39.885 46.4225L32.4651 39.7184C31.4638 40.8266 30.5579 42.0151 29.7475 43.2805L38.1686 48.6735ZM39.9565 46.3416C41.4847 44.5751 43.5152 42.7517 46.1166 40.8925L40.3021 32.7567C37.2062 34.9692 34.5472 37.3097 32.3936 39.7993L39.9565 46.3416ZM41.5364 32.1127C39.2024 32.9414 37.1575 33.3296 35.373 33.3775L35.6414 43.3739C38.6649 43.2927 41.7548 42.6468 44.8822 41.5364L41.5364 32.1127ZM35.3234 33.379C34.0687 33.4252 32.6452 33.1846 31.0083 32.5194L27.2436 41.7837C29.9959 42.9022 32.8266 43.4776 35.6909 43.3723L35.3234 33.379ZM31.0048 32.518C30.302 32.233 29.3493 31.5236 28.386 29.594L19.439 34.0609C21.155 37.4979 23.678 40.3379 27.2471 41.7851L31.0048 32.518ZM28.5143 29.8721C27.5906 27.6983 27.3088 25.783 27.4803 24.0523L17.529 23.0662C17.1697 26.6928 17.8264 30.2897 19.3107 33.7828L28.5143 29.8721ZM27.4911 23.9274C27.5348 23.3353 27.6883 22.6104 28.0232 21.7349L18.6835 18.1615C18.0568 19.7995 17.6445 21.4818 17.5182 23.191L27.4911 23.9274ZM28.0232 21.7349C28.3018 21.0067 28.7622 20.1743 29.483 19.2417L21.5707 13.1265C20.3551 14.6994 19.3665 16.3764 18.6835 18.1615L28.0232 21.7349ZM29.483 19.2417C30.1142 18.425 31.0141 17.5435 32.2638 16.6236L26.3359 8.57004C24.4913 9.92776 22.8759 11.4377 21.5707 13.1265L29.483 19.2417ZM32.2166 16.658C33.458 15.7664 35.1042 14.8653 37.2271 13.9928L33.4258 4.74352C30.7761 5.83249 28.4047 7.08382 26.3832 8.5357L32.2166 16.658ZM36.7479 14.1619C39.7184 13.2811 42.7619 13.0062 45.9183 13.3457L46.9874 3.40297C42.5365 2.92435 38.1624 3.31209 33.905 4.57448L36.7479 14.1619ZM45.8086 13.3326C47.052 13.4942 48.4374 13.8071 49.9734 14.2989L53.0233 4.77536C51.0052 4.12911 49.027 3.66675 47.0971 3.41599L45.8086 13.3326ZM50.1144 14.3418C51.4779 14.7346 52.8818 15.3656 54.3291 16.2798L59.6695 7.82521C57.5048 6.45785 55.2414 5.41202 52.8823 4.7325L50.1144 14.3418ZM54.4712 16.3663C55.9597 17.2387 57.4894 18.4152 59.051 19.9439L66.0463 12.7978C63.9894 10.7844 61.8195 9.08202 59.5274 7.73875L54.4712 16.3663ZM59.1675 20.0544C60.7189 21.4784 62.2851 23.3203 63.845 25.6368L72.1396 20.0512C70.2285 17.2132 68.1656 14.7397 65.9298 12.6874L59.1675 20.0544ZM63.8501 25.6444C65.0449 27.4117 65.6149 29.0662 65.7487 30.6492L75.7132 29.8068C75.4176 26.3104 74.1617 23.0422 72.1345 20.0436L63.8501 25.6444ZM65.7591 30.7577C65.9666 32.7056 65.8154 34.6156 65.3007 36.5192L74.9539 39.1297C75.7907 36.0355 76.0419 32.8812 75.7028 29.6983L65.7591 30.7577ZM65.2652 36.6583C64.7849 38.6606 64.018 40.6161 62.9455 42.5323L71.6717 47.4163C73.1745 44.7313 74.2867 41.9202 74.9894 38.9906L65.2652 36.6583ZM62.9455 42.5323C61.7836 44.6082 60.5249 46.4812 59.1748 48.1611L66.9696 54.4254C68.6928 52.2813 70.2583 49.9416 71.6717 47.4163L62.9455 42.5323ZM59.1161 48.2357C57.8146 49.9196 56.5316 51.3176 55.2753 52.4564L61.9914 59.8655C63.749 58.2723 65.4252 56.4252 67.0284 54.3509L59.1161 48.2357ZM55.169 52.5556C53.8106 53.8609 52.8736 54.6086 52.3063 54.9721L57.7008 63.3922C59.0765 62.5108 60.5594 61.2444 62.0976 59.7663L55.169 52.5556Z" fill="#5C5554" mask="url(#path-1-outside-1_16_56)"/>
</svg>
