<?xml version="1.0" encoding="UTF-8"?>
<svg id="Layer_2" data-name="Layer 2" xmlns="http://www.w3.org/2000/svg" viewBox="0 0 173.75 273.91">
  <defs>
    <style>
      .cls-1, .cls-2, .cls-3, .cls-4, .cls-5 {
        stroke: #5c5554;
      }

      .cls-1, .cls-3, .cls-4 {
        stroke-width: 5px;
      }

      .cls-1, .cls-3, .cls-4, .cls-5 {
        stroke-miterlimit: 10;
      }

      .cls-1, .cls-6 {
        fill: #71cde6;
      }

      .cls-2 {
        stroke-linecap: round;
        stroke-linejoin: round;
        stroke-width: 3px;
      }

      .cls-2, .cls-4, .cls-5 {
        fill: none;
      }

      .cls-3, .cls-7 {
        fill: #fffefe;
      }

      .cls-8 {
        fill: #fcd4db;
      }

      .cls-8, .cls-7, .cls-9, .cls-6 {
        stroke-width: 0px;
      }

      .cls-5 {
        stroke-width: 2px;
      }

      .cls-9 {
        fill: #f4a2ad;
      }
    </style>
  </defs>
  <g id="Boni_Side" data-name="Boni Side">
    <g id="Boni_Head">
      <path class="cls-3" d="M139.99,85.21c6.55-5.99,13.03-14.1,18.57-23.68,14.5-25.11,16.94-50.84,5.47-57.47-11.48-6.63-32.54,8.36-47.03,33.47-7.02,12.16-11.21,24.46-12.36,34.67-11.33-1.44-23.53-.88-35.87,2.01-1.8.42-3.56.9-5.3,1.41,1.39-4.88,2.48-10.12,3.22-15.62,3.83-28.74-3.72-53.46-16.86-55.21-13.14-1.75-26.89,20.13-30.72,48.87-2.37,17.82-.37,34.08,4.62,44.29C7.29,113.62-.87,134.19,3.8,154.11c7.94,33.85,49.89,52.96,93.7,42.68,43.81-10.27,72.89-46.04,64.95-79.89-3.06-13.03-11.16-23.86-22.46-31.68Z"/>
    </g>
    <g id="Boni_Eyes_Cheeks_Normal" data-name="Boni Eyes Cheeks Normal">
      <circle class="cls-8" cx="101.82" cy="156.18" r="9.5"/>
      <circle class="cls-8" cx="26.82" cy="160.18" r="9.5"/>
    </g>
    <g id="MouthOpenSmile">
      <path class="cls-9" d="M51.32,158.68s1.87-.62,4.75-1,6.75-.5,10.75.5c5.55,1.39,7.17,20-5,20s-10.5-19.5-10.5-19.5Z"/>
      <path class="cls-7" d="M55.97,157.43s-1.31,5.22,5.76,5.28c4.47.03,5.41-4.77,5.41-4.77l-11.17-.51Z"/>
      <path class="cls-5" d="M51.32,158.68s1.87-.62,4.75-1,6.75-.5,10.75.5c5.55,1.39,7.17,20-5,20s-10.5-19.5-10.5-19.5Z"/>
    </g>
    <g id="Happy_Eyes" data-name="Happy Eyes">
      <polyline class="cls-2" points="38.19 133.46 49.14 140.23 36.44 141.38"/>
      <polyline class="cls-2" points="86.93 140.89 74.08 140.15 84.71 133.1"/>
    </g>
    <g id="Lanyard_Boni">
      <path class="cls-1" d="M46.46,196.03l18.69,14.06c.79.59,1.25,1.84,1.16,3.14l-.04.58c-.15,2.25-1.81,3.55-3.16,2.49l-18.65-14.64c-.78-.61-1.23-1.86-1.13-3.15h0c.17-2.21,1.78-3.49,3.12-2.48Z"/>
      <path class="cls-1" d="M137,196.8l-58.05,23.38c-2.04.82-4.33-.47-4.71-2.66h0c-.26-1.51.49-3.01,1.86-3.69l57.45-28.42c2.14-1.06,4.69.34,4.98,2.73l.61,5.04c.19,1.56-.68,3.04-2.12,3.62Z"/>
      <rect class="cls-3" x="51.47" y="226.76" width="30.75" height="44.03" rx="5.53" ry="5.53" transform="translate(16.83 -3.92) rotate(3.84)"/>
      <ellipse class="cls-4" cx="69.21" cy="220.18" rx="4.38" ry="6"/>
      <rect class="cls-6" x="57.91" y="234.82" width="18.63" height="18.64" rx="5.53" ry="5.53" transform="translate(16.52 -3.96) rotate(3.84)"/>
    </g>
  </g>
</svg>