<svg width="499" height="152" viewBox="0 0 499 152" fill="none" xmlns="http://www.w3.org/2000/svg">
<g filter="url(#filter0_d_12_166)">
<rect x="8" y="8" width="471" height="124" rx="62" fill="#E25B45"/>
<rect x="4" y="4" width="479" height="132" rx="66" stroke="#5C5554" stroke-width="8"/>
<mask id="path-3-outside-1_12_166" maskUnits="userSpaceOnUse" x="123" y="37" width="241" height="61" fill="black">
<rect fill="white" x="123" y="37" width="241" height="61"/>
<path d="M158.058 63.736C156.735 63.5227 155.541 63.5013 154.474 63.672C153.578 63.8427 152.746 64.2053 151.978 64.76C151.21 65.3147 150.783 66.2747 150.698 67.64C150.655 68.664 150.89 69.56 151.402 70.328C151.871 70.968 152.618 71.5227 153.642 71.992C154.666 72.4187 156.202 72.5253 158.25 72.312C160.17 72.0987 161.898 72.184 163.434 72.568C164.074 72.7387 164.714 72.9733 165.354 73.272C166.037 73.5707 166.634 73.9973 167.146 74.552C167.701 75.064 168.17 75.7253 168.554 76.536C168.981 77.304 169.258 78.2213 169.386 79.288C169.471 80.568 169.365 81.8053 169.066 83C168.81 84.024 168.319 85.112 167.594 86.264C166.911 87.416 165.823 88.3973 164.33 89.208C162.751 90.0613 160.853 90.68 158.634 91.064C156.714 91.4053 154.367 91.5333 151.594 91.448C148.821 91.3627 145.557 90.808 141.802 89.784C139.157 88.9307 136.81 87.5653 134.762 85.688C133.866 84.8773 132.991 83.9387 132.138 82.872C131.327 81.7627 130.602 80.4827 129.962 79.032C129.322 77.5387 128.81 75.8533 128.426 73.976C128.085 72.0987 127.957 70.008 128.042 67.704C128.085 64.376 128.682 61.2613 129.834 58.36C130.346 57.1227 130.986 55.8853 131.754 54.648C132.565 53.368 133.567 52.1733 134.762 51.064C135.999 49.9547 137.429 48.952 139.05 48.056C140.714 47.16 142.655 46.456 144.874 45.944C147.05 45.432 149.311 45.1547 151.658 45.112C153.621 45.0693 155.775 45.2613 158.122 45.688C160.511 46.072 162.815 46.9253 165.034 48.248C166.186 49.0587 167.103 50.04 167.786 51.192C168.085 51.704 168.341 52.28 168.554 52.92C168.767 53.5173 168.895 54.1787 168.938 54.904C169.023 55.6293 169.002 56.4187 168.874 57.272C168.746 58.1253 168.469 59.0427 168.042 60.024C167.573 61.0053 166.911 61.816 166.058 62.456C165.333 63.0107 164.309 63.4587 162.986 63.8C161.706 64.1413 160.063 64.12 158.058 63.736ZM186.238 58.168C188.499 57.9547 190.355 58.0827 191.806 58.552C193.257 58.9787 194.387 59.512 195.198 60.152C196.051 60.792 196.649 61.432 196.99 62.072C197.331 62.6693 197.523 63.032 197.566 63.16C197.566 63.1173 197.673 62.8187 197.886 62.264C198.142 61.6667 198.547 61.0267 199.102 60.344C199.657 59.6613 200.403 59.064 201.342 58.552C202.281 57.9973 203.454 57.72 204.862 57.72C206.057 57.72 207.102 57.9547 207.998 58.424C208.894 58.8933 209.683 59.512 210.366 60.28C211.049 61.048 211.625 61.9227 212.094 62.904C212.563 63.8853 212.947 64.888 213.246 65.912C213.971 68.3013 214.377 71.0107 214.462 74.04C214.59 76.472 214.547 78.6053 214.334 80.44C214.121 82.232 213.801 83.7893 213.374 85.112C212.99 86.392 212.521 87.48 211.966 88.376C211.411 89.2293 210.835 89.912 210.238 90.424C208.83 91.6613 207.187 92.2373 205.31 92.152C204.158 92.1947 203.07 92.0027 202.046 91.576C201.193 91.2347 200.361 90.6587 199.55 89.848C198.739 88.9947 198.227 87.7573 198.014 86.136C197.587 87.416 196.819 88.504 195.71 89.4C194.771 90.168 193.449 90.8293 191.742 91.384C190.035 91.9387 187.774 92.0453 184.958 91.704C182.654 91.448 180.606 90.7653 178.814 89.656C178.046 89.1867 177.278 88.5893 176.51 87.864C175.785 87.1387 175.123 86.2427 174.526 85.176C173.971 84.1093 173.523 82.872 173.182 81.464C172.841 80.056 172.67 78.4347 172.67 76.6C172.585 73.4 172.99 70.4987 173.886 67.896C174.27 66.7867 174.782 65.6987 175.422 64.632C176.062 63.5227 176.873 62.52 177.854 61.624C178.835 60.728 180.009 59.9813 181.374 59.384C182.739 58.744 184.361 58.3387 186.238 58.168ZM194.75 73.208C194.025 73.208 193.385 73.4853 192.83 74.04C192.318 74.5947 192.105 75.2133 192.19 75.896C192.275 76.792 192.531 77.4107 192.958 77.752C193.427 78.0933 194.025 78.264 194.75 78.264C195.475 78.264 196.073 78.0507 196.542 77.624C197.011 77.1973 197.246 76.6213 197.246 75.896C197.246 75.2133 197.033 74.5947 196.606 74.04C196.179 73.4853 195.561 73.208 194.75 73.208ZM260.549 76.28C260.634 78.7973 260.399 81.08 259.845 83.128C259.589 84.024 259.247 84.92 258.821 85.816C258.437 86.6693 257.903 87.48 257.221 88.248C256.538 88.9733 255.727 89.6133 254.789 90.168C253.893 90.7227 252.805 91.1067 251.525 91.32C251.525 91.32 251.269 91.3413 250.757 91.384C250.245 91.4267 249.583 91.4053 248.773 91.32C248.005 91.2347 247.151 91.064 246.213 90.808C245.317 90.5093 244.463 90.04 243.653 89.4C242.842 88.7173 242.138 87.8213 241.541 86.712C240.986 85.6027 240.666 84.1947 240.581 82.488C240.41 80.824 240.239 79.3307 240.069 78.008C239.855 76.8987 239.621 75.8747 239.365 74.936C239.109 73.9547 238.767 73.464 238.341 73.464C238.469 75.0427 238.533 76.408 238.533 77.56C238.575 78.712 238.575 79.6933 238.533 80.504C238.49 81.4427 238.447 82.2533 238.405 82.936C238.191 84.5147 237.701 85.9227 236.933 87.16C236.293 88.2267 235.333 89.208 234.053 90.104C232.815 91 231.087 91.4693 228.869 91.512C227.802 91.512 226.842 91.384 225.989 91.128C225.178 90.9147 224.453 90.5947 223.812 90.168C223.173 89.7413 222.597 89.272 222.085 88.76C221.615 88.2053 221.21 87.6507 220.869 87.096C220.058 85.7733 219.482 84.28 219.141 82.616C218.842 81.464 218.607 80.1413 218.437 78.648C218.266 77.368 218.159 75.832 218.117 74.04C218.074 72.248 218.159 70.2 218.373 67.896C218.586 66.104 219.077 64.4827 219.845 63.032C220.143 62.4347 220.527 61.8373 220.997 61.24C221.466 60.6427 222.021 60.1093 222.661 59.64C223.301 59.128 224.026 58.7227 224.837 58.424C225.69 58.0827 226.65 57.8693 227.717 57.784C229.594 57.656 231.13 57.7413 232.325 58.04C233.562 58.3387 234.565 58.744 235.333 59.256C236.101 59.7253 236.677 60.2587 237.061 60.856C237.487 61.4107 237.85 61.944 238.149 62.456C241.989 60.3653 245.487 59.384 248.645 59.512C249.967 59.5547 251.29 59.8533 252.613 60.408C253.935 60.92 255.13 61.816 256.197 63.096C257.306 64.3333 258.245 66.0187 259.013 68.152C259.781 70.2853 260.293 72.9947 260.549 76.28ZM286.201 72.76C285.348 72.504 284.601 72.3973 283.961 72.44C283.364 72.4827 282.83 72.6533 282.361 72.952C281.934 73.2507 281.721 73.8053 281.721 74.616C281.764 75.2133 281.956 75.6827 282.297 76.024C282.596 76.3227 283.044 76.536 283.641 76.664C284.238 76.7493 285.113 76.5573 286.265 76.088C287.502 75.6187 288.718 75.384 289.913 75.384C290.937 75.4267 292.025 75.704 293.177 76.216C294.329 76.728 295.374 77.7307 296.313 79.224C296.825 80.3333 297.081 81.4427 297.081 82.552C297.081 83.5333 296.825 84.6213 296.313 85.816C295.801 87.0107 294.734 88.184 293.113 89.336C291.406 90.488 289.486 91.32 287.353 91.832C285.518 92.3013 283.321 92.472 280.761 92.344C278.201 92.2587 275.364 91.512 272.249 90.104C270.713 89.336 269.348 88.248 268.153 86.84C267.129 85.6453 266.19 84.0667 265.337 82.104C264.484 80.0987 264.057 77.624 264.057 74.68C264.1 72.2053 264.526 69.88 265.337 67.704C265.678 66.7653 266.126 65.8267 266.681 64.888C267.236 63.9493 267.918 63.0533 268.729 62.2C269.54 61.304 270.5 60.5147 271.609 59.832C272.761 59.1067 274.084 58.5093 275.577 58.04C277.668 57.4427 279.801 57.1227 281.977 57.08C283.812 57.0373 285.796 57.2933 287.929 57.848C290.105 58.4027 292.132 59.5333 294.009 61.24C294.564 61.7947 295.012 62.456 295.353 63.224C295.652 63.9067 295.844 64.7387 295.929 65.72C296.057 66.7013 295.886 67.8107 295.417 69.048C294.99 69.9867 294.372 70.776 293.561 71.416C292.836 71.9707 291.876 72.4187 290.681 72.76C289.529 73.1013 288.036 73.1013 286.201 72.76ZM321.101 77.752C322.338 78.7333 323.64 79.352 325.005 79.608C326.37 79.8213 327.629 80.0133 328.781 80.184C329.976 80.3547 330.978 80.6747 331.789 81.144C332.642 81.6133 333.176 82.5947 333.389 84.088C333.432 84.9413 333.325 85.7733 333.069 86.584C332.813 87.3093 332.365 88.056 331.725 88.824C331.128 89.5493 330.168 90.168 328.845 90.68C326.968 91.2773 324.941 91.6613 322.765 91.832C320.888 92.0027 318.754 91.96 316.365 91.704C313.976 91.4907 311.48 90.8507 308.877 89.784C307.17 89.016 305.656 87.928 304.333 86.52C303.778 85.9227 303.224 85.24 302.669 84.472C302.157 83.6613 301.688 82.7653 301.261 81.784C300.877 80.76 300.557 79.6293 300.301 78.392C300.088 77.1547 300.024 75.7893 300.109 74.296C300.237 71.992 300.685 69.7947 301.453 67.704C301.794 66.808 302.221 65.912 302.733 65.016C303.245 64.0773 303.864 63.1813 304.589 62.328C305.357 61.4747 306.232 60.6853 307.213 59.96C308.237 59.2347 309.41 58.6373 310.733 58.168C312.909 57.528 315.128 57.1867 317.389 57.144C318.328 57.144 319.33 57.208 320.397 57.336C321.506 57.4213 322.594 57.6347 323.661 57.976C324.77 58.2747 325.88 58.7227 326.989 59.32C328.098 59.9173 329.165 60.664 330.189 61.56C330.872 62.2427 331.469 63.0107 331.981 63.864C332.45 64.632 332.856 65.5707 333.197 66.68C333.538 67.7467 333.73 69.0267 333.773 70.52C333.773 72.184 333.389 73.5493 332.621 74.616C331.896 75.6827 330.914 76.4933 329.677 77.048C328.482 77.6027 327.117 77.944 325.581 78.072C324.088 78.1573 322.594 78.0507 321.101 77.752ZM319.437 69.624C318.712 69.624 318.072 69.9013 317.517 70.456C317.005 71.0107 316.792 71.6293 316.877 72.312C316.962 73.208 317.218 73.8267 317.645 74.168C318.114 74.5093 318.712 74.68 319.437 74.68C320.162 74.68 320.76 74.4667 321.229 74.04C321.698 73.6133 321.933 73.0373 321.933 72.312C321.933 71.6293 321.72 71.0107 321.293 70.456C320.866 69.9013 320.248 69.624 319.437 69.624ZM338.059 78.072C337.76 75.64 337.611 73.1013 337.611 70.456C337.611 67.768 337.675 65.272 337.803 62.968C337.931 60.3227 338.123 57.72 338.379 55.16C338.635 52.8133 339.147 50.7013 339.915 48.824C340.256 48.056 340.661 47.288 341.131 46.52C341.643 45.752 342.24 45.0693 342.923 44.472C343.605 43.8747 344.395 43.4053 345.291 43.064C346.229 42.68 347.275 42.488 348.427 42.488C350.048 42.5307 351.563 43.0427 352.971 44.024C353.525 44.4507 354.101 44.984 354.699 45.624C355.296 46.264 355.829 47.0747 356.299 48.056C356.811 49.0373 357.237 50.1893 357.579 51.512C357.963 52.8347 358.219 54.3707 358.347 56.12C358.603 59.5333 358.731 62.7973 358.731 65.912C358.731 69.0267 358.688 71.8 358.603 74.232C358.475 77.0907 358.283 79.7573 358.027 82.232C357.813 84.1093 357.323 85.752 356.555 87.16C356.213 87.7573 355.787 88.3547 355.275 88.952C354.805 89.5493 354.208 90.0827 353.483 90.552C352.8 90.9787 351.989 91.32 351.051 91.576C350.112 91.832 349.045 91.9387 347.851 91.896C346.741 91.8533 345.739 91.6187 344.843 91.192C343.989 90.808 343.221 90.296 342.539 89.656C341.856 89.016 341.28 88.2907 340.811 87.48C340.341 86.6267 339.936 85.7733 339.595 84.92C338.827 82.9147 338.315 80.632 338.059 78.072Z"/>
</mask>
<path d="M158.058 63.736C156.735 63.5227 155.541 63.5013 154.474 63.672C153.578 63.8427 152.746 64.2053 151.978 64.76C151.21 65.3147 150.783 66.2747 150.698 67.64C150.655 68.664 150.89 69.56 151.402 70.328C151.871 70.968 152.618 71.5227 153.642 71.992C154.666 72.4187 156.202 72.5253 158.25 72.312C160.17 72.0987 161.898 72.184 163.434 72.568C164.074 72.7387 164.714 72.9733 165.354 73.272C166.037 73.5707 166.634 73.9973 167.146 74.552C167.701 75.064 168.17 75.7253 168.554 76.536C168.981 77.304 169.258 78.2213 169.386 79.288C169.471 80.568 169.365 81.8053 169.066 83C168.81 84.024 168.319 85.112 167.594 86.264C166.911 87.416 165.823 88.3973 164.33 89.208C162.751 90.0613 160.853 90.68 158.634 91.064C156.714 91.4053 154.367 91.5333 151.594 91.448C148.821 91.3627 145.557 90.808 141.802 89.784C139.157 88.9307 136.81 87.5653 134.762 85.688C133.866 84.8773 132.991 83.9387 132.138 82.872C131.327 81.7627 130.602 80.4827 129.962 79.032C129.322 77.5387 128.81 75.8533 128.426 73.976C128.085 72.0987 127.957 70.008 128.042 67.704C128.085 64.376 128.682 61.2613 129.834 58.36C130.346 57.1227 130.986 55.8853 131.754 54.648C132.565 53.368 133.567 52.1733 134.762 51.064C135.999 49.9547 137.429 48.952 139.05 48.056C140.714 47.16 142.655 46.456 144.874 45.944C147.05 45.432 149.311 45.1547 151.658 45.112C153.621 45.0693 155.775 45.2613 158.122 45.688C160.511 46.072 162.815 46.9253 165.034 48.248C166.186 49.0587 167.103 50.04 167.786 51.192C168.085 51.704 168.341 52.28 168.554 52.92C168.767 53.5173 168.895 54.1787 168.938 54.904C169.023 55.6293 169.002 56.4187 168.874 57.272C168.746 58.1253 168.469 59.0427 168.042 60.024C167.573 61.0053 166.911 61.816 166.058 62.456C165.333 63.0107 164.309 63.4587 162.986 63.8C161.706 64.1413 160.063 64.12 158.058 63.736ZM186.238 58.168C188.499 57.9547 190.355 58.0827 191.806 58.552C193.257 58.9787 194.387 59.512 195.198 60.152C196.051 60.792 196.649 61.432 196.99 62.072C197.331 62.6693 197.523 63.032 197.566 63.16C197.566 63.1173 197.673 62.8187 197.886 62.264C198.142 61.6667 198.547 61.0267 199.102 60.344C199.657 59.6613 200.403 59.064 201.342 58.552C202.281 57.9973 203.454 57.72 204.862 57.72C206.057 57.72 207.102 57.9547 207.998 58.424C208.894 58.8933 209.683 59.512 210.366 60.28C211.049 61.048 211.625 61.9227 212.094 62.904C212.563 63.8853 212.947 64.888 213.246 65.912C213.971 68.3013 214.377 71.0107 214.462 74.04C214.59 76.472 214.547 78.6053 214.334 80.44C214.121 82.232 213.801 83.7893 213.374 85.112C212.99 86.392 212.521 87.48 211.966 88.376C211.411 89.2293 210.835 89.912 210.238 90.424C208.83 91.6613 207.187 92.2373 205.31 92.152C204.158 92.1947 203.07 92.0027 202.046 91.576C201.193 91.2347 200.361 90.6587 199.55 89.848C198.739 88.9947 198.227 87.7573 198.014 86.136C197.587 87.416 196.819 88.504 195.71 89.4C194.771 90.168 193.449 90.8293 191.742 91.384C190.035 91.9387 187.774 92.0453 184.958 91.704C182.654 91.448 180.606 90.7653 178.814 89.656C178.046 89.1867 177.278 88.5893 176.51 87.864C175.785 87.1387 175.123 86.2427 174.526 85.176C173.971 84.1093 173.523 82.872 173.182 81.464C172.841 80.056 172.67 78.4347 172.67 76.6C172.585 73.4 172.99 70.4987 173.886 67.896C174.27 66.7867 174.782 65.6987 175.422 64.632C176.062 63.5227 176.873 62.52 177.854 61.624C178.835 60.728 180.009 59.9813 181.374 59.384C182.739 58.744 184.361 58.3387 186.238 58.168ZM194.75 73.208C194.025 73.208 193.385 73.4853 192.83 74.04C192.318 74.5947 192.105 75.2133 192.19 75.896C192.275 76.792 192.531 77.4107 192.958 77.752C193.427 78.0933 194.025 78.264 194.75 78.264C195.475 78.264 196.073 78.0507 196.542 77.624C197.011 77.1973 197.246 76.6213 197.246 75.896C197.246 75.2133 197.033 74.5947 196.606 74.04C196.179 73.4853 195.561 73.208 194.75 73.208ZM260.549 76.28C260.634 78.7973 260.399 81.08 259.845 83.128C259.589 84.024 259.247 84.92 258.821 85.816C258.437 86.6693 257.903 87.48 257.221 88.248C256.538 88.9733 255.727 89.6133 254.789 90.168C253.893 90.7227 252.805 91.1067 251.525 91.32C251.525 91.32 251.269 91.3413 250.757 91.384C250.245 91.4267 249.583 91.4053 248.773 91.32C248.005 91.2347 247.151 91.064 246.213 90.808C245.317 90.5093 244.463 90.04 243.653 89.4C242.842 88.7173 242.138 87.8213 241.541 86.712C240.986 85.6027 240.666 84.1947 240.581 82.488C240.41 80.824 240.239 79.3307 240.069 78.008C239.855 76.8987 239.621 75.8747 239.365 74.936C239.109 73.9547 238.767 73.464 238.341 73.464C238.469 75.0427 238.533 76.408 238.533 77.56C238.575 78.712 238.575 79.6933 238.533 80.504C238.49 81.4427 238.447 82.2533 238.405 82.936C238.191 84.5147 237.701 85.9227 236.933 87.16C236.293 88.2267 235.333 89.208 234.053 90.104C232.815 91 231.087 91.4693 228.869 91.512C227.802 91.512 226.842 91.384 225.989 91.128C225.178 90.9147 224.453 90.5947 223.812 90.168C223.173 89.7413 222.597 89.272 222.085 88.76C221.615 88.2053 221.21 87.6507 220.869 87.096C220.058 85.7733 219.482 84.28 219.141 82.616C218.842 81.464 218.607 80.1413 218.437 78.648C218.266 77.368 218.159 75.832 218.117 74.04C218.074 72.248 218.159 70.2 218.373 67.896C218.586 66.104 219.077 64.4827 219.845 63.032C220.143 62.4347 220.527 61.8373 220.997 61.24C221.466 60.6427 222.021 60.1093 222.661 59.64C223.301 59.128 224.026 58.7227 224.837 58.424C225.69 58.0827 226.65 57.8693 227.717 57.784C229.594 57.656 231.13 57.7413 232.325 58.04C233.562 58.3387 234.565 58.744 235.333 59.256C236.101 59.7253 236.677 60.2587 237.061 60.856C237.487 61.4107 237.85 61.944 238.149 62.456C241.989 60.3653 245.487 59.384 248.645 59.512C249.967 59.5547 251.29 59.8533 252.613 60.408C253.935 60.92 255.13 61.816 256.197 63.096C257.306 64.3333 258.245 66.0187 259.013 68.152C259.781 70.2853 260.293 72.9947 260.549 76.28ZM286.201 72.76C285.348 72.504 284.601 72.3973 283.961 72.44C283.364 72.4827 282.83 72.6533 282.361 72.952C281.934 73.2507 281.721 73.8053 281.721 74.616C281.764 75.2133 281.956 75.6827 282.297 76.024C282.596 76.3227 283.044 76.536 283.641 76.664C284.238 76.7493 285.113 76.5573 286.265 76.088C287.502 75.6187 288.718 75.384 289.913 75.384C290.937 75.4267 292.025 75.704 293.177 76.216C294.329 76.728 295.374 77.7307 296.313 79.224C296.825 80.3333 297.081 81.4427 297.081 82.552C297.081 83.5333 296.825 84.6213 296.313 85.816C295.801 87.0107 294.734 88.184 293.113 89.336C291.406 90.488 289.486 91.32 287.353 91.832C285.518 92.3013 283.321 92.472 280.761 92.344C278.201 92.2587 275.364 91.512 272.249 90.104C270.713 89.336 269.348 88.248 268.153 86.84C267.129 85.6453 266.19 84.0667 265.337 82.104C264.484 80.0987 264.057 77.624 264.057 74.68C264.1 72.2053 264.526 69.88 265.337 67.704C265.678 66.7653 266.126 65.8267 266.681 64.888C267.236 63.9493 267.918 63.0533 268.729 62.2C269.54 61.304 270.5 60.5147 271.609 59.832C272.761 59.1067 274.084 58.5093 275.577 58.04C277.668 57.4427 279.801 57.1227 281.977 57.08C283.812 57.0373 285.796 57.2933 287.929 57.848C290.105 58.4027 292.132 59.5333 294.009 61.24C294.564 61.7947 295.012 62.456 295.353 63.224C295.652 63.9067 295.844 64.7387 295.929 65.72C296.057 66.7013 295.886 67.8107 295.417 69.048C294.99 69.9867 294.372 70.776 293.561 71.416C292.836 71.9707 291.876 72.4187 290.681 72.76C289.529 73.1013 288.036 73.1013 286.201 72.76ZM321.101 77.752C322.338 78.7333 323.64 79.352 325.005 79.608C326.37 79.8213 327.629 80.0133 328.781 80.184C329.976 80.3547 330.978 80.6747 331.789 81.144C332.642 81.6133 333.176 82.5947 333.389 84.088C333.432 84.9413 333.325 85.7733 333.069 86.584C332.813 87.3093 332.365 88.056 331.725 88.824C331.128 89.5493 330.168 90.168 328.845 90.68C326.968 91.2773 324.941 91.6613 322.765 91.832C320.888 92.0027 318.754 91.96 316.365 91.704C313.976 91.4907 311.48 90.8507 308.877 89.784C307.17 89.016 305.656 87.928 304.333 86.52C303.778 85.9227 303.224 85.24 302.669 84.472C302.157 83.6613 301.688 82.7653 301.261 81.784C300.877 80.76 300.557 79.6293 300.301 78.392C300.088 77.1547 300.024 75.7893 300.109 74.296C300.237 71.992 300.685 69.7947 301.453 67.704C301.794 66.808 302.221 65.912 302.733 65.016C303.245 64.0773 303.864 63.1813 304.589 62.328C305.357 61.4747 306.232 60.6853 307.213 59.96C308.237 59.2347 309.41 58.6373 310.733 58.168C312.909 57.528 315.128 57.1867 317.389 57.144C318.328 57.144 319.33 57.208 320.397 57.336C321.506 57.4213 322.594 57.6347 323.661 57.976C324.77 58.2747 325.88 58.7227 326.989 59.32C328.098 59.9173 329.165 60.664 330.189 61.56C330.872 62.2427 331.469 63.0107 331.981 63.864C332.45 64.632 332.856 65.5707 333.197 66.68C333.538 67.7467 333.73 69.0267 333.773 70.52C333.773 72.184 333.389 73.5493 332.621 74.616C331.896 75.6827 330.914 76.4933 329.677 77.048C328.482 77.6027 327.117 77.944 325.581 78.072C324.088 78.1573 322.594 78.0507 321.101 77.752ZM319.437 69.624C318.712 69.624 318.072 69.9013 317.517 70.456C317.005 71.0107 316.792 71.6293 316.877 72.312C316.962 73.208 317.218 73.8267 317.645 74.168C318.114 74.5093 318.712 74.68 319.437 74.68C320.162 74.68 320.76 74.4667 321.229 74.04C321.698 73.6133 321.933 73.0373 321.933 72.312C321.933 71.6293 321.72 71.0107 321.293 70.456C320.866 69.9013 320.248 69.624 319.437 69.624ZM338.059 78.072C337.76 75.64 337.611 73.1013 337.611 70.456C337.611 67.768 337.675 65.272 337.803 62.968C337.931 60.3227 338.123 57.72 338.379 55.16C338.635 52.8133 339.147 50.7013 339.915 48.824C340.256 48.056 340.661 47.288 341.131 46.52C341.643 45.752 342.24 45.0693 342.923 44.472C343.605 43.8747 344.395 43.4053 345.291 43.064C346.229 42.68 347.275 42.488 348.427 42.488C350.048 42.5307 351.563 43.0427 352.971 44.024C353.525 44.4507 354.101 44.984 354.699 45.624C355.296 46.264 355.829 47.0747 356.299 48.056C356.811 49.0373 357.237 50.1893 357.579 51.512C357.963 52.8347 358.219 54.3707 358.347 56.12C358.603 59.5333 358.731 62.7973 358.731 65.912C358.731 69.0267 358.688 71.8 358.603 74.232C358.475 77.0907 358.283 79.7573 358.027 82.232C357.813 84.1093 357.323 85.752 356.555 87.16C356.213 87.7573 355.787 88.3547 355.275 88.952C354.805 89.5493 354.208 90.0827 353.483 90.552C352.8 90.9787 351.989 91.32 351.051 91.576C350.112 91.832 349.045 91.9387 347.851 91.896C346.741 91.8533 345.739 91.6187 344.843 91.192C343.989 90.808 343.221 90.296 342.539 89.656C341.856 89.016 341.28 88.2907 340.811 87.48C340.341 86.6267 339.936 85.7733 339.595 84.92C338.827 82.9147 338.315 80.632 338.059 78.072Z" fill="#FFFEFE"/>
<path d="M158.058 63.736L158.998 58.8252L158.926 58.8115L158.854 58.7998L158.058 63.736ZM154.474 63.672L153.684 58.7348L153.611 58.7465L153.538 58.7603L154.474 63.672ZM151.978 64.76L149.051 60.7066L149.051 60.7066L151.978 64.76ZM150.698 67.64L145.708 67.3281L145.704 67.3799L145.702 67.4318L150.698 67.64ZM151.402 70.328L147.242 73.1015L147.304 73.1946L147.37 73.2848L151.402 70.328ZM153.642 71.992L151.559 76.5373L151.638 76.5738L151.719 76.6074L153.642 71.992ZM158.25 72.312L158.768 77.2851L158.785 77.2833L158.802 77.2814L158.25 72.312ZM163.434 72.568L164.722 67.7368L164.685 67.7268L164.647 67.7173L163.434 72.568ZM165.354 73.272L163.24 77.8029L163.294 77.8285L163.35 77.8528L165.354 73.272ZM167.146 74.552L163.472 77.9434L163.608 78.0904L163.755 78.226L167.146 74.552ZM168.554 76.536L164.035 78.6764L164.105 78.8227L164.183 78.9642L168.554 76.536ZM169.386 79.288L174.375 78.9554L174.366 78.8235L174.35 78.6923L169.386 79.288ZM169.066 83L164.215 81.7873L164.215 81.7873L169.066 83ZM167.594 86.264L163.363 83.5999L163.327 83.657L163.293 83.715L167.594 86.264ZM164.33 89.208L166.708 93.6065L166.715 93.6023L164.33 89.208ZM158.634 91.064L157.781 86.1372L157.77 86.1392L157.759 86.1412L158.634 91.064ZM151.594 91.448L151.748 86.4504L151.594 91.448ZM141.802 89.784L140.267 94.5425L140.376 94.5777L140.486 94.6078L141.802 89.784ZM134.762 85.688L138.141 82.0022L138.129 81.9912L138.117 81.9803L134.762 85.688ZM132.138 82.872L128.101 85.8221L128.165 85.9102L128.234 85.9955L132.138 82.872ZM129.962 79.032L125.366 81.0016L125.377 81.026L125.387 81.0502L129.962 79.032ZM128.426 73.976L123.507 74.8704L123.516 74.9243L123.527 74.978L128.426 73.976ZM128.042 67.704L133.039 67.8891L133.041 67.8286L133.042 67.7681L128.042 67.704ZM129.834 58.36L125.214 56.4482L125.2 56.4814L125.187 56.5148L129.834 58.36ZM131.754 54.648L127.53 51.9727L127.518 51.9919L127.506 52.0112L131.754 54.648ZM134.762 51.064L131.424 47.3412L131.392 47.3703L131.36 47.4L134.762 51.064ZM139.05 48.056L136.679 43.6536L136.655 43.6666L136.632 43.6798L139.05 48.056ZM144.874 45.944L145.998 50.816L146.009 50.8135L146.019 50.8111L144.874 45.944ZM151.658 45.112L151.749 50.1112L151.758 50.111L151.767 50.1108L151.658 45.112ZM158.122 45.688L157.228 50.6073L157.278 50.6165L157.329 50.6247L158.122 45.688ZM165.034 48.248L167.911 44.159L167.757 44.0501L167.594 43.9533L165.034 48.248ZM167.786 51.192L172.105 48.6727L172.096 48.6578L172.087 48.643L167.786 51.192ZM168.554 52.92L163.811 54.5011L163.827 54.5516L163.845 54.6017L168.554 52.92ZM168.938 54.904L163.947 55.1976L163.955 55.3433L163.972 55.4882L168.938 54.904ZM168.874 57.272L163.929 56.5303L163.929 56.5303L168.874 57.272ZM168.042 60.024L172.553 62.1813L172.591 62.1001L172.627 62.0176L168.042 60.024ZM166.058 62.456L163.058 58.456L163.039 58.47L163.021 58.4842L166.058 62.456ZM162.986 63.8L161.737 58.9586L161.717 58.9636L161.698 58.9688L162.986 63.8ZM158.854 58.7998C157.127 58.5212 155.385 58.4627 153.684 58.7348L155.264 68.6092C155.697 68.54 156.343 68.5241 157.262 68.6722L158.854 58.7998ZM153.538 58.7603C151.896 59.0732 150.388 59.7405 149.051 60.7066L154.905 68.8134C155.104 68.6701 155.26 68.6121 155.41 68.5837L153.538 58.7603ZM149.051 60.7066C146.605 62.4729 145.843 65.1564 145.708 67.3281L155.688 67.9519C155.704 67.6927 155.74 67.7269 155.651 67.9267C155.546 68.1639 155.314 68.5185 154.905 68.8134L149.051 60.7066ZM145.702 67.4318C145.621 69.3907 146.078 71.3563 147.242 73.1015L155.562 67.5545C155.615 67.6334 155.656 67.7268 155.679 67.8132C155.7 67.8944 155.691 67.9157 155.694 67.8482L145.702 67.4318ZM147.37 73.2848C148.51 74.8398 150.066 75.8534 151.559 76.5373L155.725 67.4467C155.466 67.3281 155.338 67.2414 155.296 67.2103C155.256 67.1809 155.328 67.2261 155.434 67.3712L147.37 73.2848ZM151.719 76.6074C153.925 77.5265 156.488 77.5226 158.768 77.2851L157.732 67.3389C156.906 67.425 156.311 67.432 155.908 67.404C155.488 67.3748 155.422 67.3172 155.565 67.3766L151.719 76.6074ZM158.802 77.2814C160.257 77.1197 161.373 77.2067 162.221 77.4187L164.647 67.7173C162.423 67.1613 160.083 67.0776 157.698 67.3426L158.802 77.2814ZM162.146 77.3992C162.484 77.4894 162.848 77.6203 163.24 77.8029L167.468 68.7411C166.58 68.3264 165.664 67.9879 164.722 67.7368L162.146 77.3992ZM163.35 77.8528C163.391 77.8709 163.422 77.8895 163.472 77.9434L170.82 71.1606C169.846 70.1052 168.682 69.2704 167.358 68.6912L163.35 77.8528ZM163.755 78.226C163.759 78.2302 163.875 78.3376 164.035 78.6764L173.073 74.3956C172.465 73.113 171.642 71.8978 170.537 70.878L163.755 78.226ZM164.183 78.9642C164.233 79.0546 164.354 79.3212 164.422 79.8837L174.35 78.6923C174.162 77.1214 173.728 75.5534 172.925 74.1078L164.183 78.9642ZM164.397 79.6206C164.449 80.4033 164.383 81.1182 164.215 81.7873L173.917 84.2127C174.347 82.4924 174.493 80.7327 174.375 78.9554L164.397 79.6206ZM164.215 81.7873C164.119 82.1737 163.883 82.7731 163.363 83.5999L171.825 88.9281C172.755 87.4509 173.501 85.8743 173.917 84.2127L164.215 81.7873ZM163.293 83.715C163.179 83.9072 162.855 84.3196 161.945 84.8137L166.715 93.6023C168.792 92.4751 170.644 90.9248 171.895 88.813L163.293 83.715ZM161.952 84.8095C160.954 85.3493 159.596 85.8231 157.781 86.1372L159.487 95.9908C162.109 95.5369 164.549 94.7733 166.708 93.6065L161.952 84.8095ZM157.759 86.1412C156.287 86.4028 154.308 86.5292 151.748 86.4504L151.44 96.4456C154.426 96.5375 157.141 96.4079 159.509 95.9868L157.759 86.1412ZM151.748 86.4504C149.489 86.3809 146.632 85.9187 143.118 84.9602L140.486 94.6078C144.481 95.6973 148.152 96.3445 151.44 96.4456L151.748 86.4504ZM143.337 85.0255C141.376 84.3928 139.658 83.3933 138.141 82.0022L131.383 89.3738C133.962 91.7374 136.937 93.4685 140.267 94.5425L143.337 85.0255ZM138.117 81.9803C137.443 81.3708 136.75 80.6326 136.042 79.7485L128.234 85.9955C129.233 87.2448 130.289 88.3839 131.407 89.3957L138.117 81.9803ZM136.175 79.9219C135.606 79.1434 135.053 78.1846 134.537 77.0138L125.387 81.0502C126.151 82.7808 127.049 84.382 128.101 85.8221L136.175 79.9219ZM134.558 77.0624C134.072 75.9301 133.652 74.5767 133.325 72.974L123.527 74.978C123.968 77.1299 124.572 79.1473 125.366 81.0016L134.558 77.0624ZM133.345 73.0816C133.08 71.6248 132.964 69.9036 133.039 67.8891L123.045 67.5189C122.949 70.1124 123.089 72.5726 123.507 74.8704L133.345 73.0816ZM133.042 67.7681C133.077 65.0096 133.569 62.5026 134.481 60.2052L125.187 56.5148C123.795 60.02 123.092 63.7424 123.042 67.6399L133.042 67.7681ZM134.454 60.2718C134.853 59.3066 135.365 58.3109 136.002 57.2848L127.506 52.0112C126.607 53.4598 125.839 54.9388 125.214 56.4482L134.454 60.2718ZM135.978 57.3233C136.542 56.4333 137.261 55.5666 138.164 54.728L131.36 47.4C129.874 48.7801 128.588 50.3027 127.53 51.9727L135.978 57.3233ZM138.1 54.7868C139.026 53.9561 140.14 53.1663 141.468 52.4322L136.632 43.6798C134.717 44.7377 132.972 45.9532 131.424 47.3412L138.1 54.7868ZM141.421 52.4584C142.621 51.8117 144.129 51.2474 145.998 50.816L143.75 41.072C141.182 41.6646 138.807 42.5083 136.679 43.6536L141.421 52.4584ZM146.019 50.8111C147.833 50.3844 149.74 50.1477 151.749 50.1112L151.567 40.1128C148.883 40.1616 146.267 40.4796 143.729 41.0769L146.019 50.8111ZM151.767 50.1108C153.331 50.0768 155.144 50.2285 157.228 50.6073L159.016 40.7687C156.407 40.2942 153.911 40.0618 151.549 40.1132L151.767 50.1108ZM157.329 50.6247C159.053 50.9017 160.761 51.5218 162.474 52.5427L167.594 43.9533C164.87 42.3289 161.97 41.2423 158.915 40.7513L157.329 50.6247ZM162.157 52.337C162.761 52.7624 163.181 53.2287 163.485 53.741L172.087 48.643C171.026 46.8513 169.611 45.3549 167.911 44.159L162.157 52.337ZM163.467 53.7113C163.57 53.8886 163.691 54.1438 163.811 54.5011L173.297 51.3389C172.99 50.4162 172.599 49.5194 172.105 48.6727L163.467 53.7113ZM163.845 54.6017C163.878 54.6926 163.928 54.8786 163.947 55.1976L173.929 54.6104C173.863 53.4787 173.657 52.342 173.263 51.2383L163.845 54.6017ZM163.972 55.4882C163.997 55.7013 164.003 56.0389 163.929 56.5303L173.819 58.0137C174.001 56.7984 174.049 55.5573 173.904 54.3198L163.972 55.4882ZM163.929 56.5303C163.879 56.8638 163.749 57.3574 163.457 58.0304L172.627 62.0176C173.188 60.7279 173.613 59.3868 173.819 58.0137L163.929 56.5303ZM163.531 57.8667C163.403 58.136 163.253 58.3094 163.058 58.456L169.058 66.456C170.569 65.3226 171.743 63.8746 172.553 62.1813L163.531 57.8667ZM163.021 58.4842C163.038 58.4707 162.965 58.5296 162.742 58.6272C162.521 58.724 162.194 58.8405 161.737 58.9586L164.235 68.6414C165.915 68.2081 167.642 67.539 169.095 66.4278L163.021 58.4842ZM161.698 58.9688C161.432 59.0395 160.626 59.1369 158.998 58.8252L157.118 68.6468C159.501 69.1031 161.98 69.2431 164.274 68.6312L161.698 58.9688ZM186.238 58.168L186.691 63.1475L186.699 63.1467L186.708 63.1459L186.238 58.168ZM191.806 58.552L190.267 63.3092L190.331 63.3299L190.395 63.3488L191.806 58.552ZM195.198 60.152L192.1 64.0764L192.148 64.1148L192.198 64.152L195.198 60.152ZM196.99 62.072L192.578 64.4249L192.613 64.4893L192.649 64.5527L196.99 62.072ZM197.566 63.16L192.823 64.7412L202.566 63.16H197.566ZM197.886 62.264L193.29 60.2944L193.253 60.3811L193.219 60.4691L197.886 62.264ZM201.342 58.552L203.736 62.9415L203.812 62.9003L203.886 62.8566L201.342 58.552ZM207.998 58.424L205.678 62.8532L205.678 62.8532L207.998 58.424ZM210.366 60.28L206.629 63.6018L206.629 63.6018L210.366 60.28ZM213.246 65.912L208.446 67.312L208.454 67.3382L208.462 67.3644L213.246 65.912ZM214.462 74.04L209.464 74.1808L209.466 74.2418L209.469 74.3028L214.462 74.04ZM214.334 80.44L219.299 81.0311L219.301 81.0175L214.334 80.44ZM213.374 85.112L208.615 83.577L208.6 83.626L208.585 83.6753L213.374 85.112ZM211.966 88.376L216.158 91.1009L216.188 91.0547L216.217 91.0078L211.966 88.376ZM210.238 90.424L206.984 86.6277L206.961 86.6478L206.937 86.6682L210.238 90.424ZM205.31 92.152L205.537 87.1572L205.331 87.1478L205.125 87.1554L205.31 92.152ZM202.046 91.576L203.969 86.9606L203.936 86.9469L203.903 86.9336L202.046 91.576ZM199.55 89.848L195.925 93.2917L195.969 93.3382L196.014 93.3835L199.55 89.848ZM198.014 86.136L202.971 85.4837L193.271 84.5549L198.014 86.136ZM195.71 89.4L192.568 85.5103L192.556 85.5202L192.544 85.5302L195.71 89.4ZM191.742 91.384L190.197 86.6288L190.197 86.6288L191.742 91.384ZM184.958 91.704L185.56 86.7403L185.535 86.7373L185.51 86.7346L184.958 91.704ZM178.814 89.656L181.446 85.4047L181.434 85.3971L181.421 85.3896L178.814 89.656ZM176.51 87.864L172.974 91.3995L173.025 91.45L173.077 91.4991L176.51 87.864ZM174.526 85.176L170.09 87.4828L170.126 87.5515L170.163 87.619L174.526 85.176ZM173.182 81.464L168.323 82.642L168.323 82.642L173.182 81.464ZM172.67 76.6H177.67V76.5333L177.668 76.4667L172.67 76.6ZM173.886 67.896L169.161 66.2604L169.158 66.2684L173.886 67.896ZM175.422 64.632L179.709 67.2045L179.732 67.1677L179.753 67.1306L175.422 64.632ZM177.854 61.624L181.225 65.3164L181.225 65.3164L177.854 61.624ZM181.374 59.384L183.378 63.9648L183.437 63.9388L183.496 63.9113L181.374 59.384ZM192.83 74.04L189.294 70.5045L189.224 70.5751L189.156 70.6486L192.83 74.04ZM192.19 75.896L197.167 75.422L197.161 75.3488L197.151 75.2758L192.19 75.896ZM192.958 77.752L189.835 81.6563L189.924 81.7281L190.017 81.7957L192.958 77.752ZM196.542 77.624L199.905 81.3237L199.905 81.3237L196.542 77.624ZM196.606 74.04L192.643 77.0885L192.643 77.0886L196.606 74.04ZM186.708 63.1459C188.593 62.968 189.701 63.126 190.267 63.3092L193.345 53.7948C191.01 53.0393 188.405 52.9413 185.768 53.1901L186.708 63.1459ZM190.395 63.3488C191.492 63.6715 191.966 63.9712 192.1 64.0764L198.296 56.2276C196.808 55.0528 195.021 54.2858 193.217 53.7552L190.395 63.3488ZM192.198 64.152C192.438 64.3322 192.571 64.4591 192.631 64.5236C192.691 64.5885 192.65 64.5589 192.578 64.4249L201.402 59.7191C200.593 58.2028 199.384 57.0413 198.198 56.152L192.198 64.152ZM192.649 64.5527C192.727 64.6887 192.792 64.8055 192.847 64.9042C192.903 65.0039 192.943 65.0785 192.971 65.1314C193.001 65.1889 193.006 65.1997 192.995 65.1773C192.99 65.1653 192.972 65.1274 192.947 65.0706C192.935 65.0412 192.918 65.0001 192.898 64.9493C192.878 64.8999 192.852 64.8288 192.823 64.7412L202.309 61.5788C202.135 61.0554 201.87 60.568 201.809 60.4526C201.677 60.2027 201.513 59.9101 201.331 59.5913L192.649 64.5527ZM202.566 63.16C202.566 63.4033 202.548 63.5996 202.534 63.7198C202.52 63.8478 202.503 63.9536 202.489 64.028C202.464 64.1727 202.437 64.2852 202.422 64.3447C202.392 64.4643 202.365 64.5498 202.358 64.5714C202.342 64.6232 202.336 64.6374 202.355 64.5857C202.388 64.4938 202.45 64.325 202.553 64.0589L193.219 60.4691C193.108 60.7577 193.011 61.0155 192.937 61.2223C192.902 61.3199 192.856 61.4514 192.814 61.5886C192.794 61.6529 192.757 61.773 192.72 61.9193C192.702 61.9921 192.673 62.116 192.645 62.27C192.626 62.3786 192.566 62.7199 192.566 63.16H202.566ZM202.482 64.2336C202.504 64.1819 202.624 63.9379 202.983 63.497L195.221 57.191C194.47 58.1154 193.78 59.1514 193.29 60.2944L202.482 64.2336ZM202.983 63.497C203.049 63.4154 203.249 63.2073 203.736 62.9415L198.948 54.1625C197.558 54.9207 196.265 55.9072 195.221 57.191L202.983 63.497ZM203.886 62.8566C203.86 62.8716 204.093 62.72 204.862 62.72V52.72C202.815 52.72 200.701 53.1231 198.798 54.2474L203.886 62.8566ZM204.862 62.72C205.395 62.72 205.617 62.8212 205.678 62.8532L210.318 53.9948C208.587 53.0882 206.719 52.72 204.862 52.72V62.72ZM205.678 62.8532C206.03 63.0375 206.341 63.2782 206.629 63.6018L214.103 56.9582C213.025 55.7458 211.758 54.7491 210.318 53.9948L205.678 62.8532ZM206.629 63.6018C206.983 63.9998 207.304 64.4777 207.583 65.0613L216.605 60.7467C215.945 59.3677 215.115 58.0962 214.103 56.9582L206.629 63.6018ZM207.583 65.0613C207.938 65.8033 208.225 66.5529 208.446 67.312L218.046 64.512C217.67 63.2231 217.188 61.9674 216.605 60.7467L207.583 65.0613ZM208.462 67.3644C209.034 69.2487 209.389 71.505 209.464 74.1808L219.46 73.8992C219.365 70.5163 218.909 67.3539 218.03 64.4596L208.462 67.3644ZM209.469 74.3028C209.587 76.5372 209.54 78.3784 209.367 79.8625L219.301 81.0175C219.555 78.8322 219.593 76.4068 219.455 73.7772L209.469 74.3028ZM209.369 79.8489C209.183 81.4097 208.919 82.6367 208.615 83.577L218.133 86.647C218.683 84.942 219.058 83.0543 219.299 81.0311L209.369 79.8489ZM208.585 83.6753C208.295 84.6416 207.986 85.3053 207.715 85.7442L216.217 91.0078C217.055 89.6547 217.685 88.1424 218.163 86.5487L208.585 83.6753ZM207.774 85.6511C207.407 86.215 207.131 86.5018 206.984 86.6277L213.492 94.2203C214.54 93.3222 215.415 92.2437 216.158 91.1009L207.774 85.6511ZM206.937 86.6682C206.504 87.0494 206.126 87.1839 205.537 87.1572L205.083 97.1468C208.248 97.2907 211.156 96.2733 213.539 94.1798L206.937 86.6682ZM205.125 87.1554C204.666 87.1724 204.3 87.0984 203.969 86.9606L200.123 96.1914C201.84 96.9069 203.65 97.2169 205.495 97.1486L205.125 87.1554ZM203.903 86.9336C203.813 86.8977 203.532 86.759 203.086 86.3125L196.014 93.3835C197.189 94.5583 198.572 95.5716 200.189 96.2184L203.903 86.9336ZM203.175 86.4043C203.327 86.5643 203.099 86.455 202.971 85.4837L193.057 86.7883C193.356 89.0597 194.152 91.425 195.925 93.2917L203.175 86.4043ZM193.271 84.5549C193.164 84.8754 192.978 85.1791 192.568 85.5103L198.852 93.2897C200.66 91.8289 202.011 89.9566 202.757 87.7171L193.271 84.5549ZM192.544 85.5302C192.258 85.7641 191.57 86.1826 190.197 86.6288L193.287 96.1392C195.328 95.4761 197.285 94.5719 198.876 93.2698L192.544 85.5302ZM190.197 86.6288C189.468 86.8656 188.028 87.0395 185.56 86.7403L184.356 96.6677C187.52 97.0512 190.603 97.0117 193.287 96.1392L190.197 86.6288ZM185.51 86.7346C183.869 86.5523 182.546 86.0855 181.446 85.4047L176.182 93.9073C178.666 95.4451 181.439 96.3437 184.406 96.6734L185.51 86.7346ZM181.421 85.3896C180.996 85.1295 180.501 84.7557 179.943 84.2289L173.077 91.4991C174.055 92.423 175.096 93.2439 176.207 93.9224L181.421 85.3896ZM180.046 84.3285C179.7 83.9827 179.303 83.4734 178.889 82.733L170.163 87.619C170.943 89.0119 171.87 90.2946 172.974 91.3995L180.046 84.3285ZM178.962 82.8692C178.627 82.2245 178.306 81.3792 178.041 80.286L168.323 82.642C168.74 84.3648 169.316 85.9941 170.09 87.4828L178.962 82.8692ZM178.041 80.286C177.814 79.3499 177.67 78.1376 177.67 76.6H167.67C167.67 78.7317 167.867 80.7621 168.323 82.642L178.041 80.286ZM177.668 76.4667C177.596 73.7693 177.941 71.4761 178.614 69.5236L169.158 66.2684C168.039 69.5212 167.573 73.0307 167.672 76.7333L177.668 76.4667ZM178.611 69.5316C178.875 68.7676 179.237 67.9923 179.709 67.2045L171.135 62.0595C170.327 63.405 169.665 64.8057 169.161 66.2604L178.611 69.5316ZM179.753 67.1306C180.127 66.4827 180.609 65.8793 181.225 65.3164L174.483 57.9316C173.136 59.1607 171.997 60.5626 171.091 62.1334L179.753 67.1306ZM181.225 65.3164C181.757 64.8312 182.454 64.3692 183.378 63.9648L179.37 54.8032C177.564 55.5935 175.914 56.6248 174.483 57.9316L181.225 65.3164ZM183.496 63.9113C184.223 63.5708 185.253 63.2782 186.691 63.1475L185.785 53.1885C183.468 53.3992 181.256 53.9172 179.252 54.8567L183.496 63.9113ZM194.75 68.208C192.584 68.208 190.702 69.0964 189.294 70.5045L196.366 77.5755C196.253 77.688 196.039 77.8629 195.714 78.0038C195.381 78.1479 195.043 78.208 194.75 78.208V68.208ZM189.156 70.6486C187.755 72.1666 186.941 74.2186 187.229 76.5162L197.151 75.2758C197.198 75.6527 197.168 76.0999 197.013 76.55C196.862 76.987 196.645 77.2781 196.504 77.4314L189.156 70.6486ZM187.213 76.37C187.347 77.7806 187.84 80.0606 189.835 81.6563L196.081 73.8477C196.66 74.3106 196.943 74.8238 197.066 75.1202C197.18 75.3967 197.178 75.5341 197.167 75.422L187.213 76.37ZM190.017 81.7957C191.534 82.8991 193.235 83.264 194.75 83.264V73.264C194.814 73.264 195.32 73.2876 195.899 73.7083L190.017 81.7957ZM194.75 83.264C196.528 83.264 198.383 82.7073 199.905 81.3237L193.179 73.9243C193.432 73.6936 193.737 73.5106 194.06 73.3953C194.373 73.2837 194.621 73.264 194.75 73.264V83.264ZM199.905 81.3237C201.571 79.8091 202.246 77.807 202.246 75.896H192.246C192.246 75.7179 192.276 75.3874 192.44 74.9855C192.61 74.5681 192.872 74.2029 193.179 73.9243L199.905 81.3237ZM202.246 75.896C202.246 74.0811 201.65 72.3965 200.569 70.9914L192.643 77.0886C192.55 76.9672 192.441 76.786 192.359 76.55C192.277 76.3125 192.246 76.0852 192.246 75.896H202.246ZM200.569 70.9914C199.038 69.0014 196.835 68.208 194.75 68.208V78.208C194.586 78.208 194.224 78.179 193.777 77.9785C193.307 77.7678 192.917 77.4448 192.643 77.0885L200.569 70.9914ZM260.549 76.28L265.546 76.1106L265.542 76.001L265.533 75.8916L260.549 76.28ZM259.845 83.128L264.652 84.5016L264.662 84.4684L264.671 84.4351L259.845 83.128ZM258.821 85.816L254.306 83.6663L254.283 83.715L254.261 83.7642L258.821 85.816ZM257.221 88.248L260.862 91.6748L260.91 91.623L260.958 91.5698L257.221 88.248ZM254.789 90.168L252.245 85.8634L252.201 85.8896L252.157 85.9167L254.789 90.168ZM251.525 91.32L251.94 96.3027L252.144 96.2857L252.346 96.252L251.525 91.32ZM250.757 91.384L250.341 86.4013L250.341 86.4013L250.757 91.384ZM248.773 91.32L248.22 96.2894L248.235 96.291L248.249 96.2925L248.773 91.32ZM246.213 90.808L244.631 95.5514L244.763 95.5953L244.897 95.6318L246.213 90.808ZM243.653 89.4L240.432 93.2246L240.492 93.2755L240.554 93.3244L243.653 89.4ZM241.541 86.712L237.068 88.9481L237.102 89.0158L237.138 89.0825L241.541 86.712ZM240.581 82.488L245.574 82.2383L245.568 82.1078L245.554 81.9779L240.581 82.488ZM240.069 78.008L245.027 77.3681L245.008 77.2152L244.979 77.0638L240.069 78.008ZM239.365 74.936L234.526 76.1981L234.533 76.2249L234.541 76.2516L239.365 74.936ZM238.341 73.464V68.464H232.919L233.357 73.8681L238.341 73.464ZM238.533 77.56H233.533V77.6526L233.536 77.7451L238.533 77.56ZM238.533 80.504L233.539 80.2412L233.538 80.2591L233.538 80.277L238.533 80.504ZM238.405 82.936L243.359 83.6056L243.384 83.4274L243.395 83.2479L238.405 82.936ZM236.933 87.16L232.684 84.5232L232.664 84.5552L232.645 84.5875L236.933 87.16ZM234.053 90.104L231.185 86.0078L231.152 86.0308L231.12 86.0543L234.053 90.104ZM228.869 91.512V96.512H228.917L228.965 96.5111L228.869 91.512ZM225.989 91.128L227.425 86.3389L227.343 86.3143L227.261 86.2926L225.989 91.128ZM223.812 90.168L221.039 94.3283L221.039 94.3283L223.812 90.168ZM222.085 88.76L218.268 91.9897L218.402 92.1485L218.549 92.2955L222.085 88.76ZM220.869 87.096L216.605 89.7088L216.61 89.7165L220.869 87.096ZM219.141 82.616L224.039 81.6113L224.013 81.4855L223.98 81.3612L219.141 82.616ZM218.437 78.648L223.404 78.0803L223.399 78.0337L223.393 77.9872L218.437 78.648ZM218.117 74.04L223.115 73.921L223.115 73.921L218.117 74.04ZM218.373 67.896L213.408 67.3049L213.4 67.3699L213.394 67.435L218.373 67.896ZM219.845 63.032L224.263 65.3714L224.291 65.3201L224.317 65.2681L219.845 63.032ZM220.997 61.24L217.065 58.1509L217.065 58.1509L220.997 61.24ZM222.661 59.64L225.617 63.672L225.702 63.6099L225.784 63.5443L222.661 59.64ZM224.837 58.424L226.565 63.1157L226.63 63.0919L226.693 63.0664L224.837 58.424ZM227.717 57.784L227.376 52.7956L227.347 52.7976L227.318 52.7999L227.717 57.784ZM232.325 58.04L231.112 62.8907L231.132 62.8956L231.151 62.9004L232.325 58.04ZM235.333 59.256L232.559 63.4163L232.641 63.471L232.725 63.5224L235.333 59.256ZM237.061 60.856L232.855 63.5598L232.969 63.7373L233.097 63.9046L237.061 60.856ZM238.149 62.456L233.83 64.9754L236.276 69.1687L240.539 66.8473L238.149 62.456ZM248.645 59.512L248.442 64.5079L248.463 64.5087L248.483 64.5094L248.645 59.512ZM252.613 60.408L250.679 65.019L250.743 65.0458L250.808 65.0708L252.613 60.408ZM256.197 63.096L252.355 66.2969L252.413 66.3664L252.474 66.4337L256.197 63.096ZM259.013 68.152L263.717 66.4584L263.717 66.4584L259.013 68.152ZM255.551 76.4494C255.623 78.5591 255.421 80.3339 255.018 81.8209L264.671 84.4351C265.377 81.8261 265.645 79.0355 265.546 76.1106L255.551 76.4494ZM255.037 81.7544C254.862 82.3674 254.621 83.0044 254.306 83.6663L263.335 87.9657C263.873 86.8356 264.315 85.6806 264.652 84.5016L255.037 81.7544ZM254.261 83.7642C254.104 84.1119 253.862 84.5004 253.483 84.9262L260.958 91.5698C261.944 90.4596 262.769 89.2268 263.38 87.8678L254.261 83.7642ZM253.579 84.8212C253.248 85.173 252.816 85.5257 252.245 85.8634L257.332 94.4726C258.638 93.7009 259.827 92.7737 260.862 91.6748L253.579 84.8212ZM252.157 85.9167C251.926 86.0596 251.485 86.2577 250.703 86.388L252.346 96.252C254.124 95.9557 255.859 95.3858 257.42 94.4193L252.157 85.9167ZM251.525 91.32C251.109 86.3373 251.109 86.3373 251.109 86.3373C251.109 86.3373 251.109 86.3373 251.109 86.3373C251.109 86.3373 251.109 86.3373 251.109 86.3373C251.109 86.3373 251.109 86.3373 251.109 86.3373C251.109 86.3373 251.109 86.3373 251.109 86.3373C251.109 86.3373 251.109 86.3373 251.109 86.3373C251.109 86.3373 251.109 86.3373 251.109 86.3373C251.109 86.3373 251.109 86.3373 251.109 86.3373C251.105 86.3376 251.113 86.337 251.109 86.3373C251.106 86.3375 251.111 86.3371 251.109 86.3373C251.106 86.3376 251.111 86.3371 251.108 86.3374C251.105 86.3376 251.11 86.3372 251.108 86.3374C251.108 86.3374 251.108 86.3374 251.108 86.3374C251.108 86.3374 251.108 86.3374 251.108 86.3374C251.105 86.3376 251.109 86.3373 251.107 86.3374C251.106 86.3375 251.108 86.3374 251.107 86.3375C251.107 86.3375 251.107 86.3375 251.107 86.3375C251.107 86.3375 251.107 86.3375 251.107 86.3375C251.107 86.3375 251.107 86.3375 251.106 86.3375C251.106 86.3375 251.106 86.3375 251.106 86.3375C251.078 86.3398 251.127 86.3358 251.097 86.3383C250.991 86.3471 251.197 86.3299 251.091 86.3388C250.824 86.361 251.349 86.3173 251.082 86.3395C250.71 86.3706 251.446 86.3092 251.073 86.3403C251.053 86.342 251.081 86.3396 251.061 86.3413C250.967 86.3491 251.13 86.3355 251.034 86.3435C251.001 86.3463 251.064 86.341 251.03 86.3438C251.03 86.3439 251.03 86.3439 251.03 86.3439C251.029 86.3439 251.029 86.344 251.029 86.344C251.028 86.344 251.028 86.3441 251.028 86.3441C251.027 86.3441 251.027 86.3441 251.027 86.3442C251.026 86.3442 251.026 86.3442 251.026 86.3442C251.025 86.3443 251.025 86.3443 251.025 86.3443C251.024 86.3444 251.024 86.3444 251.024 86.3444C251.023 86.3444 251.023 86.3445 251.023 86.3445C251.001 86.3463 251.04 86.343 251.019 86.3448C251.011 86.3454 251.024 86.3444 251.016 86.345C250.972 86.3487 251.059 86.3415 251.014 86.3452C250.984 86.3477 251.041 86.343 251.01 86.3455C250.949 86.3506 251.069 86.3406 251.008 86.3457C250.961 86.3496 251.053 86.342 251.006 86.3459C251.005 86.3459 251.005 86.346 251.005 86.346C251.004 86.346 251.004 86.3461 251.004 86.3461C250.988 86.3474 251.017 86.345 251.001 86.3463C250.706 86.3709 251.26 86.3247 250.962 86.3495C250.85 86.3589 251.069 86.3406 250.957 86.35C250.88 86.3564 251.029 86.344 250.952 86.3504C250.932 86.352 250.968 86.349 250.949 86.3506C250.929 86.3523 250.966 86.3492 250.946 86.3509C250.946 86.3509 250.945 86.3509 250.945 86.351C250.944 86.351 250.944 86.3511 250.943 86.3511C250.943 86.3511 250.942 86.3512 250.942 86.3512C250.941 86.3513 250.941 86.3513 250.941 86.3513C250.94 86.3514 250.94 86.3514 250.939 86.3515C250.939 86.3515 250.938 86.3515 250.938 86.3516C250.937 86.3516 250.937 86.3516 250.936 86.3517C250.936 86.3517 250.935 86.3518 250.935 86.3518C250.853 86.3586 251.013 86.3453 250.932 86.352C250.932 86.3521 250.931 86.3521 250.931 86.3522C250.93 86.3522 250.93 86.3522 250.929 86.3523C250.929 86.3523 250.928 86.3524 250.928 86.3524C250.927 86.3524 250.927 86.3525 250.926 86.3525C250.884 86.356 250.965 86.3493 250.923 86.3528C250.902 86.3545 250.941 86.3513 250.92 86.353C250.92 86.3531 250.919 86.3531 250.919 86.3531C250.918 86.3532 250.918 86.3532 250.917 86.3533C250.916 86.3534 250.711 86.3705 250.677 86.3733C250.677 86.3733 250.676 86.3734 250.675 86.3735C250.674 86.3735 250.674 86.3736 250.673 86.3736C250.672 86.3737 250.671 86.3738 250.67 86.3738C250.67 86.3739 250.669 86.374 250.668 86.374C250.667 86.3741 250.667 86.3742 250.666 86.3742C250.665 86.3743 250.664 86.3743 250.664 86.3744C250.663 86.3745 250.662 86.3745 250.661 86.3746C250.661 86.3747 250.66 86.3747 250.659 86.3748C250.61 86.3789 250.704 86.3711 250.654 86.3752C250.654 86.3752 250.653 86.3753 250.652 86.3754C250.651 86.3754 250.651 86.3755 250.65 86.3756C250.649 86.3756 250.648 86.3757 250.648 86.3757C250.647 86.3758 250.646 86.3759 250.645 86.3759C250.604 86.3794 250.682 86.3729 250.641 86.3763C250.59 86.3805 250.681 86.3729 250.631 86.3771C250.564 86.3827 250.694 86.3719 250.626 86.3775C250.626 86.3776 250.625 86.3776 250.624 86.3777C250.623 86.3778 250.622 86.3778 250.622 86.3779C250.621 86.378 250.62 86.378 250.619 86.3781C250.618 86.3782 250.618 86.3782 250.617 86.3783C250.616 86.3784 250.615 86.3784 250.614 86.3785C250.614 86.3786 250.613 86.3786 250.612 86.3787C250.611 86.3788 250.61 86.3788 250.61 86.3789C250.609 86.379 250.608 86.379 250.607 86.3791C250.606 86.3792 250.606 86.3793 250.605 86.3793C250.604 86.3794 250.603 86.3795 250.602 86.3795C250.601 86.3796 250.601 86.3797 250.6 86.3797C250.599 86.3798 250.598 86.3799 250.597 86.3799C250.597 86.38 250.596 86.3801 250.595 86.3801C250.594 86.3802 250.593 86.3803 250.592 86.3803C250.592 86.3804 250.591 86.3805 250.59 86.3805C250.589 86.3806 250.588 86.3807 250.588 86.3807C250.57 86.3822 250.6 86.3797 250.583 86.3812C250.582 86.3812 250.581 86.3813 250.58 86.3814C250.579 86.3814 250.578 86.3815 250.578 86.3816C250.577 86.3816 250.576 86.3817 250.575 86.3818C250.574 86.3819 250.573 86.3819 250.573 86.382C250.572 86.3821 250.571 86.3821 250.57 86.3822C250.569 86.3823 250.568 86.3823 250.568 86.3824C250.567 86.3825 250.566 86.3826 250.565 86.3826C250.564 86.3827 250.563 86.3828 250.563 86.3828C250.265 86.4077 250.82 86.3614 250.521 86.3863C250.372 86.3987 250.65 86.3756 250.5 86.388C250.345 86.4009 250.633 86.3769 250.479 86.3898C250.246 86.4092 250.7 86.3714 250.468 86.3907C250.31 86.4039 250.614 86.3785 250.457 86.3917C250.181 86.4146 250.726 86.3692 250.451 86.3921C250.372 86.3987 250.525 86.386 250.445 86.3926C250.386 86.3976 250.5 86.3881 250.44 86.3931C250.28 86.4063 250.594 86.3802 250.434 86.3935C250.104 86.4211 250.72 86.3697 250.389 86.3973C250.265 86.4077 250.507 86.3875 250.383 86.3978C250.216 86.4117 250.544 86.3844 250.377 86.3983C250.314 86.4035 250.434 86.3936 250.371 86.3988C250.37 86.3989 250.369 86.399 250.368 86.399C250.367 86.3991 250.366 86.3992 250.365 86.3993C250.323 86.4028 250.401 86.3963 250.359 86.3998C250.327 86.4024 250.385 86.3976 250.353 86.4003C250.352 86.4004 250.351 86.4004 250.35 86.4005C250.349 86.4006 250.348 86.4007 250.347 86.4008C250.177 86.415 250.512 86.387 250.341 86.4013L251.172 96.3667C251.495 96.3398 251.036 96.378 251.352 96.3517C251.38 96.3494 251.329 96.3536 251.357 96.3513C251.358 96.3512 251.359 96.3511 251.36 96.3511C251.36 96.351 251.361 96.3509 251.362 96.3509C251.363 96.3508 251.364 96.3507 251.365 96.3506C251.366 96.3506 251.367 96.3505 251.367 96.3504C251.368 96.3504 251.369 96.3503 251.37 96.3502C251.371 96.3501 251.372 96.3501 251.373 96.35C251.666 96.3256 251.1 96.3727 251.393 96.3483C251.393 96.3483 251.403 96.3475 251.403 96.3475C251.617 96.3296 251.194 96.3649 251.408 96.347C251.408 96.347 251.413 96.3466 251.413 96.3466C251.518 96.3379 251.328 96.3537 251.433 96.345C251.641 96.3276 251.23 96.3619 251.438 96.3446C251.644 96.3274 251.236 96.3614 251.442 96.3442C251.649 96.327 251.246 96.3606 251.452 96.3434C251.719 96.3211 251.204 96.364 251.471 96.3418C251.671 96.3251 251.28 96.3577 251.48 96.341C251.676 96.3247 251.293 96.3566 251.49 96.3402C251.506 96.3389 251.482 96.3408 251.499 96.3395C251.523 96.3375 251.479 96.3411 251.503 96.3391C251.504 96.339 251.505 96.339 251.505 96.3389C251.506 96.3389 251.507 96.3388 251.508 96.3387C251.571 96.3334 251.453 96.3433 251.517 96.338C251.517 96.3379 251.518 96.3379 251.519 96.3378C251.52 96.3377 251.52 96.3377 251.521 96.3376C251.522 96.3376 251.523 96.3375 251.523 96.3374C251.524 96.3374 251.525 96.3373 251.526 96.3372C251.65 96.3269 251.419 96.3461 251.543 96.3358C251.603 96.3308 251.517 96.338 251.577 96.333C251.599 96.3312 251.559 96.3345 251.581 96.3326C251.843 96.3108 251.322 96.3542 251.585 96.3323C251.814 96.3132 251.364 96.3507 251.593 96.3316C251.65 96.3269 251.544 96.3357 251.601 96.331C251.714 96.3215 251.496 96.3397 251.609 96.3303C251.996 96.298 251.229 96.3619 251.617 96.3296C251.658 96.3262 251.583 96.3324 251.625 96.329C251.625 96.3289 251.626 96.3289 251.626 96.3288C251.627 96.3288 251.628 96.3287 251.628 96.3287C251.764 96.3174 251.496 96.3397 251.632 96.3284C251.686 96.3239 251.586 96.3322 251.64 96.3277C251.853 96.31 251.442 96.3442 251.655 96.3265C251.732 96.32 251.581 96.3327 251.658 96.3262C251.659 96.3261 251.659 96.3261 251.66 96.326C251.661 96.326 251.661 96.3259 251.662 96.3259C251.738 96.3195 251.592 96.3317 251.669 96.3253C251.821 96.3126 251.524 96.3374 251.676 96.3247C251.923 96.3042 251.436 96.3447 251.683 96.3241C251.782 96.3159 251.598 96.3312 251.697 96.323C252.06 96.2927 251.36 96.351 251.723 96.3208C251.814 96.3132 251.645 96.3273 251.736 96.3197C251.866 96.3089 251.612 96.3301 251.742 96.3192C251.742 96.3192 251.743 96.3191 251.743 96.3191C251.744 96.3191 251.744 96.319 251.745 96.319C251.745 96.3189 251.746 96.3189 251.746 96.3189C251.747 96.3188 251.747 96.3188 251.748 96.3187C251.997 96.2979 251.674 96.3249 251.892 96.3067C252.181 96.2826 251.646 96.3272 251.928 96.3037C251.949 96.302 251.908 96.3054 251.929 96.3036C251.934 96.3032 251.925 96.304 251.93 96.3036C251.935 96.3032 251.926 96.3039 251.931 96.3035C251.949 96.3019 251.913 96.305 251.931 96.3034C251.931 96.3034 251.931 96.3034 251.931 96.3034C251.932 96.3034 251.932 96.3034 251.932 96.3034C251.934 96.3032 251.93 96.3035 251.932 96.3033C251.953 96.3016 251.912 96.305 251.933 96.3033C252.12 96.2877 251.748 96.3187 251.935 96.3031C251.975 96.2998 251.896 96.3064 251.936 96.303C251.942 96.3026 251.931 96.3035 251.936 96.303C251.936 96.303 251.936 96.303 251.937 96.303C251.937 96.303 251.937 96.303 251.937 96.303C251.944 96.3024 251.932 96.3034 251.939 96.3028C251.943 96.3025 251.936 96.303 251.94 96.3027C251.94 96.3027 251.939 96.3028 251.94 96.3027C251.94 96.3027 251.94 96.3027 251.94 96.3027C251.94 96.3027 251.94 96.3027 251.94 96.3027C251.94 96.3027 251.94 96.3027 251.525 91.32ZM250.341 86.4013C250.268 86.4074 249.953 86.4167 249.296 86.3475L248.249 96.2925C249.213 96.394 250.221 96.446 251.172 96.3667L250.341 86.4013ZM249.325 86.3506C248.871 86.3001 248.277 86.1885 247.528 85.9842L244.897 95.6318C246.025 95.9395 247.138 96.1692 248.22 96.2894L249.325 86.3506ZM247.794 86.0646C247.496 85.9654 247.149 85.7903 246.751 85.4756L240.554 93.3244C241.777 94.2897 243.137 95.0533 244.631 95.5514L247.794 86.0646ZM246.873 85.5754C246.626 85.3675 246.297 84.9986 245.943 84.3415L237.138 89.0825C237.979 90.6441 239.057 92.0672 240.432 93.2246L246.873 85.5754ZM246.013 84.4759C245.861 84.1724 245.637 83.4986 245.574 82.2383L235.587 82.7377C235.694 84.8907 236.111 87.0329 237.068 88.9481L246.013 84.4759ZM245.554 81.9779C245.38 80.2809 245.205 78.7432 245.027 77.3681L235.11 78.6479C235.274 79.9182 235.439 81.3671 235.607 82.9981L245.554 81.9779ZM244.979 77.0638C244.745 75.8489 244.483 74.6993 244.188 73.6204L234.541 76.2516C234.758 77.05 234.965 77.9484 235.158 78.9522L244.979 77.0638ZM244.203 73.6739C244.015 72.9533 243.683 71.9283 243.021 70.9767C242.32 69.9692 240.79 68.464 238.341 68.464V78.464C236.318 78.464 235.172 77.2042 234.812 76.6873C234.491 76.2264 234.458 75.9374 234.526 76.1981L244.203 73.6739ZM233.357 73.8681C233.478 75.3582 233.533 76.5821 233.533 77.56H243.533C243.533 76.2339 243.459 74.7272 243.324 73.0599L233.357 73.8681ZM233.536 77.7451C233.575 78.8042 233.572 79.6271 233.539 80.2412L243.526 80.7668C243.579 79.7596 243.575 78.6198 243.529 77.3749L233.536 77.7451ZM233.538 80.277C233.496 81.1969 233.455 81.9779 233.414 82.6241L243.395 83.2479C243.44 82.5288 243.484 81.6884 243.527 80.731L233.538 80.277ZM233.45 82.2664C233.322 83.2131 233.047 83.9387 232.684 84.5232L241.181 89.7968C242.354 87.9066 243.061 85.8163 243.359 83.6056L233.45 82.2664ZM232.645 84.5875C232.446 84.919 232.033 85.4146 231.185 86.0078L236.92 94.2002C238.632 93.0014 240.139 91.5343 241.22 89.7325L232.645 84.5875ZM231.12 86.0543C231.006 86.137 230.411 86.4814 228.772 86.5129L228.965 96.5111C231.763 96.4573 234.625 95.863 236.985 94.1537L231.12 86.0543ZM228.869 86.512C228.196 86.512 227.731 86.4307 227.425 86.3389L224.552 95.9171C225.952 96.3373 227.408 96.512 228.869 96.512V86.512ZM227.261 86.2926C226.937 86.2073 226.727 86.1017 226.586 86.0077L221.039 94.3283C222.178 95.0876 223.419 95.6221 224.716 95.9634L227.261 86.2926ZM226.586 86.0077C226.203 85.7524 225.885 85.4897 225.62 85.2245L218.549 92.2955C219.308 93.0543 220.142 93.7302 221.039 94.3283L226.586 86.0077ZM225.901 85.5303C225.576 85.1457 225.322 84.7935 225.127 84.4755L216.61 89.7165C217.097 90.5079 217.654 91.265 218.268 91.9897L225.901 85.5303ZM225.132 84.4832C224.652 83.7005 224.274 82.7604 224.039 81.6113L214.242 83.6207C214.689 85.7996 215.464 87.8462 216.605 89.7088L225.132 84.4832ZM223.98 81.3612C223.753 80.4846 223.555 79.3991 223.404 78.0803L213.469 79.2157C213.659 80.8836 213.93 82.4434 214.301 83.8708L223.98 81.3612ZM223.393 77.9872C223.253 76.9407 223.155 75.5956 223.115 73.921L213.118 74.159C213.163 76.0684 213.279 77.7953 213.48 79.3088L223.393 77.9872ZM223.115 73.921C223.078 72.3687 223.151 70.5204 223.351 68.357L213.394 67.435C213.167 69.8796 213.07 72.1273 213.118 74.159L223.115 73.921ZM223.337 68.4871C223.485 67.2457 223.811 66.2263 224.263 65.3714L215.426 60.6926C214.342 62.7391 213.686 64.9623 213.408 67.3049L223.337 68.4871ZM224.317 65.2681C224.445 65.0105 224.639 64.6966 224.928 64.3291L217.065 58.1509C216.415 58.9781 215.841 59.8589 215.372 60.7959L224.317 65.2681ZM224.928 64.3291C225.105 64.1046 225.327 63.8848 225.617 63.672L219.704 55.608C218.714 56.3338 217.827 57.1808 217.065 58.1509L224.928 64.3291ZM225.784 63.5443C225.982 63.3859 226.231 63.2387 226.565 63.1157L223.108 53.7323C221.82 54.2066 220.619 54.8701 219.537 55.7357L225.784 63.5443ZM226.693 63.0664C227.011 62.9392 227.469 62.8198 228.115 62.7681L227.318 52.7999C225.831 52.9189 224.368 53.2261 222.98 53.7816L226.693 63.0664ZM228.057 62.7724C229.657 62.6633 230.618 62.7671 231.112 62.8907L233.537 53.1893C231.642 52.7155 229.53 52.6487 227.376 52.7956L228.057 62.7724ZM231.151 62.9004C232.019 63.1099 232.426 63.3274 232.559 63.4163L238.106 55.0957C236.703 54.1606 235.105 53.5675 233.498 53.1796L231.151 62.9004ZM232.725 63.5224C232.867 63.6091 232.931 63.6649 232.943 63.6768C232.954 63.6869 232.913 63.6506 232.855 63.5598L241.266 58.1522C240.38 56.7736 239.185 55.7503 237.94 54.9896L232.725 63.5224ZM233.097 63.9046C233.417 64.3197 233.655 64.6764 233.83 64.9754L242.467 59.9366C242.044 59.2116 241.558 58.5016 241.024 57.8074L233.097 63.9046ZM240.539 66.8473C243.877 65.0302 246.47 64.428 248.442 64.5079L248.847 54.5161C244.504 54.34 240.1 55.7005 235.758 58.0647L240.539 66.8473ZM248.483 64.5094C249.147 64.5308 249.871 64.6803 250.679 65.019L254.546 55.797C252.708 55.0264 250.787 54.5785 248.806 54.5146L248.483 64.5094ZM250.808 65.0708C251.21 65.2267 251.737 65.5547 252.355 66.2969L260.038 59.8951C258.523 58.0773 256.66 56.6133 254.417 55.7452L250.808 65.0708ZM252.474 66.4337C253.027 67.0511 253.684 68.1116 254.308 69.8456L263.717 66.4584C262.805 63.9258 261.585 61.6156 259.919 59.7583L252.474 66.4337ZM254.308 69.8456C254.873 71.4154 255.328 73.6464 255.564 76.6684L265.533 75.8916C265.257 72.3429 264.688 69.1552 263.717 66.4584L254.308 69.8456ZM286.201 72.76L284.764 77.5491L285.022 77.6264L285.286 77.6756L286.201 72.76ZM283.961 72.44L283.628 67.4511L283.617 67.4519L283.605 67.4527L283.961 72.44ZM282.361 72.952L279.677 68.7337L279.584 68.7928L279.494 68.8558L282.361 72.952ZM281.721 74.616H276.721V74.7943L276.734 74.9722L281.721 74.616ZM282.297 76.024L278.761 79.5595L278.761 79.5595L282.297 76.024ZM283.641 76.664L282.593 81.553L282.763 81.5893L282.934 81.6137L283.641 76.664ZM286.265 76.088L284.492 71.413L284.435 71.4346L284.379 71.4575L286.265 76.088ZM289.913 75.384L290.121 70.3883L290.017 70.384H289.913V75.384ZM293.177 76.216L291.146 80.7851L291.146 80.7851L293.177 76.216ZM296.313 79.224L300.853 77.1287L300.718 76.836L300.546 76.5631L296.313 79.224ZM296.313 85.816L300.909 87.7856L300.909 87.7856L296.313 85.816ZM293.113 89.336L295.91 93.4802L295.96 93.4467L296.009 93.4119L293.113 89.336ZM287.353 91.832L286.186 86.9701L286.15 86.9788L286.114 86.988L287.353 91.832ZM280.761 92.344L281.011 87.3502L280.969 87.3482L280.928 87.3468L280.761 92.344ZM272.249 90.104L270.013 94.5761L270.1 94.6198L270.189 94.6601L272.249 90.104ZM268.153 86.84L271.966 83.6051L271.957 83.5956L271.949 83.586L268.153 86.84ZM265.337 82.104L260.736 84.0618L260.744 84.0797L260.752 84.0976L265.337 82.104ZM264.057 74.68L259.058 74.5938L259.057 74.6369V74.68H264.057ZM265.337 67.704L270.022 69.4495L270.029 69.4312L270.036 69.4127L265.337 67.704ZM266.681 64.888L262.376 62.3444L262.376 62.3444L266.681 64.888ZM268.729 62.2L272.354 65.6437L272.396 65.5997L272.437 65.5546L268.729 62.2ZM271.609 59.832L274.229 64.0903L274.251 64.0768L274.273 64.0632L271.609 59.832ZM275.577 58.04L274.203 53.2324L274.14 53.2504L274.078 53.27L275.577 58.04ZM281.977 57.08L282.075 62.079L282.084 62.0789L282.093 62.0786L281.977 57.08ZM287.929 57.848L286.671 62.6871L286.682 62.6901L286.694 62.6931L287.929 57.848ZM294.009 61.24L297.545 57.7045L297.46 57.6203L297.372 57.5403L294.009 61.24ZM295.353 63.224L299.934 61.2199L299.928 61.2066L299.922 61.1933L295.353 63.224ZM295.929 65.72L290.948 66.1531L290.957 66.2602L290.971 66.3667L295.929 65.72ZM295.417 69.048L299.969 71.117L300.035 70.9711L300.092 70.8213L295.417 69.048ZM293.561 71.416L296.598 75.3878L296.629 75.3643L296.659 75.3404L293.561 71.416ZM290.681 72.76L289.307 67.9524L289.284 67.9591L289.261 67.966L290.681 72.76ZM287.638 67.9709C286.418 67.6049 285.048 67.3564 283.628 67.4511L284.294 77.4289C284.212 77.4343 284.206 77.4253 284.294 77.4377C284.381 77.4502 284.535 77.4803 284.764 77.5491L287.638 67.9709ZM283.605 67.4527C282.245 67.5499 280.899 67.9557 279.677 68.7337L285.045 77.1703C284.916 77.2528 284.776 77.3176 284.637 77.3621C284.499 77.4061 284.388 77.4222 284.317 77.4273L283.605 67.4527ZM279.494 68.8558C277.112 70.5229 276.721 73.1121 276.721 74.616H286.721C286.721 74.6287 286.72 74.7039 286.701 74.8279C286.682 74.9519 286.64 75.147 286.548 75.3869C286.349 75.9035 285.942 76.5489 285.228 77.0482L279.494 68.8558ZM276.734 74.9722C276.841 76.4702 277.379 78.177 278.761 79.5595L285.833 72.4885C286.532 73.1883 286.687 73.9565 286.708 74.2598L276.734 74.9722ZM278.761 79.5595C279.982 80.7801 281.453 81.3086 282.593 81.553L284.689 71.775C284.691 71.7755 284.721 71.782 284.773 71.799C284.825 71.8159 284.905 71.8455 285.007 71.8937C285.209 71.9901 285.516 72.1715 285.833 72.4885L278.761 79.5595ZM282.934 81.6137C284.937 81.8999 286.88 81.2366 288.151 80.7185L284.379 71.4575C284.183 71.5371 284.025 71.5944 283.902 71.6347C283.777 71.6753 283.703 71.6937 283.673 71.7003C283.641 71.7073 283.681 71.6963 283.78 71.6891C283.876 71.6821 284.076 71.6753 284.348 71.7143L282.934 81.6137ZM288.038 80.763C288.77 80.4854 289.386 80.384 289.913 80.384V70.384C288.051 70.384 286.235 70.7519 284.492 71.413L288.038 80.763ZM289.705 80.3797C289.974 80.3909 290.441 80.4718 291.146 80.7851L295.208 71.6469C293.609 70.9362 291.9 70.4625 290.121 70.3883L289.705 80.3797ZM291.146 80.7851C291.095 80.7624 291.466 80.9087 292.08 81.8849L300.546 76.5631C299.282 74.5526 297.563 72.6936 295.208 71.6469L291.146 80.7851ZM291.773 81.3193C292.013 81.839 292.081 82.2367 292.081 82.552H302.081C302.081 80.6486 301.637 78.8277 300.853 77.1287L291.773 81.3193ZM292.081 82.552C292.081 82.6749 292.045 83.0825 291.717 83.8464L300.909 87.7856C301.605 86.1602 302.081 84.3918 302.081 82.552H292.081ZM291.717 83.8464C291.722 83.8342 291.668 83.9661 291.429 84.2286C291.189 84.4926 290.805 84.8421 290.217 85.2601L296.009 93.4119C298.013 91.988 299.891 90.1605 300.909 87.7856L291.717 83.8464ZM290.316 85.1918C289.137 85.9874 287.776 86.5885 286.186 86.9701L288.52 96.6939C291.197 96.0515 293.676 94.9886 295.91 93.4802L290.316 85.1918ZM286.114 86.988C284.902 87.2979 283.234 87.4614 281.011 87.3502L280.511 97.3378C283.408 97.4826 286.134 97.3048 288.592 96.676L286.114 86.988ZM280.928 87.3468C279.2 87.2892 277.016 86.7716 274.309 85.5479L270.189 94.6601C273.712 96.2524 277.202 97.2281 280.594 97.3412L280.928 87.3468ZM274.485 85.6319C273.597 85.1878 272.757 84.5377 271.966 83.6051L264.34 90.0749C265.938 91.9583 267.829 93.4842 270.013 94.5761L274.485 85.6319ZM271.949 83.586C271.343 82.8783 270.643 81.7686 269.922 80.1104L260.752 84.0976C261.737 86.3647 262.915 88.4124 264.357 90.094L271.949 83.586ZM269.938 80.1462C269.423 78.9362 269.057 77.1736 269.057 74.68H259.057C259.057 78.0744 259.544 81.2611 260.736 84.0618L269.938 80.1462ZM269.056 74.7662C269.09 72.8209 269.422 71.0602 270.022 69.4495L260.652 65.9585C259.63 68.6998 259.11 71.5898 259.058 74.5938L269.056 74.7662ZM270.036 69.4127C270.263 68.7889 270.574 68.1287 270.986 67.4316L262.376 62.3444C261.679 63.5246 261.094 64.7417 260.638 65.9953L270.036 69.4127ZM270.986 67.4316C271.334 66.8423 271.783 66.2452 272.354 65.6437L265.104 58.7563C264.054 59.8615 263.137 61.0564 262.376 62.3444L270.986 67.4316ZM272.437 65.5546C272.906 65.036 273.492 64.544 274.229 64.0903L268.989 55.5737C267.507 56.4853 266.174 57.572 265.021 58.8454L272.437 65.5546ZM274.273 64.0632C275.012 63.5979 275.933 63.1693 277.076 62.81L274.078 53.27C272.235 53.8494 270.51 54.6154 268.945 55.6008L274.273 64.0632ZM276.951 62.8476C278.626 62.369 280.33 62.1132 282.075 62.079L281.879 52.081C279.272 52.1321 276.71 52.5163 274.203 53.2324L276.951 62.8476ZM282.093 62.0786C283.383 62.0487 284.899 62.2265 286.671 62.6871L289.187 53.0089C286.692 52.3602 284.241 52.026 281.861 52.0813L282.093 62.0786ZM286.694 62.6931C287.98 63.0208 289.294 63.7108 290.646 64.9397L297.372 57.5403C294.969 55.3558 292.23 53.7846 289.164 53.0029L286.694 62.6931ZM290.473 64.7755C290.564 64.8661 290.674 65.0071 290.784 65.2547L299.922 61.1933C299.349 59.9049 298.563 58.7232 297.545 57.7045L290.473 64.7755ZM290.772 65.2281C290.795 65.2812 290.895 65.5499 290.948 66.1531L300.91 65.2869C300.792 63.9275 300.508 62.5321 299.934 61.2199L290.772 65.2281ZM290.971 66.3667C290.962 66.3013 291.014 66.5588 290.742 67.2747L300.092 70.8213C300.759 69.0625 301.152 67.1014 300.887 65.0733L290.971 66.3667ZM290.865 66.979C290.769 67.1909 290.649 67.3445 290.463 67.4916L296.659 75.3404C298.094 74.2075 299.212 72.7824 299.969 71.117L290.865 66.979ZM290.524 67.4442C290.44 67.5084 290.103 67.725 289.307 67.9524L292.055 77.5676C293.648 77.1124 295.232 76.4329 296.598 75.3878L290.524 67.4442ZM289.261 67.966C289.171 67.9924 288.562 68.1134 287.116 67.8443L285.286 77.6756C287.509 78.0892 289.887 78.2102 292.101 77.554L289.261 67.966ZM321.101 77.752L322.082 72.8491L317.994 81.6695L321.101 77.752ZM325.005 79.608L324.084 84.5224L324.158 84.5363L324.233 84.5481L325.005 79.608ZM328.781 80.184L328.048 85.13L328.061 85.1319L328.074 85.1337L328.781 80.184ZM331.789 81.144L329.284 85.4711L329.331 85.4986L329.379 85.5251L331.789 81.144ZM333.389 84.088L338.383 83.8383L338.371 83.6086L338.339 83.3809L333.389 84.088ZM333.069 86.584L337.784 88.2481L337.812 88.1693L337.837 88.0897L333.069 86.584ZM331.725 88.824L327.884 85.6231L327.875 85.6342L327.865 85.6455L331.725 88.824ZM328.845 90.68L330.361 95.4446L330.507 95.3982L330.65 95.3428L328.845 90.68ZM322.765 91.832L322.374 86.8473L322.343 86.8497L322.312 86.8525L322.765 91.832ZM316.365 91.704L316.898 86.7325L316.854 86.7277L316.81 86.7238L316.365 91.704ZM308.877 89.784L306.825 94.3436L306.902 94.3784L306.981 94.4105L308.877 89.784ZM304.333 86.52L300.669 89.9223L300.679 89.9328L300.689 89.9434L304.333 86.52ZM302.669 84.472L298.442 87.142L298.525 87.2734L298.616 87.3995L302.669 84.472ZM301.261 81.784L296.579 83.5396L296.624 83.6599L296.676 83.7776L301.261 81.784ZM300.301 78.392L295.374 79.2415L295.388 79.3235L295.405 79.405L300.301 78.392ZM300.109 74.296L305.101 74.5812L305.101 74.5733L300.109 74.296ZM301.453 67.704L296.781 65.924L296.77 65.9519L296.76 65.9799L301.453 67.704ZM302.733 65.016L307.074 67.4967L307.099 67.4537L307.122 67.4103L302.733 65.016ZM304.589 62.328L300.873 58.9832L300.825 59.0358L300.779 59.0898L304.589 62.328ZM307.213 59.96L304.323 55.8799L304.282 55.9091L304.241 55.9391L307.213 59.96ZM310.733 58.168L309.322 53.3712L309.19 53.4099L309.061 53.4559L310.733 58.168ZM317.389 57.144V52.144H317.342L317.295 52.1449L317.389 57.144ZM320.397 57.336L319.801 62.3004L319.907 62.3131L320.014 62.3213L320.397 57.336ZM323.661 57.976L322.137 62.7381L322.248 62.7737L322.361 62.8041L323.661 57.976ZM326.989 59.32L329.36 54.9176L329.359 54.9176L326.989 59.32ZM330.189 61.56L333.725 58.0245L333.607 57.9067L333.482 57.7971L330.189 61.56ZM331.981 63.864L327.694 66.4365L327.704 66.4539L327.715 66.4712L331.981 63.864ZM333.197 66.68L328.418 68.1504L328.426 68.1772L328.435 68.2039L333.197 66.68ZM333.773 70.52H338.773V70.4486L338.771 70.3772L333.773 70.52ZM332.621 74.616L328.563 71.6945L328.524 71.7489L328.486 71.8044L332.621 74.616ZM329.677 77.048L327.632 72.4855L327.601 72.499L327.571 72.513L329.677 77.048ZM325.581 78.072L325.866 83.0639L325.931 83.0601L325.996 83.0547L325.581 78.072ZM317.517 70.456L313.981 66.9205L313.911 66.9911L313.843 67.0646L317.517 70.456ZM316.877 72.312L321.854 71.838L321.848 71.7648L321.838 71.6918L316.877 72.312ZM317.645 74.168L314.522 78.0723L314.611 78.1441L314.704 78.2117L317.645 74.168ZM321.229 74.04L324.592 77.7397L324.592 77.7397L321.229 74.04ZM321.293 70.456L317.33 73.5045L317.33 73.5046L321.293 70.456ZM317.994 81.6695C319.78 83.086 321.816 84.0972 324.084 84.5224L325.926 74.6936C325.463 74.6068 324.897 74.3807 324.208 73.8345L317.994 81.6695ZM324.233 84.5481C325.609 84.7631 326.881 84.9571 328.048 85.13L329.514 75.238C328.377 75.0696 327.131 74.8796 325.777 74.6679L324.233 84.5481ZM328.074 85.1337C328.809 85.2388 329.162 85.4004 329.284 85.4711L334.294 76.8169C332.795 75.949 331.142 75.4705 329.488 75.2343L328.074 85.1337ZM329.379 85.5251C328.85 85.2339 328.557 84.843 328.436 84.6196C328.338 84.4399 328.389 84.444 328.439 84.7951L338.339 83.3809C338.028 81.2049 337.052 78.3323 334.199 76.7629L329.379 85.5251ZM328.395 84.3377C328.408 84.6002 328.377 84.8376 328.301 85.0783L337.837 88.0897C338.273 86.7091 338.455 85.2825 338.383 83.8383L328.395 84.3377ZM328.354 84.9199C328.345 84.9454 328.252 85.1817 327.884 85.6231L335.566 92.0249C336.478 90.9303 337.281 89.6733 337.784 88.2481L328.354 84.9199ZM327.865 85.6455C327.957 85.5341 327.984 85.5416 327.848 85.6291C327.712 85.7172 327.458 85.8554 327.04 86.0172L330.65 95.3428C332.398 94.6663 334.232 93.6448 335.585 92.0025L327.865 85.6455ZM327.329 85.9154C325.854 86.3847 324.208 86.7034 322.374 86.8473L323.156 96.8167C325.674 96.6192 328.082 96.1699 330.361 95.4446L327.329 85.9154ZM322.312 86.8525C320.838 86.9866 319.044 86.9624 316.898 86.7325L315.832 96.6755C318.465 96.9576 320.937 97.0188 323.218 96.8115L322.312 86.8525ZM316.81 86.7238C314.997 86.5619 312.99 86.0661 310.773 85.1575L306.981 94.4105C309.969 95.6352 312.955 96.4194 315.92 96.6842L316.81 86.7238ZM310.929 85.2244C309.842 84.7353 308.864 84.0405 307.977 83.0966L300.689 89.9434C302.447 91.8155 304.499 93.2967 306.825 94.3436L310.929 85.2244ZM307.997 83.1177C307.602 82.6923 307.176 82.1724 306.722 81.5445L298.616 87.3995C299.272 88.3076 299.955 89.153 300.669 89.9223L307.997 83.1177ZM306.896 81.802C306.535 81.2305 306.183 80.564 305.846 79.7904L296.676 83.7776C297.193 84.9667 297.779 86.0922 298.442 87.142L306.896 81.802ZM305.943 80.0284C305.662 79.2797 305.409 78.4015 305.197 77.379L295.405 79.405C295.705 80.8571 296.092 82.2403 296.579 83.5396L305.943 80.0284ZM305.228 77.5425C305.09 76.7429 305.033 75.7649 305.101 74.5812L295.117 74.0108C295.014 75.8137 295.085 77.5665 295.374 79.2415L305.228 77.5425ZM305.101 74.5733C305.203 72.7458 305.555 71.0374 306.146 69.4281L296.76 65.9799C295.815 68.5519 295.271 71.2382 295.117 74.0186L305.101 74.5733ZM306.125 69.484C306.368 68.8473 306.681 68.1849 307.074 67.4967L298.392 62.5353C297.761 63.6391 297.221 64.7687 296.781 65.924L306.125 69.484ZM307.122 67.4103C307.463 66.7859 307.885 66.1711 308.399 65.5662L300.779 59.0898C299.843 60.1915 299.027 61.3688 298.344 62.6217L307.122 67.4103ZM308.305 65.6728C308.835 65.0844 309.457 64.5189 310.185 63.9809L304.241 55.9391C303.006 56.8517 301.879 57.8649 300.873 58.9832L308.305 65.6728ZM310.103 64.0401C310.711 63.6097 311.465 63.2137 312.405 62.8801L309.061 53.4559C307.356 54.061 305.763 54.8596 304.323 55.8799L310.103 64.0401ZM312.144 62.9648C313.893 62.4503 315.669 62.1773 317.483 62.1431L317.295 52.1449C314.586 52.196 311.925 52.6057 309.322 53.3712L312.144 62.9648ZM317.389 62.144C318.103 62.144 318.905 62.1928 319.801 62.3004L320.993 52.3716C319.756 52.2232 318.553 52.144 317.389 52.144V62.144ZM320.014 62.3213C320.733 62.3766 321.438 62.5145 322.137 62.7381L325.185 53.2139C323.751 52.7549 322.28 52.4661 320.78 52.3507L320.014 62.3213ZM322.361 62.8041C323.065 62.9934 323.816 63.2903 324.619 63.7224L329.359 54.9176C327.943 54.155 326.476 53.5559 324.961 53.1479L322.361 62.8041ZM324.619 63.7224C325.372 64.1283 326.133 64.6544 326.896 65.3229L333.482 57.7971C332.197 56.6736 330.824 55.7064 329.36 54.9176L324.619 63.7224ZM326.653 65.0955C327.038 65.4803 327.385 65.9229 327.694 66.4365L336.268 61.2915C335.553 60.0985 334.705 59.005 333.725 58.0245L326.653 65.0955ZM327.715 66.4712C327.914 66.7978 328.166 67.3314 328.418 68.1504L337.976 65.2096C337.545 63.8099 336.987 62.4662 336.247 61.2568L327.715 66.4712ZM328.435 68.2039C328.595 68.703 328.742 69.4926 328.775 70.6628L338.771 70.3772C338.719 68.5607 338.482 66.7903 337.959 65.1561L328.435 68.2039ZM328.773 70.52C328.773 71.416 328.573 71.6812 328.563 71.6945L336.679 77.5375C338.205 75.4175 338.773 72.952 338.773 70.52H328.773ZM328.486 71.8044C328.309 72.0652 328.069 72.2894 327.632 72.4855L331.722 81.6105C333.76 80.6973 335.482 79.3002 336.756 77.4276L328.486 71.8044ZM327.571 72.513C326.992 72.7821 326.214 73.0019 325.166 73.0893L325.996 83.0547C328.02 82.8861 329.973 82.4232 331.783 81.583L327.571 72.513ZM325.296 73.0801C324.234 73.1408 323.166 73.066 322.082 72.8491L320.12 82.6549C322.023 83.0353 323.941 83.1739 325.866 83.0639L325.296 73.0801ZM319.437 64.624C317.271 64.624 315.389 65.5124 313.981 66.9205L321.053 73.9915C320.94 74.104 320.726 74.2789 320.401 74.4198C320.068 74.5639 319.73 74.624 319.437 74.624V64.624ZM313.843 67.0646C312.442 68.5826 311.628 70.6346 311.916 72.9322L321.838 71.6918C321.885 72.0687 321.855 72.5159 321.7 72.966C321.549 73.403 321.332 73.6941 321.191 73.8474L313.843 67.0646ZM311.9 72.786C312.034 74.1966 312.527 76.4766 314.522 78.0723L320.768 70.2637C321.347 70.7266 321.63 71.2398 321.753 71.5362C321.867 71.8127 321.865 71.9501 321.854 71.838L311.9 72.786ZM314.704 78.2117C316.221 79.3151 317.922 79.68 319.437 79.68V69.68C319.501 69.68 320.007 69.7036 320.586 70.1243L314.704 78.2117ZM319.437 79.68C321.215 79.68 323.07 79.1233 324.592 77.7397L317.866 70.3403C318.119 70.1096 318.424 69.9266 318.747 69.8113C319.06 69.6997 319.308 69.68 319.437 69.68V79.68ZM324.592 77.7397C326.258 76.2251 326.933 74.223 326.933 72.312H316.933C316.933 72.1339 316.963 71.8034 317.127 71.4015C317.297 70.9841 317.559 70.6189 317.866 70.3403L324.592 77.7397ZM326.933 72.312C326.933 70.4971 326.337 68.8125 325.256 67.4074L317.33 73.5046C317.237 73.3832 317.128 73.202 317.046 72.966C316.964 72.7285 316.933 72.5012 316.933 72.312H326.933ZM325.256 67.4074C323.725 65.4174 321.522 64.624 319.437 64.624V74.624C319.273 74.624 318.911 74.595 318.464 74.3945C317.994 74.1838 317.604 73.8608 317.33 73.5045L325.256 67.4074ZM338.059 78.072L343.034 77.5745L343.028 77.5184L343.021 77.4625L338.059 78.072ZM337.803 62.968L342.795 63.2453L342.796 63.2275L342.797 63.2097L337.803 62.968ZM338.379 55.16L333.408 54.6178L333.406 54.6401L333.403 54.6625L338.379 55.16ZM339.915 48.824L335.345 46.7933L335.315 46.8616L335.287 46.9308L339.915 48.824ZM341.131 46.52L336.97 43.7465L336.916 43.8286L336.864 43.9127L341.131 46.52ZM342.923 44.472L339.63 40.7091L339.63 40.7091L342.923 44.472ZM345.291 43.064L347.07 47.7364L347.127 47.7148L347.184 47.6917L345.291 43.064ZM348.427 42.488L348.558 37.4897L348.492 37.488H348.427V42.488ZM352.971 44.024L356.019 40.0609L355.926 39.9892L355.829 39.922L352.971 44.024ZM354.699 45.624L358.354 42.2124L358.354 42.2124L354.699 45.624ZM356.299 48.056L351.788 50.2133L351.825 50.2917L351.866 50.3688L356.299 48.056ZM357.579 51.512L352.737 52.7614L352.756 52.834L352.777 52.906L357.579 51.512ZM358.347 56.12L353.36 56.4849L353.361 56.4939L358.347 56.12ZM358.603 74.232L363.597 74.4557L363.599 74.4315L363.599 74.4073L358.603 74.232ZM358.027 82.232L362.995 82.7965L362.997 82.7715L363 82.7465L358.027 82.232ZM356.555 87.16L360.896 89.6407L360.92 89.5977L360.944 89.5543L356.555 87.16ZM355.275 88.952L351.478 85.698L351.409 85.779L351.343 85.8629L355.275 88.952ZM353.483 90.552L356.132 94.792L356.166 94.7712L356.199 94.7499L353.483 90.552ZM351.051 91.576L352.366 96.3998L352.366 96.3998L351.051 91.576ZM347.851 91.896L347.658 96.8923L347.672 96.8928L347.851 91.896ZM344.843 91.192L346.992 86.6777L346.943 86.6545L346.894 86.6324L344.843 91.192ZM342.539 89.656L345.958 86.0083L345.958 86.0083L342.539 89.656ZM340.811 87.48L336.429 89.8896L336.456 89.9377L336.483 89.9852L340.811 87.48ZM339.595 84.92L334.925 86.7082L334.938 86.7427L334.952 86.777L339.595 84.92ZM343.021 77.4625C342.749 75.248 342.611 72.9136 342.611 70.456H332.611C332.611 73.2891 332.77 76.032 333.096 78.6815L343.021 77.4625ZM342.611 70.456C342.611 67.8459 342.673 65.4434 342.795 63.2453L332.81 62.6906C332.676 65.1006 332.611 67.6901 332.611 70.456H342.611ZM342.797 63.2097C342.921 60.6473 343.106 58.13 343.354 55.6575L333.403 54.6625C333.139 57.31 332.94 59.9981 332.808 62.7263L342.797 63.2097ZM343.349 55.7022C343.562 53.7457 343.977 52.0985 344.542 50.7172L335.287 46.9308C334.316 49.3041 333.707 51.881 333.408 54.6178L343.349 55.7022ZM344.484 50.8547C344.731 50.2987 345.033 49.7228 345.397 49.1272L336.864 43.9127C336.289 44.8532 335.781 45.8133 335.345 46.7933L344.484 50.8547ZM345.291 49.2935C345.563 48.8856 345.87 48.537 346.215 48.2349L339.63 40.7091C338.61 41.6017 337.722 42.6184 336.97 43.7465L345.291 49.2935ZM346.215 48.2349C346.426 48.0499 346.697 47.8788 347.07 47.7364L343.511 38.3916C342.092 38.9318 340.784 39.6994 339.63 40.7091L346.215 48.2349ZM347.184 47.6917C347.445 47.5847 347.836 47.488 348.427 47.488V37.488C346.713 37.488 345.013 37.7753 343.397 38.4363L347.184 47.6917ZM348.295 47.4863C348.881 47.5017 349.456 47.6694 350.112 48.126L355.829 39.922C353.669 38.4159 351.215 37.5596 348.558 37.4897L348.295 47.4863ZM349.922 47.9871C350.214 48.2115 350.588 48.5484 351.043 49.0356L358.354 42.2124C357.614 41.4196 356.837 40.6898 356.019 40.0609L349.922 47.9871ZM351.043 49.0356C351.221 49.226 351.487 49.5846 351.788 50.2133L360.809 45.8987C360.171 44.5647 359.371 43.302 358.354 42.2124L351.043 49.0356ZM351.866 50.3688C352.166 50.9447 352.47 51.7255 352.737 52.7614L362.42 50.2626C362.005 48.6532 361.455 47.13 360.731 45.7432L351.866 50.3688ZM352.777 52.906C353.041 53.8165 353.251 54.9945 353.36 56.4849L363.333 55.7551C363.186 53.7469 362.884 51.8528 362.38 50.1179L352.777 52.906ZM353.361 56.4939C353.608 59.7949 353.731 62.9336 353.731 65.912H363.731C363.731 62.661 363.597 59.2718 363.332 55.746L353.361 56.4939ZM353.731 65.912C353.731 68.9834 353.688 71.6966 353.606 74.0567L363.599 74.4073C363.687 71.9034 363.731 69.0699 363.731 65.912H353.731ZM353.608 74.0083C353.483 76.7839 353.298 79.3526 353.053 81.7175L363 82.7465C363.267 80.1621 363.466 77.3974 363.597 74.4557L353.608 74.0083ZM353.058 81.6675C352.905 83.0155 352.574 84.016 352.165 84.7657L360.944 89.5543C362.071 87.488 362.721 85.2031 362.995 82.7965L353.058 81.6675ZM352.213 84.6793C352.049 84.9665 351.813 85.3072 351.478 85.698L359.071 92.206C359.76 91.4021 360.377 90.5482 360.896 89.6407L352.213 84.6793ZM351.343 85.8629C351.258 85.971 351.091 86.1442 350.766 86.3541L356.199 94.7499C357.325 94.0212 358.352 93.1277 359.206 92.0411L351.343 85.8629ZM350.833 86.312C350.639 86.4327 350.297 86.5988 349.735 86.7522L352.366 96.3998C353.681 96.0412 354.96 95.5247 356.132 94.792L350.833 86.312ZM349.735 86.7522C349.379 86.8492 348.83 86.9278 348.029 86.8992L347.672 96.8928C349.26 96.9495 350.845 96.8148 352.366 96.3998L349.735 86.7522ZM348.043 86.8997C347.531 86.88 347.206 86.7797 346.992 86.6777L342.693 95.7063C344.271 96.4577 345.951 96.8266 347.658 96.8923L348.043 86.8997ZM346.894 86.6324C346.544 86.4748 346.238 86.2709 345.958 86.0083L339.119 93.3037C340.204 94.3211 341.434 95.1412 342.791 95.7516L346.894 86.6324ZM345.958 86.0083C345.633 85.7031 345.362 85.3628 345.138 84.9748L336.483 89.9852C337.197 91.2186 338.079 92.3289 339.119 93.3037L345.958 86.0083ZM345.192 85.0704C344.815 84.3853 344.498 83.7162 344.237 83.063L334.952 86.777C335.374 87.8305 335.868 88.8681 336.429 89.8896L345.192 85.0704ZM344.264 83.1318C343.682 81.6135 343.254 79.7769 343.034 77.5745L333.083 78.5695C333.375 81.4871 333.971 84.2158 334.925 86.7082L344.264 83.1318Z" fill="#5C5554" mask="url(#path-3-outside-1_12_166)"/>
</g>
<defs>
<filter id="filter0_d_12_166" x="0" y="0" width="499" height="152" filterUnits="userSpaceOnUse" color-interpolation-filters="sRGB">
<feFlood flood-opacity="0" result="BackgroundImageFix"/>
<feColorMatrix in="SourceAlpha" type="matrix" values="0 0 0 0 0 0 0 0 0 0 0 0 0 0 0 0 0 0 127 0" result="hardAlpha"/>
<feOffset dx="12" dy="12"/>
<feComposite in2="hardAlpha" operator="out"/>
<feColorMatrix type="matrix" values="0 0 0 0 0.360563 0 0 0 0 0.334621 0 0 0 0 0.330393 0 0 0 1 0"/>
<feBlend mode="normal" in2="BackgroundImageFix" result="effect1_dropShadow_12_166"/>
<feBlend mode="normal" in="SourceGraphic" in2="effect1_dropShadow_12_166" result="shape"/>
</filter>
</defs>
</svg>
