<svg width="1204" height="252" viewBox="0 0 1204 252" fill="none" xmlns="http://www.w3.org/2000/svg">
<path d="M4.00058 78.0005L4.00092 120.534C4.00124 161.403 37.1321 194.533 78.0009 194.533H1094.62C1105.99 194.533 1112.81 207.165 1106.57 216.667C1101.41 224.514 1101.85 233.482 1106.22 239.748C1110.67 246.124 1118.9 249.26 1127.93 245.875C1149.43 237.809 1174.92 223.607 1186.14 199.295C1199.02 171.404 1199.56 144.616 1199.58 141.492C1199.58 141.29 1199.58 141.091 1199.58 140.929V140.913V140.895V140.878V140.859V140.841V140.822V140.802V140.782V140.761V140.74V140.718V140.696V140.674V140.651V140.627V140.603V140.579V140.554V140.529V140.503V140.476V140.45V140.422V140.395V140.367V140.338V140.309V140.279V140.249V140.219V140.188V140.157V140.125V140.093V140.06V140.027V139.994V139.96V139.925V139.89V139.855V139.819V139.783V139.747V139.71V139.672V139.634V139.596V139.557V139.518V139.478V139.438V139.398V139.357V139.316V139.274V139.232V139.189V139.146V139.103V139.059V139.015V138.971V138.926V138.88V138.834V138.788V138.742V138.695V138.647V138.6V138.551V138.503V138.454V138.404V138.355V138.304V138.254V138.203V138.152V138.1V138.048V137.995V137.943V137.889V137.836V137.782V137.728V137.673V137.618V137.562V137.506V137.45V137.394V137.337V137.279V137.222V137.164V137.105V137.047V136.988V136.928V136.868V136.808V136.748V136.687V136.626V136.564V136.502V136.44V136.377V136.314V136.251V136.188V136.124V136.059V135.995V135.93V135.864V135.799V135.733V135.667V135.6V135.533V135.466V135.398V135.33V135.262V135.193V135.125V135.055V134.986V134.916V134.846V134.775V134.705V134.634V134.562V134.491V134.419V134.346V134.274V134.201V134.128V134.054V133.98V133.906V133.832V133.757V133.682V133.607V133.531V133.456V133.379V133.303V133.226V133.149V133.072V132.995V132.917V132.839V132.76V132.682V132.603V132.524V132.444V132.364V132.284V132.204V132.124V132.043V131.962V131.88V131.799V131.717V131.635V131.553V131.47V131.387V131.304V131.221V131.137V131.053V130.969V130.885V130.8V130.715V130.63V130.545V130.459V130.374V130.288V130.201V130.115V130.028V129.941V129.854V129.767V129.679V129.591V129.503V129.415V129.326V129.237V129.148V129.059V128.97V128.88V128.79V128.7V128.61V128.52V128.429V128.338V128.247V128.156V128.064V127.972V127.881V127.788V127.696V127.604V127.511V127.418V127.325V127.232V127.138V127.045V126.951V126.857V126.763V126.668V126.574V126.479V126.384V126.289V126.194V126.098V126.003V125.907V125.811V125.715V125.618V125.522V125.425V125.329V125.232V125.135V125.037V124.94V124.842V124.744V124.647V124.549V124.45V124.352V124.253V124.155V124.056V123.957V123.858V123.759V123.659V123.56V123.46V123.36V123.26V123.16V123.06V122.96V122.859V122.759V122.658V122.557V122.456V122.355V122.254V122.153V122.051V121.95V121.848V121.746V121.644V121.542V121.44V121.338V121.235V121.133V121.03V120.927V120.825V120.722V120.619V120.516V120.412V120.309V120.206V120.102V119.999V119.895V119.791V119.687V119.583V119.479V119.375V119.271V119.167V119.062V118.958V118.853V118.749V118.644V118.539V118.435V118.33V118.225V118.12V118.015V117.909V117.804V117.699V117.594V117.488V117.383V117.277V117.171V117.066V116.96V116.854V116.748V116.643V116.537V116.431V116.325V116.219V116.113V116.006V115.9V115.794V115.688V115.581V115.475V115.369V115.262V115.156V115.049V114.943V114.836V114.73V114.623V114.517V114.41V114.303V114.197V114.09V113.983V113.876V113.77V113.663V113.556V113.449V113.343V113.236V113.129V113.022V112.915V112.809V112.702V112.595V112.488V112.381V112.275V112.168V112.061V111.954V111.847V111.741V111.634V111.527V111.42V111.314V111.207V111.1V110.994V110.887V110.78V110.674V110.567V110.461V110.354V110.248V110.141V110.035V109.928V109.822V109.716V109.609V109.503V109.397V109.291V109.185V109.079V108.973V108.867V108.761V108.655V108.549V108.443V108.338V108.232V108.126V108.021V107.915V107.81V107.704V107.599V107.494V107.389V107.283V107.178V107.073V106.968V106.864V106.759V106.654V106.549V106.445V106.34V106.236V106.132V106.028V105.923V105.819V105.715V105.612V105.508V105.404V105.3V105.197V105.093V104.99V104.887V104.784V104.681V104.578V104.475V104.372V104.27V104.167V104.065V103.962V103.86V103.758V103.656V103.554V103.453V103.351V103.249V103.148V103.047V102.946V102.845V102.744V102.643V102.542V102.442V102.342V102.241V102.141V102.041V101.941V101.842V101.742V101.643V101.543V101.444V101.345V101.246V101.148V101.049V100.951V100.853V100.754V100.656V100.559V100.461V100.364V100.266V100.169V100.072V99.9752V99.8785V99.782V99.6856V99.5895V99.4935V99.3976V99.3019V99.2065V99.1111V99.016V98.921V98.8262V98.7316V98.6372V98.5429V98.4489V98.355V98.2613V98.1678V98.0745V97.9813V77.9536C1199.58 37.0893 1166.45 4 1125.59 4H369.253H78.0006C37.1313 4 4.00026 37.1313 4.00058 78.0005Z" fill="#FFFEFE" stroke="#5C5554" stroke-width="8"/>
</svg>
