<?xml version="1.0" encoding="UTF-8"?>
<svg id="Layer_2" data-name="Layer 2" xmlns="http://www.w3.org/2000/svg" viewBox="0 0 287.06 490.3">
  <defs>
    <style>
      .cls-1 {
        stroke-dasharray: 0 0 11.6 14.5;
      }

      .cls-1, .cls-2, .cls-3, .cls-4, .cls-5, .cls-6, .cls-7 {
        fill: none;
        stroke: #ffa938;
        stroke-linecap: round;
        stroke-linejoin: round;
        stroke-width: 8px;
      }

      .cls-2 {
        stroke-dasharray: 0 0 12.19 15.23;
      }

      .cls-3 {
        stroke-dasharray: 0 0 12.38 15.48;
      }

      .cls-5 {
        stroke-dasharray: 0 0 12.48 15.6;
      }

      .cls-8 {
        fill: #dadbdc;
        stroke-width: 0px;
      }

      .cls-6 {
        stroke-dasharray: 0 0 12.12 15.15;
      }

      .cls-7 {
        stroke-dasharray: 0 0 7.96 9.95;
      }
    </style>
  </defs>
  <g id="Trace_Tumbler" data-name="Trace Tumbler">
    <g>
      <path class="cls-8" d="M4,10.12l168,.02v-6.14h111.07v39.85h-3.31l-7.53,156.86-16.28,13.07-21.19,254.82s-1.43,12.39-13.59,15.96-156.25.57-156.25.57c0,0-12.9-2.08-15.41-21.04s-20.51-249.96-20.51-249.96l-16.39-13.42L5.09,47.71l-1.09-37.59Z"/>
      <g>
        <polyline class="cls-4" points="4.17 16.12 4 10.12 10 10.12"/>
        <line class="cls-5" x1="25.6" y1="10.13" x2="158.2" y2="10.14"/>
        <polyline class="cls-4" points="166 10.14 172 10.14 172 4 178 4"/>
        <line class="cls-3" x1="193.48" y1="4" x2="269.33" y2="4"/>
        <polyline class="cls-4" points="277.06 4 283.06 4 283.06 10"/>
        <line class="cls-7" x1="283.06" y1="19.95" x2="283.06" y2="32.87"/>
        <polyline class="cls-4" points="283.06 37.85 283.06 43.85 279.76 43.85 279.47 49.84"/>
        <line class="cls-1" x1="278.77" y1="64.33" x2="272.86" y2="187.47"/>
        <polyline class="cls-4" points="272.52 194.71 272.23 200.71 267.55 204.46"/>
        <polyline class="cls-4" points="260.63 210.02 255.95 213.78 255.46 219.76"/>
        <path class="cls-2" d="M254.19,234.94l-19.43,233.66s-1.43,12.39-13.59,15.96c-12.17,3.57-156.25.57-156.25.57,0,0-12.9-2.08-15.41-21.04-2.14-16.17-15.55-186.63-19.45-236.39"/>
        <path class="cls-4" d="M29.47,220.1c-.3-3.86-.47-5.98-.47-5.98l-4.64-3.8"/>
        <polyline class="cls-4" points="17.26 204.51 12.61 200.71 12.32 194.71"/>
        <polyline class="cls-6" points="11.58 179.58 5.09 47.71 4.39 23.69"/>
      </g>
    </g>
  </g>
</svg>