<svg width="164" height="165" viewBox="0 0 164 165" fill="none" xmlns="http://www.w3.org/2000/svg">
<path d="M145.53 67.3507C145.53 67.3507 138.503 78.1992 138.034 84.5727C137.565 90.9461 143.346 97.0063 143.346 97.0063C143.346 97.0063 135.908 93.157 129.922 95.395C123.936 97.6331 115.493 107.42 115.493 107.42C115.493 107.42 122.519 96.5714 122.989 90.1979C123.458 83.8245 117.677 77.7644 117.677 77.7644C117.677 77.7644 125.115 81.6137 131.101 79.3756C137.087 77.1376 145.53 67.3507 145.53 67.3507Z" fill="#FFA938"/>
<path d="M49.4447 69.6437C49.4447 69.6437 42.7813 80.7642 43.7249 88.1967C44.6685 95.6292 53.8351 104.227 53.8351 104.227C53.8351 104.227 43.0112 97.84 35.6124 99.019C28.2136 100.198 19.4085 109.713 19.4085 109.713C19.4085 109.713 26.0719 98.5925 25.1283 91.16C24.1847 83.7275 15.0181 75.1296 15.0181 75.1296C15.0181 75.1296 25.842 81.5167 33.2408 80.3377C40.6396 79.1587 49.4447 69.6437 49.4447 69.6437Z" fill="#FFA938"/>
<path d="M118.292 35.1988C118.292 35.1988 101.582 60.9462 100.375 76.0138C99.1676 91.0814 112.676 105.308 112.676 105.308C112.676 105.308 95.2316 96.3321 81.1074 101.717C66.9832 107.102 46.9563 130.363 46.9563 130.363C46.9563 130.363 63.6669 104.616 64.8739 89.5481C66.0809 74.4805 52.5723 60.2539 52.5723 60.2539C52.5723 60.2539 70.0168 69.2298 84.1411 63.8451C98.2653 58.4604 118.292 35.1988 118.292 35.1988Z" fill="#FFA938"/>
</svg>
