<svg width="239" height="111" viewBox="0 0 239 111" fill="none" xmlns="http://www.w3.org/2000/svg">
<g filter="url(#filter0_d_12_102)">
<rect x="8" y="8" width="211" height="83" rx="41.5" fill="#FFA938"/>
<rect x="4" y="4" width="219" height="91" rx="45.5" stroke="#5C5554" stroke-width="8"/>
</g>
<mask id="path-3-outside-1_12_102" maskUnits="userSpaceOnUse" x="56" y="27" width="103" height="42" fill="black">
<rect fill="white" x="56" y="27" width="103" height="42"/>
<path d="M74.92 34.44C76.8133 34.52 78.3333 34.8533 79.48 35.44C80.6533 36 81.5733 36.6133 82.24 37.28C83.0133 38.0533 83.5733 38.9333 83.92 39.92C84.32 41.3867 84.3733 42.6267 84.08 43.64C83.7867 44.6267 83.3733 45.44 82.84 46.08C82.2267 46.8267 81.4667 47.44 80.56 47.92C81.7867 48.2933 82.7333 48.8133 83.4 49.48C84.0667 50.1467 84.5467 50.8 84.84 51.44C85.1867 52.1867 85.3867 52.9867 85.44 53.84C85.4933 54.9333 85.3867 55.9067 85.12 56.76C84.8533 57.6133 84.48 58.36 84 59C83.52 59.6133 82.96 60.1467 82.32 60.6C81.68 61.0533 81.0267 61.4267 80.36 61.72C78.76 62.4133 76.9333 62.84 74.88 63C73.76 63.08 72.7333 63.0667 71.8 62.96C70.8667 62.8533 70.0267 62.6933 69.28 62.48C68.5333 62.2667 67.8667 62.0267 67.28 61.76C66.6933 61.4667 66.1867 61.16 65.76 60.84C64.72 60.12 63.9333 59.28 63.4 58.32C62.6 56.96 62.08 55.4933 61.84 53.92C61.6 52.3467 61.48 50.88 61.48 49.52C61.48 48.1333 61.56 46.88 61.72 45.76C61.88 44.64 62.0667 43.6933 62.28 42.92C62.52 42.0133 62.7867 41.2 63.08 40.48C63.4267 39.5733 63.8667 38.8 64.4 38.16C64.9333 37.4933 65.5067 36.9333 66.12 36.48C66.76 36 67.4133 35.6267 68.08 35.36C68.7733 35.0933 69.44 34.88 70.08 34.72C71.6 34.3733 73.2133 34.28 74.92 34.44ZM73.52 42.44C73.0667 42.44 72.68 42.5867 72.36 42.88C72.0667 43.1467 71.92 43.5067 71.92 43.96C71.92 44.3867 72.0267 44.7867 72.24 45.16C72.48 45.5067 72.9067 45.68 73.52 45.68C74.0533 45.68 74.4533 45.5067 74.72 45.16C74.9867 44.7867 75.12 44.3867 75.12 43.96C75.12 43.56 74.9867 43.2133 74.72 42.92C74.4533 42.6 74.0533 42.44 73.52 42.44ZM73.88 52.04C73.4267 52.04 73.0267 52.2133 72.68 52.56C72.36 52.9067 72.2267 53.2933 72.28 53.72C72.3333 54.28 72.4933 54.6667 72.76 54.88C73.0533 55.0933 73.4267 55.2 73.88 55.2C74.3333 55.2 74.7067 55.0667 75 54.8C75.2933 54.5333 75.44 54.1733 75.44 53.72C75.44 53.2933 75.3067 52.9067 75.04 52.56C74.7733 52.2133 74.3867 52.04 73.88 52.04ZM108.319 58.36C107.892 59.1333 107.385 59.8133 106.799 60.4C106.239 60.96 105.692 61.4267 105.159 61.8C104.545 62.2533 103.919 62.6133 103.279 62.88C102.745 63.0933 102.225 63.2533 101.719 63.36C101.239 63.4933 100.812 63.5867 100.439 63.64C99.9854 63.72 99.5854 63.76 99.2388 63.76C97.7721 63.76 96.4788 63.6133 95.3588 63.32C94.2654 63.0267 93.3054 62.6533 92.4788 62.2C91.6521 61.72 90.9454 61.1733 90.3588 60.56C89.7988 59.9467 89.3454 59.32 88.9988 58.68C88.1188 57.2133 87.6388 55.52 87.5588 53.6C87.5588 52.0533 87.7188 50.72 88.0387 49.6C88.3854 48.4533 88.8254 47.48 89.3587 46.68C89.9188 45.8533 90.5454 45.1733 91.2388 44.64C91.9588 44.1067 92.6788 43.68 93.3988 43.36C95.1054 42.6133 97.0521 42.28 99.2388 42.36C100.519 42.36 101.652 42.5067 102.639 42.8C103.625 43.0933 104.479 43.48 105.199 43.96C105.945 44.44 106.559 44.9867 107.039 45.6C107.545 46.1867 107.959 46.8 108.279 47.44C109.025 48.9067 109.452 50.5867 109.559 52.48C109.559 53.7333 109.439 54.84 109.199 55.8C108.985 56.76 108.692 57.6133 108.319 58.36ZM98.9988 52.04C98.5454 52.04 98.1454 52.2133 97.7988 52.56C97.4788 52.9067 97.3454 53.2933 97.3988 53.72C97.4521 54.28 97.6121 54.6667 97.8788 54.88C98.1721 55.0933 98.5454 55.2 98.9988 55.2C99.4521 55.2 99.8254 55.0667 100.119 54.8C100.412 54.5333 100.559 54.1733 100.559 53.72C100.559 53.2933 100.425 52.9067 100.159 52.56C99.8921 52.2133 99.5054 52.04 98.9988 52.04ZM138.116 53.8C138.17 55.3733 138.023 56.8 137.676 58.08C137.516 58.64 137.303 59.2 137.036 59.76C136.796 60.2933 136.463 60.8 136.036 61.28C135.61 61.7333 135.103 62.1333 134.516 62.48C133.956 62.8267 133.276 63.0667 132.476 63.2C132.476 63.2 132.316 63.2133 131.996 63.24C131.676 63.2667 131.263 63.2533 130.756 63.2C130.276 63.1467 129.743 63.04 129.156 62.88C128.596 62.6933 128.063 62.4 127.556 62C127.05 61.5733 126.61 61.0133 126.236 60.32C125.89 59.6267 125.69 58.7467 125.636 57.68C125.53 56.64 125.423 55.7067 125.316 54.88C125.183 54.1867 125.036 53.5467 124.876 52.96C124.716 52.3467 124.503 52.04 124.236 52.04C124.316 53.0267 124.356 53.88 124.356 54.6C124.383 55.32 124.383 55.9333 124.356 56.44C124.33 57.0267 124.303 57.5333 124.276 57.96C124.143 58.9467 123.836 59.8267 123.356 60.6C122.956 61.2667 122.356 61.88 121.556 62.44C120.783 63 119.703 63.2933 118.316 63.32C117.65 63.32 117.05 63.24 116.516 63.08C116.01 62.9467 115.556 62.7467 115.156 62.48C114.756 62.2133 114.396 61.92 114.076 61.6C113.783 61.2533 113.53 60.9067 113.316 60.56C112.81 59.7333 112.45 58.8 112.236 57.76C112.05 57.04 111.903 56.2133 111.796 55.28C111.69 54.48 111.623 53.52 111.596 52.4C111.57 51.28 111.623 50 111.756 48.56C111.89 47.44 112.196 46.4267 112.676 45.52C112.863 45.1467 113.103 44.7733 113.396 44.4C113.69 44.0267 114.036 43.6933 114.436 43.4C114.836 43.08 115.29 42.8267 115.796 42.64C116.33 42.4267 116.93 42.2933 117.596 42.24C118.77 42.16 119.73 42.2133 120.476 42.4C121.25 42.5867 121.876 42.84 122.356 43.16C122.836 43.4533 123.196 43.7867 123.436 44.16C123.703 44.5067 123.93 44.84 124.116 45.16C126.516 43.8533 128.703 43.24 130.676 43.32C131.503 43.3467 132.33 43.5333 133.156 43.88C133.983 44.2 134.73 44.76 135.396 45.56C136.09 46.3333 136.676 47.3867 137.156 48.72C137.636 50.0533 137.956 51.7467 138.116 53.8ZM150.949 36.48C151.002 37.0667 150.922 37.64 150.709 38.2C150.522 38.76 150.229 39.2667 149.829 39.72C149.456 40.1467 148.989 40.5067 148.429 40.8C147.869 41.0667 147.256 41.24 146.589 41.32C145.896 41.4 145.242 41.36 144.629 41.2C144.042 41.0133 143.509 40.7467 143.029 40.4C142.549 40.0533 142.149 39.64 141.829 39.16C141.536 38.6533 141.349 38.0933 141.269 37.48C141.216 36.8933 141.282 36.3333 141.469 35.8C141.682 35.24 141.989 34.7467 142.389 34.32C142.789 33.8667 143.269 33.4933 143.829 33.2C144.389 32.9067 145.002 32.72 145.669 32.64C146.336 32.56 146.962 32.6133 147.549 32.8C148.162 32.96 148.709 33.2133 149.189 33.56C149.669 33.9067 150.069 34.3333 150.389 34.84C150.709 35.3467 150.896 35.8933 150.949 36.48ZM152.669 58.96C152.456 60.16 152.042 61.08 151.429 61.72C150.816 62.3333 150.189 62.7867 149.549 63.08C148.776 63.4 147.949 63.5733 147.069 63.6C145.922 63.6533 144.989 63.4933 144.269 63.12C143.549 62.7733 142.976 62.3733 142.549 61.92C142.069 61.4133 141.682 60.8133 141.389 60.12C140.856 58.68 140.536 57.2 140.429 55.68C140.349 54.1333 140.376 52.72 140.509 51.44C140.642 49.9733 140.882 48.5333 141.229 47.12C141.549 45.8933 142.016 44.9733 142.629 44.36C143.269 43.72 143.896 43.2533 144.509 42.96C145.229 42.64 145.989 42.4667 146.789 42.44C148.016 42.3867 149.002 42.6 149.749 43.08C150.522 43.5333 151.136 44.0667 151.589 44.68C152.096 45.3733 152.469 46.2 152.709 47.16C152.896 48.04 153.042 49.0667 153.149 50.24C153.229 51.2533 153.242 52.4933 153.189 53.96C153.162 55.4 152.989 57.0667 152.669 58.96Z"/>
</mask>
<path d="M74.92 34.44C76.8133 34.52 78.3333 34.8533 79.48 35.44C80.6533 36 81.5733 36.6133 82.24 37.28C83.0133 38.0533 83.5733 38.9333 83.92 39.92C84.32 41.3867 84.3733 42.6267 84.08 43.64C83.7867 44.6267 83.3733 45.44 82.84 46.08C82.2267 46.8267 81.4667 47.44 80.56 47.92C81.7867 48.2933 82.7333 48.8133 83.4 49.48C84.0667 50.1467 84.5467 50.8 84.84 51.44C85.1867 52.1867 85.3867 52.9867 85.44 53.84C85.4933 54.9333 85.3867 55.9067 85.12 56.76C84.8533 57.6133 84.48 58.36 84 59C83.52 59.6133 82.96 60.1467 82.32 60.6C81.68 61.0533 81.0267 61.4267 80.36 61.72C78.76 62.4133 76.9333 62.84 74.88 63C73.76 63.08 72.7333 63.0667 71.8 62.96C70.8667 62.8533 70.0267 62.6933 69.28 62.48C68.5333 62.2667 67.8667 62.0267 67.28 61.76C66.6933 61.4667 66.1867 61.16 65.76 60.84C64.72 60.12 63.9333 59.28 63.4 58.32C62.6 56.96 62.08 55.4933 61.84 53.92C61.6 52.3467 61.48 50.88 61.48 49.52C61.48 48.1333 61.56 46.88 61.72 45.76C61.88 44.64 62.0667 43.6933 62.28 42.92C62.52 42.0133 62.7867 41.2 63.08 40.48C63.4267 39.5733 63.8667 38.8 64.4 38.16C64.9333 37.4933 65.5067 36.9333 66.12 36.48C66.76 36 67.4133 35.6267 68.08 35.36C68.7733 35.0933 69.44 34.88 70.08 34.72C71.6 34.3733 73.2133 34.28 74.92 34.44ZM73.52 42.44C73.0667 42.44 72.68 42.5867 72.36 42.88C72.0667 43.1467 71.92 43.5067 71.92 43.96C71.92 44.3867 72.0267 44.7867 72.24 45.16C72.48 45.5067 72.9067 45.68 73.52 45.68C74.0533 45.68 74.4533 45.5067 74.72 45.16C74.9867 44.7867 75.12 44.3867 75.12 43.96C75.12 43.56 74.9867 43.2133 74.72 42.92C74.4533 42.6 74.0533 42.44 73.52 42.44ZM73.88 52.04C73.4267 52.04 73.0267 52.2133 72.68 52.56C72.36 52.9067 72.2267 53.2933 72.28 53.72C72.3333 54.28 72.4933 54.6667 72.76 54.88C73.0533 55.0933 73.4267 55.2 73.88 55.2C74.3333 55.2 74.7067 55.0667 75 54.8C75.2933 54.5333 75.44 54.1733 75.44 53.72C75.44 53.2933 75.3067 52.9067 75.04 52.56C74.7733 52.2133 74.3867 52.04 73.88 52.04ZM108.319 58.36C107.892 59.1333 107.385 59.8133 106.799 60.4C106.239 60.96 105.692 61.4267 105.159 61.8C104.545 62.2533 103.919 62.6133 103.279 62.88C102.745 63.0933 102.225 63.2533 101.719 63.36C101.239 63.4933 100.812 63.5867 100.439 63.64C99.9854 63.72 99.5854 63.76 99.2388 63.76C97.7721 63.76 96.4788 63.6133 95.3588 63.32C94.2654 63.0267 93.3054 62.6533 92.4788 62.2C91.6521 61.72 90.9454 61.1733 90.3588 60.56C89.7988 59.9467 89.3454 59.32 88.9988 58.68C88.1188 57.2133 87.6388 55.52 87.5588 53.6C87.5588 52.0533 87.7188 50.72 88.0387 49.6C88.3854 48.4533 88.8254 47.48 89.3587 46.68C89.9188 45.8533 90.5454 45.1733 91.2388 44.64C91.9588 44.1067 92.6788 43.68 93.3988 43.36C95.1054 42.6133 97.0521 42.28 99.2388 42.36C100.519 42.36 101.652 42.5067 102.639 42.8C103.625 43.0933 104.479 43.48 105.199 43.96C105.945 44.44 106.559 44.9867 107.039 45.6C107.545 46.1867 107.959 46.8 108.279 47.44C109.025 48.9067 109.452 50.5867 109.559 52.48C109.559 53.7333 109.439 54.84 109.199 55.8C108.985 56.76 108.692 57.6133 108.319 58.36ZM98.9988 52.04C98.5454 52.04 98.1454 52.2133 97.7988 52.56C97.4788 52.9067 97.3454 53.2933 97.3988 53.72C97.4521 54.28 97.6121 54.6667 97.8788 54.88C98.1721 55.0933 98.5454 55.2 98.9988 55.2C99.4521 55.2 99.8254 55.0667 100.119 54.8C100.412 54.5333 100.559 54.1733 100.559 53.72C100.559 53.2933 100.425 52.9067 100.159 52.56C99.8921 52.2133 99.5054 52.04 98.9988 52.04ZM138.116 53.8C138.17 55.3733 138.023 56.8 137.676 58.08C137.516 58.64 137.303 59.2 137.036 59.76C136.796 60.2933 136.463 60.8 136.036 61.28C135.61 61.7333 135.103 62.1333 134.516 62.48C133.956 62.8267 133.276 63.0667 132.476 63.2C132.476 63.2 132.316 63.2133 131.996 63.24C131.676 63.2667 131.263 63.2533 130.756 63.2C130.276 63.1467 129.743 63.04 129.156 62.88C128.596 62.6933 128.063 62.4 127.556 62C127.05 61.5733 126.61 61.0133 126.236 60.32C125.89 59.6267 125.69 58.7467 125.636 57.68C125.53 56.64 125.423 55.7067 125.316 54.88C125.183 54.1867 125.036 53.5467 124.876 52.96C124.716 52.3467 124.503 52.04 124.236 52.04C124.316 53.0267 124.356 53.88 124.356 54.6C124.383 55.32 124.383 55.9333 124.356 56.44C124.33 57.0267 124.303 57.5333 124.276 57.96C124.143 58.9467 123.836 59.8267 123.356 60.6C122.956 61.2667 122.356 61.88 121.556 62.44C120.783 63 119.703 63.2933 118.316 63.32C117.65 63.32 117.05 63.24 116.516 63.08C116.01 62.9467 115.556 62.7467 115.156 62.48C114.756 62.2133 114.396 61.92 114.076 61.6C113.783 61.2533 113.53 60.9067 113.316 60.56C112.81 59.7333 112.45 58.8 112.236 57.76C112.05 57.04 111.903 56.2133 111.796 55.28C111.69 54.48 111.623 53.52 111.596 52.4C111.57 51.28 111.623 50 111.756 48.56C111.89 47.44 112.196 46.4267 112.676 45.52C112.863 45.1467 113.103 44.7733 113.396 44.4C113.69 44.0267 114.036 43.6933 114.436 43.4C114.836 43.08 115.29 42.8267 115.796 42.64C116.33 42.4267 116.93 42.2933 117.596 42.24C118.77 42.16 119.73 42.2133 120.476 42.4C121.25 42.5867 121.876 42.84 122.356 43.16C122.836 43.4533 123.196 43.7867 123.436 44.16C123.703 44.5067 123.93 44.84 124.116 45.16C126.516 43.8533 128.703 43.24 130.676 43.32C131.503 43.3467 132.33 43.5333 133.156 43.88C133.983 44.2 134.73 44.76 135.396 45.56C136.09 46.3333 136.676 47.3867 137.156 48.72C137.636 50.0533 137.956 51.7467 138.116 53.8ZM150.949 36.48C151.002 37.0667 150.922 37.64 150.709 38.2C150.522 38.76 150.229 39.2667 149.829 39.72C149.456 40.1467 148.989 40.5067 148.429 40.8C147.869 41.0667 147.256 41.24 146.589 41.32C145.896 41.4 145.242 41.36 144.629 41.2C144.042 41.0133 143.509 40.7467 143.029 40.4C142.549 40.0533 142.149 39.64 141.829 39.16C141.536 38.6533 141.349 38.0933 141.269 37.48C141.216 36.8933 141.282 36.3333 141.469 35.8C141.682 35.24 141.989 34.7467 142.389 34.32C142.789 33.8667 143.269 33.4933 143.829 33.2C144.389 32.9067 145.002 32.72 145.669 32.64C146.336 32.56 146.962 32.6133 147.549 32.8C148.162 32.96 148.709 33.2133 149.189 33.56C149.669 33.9067 150.069 34.3333 150.389 34.84C150.709 35.3467 150.896 35.8933 150.949 36.48ZM152.669 58.96C152.456 60.16 152.042 61.08 151.429 61.72C150.816 62.3333 150.189 62.7867 149.549 63.08C148.776 63.4 147.949 63.5733 147.069 63.6C145.922 63.6533 144.989 63.4933 144.269 63.12C143.549 62.7733 142.976 62.3733 142.549 61.92C142.069 61.4133 141.682 60.8133 141.389 60.12C140.856 58.68 140.536 57.2 140.429 55.68C140.349 54.1333 140.376 52.72 140.509 51.44C140.642 49.9733 140.882 48.5333 141.229 47.12C141.549 45.8933 142.016 44.9733 142.629 44.36C143.269 43.72 143.896 43.2533 144.509 42.96C145.229 42.64 145.989 42.4667 146.789 42.44C148.016 42.3867 149.002 42.6 149.749 43.08C150.522 43.5333 151.136 44.0667 151.589 44.68C152.096 45.3733 152.469 46.2 152.709 47.16C152.896 48.04 153.042 49.0667 153.149 50.24C153.229 51.2533 153.242 52.4933 153.189 53.96C153.162 55.4 152.989 57.0667 152.669 58.96Z" fill="#FFFEFE"/>
<path d="M74.92 34.44L74.4533 39.4182L74.5809 39.4301L74.7089 39.4355L74.92 34.44ZM79.48 35.44L77.2026 39.8912L77.2641 39.9227L77.3264 39.9524L79.48 35.44ZM83.92 39.92L88.7438 38.6044L88.6967 38.4316L88.6373 38.2626L83.92 39.92ZM84.08 43.64L88.8727 45.0649L88.8778 45.0476L88.8828 45.0303L84.08 43.64ZM82.84 46.08L78.9989 42.8791L78.9876 42.8927L78.9764 42.9063L82.84 46.08ZM80.56 47.92L78.2206 43.5011L67.506 49.1735L79.1042 52.7034L80.56 47.92ZM83.4 49.48L86.9355 45.9445L86.9355 45.9445L83.4 49.48ZM84.84 51.44L80.2947 53.5233L80.2998 53.5344L80.305 53.5455L84.84 51.44ZM85.44 53.84L90.4341 53.5964L90.4324 53.5622L90.4303 53.5281L85.44 53.84ZM85.12 56.76L89.8924 58.2514L85.12 56.76ZM84 59L87.9375 62.0815L87.9692 62.0411L88 62L84 59ZM82.32 60.6L85.2101 64.6801L82.32 60.6ZM80.36 61.72L82.348 66.3078L82.3609 66.3022L82.3737 66.2966L80.36 61.72ZM74.88 63L75.2362 67.9873L75.2523 67.9861L75.2684 67.9849L74.88 63ZM71.8 62.96L71.2323 67.9277L71.8 62.96ZM69.28 62.48L67.9064 67.2876H67.9064L69.28 62.48ZM67.28 61.76L65.0439 66.2321L65.1267 66.2735L65.211 66.3118L67.28 61.76ZM65.76 60.84L68.76 56.84L68.6841 56.7831L68.606 56.729L65.76 60.84ZM63.4 58.32L67.7708 55.8918L67.7409 55.838L67.7097 55.7849L63.4 58.32ZM61.84 53.92L66.7828 53.166L61.84 53.92ZM62.28 42.92L67.1 44.2496L67.1069 44.2246L67.1135 44.1995L62.28 42.92ZM63.08 40.48L67.7105 42.3665L67.7309 42.3163L67.7503 42.2657L63.08 40.48ZM64.4 38.16L68.2411 41.3609L68.2731 41.3225L68.3043 41.2835L64.4 38.16ZM66.12 36.48L69.092 40.5009L69.106 40.4905L69.12 40.48L66.12 36.48ZM68.08 35.36L66.2851 30.6933L66.254 30.7052L66.223 30.7176L68.08 35.36ZM70.08 34.72L68.9682 29.8452L68.9176 29.8567L68.8673 29.8693L70.08 34.72ZM72.36 42.88L75.7234 46.5797L75.731 46.5728L75.7386 46.5658L72.36 42.88ZM72.24 45.16L67.8988 47.6407L68.006 47.8284L68.129 48.0061L72.24 45.16ZM74.72 45.16L78.6831 48.2086L78.7372 48.1383L78.7887 48.0662L74.72 45.16ZM74.72 42.92L70.8789 46.1209L70.9479 46.2037L71.0203 46.2834L74.72 42.92ZM72.68 52.56L69.1445 49.0245L69.0738 49.0951L69.006 49.1686L72.68 52.56ZM72.28 53.72L77.2575 53.246L77.2505 53.1728L77.2414 53.0998L72.28 53.72ZM72.76 54.88L69.6365 58.7843L69.7262 58.8561L69.8191 58.9237L72.76 54.88ZM75 54.8L78.3634 58.4997H78.3634L75 54.8ZM75.04 52.56L71.0769 55.6085L71.0769 55.6086L75.04 52.56ZM74.7089 39.4355C76.1935 39.4983 76.9265 39.75 77.2026 39.8912L81.7574 30.9888C79.7402 29.9567 77.4331 29.5417 75.1311 29.4445L74.7089 39.4355ZM77.3264 39.9524C78.1671 40.3537 78.5599 40.671 78.7045 40.8155L85.7755 33.7445C84.5867 32.5557 83.1396 31.6463 81.6336 30.9276L77.3264 39.9524ZM78.7045 40.8155C78.9731 41.0841 79.1157 41.3299 79.2027 41.5774L88.6373 38.2626C88.0309 36.5368 87.0536 35.0225 85.7755 33.7445L78.7045 40.8155ZM79.0962 41.2356C79.2192 41.6866 79.2571 41.9891 79.2646 42.1649C79.272 42.3362 79.2491 42.3468 79.2772 42.2497L88.8828 45.0303C89.5206 42.8271 89.2849 40.5884 88.7438 38.6044L79.0962 41.2356ZM79.2873 42.2151C79.1431 42.7002 79.0083 42.8677 78.9989 42.8791L86.6811 49.2809C87.7383 48.0123 88.4302 46.5531 88.8727 45.0649L79.2873 42.2151ZM78.9764 42.9063C78.8091 43.1099 78.5783 43.3117 78.2206 43.5011L82.8994 52.3389C84.355 51.5683 85.6442 50.5434 86.7036 49.2537L78.9764 42.9063ZM79.1042 52.7034C79.8153 52.9198 79.9492 53.1002 79.8645 53.0155L86.9355 45.9445C85.5175 44.5264 83.758 43.6669 82.0158 43.1366L79.1042 52.7034ZM79.8645 53.0155C80.2447 53.3958 80.3171 53.5723 80.2947 53.5233L89.3853 49.3567C88.7762 48.0277 87.8886 46.8976 86.9355 45.9445L79.8645 53.0155ZM80.305 53.5455C80.3795 53.7061 80.4337 53.8952 80.4497 54.1519L90.4303 53.5281C90.3396 52.0781 89.9938 50.6672 89.375 49.3344L80.305 53.5455ZM80.4459 54.0836C80.4769 54.7174 80.4047 55.0861 80.3476 55.2686L89.8924 58.2514C90.3687 56.7273 90.5098 55.1493 90.4341 53.5964L80.4459 54.0836ZM80.3476 55.2686C80.2309 55.6421 80.1009 55.8655 80 56L88 62C88.8591 60.8545 89.4758 59.5845 89.8924 58.2514L80.3476 55.2686ZM80.0625 55.9185C79.8835 56.1472 79.677 56.3449 79.4299 56.5199L85.2101 64.6801C86.243 63.9485 87.1565 63.0795 87.9375 62.0815L80.0625 55.9185ZM79.4299 56.5199C79.0437 56.7934 78.6823 56.9956 78.3463 57.1434L82.3737 66.2966C83.371 65.8578 84.3163 65.3132 85.2101 64.6801L79.4299 56.5199ZM78.372 57.1322C77.362 57.5699 76.0908 57.8905 74.4916 58.0151L75.2684 67.9849C77.7759 67.7895 80.158 67.2568 82.348 66.3078L78.372 57.1322ZM74.5238 58.0127C73.6541 58.0748 72.9419 58.058 72.3677 57.9923L71.2323 67.9277C72.5248 68.0754 73.8659 68.0852 75.2362 67.9873L74.5238 58.0127ZM72.3677 57.9923C71.6525 57.9106 71.0886 57.7967 70.6536 57.6724L67.9064 67.2876C68.9648 67.59 70.0808 67.7961 71.2323 67.9277L72.3677 57.9923ZM70.6536 57.6724C70.0983 57.5137 69.6704 57.3543 69.349 57.2082L65.211 66.3118C66.0629 66.6991 66.9684 67.0196 67.9064 67.2876L70.6536 57.6724ZM69.5161 57.2879C69.1392 57.0994 68.8995 56.9446 68.76 56.84L62.76 64.84C63.4738 65.3754 64.2475 65.8339 65.0439 66.2321L69.5161 57.2879ZM68.606 56.729C68.1008 56.3792 67.8789 56.0864 67.7708 55.8918L59.0292 60.7482C59.9878 62.4736 61.3392 63.8608 62.914 64.951L68.606 56.729ZM67.7097 55.7849C67.2349 54.9778 66.9278 54.1164 66.7828 53.166L56.8972 54.674C57.2322 56.8703 57.9651 58.9422 59.0903 60.8551L67.7097 55.7849ZM66.7828 53.166C66.5747 51.8013 66.48 50.5894 66.48 49.52H56.48C56.48 51.1706 56.6253 52.892 56.8972 54.674L66.7828 53.166ZM66.48 49.52C66.48 48.3193 66.5497 47.3076 66.6697 46.4671L56.7703 45.0529C56.5703 46.4524 56.48 47.9473 56.48 49.52H66.48ZM66.6697 46.4671C66.8109 45.4793 66.9607 44.7545 67.1 44.2496L57.46 41.5904C57.1726 42.6321 56.9491 43.8007 56.7703 45.0529L66.6697 46.4671ZM67.1135 44.1995C67.3096 43.4587 67.5121 42.8533 67.7105 42.3665L58.4495 38.5935C58.0612 39.5467 57.7304 40.568 57.4465 41.6405L67.1135 44.1995ZM67.7503 42.2657C67.9321 41.7901 68.113 41.5147 68.2411 41.3609L60.5589 34.9591C59.6204 36.0853 58.9212 37.3566 58.4097 38.6943L67.7503 42.2657ZM68.3043 41.2835C68.5988 40.9154 68.8656 40.6682 69.092 40.5009L63.148 32.4591C62.1477 33.1985 61.2679 34.0713 60.4957 35.0365L68.3043 41.2835ZM69.12 40.48C69.4483 40.2338 69.7212 40.0887 69.937 40.0024L66.223 30.7176C65.1054 31.1647 64.0717 31.7662 63.12 32.48L69.12 40.48ZM69.8749 40.0267C70.4014 39.8242 70.8731 39.6756 71.2927 39.5707L68.8673 29.8693C68.0069 30.0844 67.1453 30.3624 66.2851 30.6933L69.8749 40.0267ZM71.1918 39.5948C72.1457 39.3773 73.2227 39.3028 74.4533 39.4182L75.3867 29.4618C73.204 29.2572 71.0543 29.3694 68.9682 29.8452L71.1918 39.5948ZM73.52 37.44C71.8767 37.44 70.2675 38.0153 68.9814 39.1942L75.7386 46.5658C75.4547 46.8261 75.0921 47.0623 74.6633 47.225C74.238 47.3863 73.8409 47.44 73.52 47.44V37.44ZM68.9966 39.1803C67.5066 40.5349 66.92 42.321 66.92 43.96H76.92C76.92 44.2741 76.8682 44.7266 76.6605 45.2365C76.4464 45.7619 76.1178 46.2211 75.7234 46.5797L68.9966 39.1803ZM66.92 43.96C66.92 45.2639 67.2573 46.5181 67.8988 47.6407L76.5812 42.6793C76.7961 43.0553 76.92 43.5094 76.92 43.96H66.92ZM68.129 48.0061C69.6785 50.2442 72.0601 50.68 73.52 50.68V40.68C73.6563 40.68 74.0751 40.6955 74.6219 40.9177C75.2229 41.1618 75.8666 41.6143 76.351 42.3139L68.129 48.0061ZM73.52 50.68C75.2265 50.68 77.2605 50.0579 78.6831 48.2086L70.7569 42.1114C71.1389 41.6148 71.651 41.214 72.232 40.9622C72.7831 40.7234 73.2517 40.68 73.52 40.68V50.68ZM78.7887 48.0662C79.6129 46.9123 80.12 45.5087 80.12 43.96H70.12C70.12 43.6424 70.1713 43.3148 70.2766 42.9989C70.3808 42.6863 70.5204 42.4372 70.6513 42.2538L78.7887 48.0662ZM80.12 43.96C80.12 42.3286 79.5314 40.7795 78.4197 39.5566L71.0203 46.2834C70.7652 46.0028 70.5236 45.6378 70.3533 45.1949C70.1832 44.7527 70.12 44.3262 70.12 43.96H80.12ZM78.5611 39.7191C77.0902 37.9539 75.088 37.44 73.52 37.44V47.44C73.297 47.44 72.8758 47.4075 72.3631 47.2024C71.8197 46.985 71.2956 46.621 70.8789 46.1209L78.5611 39.7191ZM73.88 47.04C71.9859 47.04 70.3445 47.8244 69.1445 49.0245L76.2155 56.0955C75.999 56.312 75.673 56.565 75.228 56.7578C74.7754 56.9539 74.3094 57.04 73.88 57.04V47.04ZM69.006 49.1686C67.7967 50.4786 67.0634 52.2986 67.3186 54.3402L77.2414 53.0998C77.3045 53.6047 77.2621 54.1739 77.0669 54.74C76.8761 55.293 76.5915 55.6941 76.354 55.9514L69.006 49.1686ZM67.3025 54.194C67.4049 55.2686 67.8019 57.3166 69.6365 58.7843L75.8835 50.9757C76.5421 51.5026 76.8894 52.1058 77.0601 52.5182C77.2225 52.9107 77.2522 53.1901 77.2575 53.246L67.3025 54.194ZM69.8191 58.9237C71.1603 59.8991 72.637 60.2 73.88 60.2V50.2C74.2163 50.2 74.9463 50.2876 75.7009 50.8363L69.8191 58.9237ZM73.88 60.2C75.386 60.2 77.0174 59.7233 78.3634 58.4997L71.6366 51.1003C71.9784 50.7896 72.3833 50.5466 72.8183 50.3913C73.2428 50.2397 73.6147 50.2 73.88 50.2V60.2ZM78.3634 58.4997C79.8534 57.1451 80.44 55.359 80.44 53.72H70.44C70.44 53.4059 70.4918 52.9534 70.6995 52.4435C70.9136 51.9181 71.2422 51.4589 71.6366 51.1003L78.3634 58.4997ZM80.44 53.72C80.44 52.1611 79.9239 50.7085 79.0031 49.5114L71.0769 55.6086C70.9035 55.3832 70.7345 55.092 70.6131 54.74C70.4913 54.3865 70.44 54.0372 70.44 53.72H80.44ZM79.0031 49.5114C77.6323 47.7294 75.6607 47.04 73.88 47.04V57.04C73.5641 57.04 73.068 56.985 72.5047 56.7325C71.9186 56.4698 71.4309 56.0688 71.0769 55.6085L79.0031 49.5114ZM108.319 58.36L112.697 60.7754L112.746 60.6867L112.791 60.5961L108.319 58.36ZM106.799 60.4L103.263 56.8645V56.8645L106.799 60.4ZM105.159 61.8L102.291 57.7038L102.239 57.7408L102.187 57.7791L105.159 61.8ZM103.279 62.88L105.136 67.5224L105.169 67.5091L105.202 67.4954L103.279 62.88ZM101.719 63.36L100.689 58.4673L100.533 58.4999L100.381 58.5424L101.719 63.36ZM100.439 63.64L99.7316 58.6903L99.6505 58.7018L99.5698 58.7161L100.439 63.64ZM95.3587 63.32L94.0631 68.1492L94.0775 68.1531L94.092 68.1569L95.3587 63.32ZM92.4788 62.2L89.9681 66.5239L90.021 66.5547L90.0746 66.5841L92.4788 62.2ZM90.3587 60.56L86.6663 63.9313L86.7054 63.9742L86.7455 64.0161L90.3587 60.56ZM88.9988 58.68L93.3952 56.2986L93.3428 56.2019L93.2862 56.1075L88.9988 58.68ZM87.5588 53.6H82.5588V53.7041L82.5631 53.8082L87.5588 53.6ZM88.0387 49.6L83.2527 48.1531L83.2416 48.1896L83.2311 48.2264L88.0387 49.6ZM89.3587 46.68L85.2192 43.8758L85.2088 43.8911L85.1985 43.9065L89.3587 46.68ZM91.2388 44.64L88.2626 40.6222L88.2262 40.6492L88.1902 40.6769L91.2388 44.64ZM93.3988 43.36L91.3947 38.7792L91.3813 38.785L91.3681 38.7909L93.3988 43.36ZM99.2388 42.36L99.0559 47.3567L99.1473 47.36H99.2388V42.36ZM102.639 42.8L101.214 47.5927L101.214 47.5927L102.639 42.8ZM105.199 43.96L102.425 48.1202L102.46 48.1434L102.495 48.1659L105.199 43.96ZM107.039 45.6L103.101 48.6815L103.176 48.7767L103.255 48.8681L107.039 45.6ZM108.279 47.44L103.807 49.6761L103.815 49.6923L103.823 49.7084L108.279 47.44ZM109.559 52.48H114.559V52.3393L114.551 52.1988L109.559 52.48ZM109.199 55.8L104.348 54.5873L104.332 54.6511L104.318 54.7153L109.199 55.8ZM97.7988 52.56L94.2632 49.0245L94.1925 49.0951L94.1247 49.1686L97.7988 52.56ZM97.3988 53.72L102.376 53.246L102.369 53.1728L102.36 53.0998L97.3988 53.72ZM97.8787 54.88L94.7553 58.7843L94.845 58.8561L94.9379 58.9237L97.8787 54.88ZM100.119 54.8L96.7554 51.1003L96.7554 51.1003L100.119 54.8ZM100.159 52.56L104.122 49.5114L104.122 49.5114L100.159 52.56ZM103.941 55.9446C103.726 56.3334 103.497 56.6305 103.263 56.8645L110.334 63.9355C111.274 62.9961 112.058 61.9333 112.697 60.7754L103.941 55.9446ZM103.263 56.8645C102.867 57.2609 102.542 57.5288 102.291 57.7038L108.026 65.8962C108.843 65.3246 109.611 64.6591 110.334 63.9355L103.263 56.8645ZM102.187 57.7791C101.866 58.0163 101.588 58.1677 101.356 58.2646L105.202 67.4954C106.249 67.059 107.225 66.4903 108.131 65.8209L102.187 57.7791ZM101.422 58.2376C101.128 58.3553 100.884 58.4261 100.689 58.4673L102.749 68.2528C103.566 68.0806 104.363 67.8314 105.136 67.5224L101.422 58.2376ZM100.381 58.5424C100.046 58.6352 99.837 58.6752 99.7316 58.6903L101.146 68.5897C101.787 68.4981 102.431 68.3514 103.057 68.1776L100.381 58.5424ZM99.5698 58.7161C99.449 58.7374 99.3605 58.7489 99.3012 58.7548C99.2412 58.7608 99.2222 58.76 99.2388 58.76V68.76C99.9534 68.76 100.654 68.6792 101.308 68.5639L99.5698 58.7161ZM99.2388 58.76C98.0917 58.76 97.2392 58.6439 96.6255 58.4831L94.092 68.1569C95.7183 68.5828 97.4524 68.76 99.2388 68.76V58.76ZM96.6544 58.4908C95.8726 58.281 95.2975 58.0433 94.8829 57.8159L90.0746 66.5841C91.3133 67.2634 92.6582 67.7723 94.0631 68.1492L96.6544 58.4908ZM94.9894 57.8761C94.5188 57.6028 94.1957 57.3378 93.972 57.1039L86.7455 64.0161C87.6951 65.0088 88.7854 65.8372 89.9681 66.5239L94.9894 57.8761ZM94.0512 57.1887C93.7275 56.8341 93.5234 56.5352 93.3952 56.2986L84.6023 61.0614C85.1675 62.1048 85.87 63.0592 86.6663 63.9313L94.0512 57.1887ZM93.2862 56.1075C92.887 55.4422 92.604 54.5817 92.5544 53.3918L82.5631 53.8082C82.6735 56.4583 83.3505 58.9844 84.7113 61.2525L93.2862 56.1075ZM92.5588 53.6C92.5588 52.3758 92.6879 51.5282 92.8464 50.9736L83.2311 48.2264C82.7496 49.9118 82.5588 51.7308 82.5588 53.6H92.5588ZM92.8248 51.0469C93.0626 50.2604 93.3157 49.7584 93.519 49.4535L85.1985 43.9065C84.3351 45.2016 83.7082 46.6463 83.2527 48.1531L92.8248 51.0469ZM93.4983 49.4842C93.8005 49.0381 94.0723 48.7685 94.2873 48.6031L88.1902 40.6769C87.0185 41.5782 86.037 42.6685 85.2192 43.8758L93.4983 49.4842ZM94.2149 48.6578C94.6802 48.3131 95.0857 48.0818 95.4294 47.9291L91.3681 38.7909C90.2718 39.2782 89.2373 39.9002 88.2626 40.6222L94.2149 48.6578ZM95.4028 47.9408C96.3108 47.5435 97.4899 47.2994 99.0559 47.3567L99.4216 37.3633C96.6142 37.2606 93.9 37.6831 91.3947 38.7792L95.4028 47.9408ZM99.2388 47.36C100.148 47.36 100.786 47.4655 101.214 47.5927L104.064 38.0073C102.518 37.5478 100.889 37.36 99.2388 37.36V47.36ZM101.214 47.5927C101.81 47.7699 102.191 47.9639 102.425 48.1202L107.972 39.7997C106.767 38.9961 105.441 38.4168 104.064 38.0073L101.214 47.5927ZM102.495 48.1659C102.835 48.3846 103.011 48.5664 103.101 48.6815L110.976 42.5185C110.106 41.4069 109.056 40.4954 107.903 39.7541L102.495 48.1659ZM103.255 48.8681C103.512 49.1666 103.687 49.4367 103.807 49.6761L112.751 45.2039C112.231 44.1632 111.578 43.2068 110.823 42.3319L103.255 48.8681ZM103.823 49.7084C104.211 50.4699 104.493 51.4556 104.567 52.7612L114.551 52.1988C114.411 49.7178 113.84 47.3434 112.735 45.1716L103.823 49.7084ZM104.559 52.48C104.559 53.4275 104.467 54.1127 104.348 54.5873L114.049 57.0127C114.411 55.5673 114.559 54.0392 114.559 52.48H104.559ZM104.318 54.7153C104.178 55.3449 104.008 55.8009 103.847 56.1239L112.791 60.5961C113.376 59.4258 113.793 58.1751 114.08 56.8847L104.318 54.7153ZM98.9987 47.04C97.1047 47.04 95.4632 47.8244 94.2632 49.0245L101.334 56.0955C101.118 56.312 100.792 56.565 100.347 56.7578C99.8942 56.9539 99.4281 57.04 98.9987 57.04V47.04ZM94.1247 49.1686C92.9155 50.4786 92.1822 52.2986 92.4374 54.3402L102.36 53.0998C102.423 53.6047 102.381 54.1739 102.186 54.74C101.995 55.293 101.71 55.6941 101.473 55.9514L94.1247 49.1686ZM92.4213 54.194C92.5236 55.2686 92.9207 57.3166 94.7553 58.7843L101.002 50.9757C101.661 51.5026 102.008 52.1058 102.179 52.5182C102.341 52.9107 102.371 53.1901 102.376 53.246L92.4213 54.194ZM94.9379 58.9237C96.2791 59.8991 97.7558 60.2 98.9987 60.2V50.2C99.3351 50.2 100.065 50.2876 100.82 50.8363L94.9379 58.9237ZM98.9987 60.2C100.505 60.2 102.136 59.7233 103.482 58.4997L96.7554 51.1003C97.0972 50.7896 97.5021 50.5466 97.9371 50.3913C98.3616 50.2397 98.7334 50.2 98.9987 50.2V60.2ZM103.482 58.4997C104.972 57.1451 105.559 55.359 105.559 53.72H95.5588C95.5588 53.4059 95.6105 52.9534 95.8183 52.4435C96.0324 51.9181 96.3609 51.4589 96.7554 51.1003L103.482 58.4997ZM105.559 53.72C105.559 52.1611 105.043 50.7085 104.122 49.5114L96.1956 55.6086C96.0223 55.3832 95.8533 55.092 95.7319 54.74C95.61 54.3865 95.5588 54.0372 95.5588 53.72H105.559ZM104.122 49.5114C102.751 47.7294 100.779 47.04 98.9987 47.04V57.04C98.6828 57.04 98.1867 56.985 97.6235 56.7325C97.0373 56.4698 96.5497 56.0688 96.1956 55.6086L104.122 49.5114ZM138.116 53.8L143.113 53.6306L143.11 53.521L143.101 53.4116L138.116 53.8ZM137.676 58.08L142.484 59.4536L142.493 59.4204L142.502 59.3871L137.676 58.08ZM137.036 59.76L132.522 57.6103L132.499 57.659L132.477 57.7082L137.036 59.76ZM136.036 61.28L139.677 64.7068L139.726 64.655L139.773 64.6018L136.036 61.28ZM134.516 62.48L131.973 58.1754L131.928 58.2016L131.884 58.2287L134.516 62.48ZM132.476 63.2L132.891 68.1827L133.096 68.1657L133.298 68.132L132.476 63.2ZM131.996 63.24L131.581 58.2573L131.996 63.24ZM130.756 63.2L130.204 68.1694L130.218 68.171L130.233 68.1725L130.756 63.2ZM129.156 62.88L127.575 67.6234L127.707 67.6673L127.841 67.7038L129.156 62.88ZM127.556 62L124.336 65.8246L124.396 65.8755L124.458 65.9244L127.556 62ZM126.236 60.32L121.764 62.5561L121.798 62.6238L121.834 62.6905L126.236 60.32ZM125.636 57.68L130.63 57.4303L130.623 57.2998L130.61 57.1699L125.636 57.68ZM125.316 54.88L130.275 54.2401L130.255 54.0872L130.226 53.9358L125.316 54.88ZM124.876 52.96L120.038 54.2221L120.045 54.2489L120.052 54.2756L124.876 52.96ZM124.236 52.04V47.04H118.814L119.253 52.4441L124.236 52.04ZM124.356 54.6H119.356V54.6926L119.36 54.7851L124.356 54.6ZM124.356 56.44L119.363 56.1772L119.362 56.1951L119.361 56.213L124.356 56.44ZM124.276 57.96L129.231 58.6296L129.255 58.4514L129.267 58.2719L124.276 57.96ZM123.356 60.6L119.108 57.9632L119.088 57.9952L119.069 58.0275L123.356 60.6ZM121.556 62.44L118.689 58.3438L118.656 58.3668L118.624 58.3903L121.556 62.44ZM118.316 63.32V68.32H118.364L118.412 68.3191L118.316 63.32ZM116.516 63.08L117.953 58.2909L117.871 58.2663L117.789 58.2446L116.516 63.08ZM115.156 62.48L112.383 66.6403L115.156 62.48ZM114.076 61.6L110.259 64.8297L110.394 64.9885L110.541 65.1355L114.076 61.6ZM113.316 60.56L109.053 63.1728L109.058 63.1805L113.316 60.56ZM112.236 57.76L117.134 56.7553L117.108 56.6295L117.076 56.5052L112.236 57.76ZM111.796 55.28L116.764 54.7123L116.759 54.6657L116.752 54.6192L111.796 55.28ZM111.596 52.4L116.595 52.281L111.596 52.4ZM111.756 48.56L106.791 47.9689L106.784 48.0339L106.778 48.099L111.756 48.56ZM112.676 45.52L117.095 47.8594L117.122 47.8081L117.148 47.7561L112.676 45.52ZM113.396 44.4L109.465 41.3109H109.465L113.396 44.4ZM114.436 43.4L117.393 47.432L117.478 47.3699L117.56 47.3043L114.436 43.4ZM115.796 42.64L117.525 47.3317L117.589 47.3079L117.653 47.2824L115.796 42.64ZM117.596 42.24L117.256 37.2516L117.227 37.2536L117.198 37.2559L117.596 42.24ZM120.476 42.4L119.264 47.2507L119.283 47.2556L119.303 47.2604L120.476 42.4ZM122.356 43.16L119.583 47.3203L119.665 47.375L119.749 47.4264L122.356 43.16ZM123.436 44.16L119.23 46.8638L119.344 47.0413L119.473 47.2086L123.436 44.16ZM124.116 45.16L119.797 47.6793L122.243 51.8727L126.507 49.5513L124.116 45.16ZM130.676 43.32L130.474 48.3159L130.494 48.3167L130.515 48.3174L130.676 43.32ZM133.156 43.88L131.223 48.491L131.287 48.5178L131.351 48.5428L133.156 43.88ZM135.396 45.56L131.555 48.7609L131.613 48.8304L131.673 48.8977L135.396 45.56ZM137.156 48.72L141.861 47.0264L137.156 48.72ZM133.119 53.9694C133.159 55.1351 133.045 56.0539 132.85 56.7729L142.502 59.3871C143.001 57.5461 143.181 55.6115 143.113 53.6306L133.119 53.9694ZM132.869 56.7064C132.789 56.9834 132.677 57.2844 132.522 57.6103L141.551 61.9097C141.929 61.1156 142.243 60.2966 142.484 59.4536L132.869 56.7064ZM132.477 57.7082C132.464 57.7359 132.422 57.8204 132.299 57.9582L139.773 64.6018C140.504 63.7796 141.128 62.8508 141.596 61.8118L132.477 57.7082ZM132.395 57.8532C132.32 57.933 132.192 58.0457 131.973 58.1754L137.06 66.7846C138.014 66.2209 138.899 65.5337 139.677 64.7068L132.395 57.8532ZM131.884 58.2287C131.99 58.1636 131.957 58.2177 131.654 58.268L133.298 68.132C134.596 67.9157 135.923 67.4898 137.148 66.7313L131.884 58.2287ZM132.476 63.2C132.061 58.2173 132.061 58.2173 132.061 58.2173C132.061 58.2173 132.061 58.2173 132.061 58.2173H132.061C132.061 58.2173 132.061 58.2173 132.061 58.2173C132.061 58.2173 132.061 58.2173 132.061 58.2173C132.061 58.2173 132.061 58.2173 132.061 58.2173C132.058 58.2175 132.063 58.2171 132.061 58.2173C132.061 58.2173 132.061 58.2173 132.061 58.2173C132.061 58.2173 132.061 58.2173 132.061 58.2173C132.061 58.2173 132.061 58.2173 132.061 58.2173C132.061 58.2173 132.061 58.2173 132.061 58.2173C132.057 58.2176 132.064 58.217 132.06 58.2173C132.058 58.2175 132.062 58.2172 132.06 58.2173C132.054 58.2179 132.066 58.2168 132.06 58.2174C132.048 58.2183 132.071 58.2164 132.06 58.2174C132.056 58.2176 132.062 58.2172 132.059 58.2174C132.046 58.2185 132.072 58.2164 132.059 58.2175C132.05 58.2182 132.066 58.2168 132.058 58.2175C132.033 58.2196 132.082 58.2155 132.057 58.2176C132.035 58.2194 132.078 58.2159 132.056 58.2177C132.05 58.2182 132.061 58.2173 132.055 58.2178C132.043 58.2188 132.066 58.2169 132.054 58.2179C132.047 58.2185 132.06 58.2174 132.053 58.2179C132.053 58.2179 132.053 58.2179 132.053 58.218C132.053 58.218 132.053 58.218 132.053 58.218C132.042 58.2189 132.063 58.2171 132.052 58.218C132.052 58.218 132.052 58.218 132.052 58.218C132.052 58.218 132.052 58.2181 132.052 58.2181C132.028 58.22 132.074 58.2162 132.05 58.2182C132.05 58.2182 132.05 58.2182 132.05 58.2182C132.05 58.2182 132.05 58.2182 132.05 58.2182C132.05 58.2182 132.05 58.2182 132.05 58.2182C132.049 58.2182 132.049 58.2182 132.049 58.2182C131.983 58.2238 132.115 58.2128 132.048 58.2183C132.011 58.2214 132.084 58.2154 132.047 58.2185C132.042 58.2188 132.051 58.2181 132.046 58.2185C132.046 58.2185 132.046 58.2185 132.046 58.2185C132.046 58.2185 132.046 58.2186 132.046 58.2186C132.026 58.2202 132.063 58.2171 132.044 58.2187C132.044 58.2187 132.044 58.2187 132.044 58.2187C132.044 58.2187 132.044 58.2187 132.043 58.2187C132.033 58.2196 132.053 58.2179 132.043 58.2188C132.017 58.221 132.068 58.2167 132.042 58.2189C132.026 58.2202 132.057 58.2176 132.041 58.2189C131.996 58.2227 132.083 58.2154 132.038 58.2192C132.015 58.2211 132.058 58.2175 132.035 58.2195C131.928 58.2283 132.138 58.2109 132.031 58.2198C132.031 58.2198 131.999 58.2225 131.994 58.2229C131.808 58.2384 132.156 58.2093 131.969 58.2249C131.77 58.2415 132.141 58.2106 131.941 58.2273C131.834 58.2362 132.045 58.2186 131.937 58.2276C131.829 58.2366 132.042 58.2189 131.933 58.2279C131.594 58.2562 132.265 58.2002 131.926 58.2286C131.696 58.2477 132.147 58.2101 131.917 58.2292C131.626 58.2535 132.201 58.2056 131.909 58.2299C131.529 58.2616 132.272 58.1996 131.892 58.2314C131.762 58.2422 132.003 58.2221 131.874 58.2329C131.807 58.2385 131.938 58.2275 131.871 58.2331C131.804 58.2387 131.936 58.2277 131.869 58.2333C131.767 58.2418 131.968 58.225 131.866 58.2335C131.866 58.2335 131.866 58.2336 131.865 58.2336C131.865 58.2336 131.864 58.2337 131.864 58.2337C131.659 58.2508 132.06 58.2174 131.854 58.2345C131.783 58.2405 131.916 58.2293 131.844 58.2353C131.554 58.2595 132.124 58.212 131.834 58.2362C131.687 58.2485 131.977 58.2243 131.829 58.2366C131.829 58.2366 131.828 58.2367 131.828 58.2367C131.827 58.2368 131.827 58.2368 131.826 58.2368C131.826 58.2369 131.825 58.2369 131.825 58.2369C131.825 58.237 131.824 58.237 131.824 58.237C131.823 58.2371 131.823 58.2371 131.822 58.2372C131.822 58.2372 131.822 58.2372 131.821 58.2373C131.821 58.2373 131.82 58.2373 131.82 58.2374C131.819 58.2374 131.819 58.2374 131.818 58.2375C131.666 58.2502 131.965 58.2252 131.813 58.2379C131.736 58.2444 131.88 58.2324 131.802 58.2388C131.684 58.2487 131.915 58.2295 131.797 58.2393C131.717 58.2459 131.87 58.2332 131.791 58.2398C131.791 58.2398 131.79 58.2398 131.79 58.2399C131.789 58.2399 131.789 58.24 131.788 58.24C131.788 58.24 131.787 58.2401 131.787 58.2401C131.786 58.2402 131.786 58.2402 131.785 58.2402C131.623 58.2538 131.942 58.2272 131.78 58.2407C131.698 58.2475 131.856 58.2344 131.774 58.2412C131.732 58.2447 131.812 58.238 131.771 58.2414C131.688 58.2484 131.851 58.2348 131.768 58.2417C131.726 58.2452 131.804 58.2387 131.762 58.2422C131.594 58.2562 131.925 58.2286 131.756 58.2427C131.583 58.2571 131.917 58.2292 131.744 58.2437C131.395 58.2728 132.081 58.2156 131.732 58.2447C131.687 58.2484 131.77 58.2415 131.726 58.2452C131.413 58.2712 132.032 58.2197 131.719 58.2457C131.651 58.2514 131.784 58.2404 131.716 58.246C131.693 58.2479 131.736 58.2444 131.713 58.2463C131.69 58.2482 131.732 58.2447 131.71 58.2465C131.641 58.2523 131.775 58.2411 131.707 58.2468C131.429 58.2699 131.971 58.2248 131.694 58.2479C131.693 58.2479 131.692 58.248 131.692 58.248C131.691 58.2481 131.691 58.2481 131.69 58.2482C131.69 58.2482 131.689 58.2483 131.689 58.2483C131.688 58.2484 131.687 58.2484 131.687 58.2484C131.405 58.272 131.963 58.2255 131.68 58.249C131.632 58.253 131.722 58.2456 131.674 58.2496C131.673 58.2496 131.672 58.2497 131.672 58.2497C131.671 58.2497 131.671 58.2498 131.67 58.2498C131.67 58.2499 131.669 58.2499 131.669 58.25C131.668 58.25 131.667 58.2501 131.667 58.2501C131.277 58.2826 132.042 58.2188 131.653 58.2513C131.456 58.2677 131.844 58.2354 131.646 58.2518C131.646 58.2519 131.645 58.2519 131.644 58.252C131.644 58.252 131.643 58.2521 131.643 58.2521C131.642 58.2522 131.641 58.2522 131.641 58.2523C131.64 58.2523 131.64 58.2524 131.639 58.2524C131.589 58.2566 131.682 58.2488 131.632 58.253C131.277 58.2826 131.98 58.224 131.625 58.2536C131.523 58.2621 131.723 58.2454 131.621 58.2539C131.621 58.254 131.62 58.254 131.62 58.2541C131.619 58.2541 131.618 58.2542 131.618 58.2542C131.514 58.2628 131.714 58.2462 131.611 58.2548C131.401 58.2723 131.791 58.2398 131.581 58.2573L132.411 68.2227C132.677 68.2006 132.154 68.2442 132.419 68.2221C132.631 68.2045 132.215 68.2391 132.426 68.2215C132.426 68.2215 132.434 68.2209 132.434 68.2209C132.512 68.2144 132.359 68.2271 132.437 68.2206C132.438 68.2205 132.439 68.2205 132.439 68.2204C132.44 68.2204 132.44 68.2203 132.441 68.2203C132.646 68.2032 132.25 68.2362 132.455 68.2191C132.456 68.219 132.457 68.219 132.457 68.2189C132.458 68.2189 132.458 68.2188 132.459 68.2188C132.46 68.2187 132.46 68.2187 132.461 68.2186C132.461 68.2186 132.462 68.2185 132.463 68.2185C132.463 68.2184 132.464 68.2184 132.464 68.2183C132.465 68.2183 132.465 68.2182 132.466 68.2182C132.642 68.2035 132.294 68.2325 132.47 68.2179C132.864 68.185 132.09 68.2496 132.484 68.2167C132.533 68.2126 132.438 68.2205 132.487 68.2164C132.511 68.2144 132.466 68.2182 132.49 68.2161C132.636 68.204 132.348 68.228 132.494 68.2159C132.615 68.2058 132.376 68.2257 132.497 68.2156C132.738 68.1955 132.263 68.2351 132.504 68.215C132.695 68.1991 132.316 68.2307 132.507 68.2147C132.555 68.2108 132.463 68.2184 132.511 68.2145C132.558 68.2105 132.467 68.2181 132.514 68.2142C132.515 68.2141 132.515 68.2141 132.516 68.214C132.516 68.214 132.517 68.2139 132.517 68.2139C132.752 68.1944 132.29 68.2329 132.524 68.2134C132.617 68.2056 132.437 68.2206 132.531 68.2128C132.668 68.2014 132.4 68.2237 132.537 68.2123C132.674 68.2009 132.407 68.2231 132.543 68.2117C132.544 68.2117 132.544 68.2116 132.545 68.2116C132.546 68.2116 132.546 68.2115 132.547 68.2115C132.547 68.2114 132.548 68.2114 132.548 68.2113C132.549 68.2113 132.549 68.2113 132.55 68.2112C132.55 68.2112 132.551 68.2111 132.551 68.2111C132.552 68.211 132.552 68.211 132.553 68.2109C132.598 68.2072 132.511 68.2144 132.556 68.2107C132.601 68.207 132.515 68.2141 132.559 68.2104C132.56 68.2104 132.56 68.2103 132.561 68.2103C132.561 68.2102 132.562 68.2102 132.562 68.2102C132.783 68.1918 132.348 68.228 132.568 68.2096C132.656 68.2024 132.484 68.2166 132.572 68.2094C132.68 68.2003 132.466 68.2182 132.575 68.2091C132.914 68.1808 132.259 68.2354 132.599 68.2071C132.849 68.1863 132.354 68.2275 132.604 68.2067C132.605 68.2066 132.605 68.2066 132.606 68.2065C132.606 68.2065 132.607 68.2065 132.607 68.2064C132.608 68.2064 132.608 68.2063 132.609 68.2063C132.609 68.2063 132.61 68.2062 132.61 68.2062C132.692 68.1994 132.54 68.212 132.621 68.2052C132.929 68.1796 132.336 68.229 132.644 68.2034C132.945 68.1783 132.364 68.2267 132.665 68.2016C132.774 68.1925 132.558 68.2106 132.667 68.2014C132.685 68.1999 132.652 68.2027 132.67 68.2012C132.67 68.2012 132.672 68.201 132.672 68.201C132.673 68.201 132.673 68.2009 132.674 68.2009C132.674 68.2009 132.674 68.2008 132.675 68.2008C132.693 68.1993 132.659 68.2021 132.677 68.2006C132.73 68.1961 132.627 68.2048 132.68 68.2004C132.68 68.2003 132.681 68.2003 132.681 68.2003C132.681 68.2002 132.682 68.2002 132.682 68.2002C132.683 68.2001 132.683 68.2001 132.684 68.2001C132.684 68.2 132.684 68.2 132.685 68.2C132.685 68.2 132.69 68.1995 132.69 68.1995C132.793 68.191 132.591 68.2077 132.694 68.1991C132.797 68.1906 132.597 68.2073 132.699 68.1987C132.866 68.1849 132.537 68.2122 132.704 68.1984C132.904 68.1817 132.513 68.2142 132.713 68.1976C132.84 68.187 132.596 68.2074 132.722 68.1968C133.035 68.1708 132.419 68.2221 132.731 68.1961C132.731 68.1961 132.732 68.196 132.732 68.196C132.732 68.196 132.733 68.1959 132.733 68.1959C132.764 68.1934 132.705 68.1983 132.735 68.1957C132.736 68.1957 132.736 68.1957 132.736 68.1957C132.737 68.1956 132.737 68.1956 132.737 68.1956C132.813 68.1893 132.664 68.2017 132.74 68.1954C132.769 68.1929 132.712 68.1977 132.742 68.1952C132.742 68.1952 132.742 68.1952 132.743 68.1951C132.743 68.1951 132.743 68.1951 132.744 68.195C132.744 68.195 132.744 68.195 132.745 68.195C132.745 68.1949 132.746 68.1949 132.746 68.1949C132.746 68.1948 132.747 68.1948 132.747 68.1948C132.747 68.1947 132.748 68.1947 132.748 68.1947C132.748 68.1947 132.749 68.1946 132.749 68.1946C132.749 68.1946 132.75 68.1945 132.75 68.1945C132.851 68.1861 132.651 68.2028 132.752 68.1944C132.795 68.1908 132.711 68.1978 132.754 68.1942C132.825 68.1883 132.685 68.1999 132.756 68.194C132.975 68.1757 132.552 68.211 132.771 68.1927C133.092 68.166 132.466 68.2182 132.786 68.1915C132.883 68.1835 132.696 68.199 132.793 68.1909C132.817 68.1889 132.771 68.1928 132.795 68.1908C132.843 68.1868 132.748 68.1947 132.796 68.1907C132.843 68.1868 132.753 68.1943 132.8 68.1904C132.823 68.1884 132.778 68.1922 132.801 68.1903C132.801 68.1902 132.803 68.1901 132.803 68.1901C132.826 68.1882 132.782 68.1919 132.804 68.19C132.805 68.19 132.805 68.1899 132.805 68.1899C132.806 68.1899 132.806 68.1899 132.806 68.1898C132.806 68.1898 132.807 68.1898 132.807 68.1898C132.807 68.1898 132.807 68.1897 132.808 68.1897C132.83 68.1879 132.787 68.1914 132.809 68.1896C132.842 68.1868 132.778 68.1922 132.811 68.1895C132.811 68.1895 132.812 68.1893 132.812 68.1893C132.897 68.1822 132.733 68.1959 132.818 68.1888C132.902 68.1819 132.736 68.1957 132.82 68.1887C132.82 68.1887 132.82 68.1887 132.82 68.1887C132.821 68.1886 132.821 68.1886 132.821 68.1886C132.821 68.1886 132.822 68.1885 132.822 68.1885C132.822 68.1885 132.822 68.1885 132.823 68.1885C132.863 68.1851 132.784 68.1917 132.824 68.1884C132.971 68.1761 132.688 68.1997 132.835 68.1875C132.835 68.1874 132.835 68.1874 132.835 68.1874C132.836 68.1874 132.836 68.1874 132.836 68.1873C132.836 68.1873 132.836 68.1873 132.837 68.1873C132.837 68.1873 132.837 68.1873 132.837 68.1872C132.838 68.1872 132.838 68.1872 132.838 68.1872C132.838 68.1872 132.838 68.1872 132.839 68.1871C132.874 68.1842 132.804 68.19 132.84 68.187C132.874 68.1842 132.808 68.1897 132.842 68.1868C132.842 68.1868 132.843 68.1868 132.843 68.1868C132.843 68.1868 132.843 68.1867 132.843 68.1867C132.844 68.1867 132.844 68.1867 132.844 68.1867C132.844 68.1867 132.844 68.1867 132.845 68.1866C133.082 68.1669 132.625 68.2049 132.861 68.1852C133.007 68.1731 132.743 68.1951 132.884 68.1834C132.991 68.1744 132.783 68.1917 132.89 68.1829C132.908 68.1814 132.873 68.1842 132.891 68.1828C132.893 68.1826 132.889 68.1829 132.891 68.1827C132.893 68.1826 132.89 68.1828 132.891 68.1827C132.891 68.1827 132.891 68.1827 132.891 68.1827C132.891 68.1827 132.891 68.1827 132.891 68.1827C132.892 68.1827 132.891 68.1828 132.891 68.1827C132.891 68.1827 132.891 68.1827 132.891 68.1827C132.891 68.1827 132.891 68.1827 132.476 63.2ZM131.581 58.2573C131.658 58.2509 131.673 58.2547 131.607 58.2526C131.546 58.2506 131.439 58.2442 131.28 58.2275L130.233 68.1725C130.893 68.242 131.652 68.286 132.411 68.2227L131.581 58.2573ZM131.308 58.2306C131.142 58.2121 130.869 58.1645 130.472 58.0562L127.841 67.7038C128.617 67.9155 129.41 68.0812 130.204 68.1694L131.308 58.2306ZM130.737 58.1366C130.753 58.1417 130.756 58.1446 130.746 58.1389C130.735 58.133 130.704 58.1149 130.654 58.0756L124.458 65.9244C125.377 66.6497 126.417 67.2373 127.575 67.6234L130.737 58.1366ZM130.777 58.1754C130.834 58.2235 130.768 58.1906 130.639 57.9495L121.834 62.6905C122.451 63.8361 123.265 64.9232 124.336 65.8246L130.777 58.1754ZM130.708 58.0839C130.741 58.1486 130.727 58.1433 130.702 58.0319C130.676 57.9198 130.645 57.7255 130.63 57.4303L120.642 57.9297C120.718 59.4427 121.015 61.0569 121.764 62.5561L130.708 58.0839ZM130.61 57.1699C130.5 56.0969 130.389 55.1192 130.275 54.2401L120.357 55.5199C120.457 56.2942 120.559 57.1831 120.662 58.1901L130.61 57.1699ZM130.226 53.9358C130.073 53.1369 129.898 52.3713 129.7 51.6444L120.052 54.2756C120.174 54.722 120.293 55.2364 120.406 55.8242L130.226 53.9358ZM129.714 51.6979C129.574 51.1613 129.299 50.2743 128.701 49.4147C128.064 48.4992 126.606 47.04 124.236 47.04V57.04C122.134 57.04 120.915 55.7342 120.492 55.1253C120.277 54.8169 120.163 54.5614 120.113 54.4376C120.059 54.3051 120.039 54.2246 120.038 54.2221L129.714 51.6979ZM119.253 52.4441C119.325 53.3422 119.356 54.0541 119.356 54.6H129.356C129.356 53.7059 129.307 52.7112 129.22 51.6359L119.253 52.4441ZM119.36 54.7851C119.383 55.4122 119.379 55.8671 119.363 56.1772L129.349 56.7028C129.386 55.9996 129.383 55.2278 129.353 54.4149L119.36 54.7851ZM119.361 56.213C119.336 56.7809 119.31 57.2579 119.286 57.6481L129.267 58.2719C129.295 57.8088 129.324 57.2724 129.351 56.667L119.361 56.213ZM119.321 57.2904C119.273 57.6451 119.183 57.8427 119.108 57.9632L127.604 63.2368C128.49 61.8106 129.012 60.2483 129.231 58.6296L119.321 57.2904ZM119.069 58.0275C119.11 57.959 119.056 58.0866 118.689 58.3438L124.424 66.5362C125.656 65.6734 126.803 64.5743 127.644 63.1725L119.069 58.0275ZM118.624 58.3903C118.803 58.2606 118.911 58.2398 118.856 58.2548C118.793 58.2719 118.596 58.3137 118.22 58.3209L118.412 68.3191C120.379 68.2813 122.592 67.863 124.489 66.4897L118.624 58.3903ZM118.316 58.32C118.043 58.32 117.939 58.2867 117.953 58.2909L115.08 67.8691C116.16 68.1933 117.256 68.32 118.316 68.32V58.32ZM117.789 58.2446C117.776 58.2413 117.786 58.2431 117.814 58.2554C117.843 58.268 117.883 58.2887 117.93 58.3197L112.383 66.6403C113.282 67.2396 114.251 67.6541 115.244 67.9154L117.789 58.2446ZM117.93 58.3197C117.787 58.2244 117.685 58.1377 117.612 58.0645L110.541 65.1355C111.107 65.7023 111.726 66.2022 112.383 66.6403L117.93 58.3197ZM117.893 58.3703C117.744 58.1937 117.642 58.0495 117.575 57.9395L109.058 63.1805C109.417 63.7639 109.822 64.313 110.259 64.8297L117.893 58.3703ZM117.579 57.9472C117.404 57.6605 117.242 57.2804 117.134 56.7553L107.338 58.7647C107.657 60.3196 108.216 61.8062 109.053 63.1728L117.579 57.9472ZM117.076 56.5052C116.961 56.0606 116.851 55.4711 116.764 54.7123L106.829 55.8477C106.955 56.9556 107.138 58.0194 107.396 59.0148L117.076 56.5052ZM116.752 54.6192C116.677 54.0527 116.619 53.2836 116.595 52.281L106.598 52.519C106.627 53.7564 106.702 54.9073 106.84 55.9408L116.752 54.6192ZM116.595 52.281C116.574 51.4007 116.615 50.3204 116.735 49.021L106.778 48.099C106.631 49.6796 106.565 51.1593 106.598 52.519L116.595 52.281ZM116.721 49.1511C116.789 48.5817 116.931 48.1703 117.095 47.8594L108.257 43.1806C107.462 44.6831 106.99 46.2983 106.791 47.9689L116.721 49.1511ZM117.148 47.7561C117.165 47.7225 117.215 47.6326 117.328 47.4891L109.465 41.3109C108.991 41.9141 108.561 42.5709 108.204 43.2839L117.148 47.7561ZM117.328 47.4891C117.328 47.4886 117.343 47.4688 117.393 47.432L111.479 39.368C110.73 39.9178 110.051 40.5648 109.465 41.3109L117.328 47.4891ZM117.56 47.3043C117.542 47.3187 117.526 47.3289 117.515 47.3347C117.505 47.3404 117.507 47.3383 117.525 47.3317L114.068 37.9483C113.084 38.3106 112.155 38.8221 111.313 39.4957L117.56 47.3043ZM117.653 47.2824C117.651 47.2832 117.749 47.2438 117.995 47.2241L117.198 37.2559C116.111 37.3429 115.008 37.5701 113.939 37.9976L117.653 47.2824ZM117.936 47.2284C118.361 47.1995 118.684 47.1992 118.919 47.2123C119.035 47.2187 119.12 47.2279 119.18 47.2363C119.24 47.2447 119.266 47.2513 119.264 47.2507L121.689 37.5493C120.242 37.1875 118.706 37.1527 117.256 37.2516L117.936 47.2284ZM119.303 47.2604C119.491 47.3059 119.602 47.3454 119.652 47.3655C119.703 47.3859 119.669 47.3777 119.583 47.3203L125.13 38.9997C124.015 38.2566 122.792 37.8155 121.649 37.5396L119.303 47.2604ZM119.749 47.4264C119.747 47.4251 119.684 47.3869 119.589 47.2988C119.492 47.2089 119.361 47.0666 119.23 46.8638L127.642 41.4562C126.9 40.3016 125.92 39.4783 124.964 38.8936L119.749 47.4264ZM119.473 47.2086C119.633 47.4157 119.735 47.5724 119.797 47.6793L128.435 42.6406C128.124 42.1076 127.773 41.5976 127.399 41.1114L119.473 47.2086ZM126.507 49.5513C128.405 48.5182 129.686 48.284 130.474 48.3159L130.879 38.3241C127.72 38.196 124.628 39.1885 121.725 40.7687L126.507 49.5513ZM130.515 48.3174C130.683 48.3228 130.911 48.3603 131.223 48.491L135.09 39.269C133.748 38.7064 132.323 38.3705 130.837 38.3226L130.515 48.3174ZM131.351 48.5428C131.316 48.5291 131.31 48.5201 131.336 48.54C131.366 48.5622 131.442 48.6252 131.555 48.7609L139.237 42.3591C138.123 41.0213 136.708 39.8933 134.961 39.2172L131.351 48.5428ZM131.673 48.8977C131.811 49.0511 132.116 49.4796 132.452 50.4136L141.861 47.0264C141.237 45.2938 140.368 43.6156 139.119 42.2223L131.673 48.8977ZM132.452 50.4136C132.729 51.1834 132.992 52.3984 133.131 54.1884L143.101 53.4116C142.921 51.0949 142.544 48.9232 141.861 47.0264L132.452 50.4136ZM150.709 38.2L146.037 36.42L145.999 36.5187L145.966 36.6189L150.709 38.2ZM149.829 39.72L146.08 36.4119L146.073 36.4197L146.066 36.4275L149.829 39.72ZM148.429 40.8L150.579 45.3143L150.665 45.2734L150.749 45.2292L148.429 40.8ZM146.589 41.32L147.162 46.287L147.173 46.2857L147.185 46.2844L146.589 41.32ZM144.629 41.2L143.113 45.9646L143.239 46.0047L143.367 46.0381L144.629 41.2ZM143.029 40.4L140.102 44.4534L140.102 44.4534L143.029 40.4ZM141.829 39.16L137.502 41.6652L137.581 41.802L137.669 41.9335L141.829 39.16ZM141.269 37.48L136.29 37.9327L136.298 38.0299L136.311 38.1267L141.269 37.48ZM141.469 35.8L136.797 34.02L136.772 34.0838L136.75 34.1482L141.469 35.8ZM142.389 34.32L146.037 37.7397L146.088 37.6847L146.138 37.6281L142.389 34.32ZM143.829 33.2L141.509 28.7708L141.509 28.7708L143.829 33.2ZM145.669 32.64L145.073 27.6756L145.073 27.6756L145.669 32.64ZM147.549 32.8L146.033 37.5646L146.159 37.6047L146.287 37.6381L147.549 32.8ZM149.189 33.56L152.117 29.5066L152.117 29.5066L149.189 33.56ZM152.669 58.96L157.592 59.8352L157.596 59.8142L157.599 59.7933L152.669 58.96ZM151.429 61.72L154.965 65.2555L155.002 65.2179L155.039 65.1795L151.429 61.72ZM149.549 63.08L151.461 67.7001L151.547 67.6643L151.632 67.6253L149.549 63.08ZM147.069 63.6L146.918 58.6023L146.877 58.6035L146.837 58.6054L147.069 63.6ZM144.269 63.12L146.571 58.6812L146.505 58.6471L146.438 58.615L144.269 63.12ZM142.549 61.92L146.19 58.4932L146.184 58.4872L146.179 58.4813L142.549 61.92ZM141.389 60.12L136.7 61.8566L136.74 61.9633L136.784 62.0682L141.389 60.12ZM140.429 55.68L135.436 55.9383L135.438 55.9842L135.441 56.03L140.429 55.68ZM140.509 51.44L145.482 51.958L145.486 51.9254L145.489 51.8927L140.509 51.44ZM141.229 47.12L136.391 45.8579L136.382 45.8933L136.373 45.9289L141.229 47.12ZM142.629 44.36L139.094 40.8245V40.8245L142.629 44.36ZM144.509 42.96L142.478 38.3909L142.415 38.4193L142.352 38.4493L144.509 42.96ZM146.789 42.44L146.956 47.4372L146.981 47.4364L147.006 47.4353L146.789 42.44ZM149.749 43.08L147.045 47.2859L147.132 47.3415L147.22 47.3935L149.749 43.08ZM151.589 44.68L155.626 41.7299L155.618 41.719L155.61 41.708L151.589 44.68ZM152.709 47.16L157.6 46.1225L157.582 46.0345L157.56 45.9473L152.709 47.16ZM153.149 50.24L158.134 49.8465L158.131 49.8169L158.129 49.7873L153.149 50.24ZM153.189 53.96L148.192 53.7783L148.191 53.8229L148.19 53.8674L153.189 53.96ZM145.97 36.9327C145.962 36.8517 145.963 36.7579 145.977 36.659C145.991 36.5604 146.014 36.479 146.037 36.42L155.382 39.98C155.861 38.7215 156.052 37.3853 155.929 36.0273L145.97 36.9327ZM145.966 36.6189C145.979 36.5802 145.997 36.537 146.022 36.4948C146.046 36.4529 146.068 36.425 146.08 36.4119L153.578 43.0281C154.411 42.0841 155.048 40.9933 155.452 39.7811L145.966 36.6189ZM146.066 36.4275C146.102 36.3867 146.131 36.3618 146.145 36.3511C146.158 36.341 146.15 36.3496 146.109 36.3708L150.749 45.2292C151.793 44.6821 152.768 43.9544 153.592 43.0125L146.066 36.4275ZM146.279 36.2857C146.248 36.3005 146.165 36.335 145.993 36.3556L147.185 46.2844C148.346 46.145 149.49 45.8329 150.579 45.3143L146.279 36.2857ZM146.016 36.353C145.942 36.3615 145.9 36.3603 145.885 36.3593C145.87 36.3585 145.875 36.3576 145.891 36.3619L143.367 46.0381C144.636 46.3693 145.917 46.4308 147.162 46.287L146.016 36.353ZM146.145 36.4354C146.043 36.403 145.99 36.3706 145.957 36.3466L140.102 44.4534C141.028 45.1227 142.041 45.6237 143.113 45.9646L146.145 36.4354ZM145.957 36.3466C145.948 36.3404 145.952 36.3422 145.962 36.3529C145.973 36.3638 145.982 36.3761 145.989 36.3865L137.669 41.9335C138.329 42.9235 139.151 43.7665 140.102 44.4534L145.957 36.3466ZM146.156 36.6548C146.181 36.697 146.2 36.7402 146.212 36.7789C146.225 36.8169 146.228 36.8375 146.227 36.8333L136.311 38.1267C136.472 39.3575 136.859 40.5549 137.502 41.6652L146.156 36.6548ZM146.249 37.0273C146.252 37.066 146.254 37.1295 146.244 37.2111C146.234 37.2932 146.215 37.3755 146.188 37.4518L136.75 34.1482C136.317 35.3852 136.174 36.665 136.29 37.9327L146.249 37.0273ZM146.142 37.58C146.138 37.5901 146.127 37.6156 146.105 37.6497C146.084 37.684 146.06 37.715 146.037 37.7397L138.741 30.9003C137.885 31.8135 137.236 32.8673 136.797 34.02L146.142 37.58ZM146.138 37.6281C146.135 37.6317 146.131 37.6355 146.127 37.6392C146.123 37.643 146.12 37.6455 146.119 37.6468C146.117 37.648 146.118 37.6471 146.122 37.6444C146.127 37.6416 146.135 37.6364 146.149 37.6292L141.509 28.7708C140.433 29.3344 139.462 30.08 138.64 31.0119L146.138 37.6281ZM146.149 37.6292C146.15 37.6289 146.15 37.6284 146.152 37.6277C146.154 37.627 146.158 37.6255 146.165 37.6234C146.178 37.6194 146.209 37.6111 146.265 37.6044L145.073 27.6756C143.842 27.8234 142.639 28.1788 141.509 28.7708L146.149 37.6292ZM146.265 37.6044C146.282 37.6023 146.263 37.6061 146.215 37.602C146.165 37.5978 146.102 37.5866 146.033 37.5646L149.065 28.0354C147.737 27.6128 146.385 27.5182 145.073 27.6756L146.265 37.6044ZM146.287 37.6381C146.32 37.6467 146.328 37.6516 146.317 37.6466C146.312 37.6442 146.304 37.6403 146.294 37.6344C146.284 37.6284 146.273 37.6214 146.262 37.6134L152.117 29.5066C151.1 28.7726 149.981 28.267 148.811 27.9619L146.287 37.6381ZM146.262 37.6134C146.245 37.6014 146.223 37.5831 146.201 37.5597C146.18 37.5364 146.167 37.5177 146.162 37.51L154.617 32.17C153.96 31.1301 153.121 30.2318 152.117 29.5066L146.262 37.6134ZM146.162 37.51C146.121 37.4452 146.075 37.3559 146.037 37.2457C146 37.1352 145.978 37.0276 145.97 36.9327L155.929 36.0273C155.802 34.6384 155.352 33.3339 154.617 32.17L146.162 37.51ZM147.746 58.0848C147.697 58.361 147.646 58.4841 147.638 58.5009C147.634 58.5108 147.68 58.4054 147.819 58.2605L155.039 65.1795C156.548 63.6054 157.269 61.6539 157.592 59.8352L147.746 58.0848ZM147.894 58.1845C147.606 58.4717 147.456 58.5389 147.466 58.5347L151.632 67.6253C152.922 67.0344 154.025 66.195 154.965 65.2555L147.894 58.1845ZM147.637 58.4599C147.452 58.5367 147.225 58.593 146.918 58.6023L147.221 68.5977C148.674 68.5537 150.1 68.2633 151.461 67.7001L147.637 58.4599ZM146.837 58.6054C146.551 58.6187 146.399 58.5997 146.354 58.5919C146.312 58.5847 146.404 58.5948 146.571 58.6812L141.967 67.5588C143.727 68.4711 145.621 68.6727 147.301 68.5946L146.837 58.6054ZM146.438 58.615C146.286 58.5416 146.199 58.4864 146.16 58.4594C146.122 58.4328 146.141 58.4405 146.19 58.4932L138.908 65.3468C139.856 66.3535 140.977 67.0843 142.1 67.625L146.438 58.615ZM146.179 58.4813C146.142 58.4421 146.072 58.3575 145.994 58.1718L136.784 62.0682C137.292 63.2692 137.996 64.3845 138.919 65.3587L146.179 58.4813ZM146.078 58.3834C145.708 57.3855 145.49 56.3722 145.417 55.33L135.441 56.03C135.582 58.0278 136.003 59.9745 136.7 61.8566L146.078 58.3834ZM145.422 55.4217C145.353 54.0837 145.38 52.9346 145.482 51.958L135.536 50.922C135.371 52.5054 135.345 54.1829 135.436 55.9383L145.422 55.4217ZM145.489 51.8927C145.6 50.6719 145.799 49.4788 146.085 48.3111L136.373 45.9289C135.966 47.5878 135.685 49.2748 135.53 50.9873L145.489 51.8927ZM146.067 48.3821C146.157 48.0393 146.238 47.8505 146.278 47.7719C146.317 47.696 146.294 47.7661 146.165 47.8955L139.094 40.8245C137.627 42.2914 136.838 44.1428 136.391 45.8579L146.067 48.3821ZM146.165 47.8955C146.528 47.5317 146.702 47.4535 146.666 47.4707L142.352 38.4493C141.089 39.0532 140.01 39.9083 139.094 40.8245L146.165 47.8955ZM146.54 47.5291C146.662 47.4746 146.788 47.4428 146.956 47.4372L146.622 37.4428C145.19 37.4905 143.796 37.8054 142.478 38.3909L146.54 47.5291ZM147.006 47.4353C147.14 47.4294 147.238 47.4323 147.304 47.437C147.369 47.4417 147.396 47.4479 147.392 47.4471C147.388 47.4461 147.35 47.4375 147.287 47.4124C147.223 47.3869 147.14 47.3466 147.045 47.2859L152.453 38.8741C150.562 37.6583 148.445 37.3633 146.572 37.4447L147.006 47.4353ZM147.22 47.3935C147.512 47.5642 147.581 47.6687 147.568 47.652L155.61 41.708C154.691 40.4646 153.533 39.5025 152.278 38.7665L147.22 47.3935ZM147.552 47.6301C147.624 47.729 147.751 47.9445 147.858 48.3727L157.56 45.9473C157.187 44.4555 156.567 43.0176 155.626 41.7299L147.552 47.6301ZM147.818 48.1975C147.953 48.8361 148.076 49.6595 148.17 50.6927L158.129 49.7873C158.009 48.4738 157.838 47.2439 157.6 46.1225L147.818 48.1975ZM148.165 50.6335C148.224 51.3922 148.241 52.4273 148.192 53.7783L158.186 54.1417C158.243 52.5594 158.234 51.1145 158.134 49.8465L148.165 50.6335ZM148.19 53.8674C148.169 54.993 148.03 56.403 147.739 58.1267L157.599 59.7933C157.948 57.7303 158.156 55.807 158.188 54.0526L148.19 53.8674Z" fill="#5C5554" mask="url(#path-3-outside-1_12_102)"/>
<defs>
<filter id="filter0_d_12_102" x="0" y="0" width="239" height="111" filterUnits="userSpaceOnUse" color-interpolation-filters="sRGB">
<feFlood flood-opacity="0" result="BackgroundImageFix"/>
<feColorMatrix in="SourceAlpha" type="matrix" values="0 0 0 0 0 0 0 0 0 0 0 0 0 0 0 0 0 0 127 0" result="hardAlpha"/>
<feOffset dx="12" dy="12"/>
<feComposite in2="hardAlpha" operator="out"/>
<feColorMatrix type="matrix" values="0 0 0 0 0.360563 0 0 0 0 0.334621 0 0 0 0 0.330393 0 0 0 1 0"/>
<feBlend mode="normal" in2="BackgroundImageFix" result="effect1_dropShadow_12_102"/>
<feBlend mode="normal" in="SourceGraphic" in2="effect1_dropShadow_12_102" result="shape"/>
</filter>
</defs>
</svg>
