<svg width="111" height="111" viewBox="0 0 111 111" fill="none" xmlns="http://www.w3.org/2000/svg">
<g filter="url(#filter0_d_12_118)">
<rect x="8" y="8" width="83" height="83" rx="41.5" fill="#E25B45"/>
<rect x="4" y="4" width="91" height="91" rx="45.5" stroke="#5C5554" stroke-width="8"/>
</g>
<mask id="path-3-outside-1_12_118" maskUnits="userSpaceOnUse" x="15.5966" y="8.01873" width="69.0881" height="79.8725" fill="black">
<rect fill="white" x="15.5966" y="8.01873" width="69.0881" height="79.8725"/>
<path d="M54.448 69.602C53.6408 71.6686 52.2846 72.9711 50.3794 73.5095C48.4588 74.0876 46.3459 73.9264 44.0409 73.026C41.7358 72.1256 40.144 70.748 39.2653 68.8931C38.4108 67.0936 38.3407 65.2797 39.0548 63.4516C39.8931 61.3055 41.213 59.9201 43.0144 59.2954C44.8556 58.6862 46.9287 58.8319 49.2338 59.7323C51.5388 60.6327 53.1782 62.006 54.1519 63.8521C55.1411 65.6585 55.2398 67.5752 54.448 69.602ZM60.7345 56.3232C59.1752 57.5005 57.5691 58.2702 55.916 58.6322C55.2199 58.7726 54.4599 58.8421 53.6358 58.8409C52.8516 58.8552 52.0344 58.7192 51.1842 58.4329C50.3739 58.1622 49.5384 57.7213 48.6777 57.1102C47.8723 56.475 47.0849 55.6177 46.3155 54.5385C45.7952 53.8771 45.4726 53.1785 45.3477 52.4427C45.2782 51.6826 45.3158 50.9415 45.4605 50.2193C45.6449 49.5126 45.9442 48.805 46.3584 48.0965C46.7726 47.388 47.2386 46.7226 47.7565 46.1004C48.9252 44.633 50.4307 43.1828 52.2732 41.7496C50.4804 42.4693 48.7842 42.8831 47.1846 42.9912C45.8147 43.0974 44.3868 42.8831 42.9008 42.3485C41.4546 41.8293 40.249 40.6942 39.284 38.9431C38.4053 37.0882 38.0182 35.265 38.1225 33.4735C38.1479 32.7048 38.3038 31.8953 38.5901 31.0452C38.8763 30.1951 39.325 29.3397 39.936 28.4791C40.5471 27.6184 41.3525 26.7879 42.3522 25.9874C43.4073 25.1628 44.7163 24.3915 46.2793 23.6737C48.6576 22.8621 51.1191 22.5411 53.6639 22.7106C54.7264 22.805 55.8571 23.0177 57.0562 23.3486C58.3106 23.6554 59.5547 24.1643 60.7886 24.8753C62.0777 25.5621 63.3488 26.4709 64.602 27.6017C65.9103 28.7083 67.1774 30.0965 68.4032 31.7662C69.5408 33.31 70.2155 34.9248 70.4273 36.6108C70.6788 38.3122 70.6132 40.0044 70.2307 41.6872C69.9035 43.3458 69.3421 44.9588 68.5466 46.5261C67.7512 48.0935 66.8675 49.5347 65.8957 50.8499C64.9791 52.1409 64.0374 53.2618 63.0706 54.2125C62.1435 55.1787 61.3648 55.8823 60.7345 56.3232Z"/>
</mask>
<path d="M54.448 69.602C53.6408 71.6686 52.2846 72.9711 50.3794 73.5095C48.4588 74.0876 46.3459 73.9264 44.0409 73.026C41.7358 72.1256 40.144 70.748 39.2653 68.8931C38.4108 67.0936 38.3407 65.2797 39.0548 63.4516C39.8931 61.3055 41.213 59.9201 43.0144 59.2954C44.8556 58.6862 46.9287 58.8319 49.2338 59.7323C51.5388 60.6327 53.1782 62.006 54.1519 63.8521C55.1411 65.6585 55.2398 67.5752 54.448 69.602ZM60.7345 56.3232C59.1752 57.5005 57.5691 58.2702 55.916 58.6322C55.2199 58.7726 54.4599 58.8421 53.6358 58.8409C52.8516 58.8552 52.0344 58.7192 51.1842 58.4329C50.3739 58.1622 49.5384 57.7213 48.6777 57.1102C47.8723 56.475 47.0849 55.6177 46.3155 54.5385C45.7952 53.8771 45.4726 53.1785 45.3477 52.4427C45.2782 51.6826 45.3158 50.9415 45.4605 50.2193C45.6449 49.5126 45.9442 48.805 46.3584 48.0965C46.7726 47.388 47.2386 46.7226 47.7565 46.1004C48.9252 44.633 50.4307 43.1828 52.2732 41.7496C50.4804 42.4693 48.7842 42.8831 47.1846 42.9912C45.8147 43.0974 44.3868 42.8831 42.9008 42.3485C41.4546 41.8293 40.249 40.6942 39.284 38.9431C38.4053 37.0882 38.0182 35.265 38.1225 33.4735C38.1479 32.7048 38.3038 31.8953 38.5901 31.0452C38.8763 30.1951 39.325 29.3397 39.936 28.4791C40.5471 27.6184 41.3525 26.7879 42.3522 25.9874C43.4073 25.1628 44.7163 24.3915 46.2793 23.6737C48.6576 22.8621 51.1191 22.5411 53.6639 22.7106C54.7264 22.805 55.8571 23.0177 57.0562 23.3486C58.3106 23.6554 59.5547 24.1643 60.7886 24.8753C62.0777 25.5621 63.3488 26.4709 64.602 27.6017C65.9103 28.7083 67.1774 30.0965 68.4032 31.7662C69.5408 33.31 70.2155 34.9248 70.4273 36.6108C70.6788 38.3122 70.6132 40.0044 70.2307 41.6872C69.9035 43.3458 69.3421 44.9588 68.5466 46.5261C67.7512 48.0935 66.8675 49.5347 65.8957 50.8499C64.9791 52.1409 64.0374 53.2618 63.0706 54.2125C62.1435 55.1787 61.3648 55.8823 60.7345 56.3232Z" fill="#FFFEFE"/>
<path d="M50.3794 73.5095L48.4758 66.7733L48.4187 66.7894L48.3618 66.8065L50.3794 73.5095ZM39.2653 68.8931L45.5914 65.8964L45.5887 65.8907L39.2653 68.8931ZM43.0144 59.2954L40.8156 52.6497L40.7682 52.6654L40.721 52.6818L43.0144 59.2954ZM54.1519 63.8521L47.9602 67.1177L47.9858 67.1662L48.0121 67.2143L54.1519 63.8521ZM60.7345 56.3232L56.7222 50.5872L56.6179 50.6601L56.5164 50.7368L60.7345 56.3232ZM55.916 58.6322L57.2994 65.4942L57.3566 65.4827L57.4136 65.4702L55.916 58.6322ZM53.6358 58.8409L53.6464 51.8409L53.5774 51.8408L53.5084 51.842L53.6358 58.8409ZM51.1842 58.4329L53.4182 51.7989L53.4103 51.7963L53.4024 51.7937L51.1842 58.4329ZM48.6777 57.1102L44.3426 62.6063L44.4813 62.7157L44.6254 62.818L48.6777 57.1102ZM46.3155 54.5385L52.0154 50.4751L51.9192 50.3401L51.8167 50.2099L46.3155 54.5385ZM45.3477 52.4427L38.3769 53.0805L38.4014 53.3482L38.4463 53.6133L45.3477 52.4427ZM45.4605 50.2193L38.6873 48.4516L38.6364 48.6466L38.5968 48.8442L45.4605 50.2193ZM46.3584 48.0965L52.4016 51.6292L52.4016 51.6292L46.3584 48.0965ZM47.7565 46.1004L53.1367 50.5785L53.185 50.5205L53.2321 50.4614L47.7565 46.1004ZM52.2732 41.7496L56.5711 47.2747L49.6653 35.2535L52.2732 41.7496ZM47.1846 42.9912L46.7129 36.0071L46.6782 36.0094L46.6436 36.0121L47.1846 42.9912ZM42.9008 42.3485L45.2707 35.7618L45.2658 35.7601L42.9008 42.3485ZM39.284 38.9431L32.9579 41.9398L33.0497 42.1336L33.1532 42.3215L39.284 38.9431ZM38.1225 33.4735L45.1106 33.8805L45.1157 33.7929L45.1186 33.7053L38.1225 33.4735ZM38.5901 31.0452L45.224 33.2792L38.5901 31.0452ZM39.936 28.4791L45.6438 32.5314L39.936 28.4791ZM42.3522 25.9874L38.0414 20.4723L38.0092 20.4974L37.9773 20.523L42.3522 25.9874ZM46.2793 23.6737L44.0185 17.0488L43.6814 17.1638L43.3578 17.3125L46.2793 23.6737ZM53.6639 22.7106L54.2833 15.738L54.2063 15.7312L54.1292 15.7261L53.6639 22.7106ZM57.0562 23.3486L55.1937 30.0963L55.2931 30.1238L55.3933 30.1483L57.0562 23.3486ZM60.7886 24.8753L57.2936 30.9404L57.3945 30.9985L57.4972 31.0533L60.7886 24.8753ZM64.602 27.6017L59.9124 32.7986L59.9958 32.8739L60.0816 32.9464L64.602 27.6017ZM68.4032 31.7662L62.7604 35.9086L62.7681 35.9189L68.4032 31.7662ZM70.4273 36.6108L63.4818 37.4831L63.4914 37.5588L63.5025 37.6343L70.4273 36.6108ZM70.2307 41.6872L63.4048 40.1356L63.3826 40.2336L63.3631 40.3322L70.2307 41.6872ZM68.5466 46.5261L62.3046 43.3581L62.3046 43.3581L68.5466 46.5261ZM65.8957 50.8499L60.2659 46.69L60.2264 46.7435L60.1879 46.7976L65.8957 50.8499ZM63.0706 54.2125L58.1627 49.2212L58.0901 49.2926L58.0197 49.366L63.0706 54.2125ZM47.9278 67.055C47.8277 67.3114 47.8029 67.247 47.9767 67.0801C48.0594 67.0007 48.1586 66.9262 48.2645 66.8665C48.3689 66.8076 48.4466 66.7815 48.4758 66.7733L52.283 80.2457C56.5739 79.0331 59.4735 75.9755 60.9682 72.149L47.9278 67.055ZM48.3618 66.8065C48.2638 66.836 47.784 66.9731 46.5878 66.5058L41.4939 79.5462C44.9078 80.8798 48.6537 81.3391 52.397 80.2124L48.3618 66.8065ZM46.5878 66.5058C46.0507 66.296 45.7964 66.1087 45.6989 66.0244C45.6185 65.9548 45.6038 65.9226 45.5914 65.8964L32.9392 71.8899C34.7339 75.6784 37.8882 78.1378 41.4939 79.5462L46.5878 66.5058ZM45.5887 65.8907C45.5551 65.8201 45.5497 65.7926 45.553 65.8055C45.5567 65.82 45.5645 65.8582 45.5666 65.9125C45.5687 65.967 45.5641 66.0119 45.5593 66.0388C45.5548 66.0643 45.554 66.0523 45.575 65.9985L32.5346 60.9046C31.1063 64.5609 31.2737 68.3821 32.9419 71.8955L45.5887 65.8907ZM45.575 65.9985C45.729 65.6042 45.8234 65.5455 45.7416 65.6314C45.7007 65.6743 45.6341 65.7335 45.5436 65.7918C45.4531 65.8501 45.3692 65.8878 45.3079 65.909L40.721 52.6818C36.5808 54.1175 33.9482 57.2857 32.5346 60.9046L45.575 65.9985ZM45.2132 65.9411C45.2192 65.9391 45.2327 65.9349 45.262 65.9315C45.2924 65.9279 45.3556 65.9232 45.4597 65.9305C45.6719 65.9455 46.0708 66.0118 46.6868 66.2525L51.7807 53.2121C48.3848 51.8855 44.5915 51.4004 40.8156 52.6497L45.2132 65.9411ZM46.6868 66.2525C47.7312 66.6605 47.9117 67.0257 47.9602 67.1177L60.3435 60.5866C58.4446 56.9863 55.3464 54.6049 51.7807 53.2121L46.6868 66.2525ZM48.0121 67.2143C48.0313 67.2493 48.0222 67.2405 48.0078 67.191C47.9928 67.1399 47.9807 67.0743 47.9771 67.0045C47.9754 66.9718 47.9759 66.9442 47.9773 66.9232C47.9779 66.9129 47.9787 66.9049 47.9794 66.8993C47.9801 66.8937 47.9806 66.8909 47.9805 66.891C47.9805 66.891 47.98 66.8943 47.9785 66.9008C47.977 66.9073 47.9745 66.9172 47.9707 66.9306C47.963 66.9575 47.9498 66.9988 47.9278 67.055L60.9682 72.149C62.4647 68.318 62.3381 64.2272 60.2916 60.49L48.0121 67.2143ZM56.5164 50.7368C55.639 51.3993 54.9436 51.6793 54.4185 51.7943L57.4136 65.4702C60.1945 64.8611 62.7115 63.6018 64.9526 61.9095L56.5164 50.7368ZM54.5327 51.7703C54.3615 51.8048 54.075 51.8415 53.6464 51.8409L53.6253 65.8409C54.8448 65.8427 56.0783 65.7404 57.2994 65.4942L54.5327 51.7703ZM53.5084 51.842C53.5669 51.841 53.5942 51.8463 53.5838 51.8446C53.5723 51.8426 53.5183 51.8326 53.4182 51.7989L48.9503 65.0669C50.4532 65.573 52.0706 65.8705 53.7633 65.8397L53.5084 51.842ZM53.4024 51.7937C53.3786 51.7857 53.1552 51.7043 52.73 51.4024L44.6254 62.818C45.9216 63.7382 47.3692 64.5386 48.9661 65.0722L53.4024 51.7937ZM53.0127 51.6141C52.8539 51.4888 52.5059 51.1631 52.0154 50.4751L40.6156 58.6018C41.6639 60.0723 42.8907 61.4611 44.3426 62.6063L53.0127 51.6141ZM51.8167 50.2099C51.926 50.3487 52.1546 50.7143 52.2492 51.2721L38.4463 53.6133C38.7906 55.6428 39.6643 57.4055 40.8143 58.8671L51.8167 50.2099ZM52.3186 51.8049C52.3084 51.6929 52.3168 51.6305 52.3241 51.5944L38.5968 48.8442C38.3147 50.2524 38.248 51.6724 38.3769 53.0805L52.3186 51.8049ZM52.2336 51.987C52.2379 51.9703 52.2709 51.8527 52.4016 51.6292L40.3152 44.5638C39.6175 45.7574 39.0518 47.055 38.6873 48.4516L52.2336 51.987ZM52.4016 51.6292C52.6239 51.249 52.8688 50.9003 53.1367 50.5785L42.3763 41.6223C41.6084 42.5449 40.9213 43.527 40.3152 44.5638L52.4016 51.6292ZM53.2321 50.4614C53.9839 49.5175 55.0645 48.4467 56.5711 47.2747L47.9752 36.2244C45.797 37.9188 43.8665 39.7486 42.281 41.7394L53.2321 50.4614ZM49.6653 35.2535C48.4194 35.7537 47.4469 35.9575 46.7129 36.0071L47.6563 49.9753C50.1216 49.8088 52.5414 49.1849 54.881 48.2456L49.6653 35.2535ZM46.6436 36.0121C46.3979 36.0312 45.9637 36.0112 45.2707 35.7618L40.5309 48.9351C42.8099 49.7551 45.2316 50.1636 47.7256 49.9703L46.6436 36.0121ZM45.2658 35.7601C45.3806 35.8013 45.4826 35.8523 45.5662 35.9045C45.6486 35.9559 45.6959 35.9976 45.7105 36.0113C45.7354 36.0347 45.6159 35.9296 45.4148 35.5646L33.1532 42.3215C34.6874 45.1055 37.0519 47.6863 40.5359 48.9369L45.2658 35.7601ZM45.6101 35.9463C45.161 34.9983 45.0838 34.3406 45.1106 33.8805L31.1343 33.0666C30.9525 36.1895 31.6496 39.1781 32.9579 41.9398L45.6101 35.9463ZM45.1186 33.7053C45.1181 33.7202 45.1201 33.5877 45.224 33.2792L31.9561 28.8113C31.4875 30.203 31.1777 31.6894 31.1263 33.2418L45.1186 33.7053ZM45.224 33.2792C45.2575 33.1798 45.3607 32.9301 45.6438 32.5314L34.2283 24.4268C33.2893 25.7493 32.4952 27.2105 31.9561 28.8113L45.224 33.2792ZM45.6438 32.5314C45.8082 32.2998 46.131 31.9291 46.7272 31.4519L37.9773 20.523C36.5739 21.6466 35.2859 22.937 34.2283 24.4268L45.6438 32.5314ZM46.6631 31.5026C47.1883 31.092 48.0001 30.5863 49.2008 30.0349L43.3578 17.3125C41.4325 18.1967 39.6262 19.2336 38.0414 20.4723L46.6631 31.5026ZM48.54 30.2986C50.0291 29.7904 51.5632 29.5862 53.1986 29.6951L54.1292 15.7261C50.675 15.496 47.2861 15.9338 44.0185 17.0488L48.54 30.2986ZM53.0444 29.6831C53.6242 29.7346 54.3362 29.8596 55.1937 30.0963L58.9188 16.601C57.3781 16.1757 55.8285 15.8753 54.2833 15.738L53.0444 29.6831ZM55.3933 30.1483C55.9432 30.2827 56.5744 30.5259 57.2936 30.9404L64.2836 18.8102C62.535 17.8026 60.678 17.0281 58.7191 16.549L55.3933 30.1483ZM57.4972 31.0533C58.211 31.4335 59.0194 31.9928 59.9124 32.7986L69.2916 22.4048C67.6783 20.949 65.9444 19.6907 64.0799 18.6974L57.4972 31.0533ZM60.0816 32.9464C60.8934 33.6331 61.7951 34.5936 62.7605 35.9086L74.046 27.6239C72.5598 25.5993 70.9273 23.7835 69.1223 22.2569L60.0816 32.9464ZM62.7681 35.9189C63.2885 36.6252 63.4376 37.1308 63.4818 37.4831L77.3727 35.7384C76.9935 32.7189 75.7932 29.9948 74.0384 27.6136L62.7681 35.9189ZM63.5025 37.6343C63.6269 38.4757 63.596 39.2947 63.4048 40.1356L77.0566 43.2388C77.6305 40.714 77.7307 38.1488 77.352 35.5872L63.5025 37.6343ZM63.3631 40.3322C63.1651 41.336 62.8209 42.3407 62.3046 43.3581L74.7887 49.6942C75.8633 47.5769 76.6419 45.3556 77.0983 43.0422L63.3631 40.3322ZM62.3046 43.3581C61.6722 44.604 60.9899 45.7101 60.2659 46.69L71.5255 55.0099C72.7451 53.3593 73.8301 51.583 74.7887 49.6942L62.3046 43.3581ZM60.1879 46.7976C59.4713 47.807 58.7919 48.6026 58.1627 49.2212L67.9785 59.2037C69.283 57.921 70.487 56.4749 71.6035 54.9022L60.1879 46.7976ZM58.0197 49.366C57.6416 49.76 57.3362 50.0561 57.0984 50.2708C56.9811 50.3768 56.8893 50.4549 56.8217 50.5098C56.7532 50.5654 56.7207 50.5882 56.7222 50.5872L64.7468 62.0591C65.9278 61.2331 67.0735 60.1512 68.1215 59.059L58.0197 49.366Z" fill="#5C5554" mask="url(#path-3-outside-1_12_118)"/>
<defs>
<filter id="filter0_d_12_118" x="0" y="0" width="111" height="111" filterUnits="userSpaceOnUse" color-interpolation-filters="sRGB">
<feFlood flood-opacity="0" result="BackgroundImageFix"/>
<feColorMatrix in="SourceAlpha" type="matrix" values="0 0 0 0 0 0 0 0 0 0 0 0 0 0 0 0 0 0 127 0" result="hardAlpha"/>
<feOffset dx="12" dy="12"/>
<feComposite in2="hardAlpha" operator="out"/>
<feColorMatrix type="matrix" values="0 0 0 0 0.360563 0 0 0 0 0.334621 0 0 0 0 0.330393 0 0 0 1 0"/>
<feBlend mode="normal" in2="BackgroundImageFix" result="effect1_dropShadow_12_118"/>
<feBlend mode="normal" in="SourceGraphic" in2="effect1_dropShadow_12_118" result="shape"/>
</filter>
</defs>
</svg>
